<svg width="16" height="16" viewBox="0 0 16 16" fill="none" xmlns="http://www.w3.org/2000/svg">
<path d="M14.8 1.4421C14.4252 1.12872 13.986 0.901697 13.5136 0.777147C13.0413 0.652596 12.5472 0.633576 12.0667 0.721437L9.51866 1.1841C8.9304 1.29213 8.39552 1.59479 8 2.04344C7.60344 1.59401 7.06704 1.29129 6.47733 1.1841L3.93333 0.721437C3.45277 0.633499 2.95875 0.65227 2.48625 0.776421C2.01375 0.900571 1.57431 1.12707 1.19904 1.43987C0.823777 1.75268 0.521857 2.14415 0.314655 2.58658C0.107452 3.029 3.25416e-05 3.51156 0 4.00011L0 11.1954C3.83039e-05 11.976 0.273984 12.7317 0.774089 13.331C1.27419 13.9303 1.96874 14.3351 2.73667 14.4748L6.92733 15.2368C7.63663 15.3657 8.36336 15.3657 9.07266 15.2368L13.2667 14.4748C14.034 14.3344 14.7277 13.9293 15.2272 13.3301C15.7266 12.7309 16.0001 11.9755 16 11.1954V4.00011C16.0003 3.51173 15.8929 3.0293 15.6855 2.58717C15.4781 2.14503 15.1757 1.75406 14.8 1.4421V1.4421ZM7.33333 13.9521C7.27733 13.9441 7.22133 13.9348 7.16533 13.9248L2.97533 13.1634C2.51451 13.0796 2.09773 12.8367 1.79766 12.477C1.49759 12.1174 1.33326 11.6638 1.33333 11.1954V4.00011C1.33333 3.46967 1.54405 2.96096 1.91912 2.58589C2.29419 2.21082 2.8029 2.0001 3.33333 2.0001C3.45406 2.00039 3.57453 2.01132 3.69333 2.03277L6.24 2.49944C6.54641 2.55551 6.82351 2.71709 7.02323 2.95613C7.22294 3.19518 7.33266 3.49661 7.33333 3.80811V13.9521ZM14.6667 11.1954C14.6667 11.6638 14.5024 12.1174 14.2023 12.477C13.9023 12.8367 13.4855 13.0796 13.0247 13.1634L8.83466 13.9248C8.77866 13.9348 8.72266 13.9441 8.66666 13.9521V3.80811C8.66662 3.49585 8.77617 3.19347 8.97621 2.95371C9.17626 2.71395 9.45411 2.552 9.76133 2.4961L12.3087 2.02944C12.5971 1.97695 12.8936 1.98854 13.1771 2.06338C13.4606 2.13822 13.7242 2.27448 13.9492 2.46251C14.1742 2.65054 14.3551 2.88574 14.4791 3.15145C14.6031 3.41717 14.6671 3.70689 14.6667 4.00011V11.1954Z" fill="white"/>
</svg>
