<svg width="779" height="782" viewBox="0 0 779 782" fill="none" xmlns="http://www.w3.org/2000/svg">
<path style="mix-blend-mode:screen" d="M289.27 502.549H195.838V664.104H289.27V502.549Z" fill="url(#paint0_linear_879_6322)"/>
<path style="mix-blend-mode:screen" opacity="0.2" d="M195.838 502.549H102.406V664.105H195.838V502.549Z" fill="url(#paint1_linear_879_6322)"/>
<path style="mix-blend-mode:multiply" d="M195.838 502.18H0V549.284H195.838V502.18Z" fill="url(#paint2_linear_879_6322)"/>
<path style="mix-blend-mode:screen" d="M407.092 561.484H313.66V723.04H407.092V561.484Z" fill="url(#paint3_linear_879_6322)"/>
<path style="mix-blend-mode:screen" opacity="0.2" d="M313.66 561.484H220.229V723.04H313.66V561.484Z" fill="url(#paint4_linear_879_6322)"/>
<path style="mix-blend-mode:multiply" d="M313.66 561.115H117.822V608.219H313.66V561.115Z" fill="url(#paint5_linear_879_6322)"/>
<path style="mix-blend-mode:screen" d="M651.785 556.934H558.354V718.489H651.785V556.934Z" fill="url(#paint6_linear_879_6322)"/>
<path style="mix-blend-mode:screen" opacity="0.2" d="M558.354 556.934H464.922V718.489H558.354V556.934Z" fill="url(#paint7_linear_879_6322)"/>
<path style="mix-blend-mode:multiply" d="M558.354 556.565H362.516V603.669H558.354V556.565Z" fill="url(#paint8_linear_879_6322)"/>
<path style="mix-blend-mode:screen" d="M778.68 493.448H685.248V655.003H778.68V493.448Z" fill="url(#paint9_linear_879_6322)"/>
<path style="mix-blend-mode:screen" opacity="0.2" d="M685.248 493.448H591.816V655.003H685.248V493.448Z" fill="url(#paint10_linear_879_6322)"/>
<path style="mix-blend-mode:multiply" d="M685.248 493.104H489.41V540.207H685.248V493.104Z" fill="url(#paint11_linear_879_6322)"/>
<path style="mix-blend-mode:screen" d="M524.891 620.42H431.459V781.976H524.891V620.42Z" fill="url(#paint12_linear_879_6322)"/>
<path style="mix-blend-mode:screen" opacity="0.2" d="M431.485 620.42H338.053V781.976H431.485V620.42Z" fill="url(#paint13_linear_879_6322)"/>
<path style="mix-blend-mode:multiply" d="M431.459 620.051H235.621V667.155H431.459V620.051Z" fill="url(#paint14_linear_879_6322)"/>
<path d="M543.036 282.108L449.629 328.843L356.197 282.108L449.629 235.373L543.036 282.108Z" fill="url(#paint15_linear_879_6322)"/>
<path d="M543.036 375.577L449.629 422.313V328.842L543.036 282.107V375.577Z" fill="url(#paint16_linear_879_6322)"/>
<path d="M449.629 422.313L356.197 375.577V282.107L449.629 328.842V422.313Z" fill="url(#paint17_linear_879_6322)"/>
<path d="M543.036 164.335L449.629 211.07L356.197 164.335L449.629 117.6L543.036 164.335Z" fill="url(#paint18_linear_879_6322)"/>
<path d="M543.036 257.805L449.629 304.54V211.07L543.036 164.335V257.805Z" fill="url(#paint19_linear_879_6322)"/>
<path d="M449.629 304.54L356.197 257.805V164.335L449.629 211.07V304.54Z" fill="url(#paint20_linear_879_6322)"/>
<path d="M543.036 46.735L449.629 93.4946L356.197 46.735L449.629 0L543.036 46.735Z" fill="url(#paint21_linear_879_6322)"/>
<path d="M543.036 140.205L449.629 186.94V93.4945L543.036 46.7349V140.205Z" fill="url(#paint22_linear_879_6322)"/>
<path d="M449.629 186.94L356.197 140.205V46.7349L449.629 93.4945V186.94Z" fill="url(#paint23_linear_879_6322)"/>
<path d="M416.165 345.593L322.733 392.328L229.301 345.593L322.733 298.858L416.165 345.593Z" fill="url(#paint24_linear_879_6322)"/>
<path d="M416.164 439.064L322.732 485.799V392.329L416.164 345.594V439.064Z" fill="url(#paint25_linear_879_6322)"/>
<path d="M322.733 485.798L229.301 439.063V345.593L322.733 392.328V485.798Z" fill="url(#paint26_linear_879_6322)"/>
<path d="M416.165 227.821L322.733 274.556L229.301 227.821L322.733 181.086L416.165 227.821Z" fill="url(#paint27_linear_879_6322)"/>
<path d="M416.164 321.291L322.732 368.026V274.556L416.164 227.821V321.291Z" fill="url(#paint28_linear_879_6322)"/>
<path d="M322.733 368.026L229.301 321.291V227.821L322.733 274.556V368.026Z" fill="url(#paint29_linear_879_6322)"/>
<path d="M416.165 110.221L322.733 156.956L229.301 110.221L322.733 63.4858L416.165 110.221Z" fill="url(#paint30_linear_879_6322)"/>
<path d="M416.164 203.691L322.732 250.426V156.956L416.164 110.221V203.691Z" fill="url(#paint31_linear_879_6322)"/>
<path d="M322.733 250.426L229.301 203.691V110.221L322.733 156.956V250.426Z" fill="url(#paint32_linear_879_6322)"/>
<path d="M289.27 409.079L195.838 455.814L102.406 409.079L195.838 362.344L289.27 409.079Z" fill="url(#paint33_linear_879_6322)"/>
<path d="M289.27 502.549L195.838 549.284V455.814L289.27 409.079V502.549Z" fill="url(#paint34_linear_879_6322)"/>
<path d="M195.838 549.284L102.406 502.549V409.079L195.838 455.814V549.284Z" fill="url(#paint35_linear_879_6322)"/>
<path d="M195.838 549.284L102.406 502.549L195.838 455.814V549.284Z" fill="url(#paint36_linear_879_6322)"/>
<path d="M289.27 291.307L195.838 338.042L102.406 291.307L195.838 244.572L289.27 291.307Z" fill="url(#paint37_linear_879_6322)"/>
<path d="M289.27 384.777L195.838 431.512V338.042L289.27 291.307V384.777Z" fill="url(#paint38_linear_879_6322)"/>
<path d="M195.838 431.512L102.406 384.777V291.307L195.838 338.042V431.512Z" fill="url(#paint39_linear_879_6322)"/>
<path d="M289.27 173.707L195.838 220.442L102.406 173.707L195.838 126.972L289.27 173.707Z" fill="url(#paint40_linear_879_6322)"/>
<path d="M289.27 267.177L195.838 313.912V220.442L289.27 173.707V267.177Z" fill="url(#paint41_linear_879_6322)"/>
<path d="M195.838 313.912L102.406 267.177V173.707L195.838 220.442V313.912Z" fill="url(#paint42_linear_879_6322)"/>
<path d="M195.838 313.912L102.406 267.177L195.838 220.442V313.912Z" fill="url(#paint43_linear_879_6322)"/>
<path d="M660.858 341.043L567.426 387.803L473.994 341.043L567.426 294.308L660.858 341.043Z" fill="url(#paint44_linear_879_6322)"/>
<path d="M660.858 434.513L567.426 481.248V387.803L660.858 341.043V434.513Z" fill="url(#paint45_linear_879_6322)"/>
<path d="M567.426 481.248L473.994 434.513V341.043L567.426 387.803V481.248Z" fill="url(#paint46_linear_879_6322)"/>
<path d="M660.858 223.295L567.426 270.03L473.994 223.295L567.426 176.536L660.858 223.295Z" fill="url(#paint47_linear_879_6322)"/>
<path d="M660.858 316.741L567.426 363.5V270.03L660.858 223.295V316.741Z" fill="url(#paint48_linear_879_6322)"/>
<path d="M567.426 363.5L473.994 316.741V223.295L567.426 270.03V363.5Z" fill="url(#paint49_linear_879_6322)"/>
<path d="M660.858 105.695L567.426 152.43L473.994 105.695L567.426 58.9355L660.858 105.695Z" fill="url(#paint50_linear_879_6322)"/>
<path d="M660.858 199.141L567.426 245.9V152.43L660.858 105.695V199.141Z" fill="url(#paint51_linear_879_6322)"/>
<path d="M567.426 245.9L473.994 199.141V105.695L567.426 152.43V245.9Z" fill="url(#paint52_linear_879_6322)"/>
<path d="M533.964 404.528L440.532 451.288L347.125 404.528L440.532 357.793L533.964 404.528Z" fill="url(#paint53_linear_879_6322)"/>
<path d="M533.965 497.998L440.533 544.733V451.288L533.965 404.528V497.998Z" fill="url(#paint54_linear_879_6322)"/>
<path d="M440.532 544.733L347.125 497.998V404.528L440.532 451.288V544.733Z" fill="url(#paint55_linear_879_6322)"/>
<path d="M533.964 286.756L440.532 333.516L347.125 286.756L440.532 240.021L533.964 286.756Z" fill="url(#paint56_linear_879_6322)"/>
<path d="M533.965 380.226L440.533 426.961V333.515L533.965 286.756V380.226Z" fill="url(#paint57_linear_879_6322)"/>
<path d="M440.532 426.961L347.125 380.226V286.756L440.532 333.515V426.961Z" fill="url(#paint58_linear_879_6322)"/>
<path d="M458.629 206.938L440.754 215.891L422.879 206.938L440.754 198.009L458.629 206.938Z" fill="#F5C25B"/>
<path d="M458.629 224.844L440.754 233.773V215.891L458.629 206.938V224.844Z" fill="#F5E48C"/>
<path d="M440.754 233.773L422.879 224.844V206.938L440.754 215.891V233.773Z" fill="url(#paint59_linear_879_6322)"/>
<path d="M433.377 219.58L415.502 228.534L397.627 219.58L415.502 210.627L433.377 219.58Z" fill="#F5C25B"/>
<path d="M433.377 237.463L415.502 246.416V228.534L433.377 219.581V237.463Z" fill="#F5E48C"/>
<path d="M415.502 246.416L397.627 237.463V219.581L415.502 228.534V246.416Z" fill="url(#paint60_linear_879_6322)"/>
<path d="M408.127 232.224L390.252 241.153L372.377 232.224L390.252 223.271L408.127 232.224Z" fill="#F5C25B"/>
<path d="M408.127 250.106L390.252 259.06V241.153L408.127 232.224V250.106Z" fill="#F5E48C"/>
<path d="M390.252 259.06L372.377 250.106V232.224L390.252 241.153V259.06Z" fill="url(#paint61_linear_879_6322)"/>
<path d="M382.875 244.842L365 253.796L347.125 244.842L365 235.914L382.875 244.842Z" fill="#F5C25B"/>
<path d="M382.875 262.725L365 271.678V253.796L382.875 244.842V262.725Z" fill="#F5E48C"/>
<path d="M365 271.678L347.125 262.725V244.842L365 253.796V271.678Z" fill="url(#paint62_linear_879_6322)"/>
<path d="M458.629 181.799L440.754 190.728L422.879 181.799L440.754 172.846L458.629 181.799Z" fill="#F5C25B"/>
<path d="M458.629 199.682L440.754 208.635V190.728L458.629 181.799V199.682Z" fill="#F5E48C"/>
<path d="M440.754 208.635L422.879 199.682V181.799L440.754 190.728V208.635Z" fill="url(#paint63_linear_879_6322)"/>
<path d="M433.377 194.418L415.502 203.371L397.627 194.418L415.502 185.489L433.377 194.418Z" fill="#F5C25B"/>
<path d="M433.377 212.3L415.502 221.253V203.371L433.377 194.417V212.3Z" fill="#F5E48C"/>
<path d="M415.502 221.253L397.627 212.3V194.417L415.502 203.371V221.253Z" fill="url(#paint64_linear_879_6322)"/>
<path d="M408.127 207.061L390.252 216.014L372.377 207.061L390.252 198.107L408.127 207.061Z" fill="#F5C25B"/>
<path d="M408.127 224.943L390.252 233.897V216.014L408.127 207.061V224.943Z" fill="#F5E48C"/>
<path d="M390.252 233.897L372.377 224.943V207.061L390.252 216.014V233.897Z" fill="url(#paint65_linear_879_6322)"/>
<path d="M382.875 219.704L365 228.633L347.125 219.704L365 210.75L382.875 219.704Z" fill="#F5C25B"/>
<path d="M382.875 237.586L365 246.515V228.633L382.875 219.704V237.586Z" fill="#F5E48C"/>
<path d="M365 246.515L347.125 237.586V219.704L365 228.633V246.515Z" fill="url(#paint66_linear_879_6322)"/>
<path d="M458.629 156.636L440.754 165.59L422.879 156.636L440.754 147.683L458.629 156.636Z" fill="#F5C25B"/>
<path d="M458.629 174.519L440.754 183.472V165.59L458.629 156.636V174.519Z" fill="#F5E48C"/>
<path d="M440.754 183.472L422.879 174.519V156.636L440.754 165.59V183.472Z" fill="url(#paint67_linear_879_6322)"/>
<path d="M433.377 169.279L415.502 178.208L397.627 169.279L415.502 160.326L433.377 169.279Z" fill="#F5C25B"/>
<path d="M433.377 187.162L415.502 196.09V178.208L433.377 169.279V187.162Z" fill="#F5E48C"/>
<path d="M415.502 196.09L397.627 187.162V169.279L415.502 178.208V196.09Z" fill="url(#paint68_linear_879_6322)"/>
<path d="M408.127 181.898L390.252 190.851L372.377 181.898L390.252 172.944L408.127 181.898Z" fill="#F5C25B"/>
<path d="M408.127 199.78L390.252 208.734V190.851L408.127 181.898V199.78Z" fill="#F5E48C"/>
<path d="M390.252 208.734L372.377 199.78V181.898L390.252 190.851V208.734Z" fill="url(#paint69_linear_879_6322)"/>
<path d="M382.875 194.541L365 203.47L347.125 194.541L365 185.587L382.875 194.541Z" fill="#F5C25B"/>
<path d="M382.875 212.423L365 221.377V203.47L382.875 194.541V212.423Z" fill="#F5E48C"/>
<path d="M365 221.377L347.125 212.423V194.541L365 203.47V221.377Z" fill="url(#paint70_linear_879_6322)"/>
<path d="M458.629 131.473L440.754 140.426L422.879 131.473L440.754 122.52L458.629 131.473Z" fill="#F5C25B"/>
<path d="M458.629 149.355L440.754 158.309V140.427L458.629 131.473V149.355Z" fill="#F5E48C"/>
<path d="M440.754 158.309L422.879 149.355V131.473L440.754 140.427V158.309Z" fill="url(#paint71_linear_879_6322)"/>
<path d="M433.377 144.116L415.502 153.045L397.627 144.116L415.502 135.163L433.377 144.116Z" fill="#F5C25B"/>
<path d="M433.377 161.999L415.502 170.952V153.045L433.377 144.116V161.999Z" fill="#F5E48C"/>
<path d="M415.502 170.952L397.627 161.999V144.116L415.502 153.045V170.952Z" fill="url(#paint72_linear_879_6322)"/>
<path d="M408.127 156.735L390.252 165.688L372.377 156.735L390.252 147.806L408.127 156.735Z" fill="#F5C25B"/>
<path d="M408.127 174.641L390.252 183.57V165.688L408.127 156.734V174.641Z" fill="#F5E48C"/>
<path d="M390.252 183.57L372.377 174.641V156.734L390.252 165.688V183.57Z" fill="url(#paint73_linear_879_6322)"/>
<path d="M382.875 169.378L365 178.331L347.125 169.378L365 160.424L382.875 169.378Z" fill="#F5C25B"/>
<path d="M382.875 187.26L365 196.214V178.331L382.875 169.378V187.26Z" fill="#F5E48C"/>
<path d="M365 196.214L347.125 187.26V169.378L365 178.331V196.214Z" fill="url(#paint74_linear_879_6322)"/>
<path d="M483.732 219.483L465.857 228.412L447.982 219.483L465.857 210.529L483.732 219.483Z" fill="#F5C25B"/>
<path d="M483.732 237.365L465.857 246.319V228.412L483.732 219.483V237.365Z" fill="#F5E48C"/>
<path d="M465.857 246.319L447.982 237.365V219.483L465.857 228.412V246.319Z" fill="url(#paint75_linear_879_6322)"/>
<path d="M458.48 232.101L440.605 241.055L422.73 232.101L440.605 223.172L458.48 232.101Z" fill="#F5C25B"/>
<path d="M458.48 250.008L440.605 258.937V241.055L458.48 232.101V250.008Z" fill="#F5E48C"/>
<path d="M440.605 258.937L422.73 250.008V232.101L440.605 241.055V258.937Z" fill="url(#paint76_linear_879_6322)"/>
<path d="M433.23 244.744L415.355 253.698L397.48 244.744L415.355 235.791L433.23 244.744Z" fill="#F5C25B"/>
<path d="M433.23 262.627L415.355 271.58V253.698L433.23 244.745V262.627Z" fill="#F5E48C"/>
<path d="M415.355 271.58L397.48 262.627V244.745L415.355 253.698V271.58Z" fill="url(#paint77_linear_879_6322)"/>
<path d="M407.979 257.388L390.103 266.316L372.229 257.388L390.103 248.434L407.979 257.388Z" fill="#F5C25B"/>
<path d="M407.979 275.27L390.104 284.223V266.317L407.979 257.388V275.27Z" fill="#F5E48C"/>
<path d="M390.103 284.223L372.229 275.27V257.388L390.103 266.317V284.223Z" fill="url(#paint78_linear_879_6322)"/>
<path d="M483.732 194.32L465.857 203.273L447.982 194.32L465.857 185.366L483.732 194.32Z" fill="#F5C25B"/>
<path d="M483.732 212.202L465.857 221.156V203.273L483.732 194.32V212.202Z" fill="#F5E48C"/>
<path d="M465.857 221.156L447.982 212.202V194.32L465.857 203.273V221.156Z" fill="url(#paint79_linear_879_6322)"/>
<path d="M458.48 206.963L440.605 215.892L422.73 206.963L440.605 198.009L458.48 206.963Z" fill="#F5C25B"/>
<path d="M458.48 224.845L440.605 233.799V215.892L458.48 206.963V224.845Z" fill="#F5E48C"/>
<path d="M440.605 233.799L422.73 224.845V206.963L440.605 215.892V233.799Z" fill="url(#paint80_linear_879_6322)"/>
<path d="M433.23 219.581L415.355 228.535L397.48 219.581L415.355 210.652L433.23 219.581Z" fill="#F5C25B"/>
<path d="M433.23 237.463L415.355 246.417V228.535L433.23 219.581V237.463Z" fill="#F5E48C"/>
<path d="M415.355 246.417L397.48 237.463V219.581L415.355 228.535V246.417Z" fill="url(#paint81_linear_879_6322)"/>
<path d="M407.979 232.224L390.103 241.178L372.229 232.224L390.103 223.271L407.979 232.224Z" fill="#F5C25B"/>
<path d="M407.979 250.107L390.104 259.06V241.178L407.979 232.225V250.107Z" fill="#F5E48C"/>
<path d="M390.103 259.06L372.229 250.107V232.225L390.103 241.178V259.06Z" fill="url(#paint82_linear_879_6322)"/>
<path d="M483.732 169.156L465.857 178.11L447.982 169.156L465.857 160.228L483.732 169.156Z" fill="#F5C25B"/>
<path d="M483.732 187.039L465.857 195.992V178.11L483.732 169.156V187.039Z" fill="#F5E48C"/>
<path d="M465.857 195.992L447.982 187.039V169.156L465.857 178.11V195.992Z" fill="url(#paint83_linear_879_6322)"/>
<path d="M458.48 181.799L440.605 190.753L422.73 181.799L440.605 172.846L458.48 181.799Z" fill="#F5C25B"/>
<path d="M458.48 199.682L440.605 208.635V190.753L458.48 181.799V199.682Z" fill="#F5E48C"/>
<path d="M440.605 208.635L422.73 199.682V181.799L440.605 190.753V208.635Z" fill="url(#paint84_linear_879_6322)"/>
<path d="M433.23 194.443L415.355 203.372L397.48 194.443L415.355 185.489L433.23 194.443Z" fill="#F5C25B"/>
<path d="M433.23 212.325L415.355 221.254V203.372L433.23 194.443V212.325Z" fill="#F5E48C"/>
<path d="M415.355 221.254L397.48 212.325V194.443L415.355 203.372V221.254Z" fill="url(#paint85_linear_879_6322)"/>
<path d="M407.979 207.061L390.103 216.014L372.229 207.061L390.103 198.107L407.979 207.061Z" fill="#F5C25B"/>
<path d="M407.979 224.943L390.104 233.897V216.014L407.979 207.061V224.943Z" fill="#F5E48C"/>
<path d="M390.103 233.897L372.229 224.943V207.061L390.103 216.014V233.897Z" fill="url(#paint86_linear_879_6322)"/>
<path d="M483.732 144.018L465.857 152.947L447.982 144.018L465.857 135.064L483.732 144.018Z" fill="#F5C25B"/>
<path d="M483.732 161.9L465.857 170.829V152.947L483.732 144.018V161.9Z" fill="#F5E48C"/>
<path d="M465.857 170.829L447.982 161.9V144.018L465.857 152.947V170.829Z" fill="url(#paint87_linear_879_6322)"/>
<path d="M458.48 156.636L440.605 165.59L422.73 156.636L440.605 147.683L458.48 156.636Z" fill="#F5C25B"/>
<path d="M458.48 174.519L440.605 183.472V165.59L458.48 156.636V174.519Z" fill="#F5E48C"/>
<path d="M440.605 183.472L422.73 174.519V156.636L440.605 165.59V183.472Z" fill="url(#paint88_linear_879_6322)"/>
<path d="M433.23 169.28L415.355 178.208L397.48 169.28L415.355 160.326L433.23 169.28Z" fill="#F5C25B"/>
<path d="M433.23 187.162L415.355 196.116V178.209L433.23 169.28V187.162Z" fill="#F5E48C"/>
<path d="M415.355 196.116L397.48 187.162V169.28L415.355 178.209V196.116Z" fill="url(#paint89_linear_879_6322)"/>
<path d="M407.979 181.898L390.103 190.852L372.229 181.898L390.103 172.969L407.979 181.898Z" fill="#F5C25B"/>
<path d="M407.979 199.805L390.104 208.734V190.851L407.979 181.898V199.805Z" fill="#F5E48C"/>
<path d="M390.103 208.734L372.229 199.805V181.898L390.103 190.851V208.734Z" fill="url(#paint90_linear_879_6322)"/>
<path d="M508.861 232.002L490.986 240.956L473.086 232.002L490.986 223.073L508.861 232.002Z" fill="#F5C25B"/>
<path d="M508.861 249.884L490.986 258.838V240.955L508.861 232.002V249.884Z" fill="#F5E48C"/>
<path d="M490.986 258.838L473.086 249.884V232.002L490.986 240.955V258.838Z" fill="url(#paint91_linear_879_6322)"/>
<path d="M483.609 244.645L465.734 253.574L447.834 244.645L465.734 235.691L483.609 244.645Z" fill="#F5C25B"/>
<path d="M483.609 262.527L465.734 271.481V253.574L483.609 244.645V262.527Z" fill="#F5E48C"/>
<path d="M465.734 271.481L447.834 262.527V244.645L465.734 253.574V271.481Z" fill="url(#paint92_linear_879_6322)"/>
<path d="M458.359 257.264L440.484 266.217L422.584 257.264L440.484 248.335L458.359 257.264Z" fill="#F5C25B"/>
<path d="M458.359 275.171L440.484 284.099V266.217L458.359 257.264V275.171Z" fill="#F5E48C"/>
<path d="M440.484 284.099L422.584 275.171V257.264L440.484 266.217V284.099Z" fill="url(#paint93_linear_879_6322)"/>
<path d="M433.107 269.907L415.232 278.86L397.332 269.907L415.232 260.953L433.107 269.907Z" fill="#F5C25B"/>
<path d="M433.107 287.789L415.232 296.742V278.86L433.107 269.907V287.789Z" fill="#F5E48C"/>
<path d="M415.232 296.742L397.332 287.789V269.907L415.232 278.86V296.742Z" fill="url(#paint94_linear_879_6322)"/>
<path d="M508.861 206.839L490.986 215.792L473.086 206.839L490.986 197.91L508.861 206.839Z" fill="#F5C25B"/>
<path d="M508.861 224.746L490.986 233.675V215.792L508.861 206.839V224.746Z" fill="#F5E48C"/>
<path d="M490.986 233.675L473.086 224.746V206.839L490.986 215.792V233.675Z" fill="url(#paint95_linear_879_6322)"/>
<path d="M483.609 219.482L465.734 228.435L447.834 219.482L465.734 210.528L483.609 219.482Z" fill="#F5C25B"/>
<path d="M483.609 237.364L465.734 246.318V228.435L483.609 219.482V237.364Z" fill="#F5E48C"/>
<path d="M465.734 246.318L447.834 237.364V219.482L465.734 228.435V246.318Z" fill="url(#paint96_linear_879_6322)"/>
<path d="M458.359 232.125L440.484 241.054L422.584 232.125L440.484 223.172L458.359 232.125Z" fill="#F5C25B"/>
<path d="M458.359 250.007L440.484 258.936V241.054L458.359 232.125V250.007Z" fill="#F5E48C"/>
<path d="M440.484 258.937L422.584 250.008V232.125L440.484 241.054V258.937Z" fill="url(#paint97_linear_879_6322)"/>
<path d="M433.107 244.744L415.232 253.697L397.332 244.744L415.232 235.815L433.107 244.744Z" fill="#F5C25B"/>
<path d="M433.107 262.626L415.232 271.579V253.697L433.107 244.744V262.626Z" fill="#F5E48C"/>
<path d="M415.232 271.579L397.332 262.626V244.744L415.232 253.697V271.579Z" fill="url(#paint98_linear_879_6322)"/>
<path d="M508.861 181.701L490.986 190.629L473.086 181.701L490.986 172.747L508.861 181.701Z" fill="#F5C25B"/>
<path d="M508.861 199.583L490.986 208.536V190.63L508.861 181.701V199.583Z" fill="#F5E48C"/>
<path d="M490.986 208.536L473.086 199.583V181.701L490.986 190.63V208.536Z" fill="url(#paint99_linear_879_6322)"/>
<path d="M483.609 194.319L465.734 203.272L447.834 194.319L465.734 185.39L483.609 194.319Z" fill="#F5C25B"/>
<path d="M483.609 212.201L465.734 221.155V203.272L483.609 194.319V212.201Z" fill="#F5E48C"/>
<path d="M465.734 221.155L447.834 212.201V194.319L465.734 203.272V221.155Z" fill="url(#paint100_linear_879_6322)"/>
<path d="M458.359 206.962L440.484 215.916L422.584 206.962L440.484 198.009L458.359 206.962Z" fill="#F5C25B"/>
<path d="M458.359 224.845L440.484 233.798V215.916L458.359 206.962V224.845Z" fill="#F5E48C"/>
<path d="M440.484 233.798L422.584 224.845V206.962L440.484 215.916V233.798Z" fill="url(#paint101_linear_879_6322)"/>
<path d="M433.107 219.605L415.232 228.534L397.332 219.605L415.232 210.651L433.107 219.605Z" fill="#F5C25B"/>
<path d="M433.107 237.487L415.232 246.416V228.534L433.107 219.605V237.487Z" fill="#F5E48C"/>
<path d="M415.232 246.416L397.332 237.487V219.605L415.232 228.534V246.416Z" fill="url(#paint102_linear_879_6322)"/>
<path d="M508.861 156.537L490.986 165.491L473.086 156.537L490.986 147.584L508.861 156.537Z" fill="#F5C25B"/>
<path d="M508.861 174.42L490.986 183.373V165.491L508.861 156.538V174.42Z" fill="#F5E48C"/>
<path d="M490.986 183.373L473.086 174.42V156.538L490.986 165.491V183.373Z" fill="url(#paint103_linear_879_6322)"/>
<path d="M483.609 169.18L465.734 178.109L447.834 169.18L465.734 160.227L483.609 169.18Z" fill="#F5C25B"/>
<path d="M483.609 187.063L465.734 195.992V178.11L483.609 169.181V187.063Z" fill="#F5E48C"/>
<path d="M465.734 195.992L447.834 187.063V169.181L465.734 178.11V195.992Z" fill="url(#paint104_linear_879_6322)"/>
<path d="M458.359 181.799L440.484 190.753L422.584 181.799L440.484 172.846L458.359 181.799Z" fill="#F5C25B"/>
<path d="M458.359 199.682L440.484 208.635V190.753L458.359 181.799V199.682Z" fill="#F5E48C"/>
<path d="M440.484 208.635L422.584 199.682V181.799L440.484 190.753V208.635Z" fill="url(#paint105_linear_879_6322)"/>
<path d="M433.107 194.442L415.232 203.371L397.332 194.442L415.232 185.489L433.107 194.442Z" fill="#F5C25B"/>
<path d="M433.107 212.325L415.232 221.278V203.371L433.107 194.442V212.325Z" fill="#F5E48C"/>
<path d="M415.232 221.278L397.332 212.325V194.442L415.232 203.371V221.278Z" fill="url(#paint106_linear_879_6322)"/>
<path d="M533.965 244.547L516.09 253.476L498.215 244.547L516.09 235.594L533.965 244.547Z" fill="#F5C25B"/>
<path d="M533.965 262.43L516.09 271.359V253.476L533.965 244.547V262.43Z" fill="#F5E48C"/>
<path d="M516.09 271.359L498.215 262.43V244.547L516.09 253.476V271.359Z" fill="url(#paint107_linear_879_6322)"/>
<path d="M508.713 257.166L490.838 266.119L472.963 257.166L490.838 248.237L508.713 257.166Z" fill="#F5C25B"/>
<path d="M508.713 275.048L490.838 284.001V266.119L508.713 257.166V275.048Z" fill="#F5E48C"/>
<path d="M490.838 284.001L472.963 275.048V257.166L490.838 266.119V284.001Z" fill="url(#paint108_linear_879_6322)"/>
<path d="M483.463 269.809L465.588 278.738L447.713 269.809L465.588 260.855L483.463 269.809Z" fill="#F5C25B"/>
<path d="M483.463 287.691L465.588 296.645V278.738L483.463 269.809V287.691Z" fill="#F5E48C"/>
<path d="M465.588 296.645L447.713 287.691V269.809L465.588 278.738V296.645Z" fill="url(#paint109_linear_879_6322)"/>
<path d="M458.211 282.427L440.336 291.381L422.461 282.427L440.336 273.499L458.211 282.427Z" fill="#F5C25B"/>
<path d="M458.211 300.334L440.336 309.263V291.381L458.211 282.427V300.334Z" fill="#F5E48C"/>
<path d="M440.336 309.263L422.461 300.334V282.427L440.336 291.381V309.263Z" fill="url(#paint110_linear_879_6322)"/>
<path d="M533.965 219.384L516.09 228.313L498.215 219.384L516.09 210.431L533.965 219.384Z" fill="#F5C25B"/>
<path d="M533.965 237.267L516.09 246.22V228.313L533.965 219.384V237.267Z" fill="#F5E48C"/>
<path d="M516.09 246.22L498.215 237.267V219.384L516.09 228.313V246.22Z" fill="url(#paint111_linear_879_6322)"/>
<path d="M508.713 232.003L490.838 240.956L472.963 232.003L490.838 223.074L508.713 232.003Z" fill="#F5C25B"/>
<path d="M508.713 249.909L490.838 258.838V240.956L508.713 232.002V249.909Z" fill="#F5E48C"/>
<path d="M490.838 258.838L472.963 249.909V232.002L490.838 240.956V258.838Z" fill="url(#paint112_linear_879_6322)"/>
<path d="M483.463 244.646L465.588 253.599L447.713 244.646L465.588 235.692L483.463 244.646Z" fill="#F5C25B"/>
<path d="M483.463 262.528L465.588 271.482V253.599L483.463 244.646V262.528Z" fill="#F5E48C"/>
<path d="M465.588 271.482L447.713 262.528V244.646L465.588 253.599V271.482Z" fill="url(#paint113_linear_879_6322)"/>
<path d="M458.211 257.289L440.336 266.218L422.461 257.289L440.336 248.335L458.211 257.289Z" fill="#F5C25B"/>
<path d="M458.211 275.171L440.336 284.1V266.218L458.211 257.289V275.171Z" fill="#F5E48C"/>
<path d="M440.336 284.1L422.461 275.171V257.289L440.336 266.218V284.1Z" fill="url(#paint114_linear_879_6322)"/>
<path d="M533.965 194.221L516.09 203.174L498.215 194.221L516.09 185.268L533.965 194.221Z" fill="#F5C25B"/>
<path d="M533.965 212.103L516.09 221.057V203.175L533.965 194.221V212.103Z" fill="#F5E48C"/>
<path d="M516.09 221.057L498.215 212.103V194.221L516.09 203.175V221.057Z" fill="url(#paint115_linear_879_6322)"/>
<path d="M508.713 206.864L490.838 215.793L472.963 206.864L490.838 197.911L508.713 206.864Z" fill="#F5C25B"/>
<path d="M508.713 224.747L490.838 233.7V215.793L508.713 206.864V224.747Z" fill="#F5E48C"/>
<path d="M490.838 233.7L472.963 224.747V206.864L490.838 215.793V233.7Z" fill="url(#paint116_linear_879_6322)"/>
<path d="M483.463 219.483L465.588 228.436L447.713 219.483L465.588 210.554L483.463 219.483Z" fill="#F5C25B"/>
<path d="M483.463 237.365L465.588 246.318V228.436L483.463 219.482V237.365Z" fill="#F5E48C"/>
<path d="M465.588 246.318L447.713 237.365V219.482L465.588 228.436V246.318Z" fill="url(#paint117_linear_879_6322)"/>
<path d="M458.211 232.126L440.336 241.079L422.461 232.126L440.336 223.172L458.211 232.126Z" fill="#F5C25B"/>
<path d="M458.211 250.008L440.336 258.962V241.079L458.211 232.126V250.008Z" fill="#F5E48C"/>
<path d="M440.336 258.962L422.461 250.008V232.126L440.336 241.079V258.962Z" fill="url(#paint118_linear_879_6322)"/>
<path d="M533.965 169.058L516.09 178.011L498.215 169.058L516.09 160.129L533.965 169.058Z" fill="#F5C25B"/>
<path d="M533.965 186.94L516.09 195.893V178.011L533.965 169.058V186.94Z" fill="#F5E48C"/>
<path d="M516.09 195.893L498.215 186.94V169.058L516.09 178.011V195.893Z" fill="url(#paint119_linear_879_6322)"/>
<path d="M508.713 181.701L490.838 190.654L472.963 181.701L490.838 172.747L508.713 181.701Z" fill="#F5C25B"/>
<path d="M508.713 199.583L490.838 208.536V190.654L508.713 181.701V199.583Z" fill="#F5E48C"/>
<path d="M490.838 208.536L472.963 199.583V181.701L490.838 190.654V208.536Z" fill="url(#paint120_linear_879_6322)"/>
<path d="M483.463 194.344L465.588 203.273L447.713 194.344L465.588 185.391L483.463 194.344Z" fill="#F5C25B"/>
<path d="M483.463 212.227L465.588 221.155V203.273L483.463 194.344V212.227Z" fill="#F5E48C"/>
<path d="M465.588 221.155L447.713 212.227V194.344L465.588 203.273V221.155Z" fill="url(#paint121_linear_879_6322)"/>
<path d="M458.211 206.962L440.336 215.916L422.461 206.962L440.336 198.009L458.211 206.962Z" fill="#F5C25B"/>
<path d="M458.211 224.845L440.336 233.798V215.916L458.211 206.962V224.845Z" fill="#F5E48C"/>
<path d="M440.336 233.798L422.461 224.845V206.962L440.336 215.916V233.798Z" fill="url(#paint122_linear_879_6322)"/>
<path d="M407.068 468.015L313.66 514.774L220.229 468.015L313.66 421.28L407.068 468.015Z" fill="url(#paint123_linear_879_6322)"/>
<path d="M407.067 561.485L313.66 608.22V514.774L407.067 468.015V561.485Z" fill="url(#paint124_linear_879_6322)"/>
<path d="M313.66 608.22L220.229 561.485V468.015L313.66 514.774V608.22Z" fill="url(#paint125_linear_879_6322)"/>
<path d="M331.659 388.417L238.129 435.201L220.254 426.273L313.784 379.488L331.659 388.417Z" fill="#F5C25B"/>
<path d="M331.659 406.275L238.129 453.083V435.201L331.659 388.417V406.275Z" fill="#F5E48C"/>
<path d="M238.129 453.084L220.254 444.13V426.272L238.129 435.201V453.084Z" fill="url(#paint126_linear_879_6322)"/>
<path d="M331.733 363.033L238.203 409.842L220.328 400.888L313.858 354.104L331.733 363.033Z" fill="#F5C25B"/>
<path d="M331.733 380.915L238.203 427.699V409.842L331.733 363.033V380.915Z" fill="#F5E48C"/>
<path d="M238.203 427.699L220.328 418.77V400.888L238.203 409.842V427.699Z" fill="url(#paint127_linear_879_6322)"/>
<path d="M331.783 337.649L238.253 384.457L220.402 375.529L313.933 328.72L331.783 337.649Z" fill="#F5C25B"/>
<path d="M331.782 355.531L238.252 402.315V384.457L331.782 337.648V355.531Z" fill="#F5E48C"/>
<path d="M238.253 402.315L220.402 393.386V375.528L238.253 384.457V402.315Z" fill="url(#paint128_linear_879_6322)"/>
<path d="M331.783 312.288L238.253 359.073L220.402 350.144L313.933 303.335L331.783 312.288Z" fill="#F5C25B"/>
<path d="M331.782 330.146L238.252 376.931V359.073L331.782 312.289V330.146Z" fill="#F5E48C"/>
<path d="M238.253 376.93L220.402 368.001V350.144L238.253 359.072V376.93Z" fill="url(#paint129_linear_879_6322)"/>
<path d="M356.738 400.937L263.208 447.722L245.357 438.793L338.888 391.984L356.738 400.937Z" fill="#F5C25B"/>
<path d="M356.737 418.795L263.207 465.579V447.722L356.737 400.938V418.795Z" fill="#F5E48C"/>
<path d="M263.208 465.579L245.357 456.65V438.792L263.208 447.721V465.579Z" fill="url(#paint130_linear_879_6322)"/>
<path d="M356.811 375.553L263.281 422.337L245.406 413.408L338.936 366.624L356.811 375.553Z" fill="#F5C25B"/>
<path d="M356.811 393.41L263.281 440.219V422.337L356.811 375.553V393.41Z" fill="#F5E48C"/>
<path d="M263.281 440.219L245.406 431.266V413.408L263.281 422.337V440.219Z" fill="url(#paint131_linear_879_6322)"/>
<path d="M356.886 350.168L263.355 396.977L245.48 388.023L339.011 341.239L356.886 350.168Z" fill="#F5C25B"/>
<path d="M356.886 368.05L263.355 414.834V396.977L356.886 350.168V368.05Z" fill="#F5E48C"/>
<path d="M263.355 414.835L245.48 405.906V388.023L263.355 396.977V414.835Z" fill="url(#paint132_linear_879_6322)"/>
<path d="M356.886 324.784L263.355 371.593L245.48 362.664L339.011 315.855L356.886 324.784Z" fill="#F5C25B"/>
<path d="M356.886 342.666L263.355 389.45V371.593L356.886 324.784V342.666Z" fill="#F5E48C"/>
<path d="M263.355 389.451L245.48 380.522V362.664L263.355 371.593V389.451Z" fill="url(#paint133_linear_879_6322)"/>
<path d="M381.818 413.457L288.288 460.242L270.438 451.313L363.968 404.504L381.818 413.457Z" fill="#F5C25B"/>
<path d="M381.817 431.315L288.287 478.099V460.241L381.817 413.457V431.315Z" fill="#F5E48C"/>
<path d="M288.288 478.099L270.438 469.17V451.312L288.288 460.241V478.099Z" fill="url(#paint134_linear_879_6322)"/>
<path d="M381.892 388.073L288.362 434.857L270.512 425.928L364.042 379.144L381.892 388.073Z" fill="#F5C25B"/>
<path d="M381.892 405.93L288.361 452.739V434.857L381.892 388.073V405.93Z" fill="#F5E48C"/>
<path d="M288.362 452.739L270.512 443.786V425.928L288.362 434.857V452.739Z" fill="url(#paint135_linear_879_6322)"/>
<path d="M381.967 362.689L288.436 409.473L270.586 400.544L364.092 353.76L381.967 362.689Z" fill="#F5C25B"/>
<path d="M381.966 380.546L288.436 427.355V409.473L381.966 362.688V380.546Z" fill="#F5E48C"/>
<path d="M288.436 427.355L270.586 418.402V400.544L288.436 409.473V427.355Z" fill="url(#paint136_linear_879_6322)"/>
<path d="M381.967 337.304L288.436 384.113L270.586 375.159L364.092 328.375L381.967 337.304Z" fill="#F5C25B"/>
<path d="M381.966 355.186L288.436 401.97V384.113L381.966 337.304V355.186Z" fill="#F5E48C"/>
<path d="M288.436 401.97L270.586 393.041V375.159L288.436 384.113V401.97Z" fill="url(#paint137_linear_879_6322)"/>
<path d="M406.896 425.953L313.366 472.762L295.516 463.833L389.046 417.024L406.896 425.953Z" fill="#F5C25B"/>
<path d="M406.895 443.835L313.365 490.619V472.761L406.895 425.953V443.835Z" fill="#F5E48C"/>
<path d="M313.366 490.62L295.516 481.691V463.833L313.366 472.762V490.62Z" fill="url(#paint138_linear_879_6322)"/>
<path d="M406.971 400.593L313.44 447.377L295.59 438.448L389.12 391.64L406.971 400.593Z" fill="#F5C25B"/>
<path d="M406.97 418.451L313.439 465.235V447.377L406.97 400.593V418.451Z" fill="#F5E48C"/>
<path d="M313.44 465.235L295.59 456.306V438.448L313.44 447.377V465.235Z" fill="url(#paint139_linear_879_6322)"/>
<path d="M407.045 375.208L313.514 421.992L295.664 413.063L389.194 366.279L407.045 375.208Z" fill="#F5C25B"/>
<path d="M407.044 393.066L313.514 439.875V421.992L407.044 375.208V393.066Z" fill="#F5E48C"/>
<path d="M313.514 439.875L295.664 430.921V413.063L313.514 421.992V439.875Z" fill="url(#paint140_linear_879_6322)"/>
<path d="M407.045 349.824L313.514 396.608L295.664 387.679L389.194 340.895L407.045 349.824Z" fill="#F5C25B"/>
<path d="M407.044 367.681L313.514 414.49V396.608L407.044 349.824V367.681Z" fill="#F5E48C"/>
<path d="M313.514 414.49L295.664 405.562V387.679L313.514 396.608V414.49Z" fill="url(#paint141_linear_879_6322)"/>
<path d="M407.068 232.642L313.66 279.402L220.229 232.642L313.66 185.907L407.068 232.642Z" fill="url(#paint142_linear_879_6322)"/>
<path d="M407.067 326.112L313.66 372.847V279.402L407.067 232.642V326.112Z" fill="url(#paint143_linear_879_6322)"/>
<path d="M313.66 372.847L220.229 326.112V232.642L313.66 279.402V372.847Z" fill="url(#paint144_linear_879_6322)"/>
<path d="M778.656 400.003L685.248 446.738L591.816 400.003L685.248 353.268L778.656 400.003Z" fill="url(#paint145_linear_879_6322)"/>
<path d="M778.655 493.448L685.248 540.208V446.738L778.655 400.003V493.448Z" fill="url(#paint146_linear_879_6322)"/>
<path d="M685.248 540.208L591.816 493.448V400.003L685.248 446.738V540.208Z" fill="url(#paint147_linear_879_6322)"/>
<path d="M685.248 540.208L591.816 493.449L685.248 446.738V540.208Z" fill="url(#paint148_linear_879_6322)"/>
<path d="M778.656 282.231L685.248 328.966L591.816 282.231L685.248 235.496L778.656 282.231Z" fill="url(#paint149_linear_879_6322)"/>
<path d="M778.655 375.701L685.248 422.436V328.966L778.655 282.23V375.701Z" fill="url(#paint150_linear_879_6322)"/>
<path d="M685.248 422.436L591.816 375.701V282.23L685.248 328.966V422.436Z" fill="url(#paint151_linear_879_6322)"/>
<path d="M778.656 164.631L685.248 211.366L591.816 164.631L685.248 117.896L778.656 164.631Z" fill="url(#paint152_linear_879_6322)"/>
<path d="M778.655 258.1L685.248 304.835V211.365L778.655 164.63V258.1Z" fill="url(#paint153_linear_879_6322)"/>
<path d="M685.248 304.835L591.816 258.1V164.63L685.248 211.365V304.835Z" fill="url(#paint154_linear_879_6322)"/>
<path d="M685.248 304.836L591.816 258.101L685.248 211.366V304.836Z" fill="url(#paint155_linear_879_6322)"/>
<path d="M651.786 463.488L558.354 510.223L464.922 463.488L558.354 416.729L651.786 463.488Z" fill="url(#paint156_linear_879_6322)"/>
<path d="M651.785 556.934L558.354 603.693V510.223L651.785 463.488V556.934Z" fill="url(#paint157_linear_879_6322)"/>
<path d="M558.354 603.693L464.922 556.934V463.488L558.354 510.223V603.693Z" fill="url(#paint158_linear_879_6322)"/>
<path d="M540.381 383.866L633.911 430.675L651.786 421.722L558.256 374.938L540.381 383.866Z" fill="#F5C25B"/>
<path d="M540.381 401.749L633.911 448.533V430.675L540.381 383.866V401.749Z" fill="url(#paint159_linear_879_6322)"/>
<path d="M633.91 448.533L651.785 439.604V421.722L633.91 430.675V448.533Z" fill="#F5E48C"/>
<path d="M540.332 358.506L633.862 405.29L651.713 396.362L558.182 349.553L540.332 358.506Z" fill="#F5C25B"/>
<path d="M540.332 376.364L633.862 423.148V405.291L540.332 358.506V376.364Z" fill="url(#paint160_linear_879_6322)"/>
<path d="M633.863 423.148L651.714 414.219V396.361L633.863 405.29V423.148Z" fill="#F5E48C"/>
<path d="M540.258 333.122L633.788 379.906L651.638 370.978L558.108 324.193L540.258 333.122Z" fill="#F5C25B"/>
<path d="M540.258 350.98L633.788 397.789V379.906L540.258 333.122V350.98Z" fill="url(#paint161_linear_879_6322)"/>
<path d="M633.787 397.789L651.637 388.835V370.978L633.787 379.906V397.789Z" fill="#F5E48C"/>
<path d="M540.258 307.737L633.788 354.522L651.638 345.593L558.108 298.809L540.258 307.737Z" fill="#F5C25B"/>
<path d="M540.258 325.595L633.788 372.404V354.522L540.258 307.737V325.595Z" fill="url(#paint162_linear_879_6322)"/>
<path d="M633.787 372.404L651.637 363.45V345.593L633.787 354.522V372.404Z" fill="#F5E48C"/>
<path d="M515.303 396.386L608.833 443.195L626.708 434.242L533.178 387.458L515.303 396.386Z" fill="#F5C25B"/>
<path d="M515.303 414.269L608.833 461.053V443.195L515.303 396.386V414.269Z" fill="url(#paint163_linear_879_6322)"/>
<path d="M608.832 461.053L626.707 452.124V434.242L608.832 443.195V461.053Z" fill="#F5E48C"/>
<path d="M515.229 371.002L608.759 417.811L626.634 408.882L533.103 362.073L515.229 371.002Z" fill="#F5C25B"/>
<path d="M515.229 388.884L608.759 435.668V417.811L515.229 371.002V388.884Z" fill="url(#paint164_linear_879_6322)"/>
<path d="M608.758 435.668L626.633 426.74V408.882L608.758 417.811V435.668Z" fill="#F5E48C"/>
<path d="M515.18 345.642L608.71 392.426L626.56 383.497L533.03 336.688L515.18 345.642Z" fill="#F5C25B"/>
<path d="M515.18 363.5L608.71 410.284V392.426L515.18 345.642V363.5Z" fill="url(#paint165_linear_879_6322)"/>
<path d="M608.711 410.284L626.561 401.355V383.497L608.711 392.426V410.284Z" fill="#F5E48C"/>
<path d="M515.18 320.257L608.71 367.042L626.56 358.113L533.03 311.329L515.18 320.257Z" fill="#F5C25B"/>
<path d="M515.18 338.115L608.71 384.924V367.042L515.18 320.257V338.115Z" fill="url(#paint166_linear_879_6322)"/>
<path d="M608.711 384.924L626.561 375.971V358.113L608.711 367.042V384.924Z" fill="#F5E48C"/>
<path d="M490.223 408.906L583.753 455.691L601.603 446.762L508.073 399.978L490.223 408.906Z" fill="#F5C25B"/>
<path d="M490.223 426.764L583.753 473.573V455.69L490.223 408.906V426.764Z" fill="url(#paint167_linear_879_6322)"/>
<path d="M583.752 473.573L601.602 464.619V446.762L583.752 455.691V473.573Z" fill="#F5E48C"/>
<path d="M490.148 383.522L583.679 430.331L601.554 421.377L508.023 374.593L490.148 383.522Z" fill="#F5C25B"/>
<path d="M490.148 401.404L583.679 448.189V430.331L490.148 383.522V401.404Z" fill="url(#paint168_linear_879_6322)"/>
<path d="M583.68 448.189L601.555 439.26V421.377L583.68 430.331V448.189Z" fill="#F5E48C"/>
<path d="M490.074 358.138L583.605 404.947L601.48 396.018L507.949 349.209L490.074 358.138Z" fill="#F5C25B"/>
<path d="M490.074 376.02L583.604 422.804V404.946L490.074 358.138V376.02Z" fill="url(#paint169_linear_879_6322)"/>
<path d="M583.605 422.804L601.481 413.875V396.018L583.605 404.946V422.804Z" fill="#F5E48C"/>
<path d="M490.074 332.778L583.605 379.562L601.48 370.633L507.949 323.824L490.074 332.778Z" fill="#F5C25B"/>
<path d="M490.074 350.636L583.604 397.42V379.562L490.074 332.778V350.636Z" fill="url(#paint170_linear_879_6322)"/>
<path d="M583.605 397.419L601.481 388.491V370.633L583.605 379.562V397.419Z" fill="#F5E48C"/>
<path d="M465.145 421.426L558.675 468.211L576.525 459.282L482.995 412.498L465.145 421.426Z" fill="#F5C25B"/>
<path d="M465.145 439.284L558.675 486.093V468.211L465.145 421.426V439.284Z" fill="url(#paint171_linear_879_6322)"/>
<path d="M558.674 486.093L576.524 477.139V459.282L558.674 468.211V486.093Z" fill="#F5E48C"/>
<path d="M465.07 396.042L558.601 442.826L576.451 433.897L482.921 387.113L465.07 396.042Z" fill="#F5C25B"/>
<path d="M465.07 413.9L558.6 460.709V442.826L465.07 396.042V413.9Z" fill="url(#paint172_linear_879_6322)"/>
<path d="M558.6 460.709L576.45 451.755V433.897L558.6 442.826V460.709Z" fill="#F5E48C"/>
<path d="M464.996 370.657L558.526 417.466L576.377 408.513L482.871 361.729L464.996 370.657Z" fill="#F5C25B"/>
<path d="M464.996 388.54L558.526 435.324V417.466L464.996 370.657V388.54Z" fill="url(#paint173_linear_879_6322)"/>
<path d="M558.525 435.324L576.376 426.395V408.513L558.525 417.466V435.324Z" fill="#F5E48C"/>
<path d="M464.996 345.273L558.526 392.082L576.377 383.153L482.871 336.344L464.996 345.273Z" fill="#F5C25B"/>
<path d="M464.996 363.155L558.526 409.939V392.082L464.996 345.273V363.155Z" fill="url(#paint174_linear_879_6322)"/>
<path d="M558.525 409.94L576.376 401.011V383.153L558.525 392.082V409.94Z" fill="#F5E48C"/>
<path d="M651.786 228.116L558.354 274.851L464.922 228.116L558.354 181.381L651.786 228.116Z" fill="url(#paint175_linear_879_6322)"/>
<path d="M651.785 321.586L558.354 368.321V274.851L651.785 228.116V321.586Z" fill="url(#paint176_linear_879_6322)"/>
<path d="M558.354 368.321L464.922 321.586V228.116L558.354 274.851V368.321Z" fill="url(#paint177_linear_879_6322)"/>
<path d="M524.89 526.975L431.458 573.71L338.051 526.975L431.458 480.215L524.89 526.975Z" fill="#F5C25B"/>
<path d="M524.891 620.42L431.459 667.18V573.71L524.891 526.975V620.42Z" fill="#F5E48C"/>
<path d="M431.458 667.18L338.051 620.42V526.975L431.458 573.71V667.18Z" fill="url(#paint178_linear_879_6322)"/>
<path d="M431.458 573.685L338.051 620.42L431.458 667.18V573.71V573.685Z" fill="url(#paint179_linear_879_6322)"/>
<path d="M446.088 587.164C445.867 587.164 445.645 587.041 445.547 586.82C445.399 586.525 445.522 586.156 445.817 585.983L455.111 581.335C455.406 581.187 455.775 581.31 455.947 581.605C456.095 581.9 455.972 582.269 455.677 582.441L446.383 587.09C446.383 587.09 446.211 587.164 446.112 587.164H446.088Z" fill="white"/>
<path d="M446.088 592.477C445.867 592.477 445.645 592.354 445.547 592.133C445.399 591.837 445.522 591.468 445.817 591.321L455.111 586.672C455.406 586.524 455.775 586.647 455.947 586.942C456.095 587.238 455.972 587.607 455.677 587.754L446.383 592.403C446.383 592.403 446.211 592.477 446.112 592.477H446.088Z" fill="white"/>
<path d="M446.088 597.79C445.867 597.79 445.645 597.667 445.547 597.446C445.399 597.151 445.522 596.782 445.817 596.609L455.111 591.96C455.406 591.813 455.775 591.936 455.947 592.231C456.095 592.526 455.972 592.895 455.677 593.067L446.383 597.716C446.383 597.716 446.211 597.79 446.112 597.79H446.088Z" fill="white"/>
<path d="M446.088 603.103C445.867 603.103 445.645 602.98 445.547 602.759C445.399 602.464 445.522 602.095 445.817 601.922L455.111 597.273C455.406 597.126 455.775 597.249 455.947 597.544C456.095 597.839 455.972 598.208 455.677 598.38L446.383 603.029C446.383 603.029 446.211 603.103 446.112 603.103H446.088Z" fill="white"/>
<path d="M446.088 608.416C445.867 608.416 445.645 608.293 445.547 608.072C445.399 607.777 445.522 607.408 445.817 607.235L455.111 602.586C455.406 602.439 455.775 602.562 455.947 602.857C456.095 603.152 455.972 603.521 455.677 603.693L446.383 608.342C446.383 608.342 446.211 608.416 446.112 608.416H446.088Z" fill="white"/>
<path d="M446.088 613.729C445.867 613.729 445.645 613.606 445.547 613.385C445.399 613.089 445.522 612.721 445.817 612.548L455.111 607.899C455.406 607.752 455.775 607.875 455.947 608.17C456.095 608.465 455.972 608.834 455.677 609.006L446.383 613.655C446.383 613.655 446.211 613.729 446.112 613.729H446.088Z" fill="white"/>
<path d="M446.088 619.043C445.867 619.043 445.645 618.92 445.547 618.698C445.399 618.403 445.522 618.034 445.817 617.862L455.111 613.213C455.406 613.065 455.775 613.188 455.947 613.484C456.095 613.779 455.972 614.148 455.677 614.32L446.383 618.969C446.383 618.969 446.211 619.043 446.112 619.043H446.088Z" fill="white"/>
<path d="M446.088 624.355C445.867 624.355 445.645 624.232 445.547 624.011C445.399 623.716 445.522 623.347 445.817 623.175L455.111 618.526C455.406 618.378 455.775 618.501 455.947 618.796C456.095 619.092 455.972 619.461 455.677 619.633L446.383 624.282C446.383 624.282 446.211 624.355 446.112 624.355H446.088Z" fill="white"/>
<path d="M446.088 629.669C445.867 629.669 445.645 629.546 445.547 629.324C445.399 629.029 445.522 628.66 445.817 628.488L455.111 623.839C455.406 623.691 455.775 623.814 455.947 624.109C456.095 624.405 455.972 624.774 455.677 624.946L446.383 629.595C446.383 629.595 446.211 629.669 446.112 629.669H446.088Z" fill="white"/>
<path d="M446.088 634.982C445.867 634.982 445.645 634.859 445.547 634.637C445.399 634.342 445.522 633.973 445.817 633.801L455.111 629.152C455.406 629.004 455.775 629.127 455.947 629.422C456.095 629.718 455.972 630.087 455.677 630.259L446.383 634.908C446.383 634.908 446.211 634.982 446.112 634.982H446.088Z" fill="white"/>
<path d="M446.088 640.294C445.867 640.294 445.645 640.171 445.547 639.95C445.399 639.655 445.522 639.286 445.817 639.138L455.111 634.489C455.406 634.342 455.775 634.465 455.947 634.76C456.095 635.055 455.972 635.424 455.677 635.572L446.383 640.22C446.383 640.22 446.211 640.294 446.112 640.294H446.088Z" fill="white"/>
<path d="M463.791 578.309C463.57 578.309 463.348 578.186 463.25 577.965C463.102 577.67 463.225 577.301 463.521 577.128L476.355 570.709C476.65 570.561 477.019 570.684 477.191 570.979C477.339 571.274 477.216 571.643 476.921 571.815L464.086 578.235C464.086 578.235 463.914 578.309 463.816 578.309H463.791Z" fill="white"/>
<path d="M463.791 583.622C463.57 583.622 463.348 583.499 463.25 583.278C463.102 582.982 463.225 582.613 463.521 582.466L476.355 576.046C476.65 575.898 477.019 576.021 477.191 576.317C477.339 576.612 477.216 576.981 476.921 577.128L464.086 583.548C464.086 583.548 463.914 583.622 463.816 583.622H463.791Z" fill="white"/>
<path d="M463.791 588.935C463.57 588.935 463.348 588.812 463.25 588.591C463.102 588.296 463.225 587.927 463.521 587.754L472.814 583.106C473.11 582.958 473.478 583.081 473.65 583.376C473.798 583.671 473.675 584.04 473.38 584.212L464.086 588.861C464.086 588.861 463.914 588.935 463.816 588.935H463.791Z" fill="white"/>
<path d="M463.791 594.248C463.57 594.248 463.348 594.125 463.25 593.904C463.102 593.609 463.225 593.24 463.521 593.068L467.504 591.075C467.799 590.928 468.167 591.051 468.34 591.346C468.487 591.641 468.364 592.01 468.069 592.182L464.086 594.175C464.086 594.175 463.914 594.248 463.816 594.248H463.791Z" fill="white"/>
<path d="M463.791 599.561C463.57 599.561 463.348 599.438 463.25 599.217C463.102 598.922 463.225 598.553 463.521 598.38L472.814 593.731C473.11 593.584 473.478 593.707 473.65 594.002C473.798 594.297 473.675 594.666 473.38 594.838L464.086 599.487C464.086 599.487 463.914 599.561 463.816 599.561H463.791Z" fill="white"/>
<path d="M463.791 604.874C463.57 604.874 463.348 604.751 463.25 604.53C463.102 604.235 463.225 603.866 463.521 603.718L467.504 601.726C467.799 601.578 468.167 601.701 468.34 601.996C468.487 602.291 468.364 602.66 468.069 602.832L464.086 604.825C464.086 604.825 463.914 604.899 463.816 604.899L463.791 604.874Z" fill="white"/>
<path d="M463.791 610.188C463.57 610.188 463.348 610.065 463.25 609.843C463.102 609.548 463.225 609.179 463.521 609.032L467.504 607.039C467.799 606.892 468.167 607.015 468.34 607.31C468.487 607.605 468.364 607.974 468.069 608.121L464.086 610.114C464.086 610.114 463.914 610.188 463.816 610.188H463.791Z" fill="white"/>
<path d="M463.791 615.501C463.57 615.501 463.348 615.378 463.25 615.156C463.102 614.861 463.225 614.492 463.521 614.32L479.896 606.129C480.191 605.981 480.56 606.104 480.732 606.4C480.879 606.695 480.756 607.064 480.461 607.236L464.086 615.427C464.086 615.427 463.914 615.501 463.816 615.501H463.791Z" fill="white"/>
<path d="M463.791 620.813C463.57 620.813 463.348 620.69 463.25 620.469C463.102 620.173 463.225 619.805 463.521 619.632L479.896 611.441C480.191 611.294 480.56 611.417 480.732 611.712C480.879 612.007 480.756 612.376 480.461 612.548L464.086 620.739C464.086 620.739 463.914 620.813 463.816 620.813H463.791Z" fill="white"/>
<path d="M463.791 626.126C463.57 626.126 463.348 626.003 463.25 625.782C463.102 625.487 463.225 625.118 463.521 624.946L474.585 619.411C474.88 619.264 475.249 619.387 475.421 619.682C475.568 619.977 475.445 620.346 475.15 620.518L464.086 626.052C464.086 626.052 463.914 626.126 463.816 626.126H463.791Z" fill="white"/>
<path d="M463.791 631.439C463.57 631.439 463.348 631.316 463.25 631.095C463.102 630.8 463.225 630.431 463.521 630.259L485.206 619.411C485.501 619.264 485.87 619.387 486.042 619.682C486.19 619.977 486.067 620.346 485.772 620.493L464.086 631.341C464.086 631.341 463.914 631.415 463.816 631.415L463.791 631.439Z" fill="white"/>
<path d="M479.723 570.34C479.501 570.34 479.28 570.217 479.182 569.995C479.034 569.7 479.157 569.331 479.452 569.184L485.205 566.306C485.501 566.158 485.869 566.281 486.042 566.576C486.214 566.871 486.066 567.24 485.771 567.388L480.018 570.266C480.018 570.266 479.845 570.34 479.747 570.34H479.723Z" fill="white"/>
<path d="M479.723 575.653C479.501 575.653 479.28 575.53 479.182 575.308C479.034 575.013 479.157 574.644 479.452 574.497L485.206 571.619C485.501 571.471 485.869 571.594 486.042 571.889C486.189 572.184 486.066 572.553 485.771 572.701L480.018 575.579C480.018 575.579 479.845 575.653 479.747 575.653H479.723Z" fill="white"/>
<path d="M476.184 582.737C475.962 582.737 475.741 582.614 475.643 582.392C475.495 582.097 475.618 581.728 475.913 581.556L490.518 574.251C490.813 574.103 491.182 574.226 491.354 574.521C491.501 574.816 491.378 575.185 491.083 575.357L476.479 582.663C476.479 582.663 476.306 582.737 476.208 582.737H476.184Z" fill="white"/>
<path d="M470.871 590.706C470.65 590.706 470.428 590.583 470.33 590.362C470.183 590.066 470.305 589.697 470.601 589.55L483.435 583.13C483.73 582.982 484.099 583.105 484.271 583.4C484.419 583.696 484.296 584.065 484.001 584.212L471.166 590.632C471.166 590.632 470.994 590.706 470.896 590.706H470.871Z" fill="white"/>
<path d="M476.184 593.363C475.962 593.363 475.741 593.24 475.643 593.018C475.495 592.723 475.618 592.354 475.913 592.182L490.518 584.877C490.813 584.729 491.182 584.852 491.354 585.147C491.501 585.442 491.378 585.811 491.083 585.983L476.479 593.289C476.479 593.289 476.306 593.363 476.208 593.363H476.184Z" fill="white"/>
<path d="M470.871 601.332C470.65 601.332 470.428 601.209 470.33 600.988C470.183 600.693 470.305 600.324 470.601 600.152L485.205 592.846C485.5 592.699 485.869 592.822 486.041 593.117C486.189 593.412 486.066 593.781 485.771 593.953L471.166 601.259C471.166 601.259 470.994 601.332 470.896 601.332H470.871Z" fill="white"/>
<path d="M470.871 606.645C470.65 606.645 470.428 606.522 470.33 606.301C470.183 606.006 470.305 605.637 470.601 605.465L485.205 598.159C485.5 598.012 485.869 598.135 486.041 598.43C486.189 598.725 486.066 599.094 485.771 599.266L471.166 606.572C471.166 606.572 470.994 606.645 470.896 606.645H470.871Z" fill="white"/>
<path d="M483.264 605.76C483.042 605.76 482.821 605.637 482.723 605.415C482.575 605.12 482.698 604.751 482.993 604.579L492.287 599.93C492.582 599.783 492.951 599.906 493.123 600.201C493.271 600.496 493.148 600.865 492.853 601.037L483.559 605.686C483.559 605.686 483.386 605.76 483.288 605.76H483.264Z" fill="white"/>
<path d="M483.264 611.073C483.042 611.073 482.821 610.95 482.723 610.728C482.575 610.433 482.698 610.064 482.993 609.892L492.287 605.243C492.582 605.096 492.951 605.219 493.123 605.514C493.271 605.809 493.148 606.178 492.853 606.35L483.559 610.999C483.559 610.999 483.386 611.073 483.288 611.073H483.264Z" fill="white"/>
<path d="M477.953 619.042C477.732 619.042 477.51 618.919 477.412 618.698C477.265 618.403 477.388 618.034 477.683 617.862L492.287 610.556C492.582 610.409 492.951 610.532 493.123 610.827C493.271 611.122 493.148 611.491 492.853 611.663L478.248 618.969C478.248 618.969 478.076 619.042 477.978 619.042H477.953Z" fill="white"/>
<path d="M488.574 619.042C488.353 619.042 488.132 618.919 488.033 618.698C487.886 618.403 488.009 618.034 488.304 617.886L492.287 615.894C492.582 615.746 492.951 615.869 493.123 616.164C493.295 616.459 493.147 616.828 492.852 616.976L488.869 618.968C488.869 618.968 488.697 619.042 488.599 619.042H488.574Z" fill="white"/>
<path d="M488.574 565.912C488.353 565.912 488.132 565.789 488.033 565.568C487.886 565.273 488.009 564.904 488.304 564.731L494.057 561.854C494.352 561.706 494.721 561.829 494.893 562.124C495.041 562.419 494.918 562.788 494.623 562.96L488.869 565.838C488.869 565.838 488.697 565.912 488.599 565.912H488.574Z" fill="white"/>
<path d="M488.574 571.225C488.353 571.225 488.132 571.102 488.033 570.881C487.886 570.586 488.009 570.217 488.304 570.044L494.057 567.167C494.352 567.019 494.721 567.142 494.893 567.437C495.041 567.732 494.918 568.101 494.623 568.249L488.869 571.127C488.869 571.127 488.697 571.2 488.599 571.2L488.574 571.225Z" fill="white"/>
<path d="M493.885 573.881C493.663 573.881 493.442 573.758 493.344 573.537C493.196 573.242 493.319 572.873 493.614 572.701L502.908 568.052C503.203 567.904 503.572 568.027 503.744 568.322C503.892 568.618 503.769 568.986 503.474 569.159L494.18 573.808C494.18 573.808 494.008 573.881 493.909 573.881H493.885Z" fill="white"/>
<path d="M486.805 582.737C486.583 582.737 486.362 582.614 486.264 582.392C486.116 582.097 486.239 581.728 486.534 581.556L502.909 573.365C503.204 573.218 503.573 573.341 503.745 573.636C503.893 573.931 503.77 574.3 503.475 574.472L487.1 582.663C487.1 582.663 486.928 582.737 486.829 582.737H486.805Z" fill="white"/>
<path d="M493.885 584.507C493.663 584.507 493.442 584.384 493.344 584.163C493.196 583.868 493.319 583.499 493.614 583.327L502.908 578.678C503.203 578.53 503.572 578.653 503.744 578.948C503.892 579.244 503.769 579.613 503.474 579.785L494.18 584.434C494.18 584.434 494.008 584.507 493.909 584.507H493.885Z" fill="white"/>
<path d="M488.574 592.477C488.353 592.477 488.132 592.354 488.033 592.133C487.886 591.838 488.009 591.469 488.304 591.296L497.598 586.647C497.893 586.5 498.262 586.623 498.434 586.918C498.581 587.213 498.458 587.582 498.163 587.754L488.869 592.403C488.869 592.403 488.697 592.477 488.599 592.477H488.574Z" fill="white"/>
<path d="M488.574 597.79C488.353 597.79 488.132 597.667 488.033 597.446C487.886 597.151 488.009 596.782 488.304 596.634L497.598 591.985C497.893 591.838 498.262 591.961 498.434 592.256C498.581 592.551 498.458 592.92 498.163 593.068L488.869 597.717C488.869 597.717 488.697 597.79 488.599 597.79H488.574Z" fill="white"/>
<path d="M495.656 599.561C495.435 599.561 495.214 599.438 495.115 599.217C494.968 598.922 495.091 598.553 495.386 598.38L504.68 593.731C504.975 593.584 505.344 593.707 505.516 594.002C505.663 594.297 505.54 594.666 505.245 594.838L495.951 599.487C495.951 599.487 495.779 599.561 495.681 599.561H495.656Z" fill="white"/>
<path d="M495.656 604.875C495.435 604.875 495.214 604.752 495.115 604.53C494.968 604.235 495.091 603.866 495.386 603.694L504.68 599.045C504.975 598.897 505.344 599.02 505.516 599.316C505.663 599.611 505.54 599.98 505.245 600.152L495.951 604.801C495.951 604.801 495.779 604.875 495.681 604.875H495.656Z" fill="white"/>
<path d="M495.656 610.188C495.435 610.188 495.214 610.065 495.115 609.843C494.968 609.548 495.091 609.179 495.386 609.007L501.139 606.129C501.434 605.981 501.803 606.104 501.975 606.4C502.123 606.695 502 607.064 501.705 607.236L495.951 610.114C495.951 610.114 495.779 610.188 495.681 610.188H495.656Z" fill="white"/>
<path d="M495.656 615.5C495.435 615.5 495.214 615.377 495.115 615.156C494.968 614.86 495.091 614.492 495.386 614.319L501.139 611.441C501.434 611.294 501.803 611.417 501.975 611.712C502.123 612.007 502 612.376 501.705 612.548L495.951 615.426C495.951 615.426 495.779 615.5 495.681 615.5H495.656Z" fill="white"/>
<path d="M497.426 561.484C497.204 561.484 496.983 561.361 496.885 561.14C496.737 560.845 496.86 560.476 497.155 560.304L509.99 553.884C510.285 553.736 510.654 553.859 510.826 554.154C510.998 554.45 510.85 554.819 510.555 554.966L497.721 561.386C497.721 561.386 497.549 561.46 497.45 561.46L497.426 561.484Z" fill="white"/>
<path d="M497.426 566.797C497.204 566.797 496.983 566.674 496.885 566.453C496.737 566.158 496.86 565.789 497.155 565.617L509.99 559.197C510.285 559.049 510.654 559.172 510.826 559.467C510.973 559.763 510.85 560.132 510.555 560.279L497.721 566.699C497.721 566.699 497.549 566.773 497.45 566.773L497.426 566.797Z" fill="white"/>
<path d="M506.277 567.683C506.056 567.683 505.835 567.56 505.736 567.338C505.589 567.043 505.712 566.674 506.007 566.502L509.99 564.51C510.285 564.362 510.654 564.485 510.826 564.78C510.973 565.076 510.85 565.444 510.555 565.617L506.572 567.609C506.572 567.609 506.4 567.683 506.302 567.683H506.277Z" fill="white"/>
<path d="M506.277 572.996C506.056 572.996 505.835 572.873 505.736 572.652C505.589 572.357 505.712 571.988 506.007 571.816L509.99 569.823C510.285 569.676 510.654 569.799 510.826 570.094C510.973 570.389 510.85 570.758 510.555 570.93L506.572 572.923C506.572 572.923 506.4 572.996 506.302 572.996H506.277Z" fill="white"/>
<path d="M506.277 578.309C506.056 578.309 505.835 578.186 505.736 577.964C505.589 577.669 505.712 577.3 506.007 577.128L509.99 575.136C510.285 574.988 510.654 575.111 510.826 575.406C510.973 575.701 510.85 576.07 510.555 576.243L506.572 578.235C506.572 578.235 506.4 578.309 506.302 578.309H506.277Z" fill="white"/>
<path d="M500.967 586.279C500.745 586.279 500.524 586.156 500.426 585.935C500.278 585.639 500.401 585.27 500.696 585.098L509.99 580.449C510.285 580.302 510.654 580.425 510.826 580.72C510.974 581.015 510.851 581.384 510.556 581.556L501.262 586.205C501.262 586.205 501.09 586.279 500.991 586.279H500.967Z" fill="white"/>
<path d="M500.967 591.592C500.745 591.592 500.524 591.469 500.426 591.247C500.278 590.952 500.401 590.583 500.696 590.411L509.99 585.762C510.285 585.615 510.654 585.738 510.826 586.033C510.974 586.328 510.851 586.697 510.556 586.869L501.262 591.518C501.262 591.518 501.09 591.592 500.991 591.592H500.967Z" fill="white"/>
<path d="M508.049 593.363C507.827 593.363 507.606 593.24 507.508 593.018C507.36 592.723 507.483 592.354 507.778 592.182L509.991 591.075C510.286 590.928 510.655 591.051 510.827 591.346C510.975 591.641 510.852 592.01 510.557 592.182L508.344 593.289C508.344 593.289 508.172 593.363 508.073 593.363H508.049Z" fill="white"/>
<path d="M508.049 598.676C507.827 598.676 507.606 598.553 507.508 598.331C507.36 598.036 507.483 597.667 507.778 597.495L509.991 596.388C510.286 596.241 510.655 596.364 510.827 596.659C510.975 596.954 510.852 597.323 510.557 597.495L508.344 598.602C508.344 598.602 508.172 598.676 508.073 598.676H508.049Z" fill="white"/>
<path d="M504.508 605.76C504.286 605.76 504.065 605.637 503.967 605.415C503.819 605.12 503.942 604.751 504.237 604.579L509.991 601.701C510.286 601.554 510.655 601.677 510.827 601.972C510.974 602.267 510.851 602.636 510.556 602.784L504.803 605.661C504.803 605.661 504.631 605.735 504.532 605.735L504.508 605.76Z" fill="white"/>
<path d="M504.508 611.073C504.286 611.073 504.065 610.95 503.967 610.729C503.819 610.434 503.942 610.065 504.237 609.917L509.991 607.039C510.286 606.892 510.655 607.015 510.827 607.31C510.999 607.605 510.851 607.974 510.556 608.146L504.803 611.024C504.803 611.024 504.631 611.098 504.532 611.098L504.508 611.073Z" fill="white"/>
<path d="M524.89 409.202L431.458 455.937L338.051 409.202L431.458 362.442L524.89 409.202Z" fill="url(#paint180_linear_879_6322)"/>
<path d="M524.891 502.648L431.459 549.407V455.937L524.891 409.202V502.648Z" fill="url(#paint181_linear_879_6322)"/>
<path d="M431.458 549.407L338.051 502.648V409.202L431.458 455.937V549.407Z" fill="url(#paint182_linear_879_6322)"/>
<path d="M524.89 291.602L431.458 338.337L338.051 291.602L431.458 244.842L524.89 291.602Z" fill="url(#paint183_linear_879_6322)"/>
<path d="M524.891 385.047L431.459 431.807V338.337L524.891 291.602V385.047Z" fill="url(#paint184_linear_879_6322)"/>
<path d="M431.458 431.807L338.051 385.047V291.602L431.458 338.337V431.807Z" fill="url(#paint185_linear_879_6322)"/>
<path d="M431.458 431.807L338.051 385.047L431.458 338.337V431.807Z" fill="url(#paint186_linear_879_6322)"/>
<path style="mix-blend-mode:screen" opacity="0.5" d="M778.656 164.901L431.459 338.337L102.406 173.707L449.629 0L778.656 164.901Z" fill="url(#paint187_linear_879_6322)"/>
<defs>
<linearGradient id="paint0_linear_879_6322" x1="242.554" y1="655.913" x2="242.554" y2="543.454" gradientUnits="userSpaceOnUse">
<stop/>
<stop offset="1" stop-color="#1495F8"/>
</linearGradient>
<linearGradient id="paint1_linear_879_6322" x1="149.122" y1="0.000301816" x2="149.122" y2="0.000301816" gradientUnits="userSpaceOnUse">
<stop/>
<stop offset="1" stop-color="#1495F8"/>
</linearGradient>
<linearGradient id="paint2_linear_879_6322" x1="-1.00808" y1="525.72" x2="204.321" y2="525.72" gradientUnits="userSpaceOnUse">
<stop stop-color="white"/>
<stop offset="1" stop-color="#6597E6"/>
</linearGradient>
<linearGradient id="paint3_linear_879_6322" x1="360.376" y1="714.849" x2="360.376" y2="602.39" gradientUnits="userSpaceOnUse">
<stop/>
<stop offset="1" stop-color="#1495F8"/>
</linearGradient>
<linearGradient id="paint4_linear_879_6322" x1="266.944" y1="714.849" x2="266.944" y2="602.39" gradientUnits="userSpaceOnUse">
<stop/>
<stop offset="1" stop-color="#1495F8"/>
</linearGradient>
<linearGradient id="paint5_linear_879_6322" x1="116.814" y1="584.68" x2="322.118" y2="584.68" gradientUnits="userSpaceOnUse">
<stop stop-color="white"/>
<stop offset="1" stop-color="#6597E6"/>
</linearGradient>
<linearGradient id="paint6_linear_879_6322" x1="605.069" y1="710.323" x2="605.069" y2="597.864" gradientUnits="userSpaceOnUse">
<stop/>
<stop offset="1" stop-color="#1495F8"/>
</linearGradient>
<linearGradient id="paint7_linear_879_6322" x1="511.638" y1="710.323" x2="511.638" y2="597.864" gradientUnits="userSpaceOnUse">
<stop/>
<stop offset="1" stop-color="#1495F8"/>
</linearGradient>
<linearGradient id="paint8_linear_879_6322" x1="361.508" y1="580.129" x2="566.836" y2="580.129" gradientUnits="userSpaceOnUse">
<stop stop-color="white"/>
<stop offset="1" stop-color="#6597E6"/>
</linearGradient>
<linearGradient id="paint9_linear_879_6322" x1="731.964" y1="646.837" x2="731.964" y2="534.378" gradientUnits="userSpaceOnUse">
<stop/>
<stop offset="1" stop-color="#1495F8"/>
</linearGradient>
<linearGradient id="paint10_linear_879_6322" x1="638.532" y1="646.837" x2="638.532" y2="534.378" gradientUnits="userSpaceOnUse">
<stop/>
<stop offset="1" stop-color="#1495F8"/>
</linearGradient>
<linearGradient id="paint11_linear_879_6322" x1="488.402" y1="516.643" x2="693.706" y2="516.643" gradientUnits="userSpaceOnUse">
<stop stop-color="white"/>
<stop offset="1" stop-color="#6597E6"/>
</linearGradient>
<linearGradient id="paint12_linear_879_6322" x1="478.175" y1="773.809" x2="478.175" y2="661.35" gradientUnits="userSpaceOnUse">
<stop/>
<stop offset="1" stop-color="#1495F8"/>
</linearGradient>
<linearGradient id="paint13_linear_879_6322" x1="384.744" y1="773.809" x2="384.744" y2="661.35" gradientUnits="userSpaceOnUse">
<stop/>
<stop offset="1" stop-color="#1495F8"/>
</linearGradient>
<linearGradient id="paint14_linear_879_6322" x1="234.613" y1="643.615" x2="439.942" y2="643.615" gradientUnits="userSpaceOnUse">
<stop stop-color="white"/>
<stop offset="1" stop-color="#6597E6"/>
</linearGradient>
<linearGradient id="paint15_linear_879_6322" x1="449.629" y1="328.843" x2="449.629" y2="235.373" gradientUnits="userSpaceOnUse">
<stop stop-color="#C5DCFD"/>
<stop offset="1" stop-color="#86AFF0"/>
</linearGradient>
<linearGradient id="paint16_linear_879_6322" x1="496.32" y1="422.312" x2="496.32" y2="282.107" gradientUnits="userSpaceOnUse">
<stop stop-color="#99BCF2"/>
<stop offset="1" stop-color="#6597E6"/>
</linearGradient>
<linearGradient id="paint17_linear_879_6322" x1="402.913" y1="422.312" x2="402.913" y2="282.107" gradientUnits="userSpaceOnUse">
<stop stop-color="#77A3E7"/>
<stop offset="1" stop-color="#3975D4"/>
</linearGradient>
<linearGradient id="paint18_linear_879_6322" x1="-219.343" y1="211.07" x2="-216.882" y2="117.6" gradientUnits="userSpaceOnUse">
<stop stop-color="#C5DCFD"/>
<stop offset="1" stop-color="#86AFF0"/>
</linearGradient>
<linearGradient id="paint19_linear_879_6322" x1="-219.344" y1="304.54" x2="-216.883" y2="164.335" gradientUnits="userSpaceOnUse">
<stop stop-color="#99BCF2"/>
<stop offset="1" stop-color="#6597E6"/>
</linearGradient>
<linearGradient id="paint20_linear_879_6322" x1="-219.342" y1="304.54" x2="-216.882" y2="164.335" gradientUnits="userSpaceOnUse">
<stop stop-color="#77A3E7"/>
<stop offset="1" stop-color="#3975D4"/>
</linearGradient>
<linearGradient id="paint21_linear_879_6322" x1="449.629" y1="93.4946" x2="449.629" y2="0" gradientUnits="userSpaceOnUse">
<stop stop-color="#0681EA"/>
<stop offset="1" stop-color="#0C5FE7"/>
</linearGradient>
<linearGradient id="paint22_linear_879_6322" x1="496.32" y1="186.94" x2="496.32" y2="46.7349" gradientUnits="userSpaceOnUse">
<stop stop-color="#0782F3"/>
<stop offset="1" stop-color="#02A5FF"/>
</linearGradient>
<linearGradient id="paint23_linear_879_6322" x1="402.913" y1="186.94" x2="402.913" y2="46.7349" gradientUnits="userSpaceOnUse">
<stop stop-color="#0B62E7"/>
<stop offset="1" stop-color="#0040AB"/>
</linearGradient>
<linearGradient id="paint24_linear_879_6322" x1="322.733" y1="392.328" x2="322.733" y2="298.858" gradientUnits="userSpaceOnUse">
<stop stop-color="#C5DCFD"/>
<stop offset="1" stop-color="#86AFF0"/>
</linearGradient>
<linearGradient id="paint25_linear_879_6322" x1="369.448" y1="485.799" x2="369.448" y2="345.594" gradientUnits="userSpaceOnUse">
<stop stop-color="#99BCF2"/>
<stop offset="1" stop-color="#6597E6"/>
</linearGradient>
<linearGradient id="paint26_linear_879_6322" x1="276.017" y1="485.798" x2="276.017" y2="345.593" gradientUnits="userSpaceOnUse">
<stop stop-color="#77A3E7"/>
<stop offset="1" stop-color="#3975D4"/>
</linearGradient>
<linearGradient id="paint27_linear_879_6322" x1="322.733" y1="274.556" x2="322.733" y2="181.086" gradientUnits="userSpaceOnUse">
<stop stop-color="#C5DCFD"/>
<stop offset="1" stop-color="#86AFF0"/>
</linearGradient>
<linearGradient id="paint28_linear_879_6322" x1="369.448" y1="368.026" x2="369.448" y2="227.821" gradientUnits="userSpaceOnUse">
<stop stop-color="#99BCF2"/>
<stop offset="1" stop-color="#6597E6"/>
</linearGradient>
<linearGradient id="paint29_linear_879_6322" x1="276.017" y1="368.026" x2="276.017" y2="227.821" gradientUnits="userSpaceOnUse">
<stop stop-color="#77A3E7"/>
<stop offset="1" stop-color="#3975D4"/>
</linearGradient>
<linearGradient id="paint30_linear_879_6322" x1="322.733" y1="156.956" x2="322.733" y2="63.4858" gradientUnits="userSpaceOnUse">
<stop stop-color="#C5DCFD"/>
<stop offset="1" stop-color="#86AFF0"/>
</linearGradient>
<linearGradient id="paint31_linear_879_6322" x1="369.448" y1="250.426" x2="369.448" y2="110.221" gradientUnits="userSpaceOnUse">
<stop stop-color="#99BCF2"/>
<stop offset="1" stop-color="#6597E6"/>
</linearGradient>
<linearGradient id="paint32_linear_879_6322" x1="276.017" y1="250.426" x2="276.017" y2="110.221" gradientUnits="userSpaceOnUse">
<stop stop-color="#77A3E7"/>
<stop offset="1" stop-color="#3975D4"/>
</linearGradient>
<linearGradient id="paint33_linear_879_6322" x1="195.838" y1="455.814" x2="195.838" y2="362.344" gradientUnits="userSpaceOnUse">
<stop stop-color="#0681EA"/>
<stop offset="1" stop-color="#0C5FE7"/>
</linearGradient>
<linearGradient id="paint34_linear_879_6322" x1="242.554" y1="549.284" x2="242.554" y2="409.079" gradientUnits="userSpaceOnUse">
<stop stop-color="#0782F3"/>
<stop offset="1" stop-color="#02A5FF"/>
</linearGradient>
<linearGradient id="paint35_linear_879_6322" x1="149.122" y1="545.693" x2="149.122" y2="443.491" gradientUnits="userSpaceOnUse">
<stop stop-color="#0B62E7"/>
<stop offset="1" stop-color="#0040AB"/>
</linearGradient>
<linearGradient id="paint36_linear_879_6322" x1="121.855" y1="537.601" x2="211.809" y2="495.026" gradientUnits="userSpaceOnUse">
<stop stop-color="#0B62E7"/>
<stop offset="1" stop-color="#0040AB"/>
</linearGradient>
<linearGradient id="paint37_linear_879_6322" x1="195.838" y1="338.042" x2="195.838" y2="244.572" gradientUnits="userSpaceOnUse">
<stop stop-color="#C5DCFD"/>
<stop offset="1" stop-color="#86AFF0"/>
</linearGradient>
<linearGradient id="paint38_linear_879_6322" x1="242.554" y1="431.512" x2="242.554" y2="291.307" gradientUnits="userSpaceOnUse">
<stop stop-color="#99BCF2"/>
<stop offset="1" stop-color="#6597E6"/>
</linearGradient>
<linearGradient id="paint39_linear_879_6322" x1="149.122" y1="431.512" x2="149.122" y2="291.307" gradientUnits="userSpaceOnUse">
<stop stop-color="#77A3E7"/>
<stop offset="1" stop-color="#3975D4"/>
</linearGradient>
<linearGradient id="paint40_linear_879_6322" x1="195.838" y1="220.442" x2="195.838" y2="126.972" gradientUnits="userSpaceOnUse">
<stop stop-color="#0681EA"/>
<stop offset="1" stop-color="#0C5FE7"/>
</linearGradient>
<linearGradient id="paint41_linear_879_6322" x1="242.554" y1="313.912" x2="242.554" y2="173.707" gradientUnits="userSpaceOnUse">
<stop stop-color="#0782F3"/>
<stop offset="1" stop-color="#02A5FF"/>
</linearGradient>
<linearGradient id="paint42_linear_879_6322" x1="149.122" y1="310.32" x2="149.122" y2="208.118" gradientUnits="userSpaceOnUse">
<stop stop-color="#0B62E7"/>
<stop offset="1" stop-color="#0040AB"/>
</linearGradient>
<linearGradient id="paint43_linear_879_6322" x1="121.855" y1="302.253" x2="211.809" y2="259.654" gradientUnits="userSpaceOnUse">
<stop stop-color="#0B62E7"/>
<stop offset="1" stop-color="#0040AB"/>
</linearGradient>
<linearGradient id="paint44_linear_879_6322" x1="567.426" y1="387.803" x2="567.426" y2="294.308" gradientUnits="userSpaceOnUse">
<stop stop-color="#C5DCFD"/>
<stop offset="1" stop-color="#86AFF0"/>
</linearGradient>
<linearGradient id="paint45_linear_879_6322" x1="614.142" y1="481.248" x2="614.142" y2="341.043" gradientUnits="userSpaceOnUse">
<stop stop-color="#99BCF2"/>
<stop offset="1" stop-color="#6597E6"/>
</linearGradient>
<linearGradient id="paint46_linear_879_6322" x1="520.71" y1="481.248" x2="520.71" y2="341.043" gradientUnits="userSpaceOnUse">
<stop stop-color="#77A3E7"/>
<stop offset="1" stop-color="#3975D4"/>
</linearGradient>
<linearGradient id="paint47_linear_879_6322" x1="567.426" y1="270.03" x2="567.426" y2="176.536" gradientUnits="userSpaceOnUse">
<stop stop-color="#C5DCFD"/>
<stop offset="1" stop-color="#86AFF0"/>
</linearGradient>
<linearGradient id="paint48_linear_879_6322" x1="614.142" y1="363.5" x2="614.142" y2="223.295" gradientUnits="userSpaceOnUse">
<stop stop-color="#99BCF2"/>
<stop offset="1" stop-color="#6597E6"/>
</linearGradient>
<linearGradient id="paint49_linear_879_6322" x1="520.71" y1="363.5" x2="520.71" y2="223.295" gradientUnits="userSpaceOnUse">
<stop stop-color="#77A3E7"/>
<stop offset="1" stop-color="#3975D4"/>
</linearGradient>
<linearGradient id="paint50_linear_879_6322" x1="567.426" y1="152.43" x2="567.426" y2="58.9355" gradientUnits="userSpaceOnUse">
<stop stop-color="#C5DCFD"/>
<stop offset="1" stop-color="#86AFF0"/>
</linearGradient>
<linearGradient id="paint51_linear_879_6322" x1="614.142" y1="245.9" x2="614.142" y2="105.695" gradientUnits="userSpaceOnUse">
<stop stop-color="#99BCF2"/>
<stop offset="1" stop-color="#6597E6"/>
</linearGradient>
<linearGradient id="paint52_linear_879_6322" x1="520.71" y1="245.9" x2="520.71" y2="105.695" gradientUnits="userSpaceOnUse">
<stop stop-color="#77A3E7"/>
<stop offset="1" stop-color="#3975D4"/>
</linearGradient>
<linearGradient id="paint53_linear_879_6322" x1="440.532" y1="451.288" x2="440.532" y2="357.793" gradientUnits="userSpaceOnUse">
<stop stop-color="#C5DCFD"/>
<stop offset="1" stop-color="#86AFF0"/>
</linearGradient>
<linearGradient id="paint54_linear_879_6322" x1="487.249" y1="544.733" x2="487.249" y2="404.528" gradientUnits="userSpaceOnUse">
<stop stop-color="#99BCF2"/>
<stop offset="1" stop-color="#6597E6"/>
</linearGradient>
<linearGradient id="paint55_linear_879_6322" x1="393.841" y1="544.733" x2="393.841" y2="404.528" gradientUnits="userSpaceOnUse">
<stop stop-color="#77A3E7"/>
<stop offset="1" stop-color="#3975D4"/>
</linearGradient>
<linearGradient id="paint56_linear_879_6322" x1="440.532" y1="333.516" x2="440.532" y2="240.021" gradientUnits="userSpaceOnUse">
<stop stop-color="#C5DCFD"/>
<stop offset="1" stop-color="#86AFF0"/>
</linearGradient>
<linearGradient id="paint57_linear_879_6322" x1="487.249" y1="426.961" x2="487.249" y2="286.756" gradientUnits="userSpaceOnUse">
<stop stop-color="#99BCF2"/>
<stop offset="1" stop-color="#6597E6"/>
</linearGradient>
<linearGradient id="paint58_linear_879_6322" x1="393.841" y1="426.961" x2="393.841" y2="286.756" gradientUnits="userSpaceOnUse">
<stop stop-color="#77A3E7"/>
<stop offset="1" stop-color="#3975D4"/>
</linearGradient>
<linearGradient id="paint59_linear_879_6322" x1="431.804" y1="233.773" x2="431.804" y2="206.938" gradientUnits="userSpaceOnUse">
<stop stop-color="#F5C25B"/>
<stop offset="1" stop-color="#F59E5B"/>
</linearGradient>
<linearGradient id="paint60_linear_879_6322" x1="406.552" y1="246.416" x2="406.552" y2="219.581" gradientUnits="userSpaceOnUse">
<stop stop-color="#F5C25B"/>
<stop offset="1" stop-color="#F59E5B"/>
</linearGradient>
<linearGradient id="paint61_linear_879_6322" x1="381.302" y1="259.06" x2="381.302" y2="232.224" gradientUnits="userSpaceOnUse">
<stop stop-color="#F5C25B"/>
<stop offset="1" stop-color="#F59E5B"/>
</linearGradient>
<linearGradient id="paint62_linear_879_6322" x1="356.05" y1="271.678" x2="356.05" y2="244.842" gradientUnits="userSpaceOnUse">
<stop stop-color="#F5C25B"/>
<stop offset="1" stop-color="#F59E5B"/>
</linearGradient>
<linearGradient id="paint63_linear_879_6322" x1="-219.34" y1="208.635" x2="-216.88" y2="181.8" gradientUnits="userSpaceOnUse">
<stop stop-color="#F5C25B"/>
<stop offset="1" stop-color="#F59E5B"/>
</linearGradient>
<linearGradient id="paint64_linear_879_6322" x1="406.552" y1="221.253" x2="406.552" y2="194.417" gradientUnits="userSpaceOnUse">
<stop stop-color="#F5C25B"/>
<stop offset="1" stop-color="#F59E5B"/>
</linearGradient>
<linearGradient id="paint65_linear_879_6322" x1="381.302" y1="233.897" x2="381.302" y2="207.061" gradientUnits="userSpaceOnUse">
<stop stop-color="#F5C25B"/>
<stop offset="1" stop-color="#F59E5B"/>
</linearGradient>
<linearGradient id="paint66_linear_879_6322" x1="356.05" y1="246.515" x2="356.05" y2="219.704" gradientUnits="userSpaceOnUse">
<stop stop-color="#F5C25B"/>
<stop offset="1" stop-color="#F59E5B"/>
</linearGradient>
<linearGradient id="paint67_linear_879_6322" x1="-219.34" y1="183.472" x2="-216.88" y2="156.636" gradientUnits="userSpaceOnUse">
<stop stop-color="#F5C25B"/>
<stop offset="1" stop-color="#F59E5B"/>
</linearGradient>
<linearGradient id="paint68_linear_879_6322" x1="406.552" y1="196.09" x2="406.552" y2="169.279" gradientUnits="userSpaceOnUse">
<stop stop-color="#F5C25B"/>
<stop offset="1" stop-color="#F59E5B"/>
</linearGradient>
<linearGradient id="paint69_linear_879_6322" x1="381.302" y1="208.734" x2="381.302" y2="181.898" gradientUnits="userSpaceOnUse">
<stop stop-color="#F5C25B"/>
<stop offset="1" stop-color="#F59E5B"/>
</linearGradient>
<linearGradient id="paint70_linear_879_6322" x1="356.05" y1="221.377" x2="356.05" y2="194.541" gradientUnits="userSpaceOnUse">
<stop stop-color="#F5C25B"/>
<stop offset="1" stop-color="#F59E5B"/>
</linearGradient>
<linearGradient id="paint71_linear_879_6322" x1="-219.34" y1="158.309" x2="-216.88" y2="131.473" gradientUnits="userSpaceOnUse">
<stop stop-color="#F5C25B"/>
<stop offset="1" stop-color="#F59E5B"/>
</linearGradient>
<linearGradient id="paint72_linear_879_6322" x1="406.552" y1="170.952" x2="406.552" y2="144.116" gradientUnits="userSpaceOnUse">
<stop stop-color="#F5C25B"/>
<stop offset="1" stop-color="#F59E5B"/>
</linearGradient>
<linearGradient id="paint73_linear_879_6322" x1="381.302" y1="183.57" x2="381.302" y2="156.734" gradientUnits="userSpaceOnUse">
<stop stop-color="#F5C25B"/>
<stop offset="1" stop-color="#F59E5B"/>
</linearGradient>
<linearGradient id="paint74_linear_879_6322" x1="356.05" y1="196.214" x2="356.05" y2="169.378" gradientUnits="userSpaceOnUse">
<stop stop-color="#F5C25B"/>
<stop offset="1" stop-color="#F59E5B"/>
</linearGradient>
<linearGradient id="paint75_linear_879_6322" x1="456.932" y1="246.319" x2="456.932" y2="219.483" gradientUnits="userSpaceOnUse">
<stop stop-color="#F5C25B"/>
<stop offset="1" stop-color="#F59E5B"/>
</linearGradient>
<linearGradient id="paint76_linear_879_6322" x1="431.68" y1="258.937" x2="431.68" y2="232.101" gradientUnits="userSpaceOnUse">
<stop stop-color="#F5C25B"/>
<stop offset="1" stop-color="#F59E5B"/>
</linearGradient>
<linearGradient id="paint77_linear_879_6322" x1="406.43" y1="271.58" x2="406.43" y2="244.745" gradientUnits="userSpaceOnUse">
<stop stop-color="#F5C25B"/>
<stop offset="1" stop-color="#F59E5B"/>
</linearGradient>
<linearGradient id="paint78_linear_879_6322" x1="381.178" y1="284.223" x2="381.178" y2="257.388" gradientUnits="userSpaceOnUse">
<stop stop-color="#F5C25B"/>
<stop offset="1" stop-color="#F59E5B"/>
</linearGradient>
<linearGradient id="paint79_linear_879_6322" x1="456.932" y1="221.156" x2="456.932" y2="194.32" gradientUnits="userSpaceOnUse">
<stop stop-color="#F5C25B"/>
<stop offset="1" stop-color="#F59E5B"/>
</linearGradient>
<linearGradient id="paint80_linear_879_6322" x1="431.68" y1="233.799" x2="431.68" y2="206.963" gradientUnits="userSpaceOnUse">
<stop stop-color="#F5C25B"/>
<stop offset="1" stop-color="#F59E5B"/>
</linearGradient>
<linearGradient id="paint81_linear_879_6322" x1="406.43" y1="246.417" x2="406.43" y2="219.581" gradientUnits="userSpaceOnUse">
<stop stop-color="#F5C25B"/>
<stop offset="1" stop-color="#F59E5B"/>
</linearGradient>
<linearGradient id="paint82_linear_879_6322" x1="381.178" y1="259.06" x2="381.178" y2="232.225" gradientUnits="userSpaceOnUse">
<stop stop-color="#F5C25B"/>
<stop offset="1" stop-color="#F59E5B"/>
</linearGradient>
<linearGradient id="paint83_linear_879_6322" x1="456.932" y1="195.992" x2="456.932" y2="169.156" gradientUnits="userSpaceOnUse">
<stop stop-color="#F5C25B"/>
<stop offset="1" stop-color="#F59E5B"/>
</linearGradient>
<linearGradient id="paint84_linear_879_6322" x1="431.68" y1="208.635" x2="431.68" y2="181.799" gradientUnits="userSpaceOnUse">
<stop stop-color="#F5C25B"/>
<stop offset="1" stop-color="#F59E5B"/>
</linearGradient>
<linearGradient id="paint85_linear_879_6322" x1="406.43" y1="221.254" x2="406.43" y2="194.443" gradientUnits="userSpaceOnUse">
<stop stop-color="#F5C25B"/>
<stop offset="1" stop-color="#F59E5B"/>
</linearGradient>
<linearGradient id="paint86_linear_879_6322" x1="381.178" y1="233.897" x2="381.178" y2="207.061" gradientUnits="userSpaceOnUse">
<stop stop-color="#F5C25B"/>
<stop offset="1" stop-color="#F59E5B"/>
</linearGradient>
<linearGradient id="paint87_linear_879_6322" x1="456.932" y1="170.829" x2="456.932" y2="144.018" gradientUnits="userSpaceOnUse">
<stop stop-color="#F5C25B"/>
<stop offset="1" stop-color="#F59E5B"/>
</linearGradient>
<linearGradient id="paint88_linear_879_6322" x1="431.68" y1="183.472" x2="431.68" y2="156.636" gradientUnits="userSpaceOnUse">
<stop stop-color="#F5C25B"/>
<stop offset="1" stop-color="#F59E5B"/>
</linearGradient>
<linearGradient id="paint89_linear_879_6322" x1="406.43" y1="196.116" x2="406.43" y2="169.28" gradientUnits="userSpaceOnUse">
<stop stop-color="#F5C25B"/>
<stop offset="1" stop-color="#F59E5B"/>
</linearGradient>
<linearGradient id="paint90_linear_879_6322" x1="381.178" y1="208.734" x2="381.178" y2="181.898" gradientUnits="userSpaceOnUse">
<stop stop-color="#F5C25B"/>
<stop offset="1" stop-color="#F59E5B"/>
</linearGradient>
<linearGradient id="paint91_linear_879_6322" x1="482.036" y1="258.838" x2="482.036" y2="232.002" gradientUnits="userSpaceOnUse">
<stop stop-color="#F5C25B"/>
<stop offset="1" stop-color="#F59E5B"/>
</linearGradient>
<linearGradient id="paint92_linear_879_6322" x1="456.784" y1="271.481" x2="456.784" y2="244.645" gradientUnits="userSpaceOnUse">
<stop stop-color="#F5C25B"/>
<stop offset="1" stop-color="#F59E5B"/>
</linearGradient>
<linearGradient id="paint93_linear_879_6322" x1="431.534" y1="284.099" x2="431.534" y2="257.264" gradientUnits="userSpaceOnUse">
<stop stop-color="#F5C25B"/>
<stop offset="1" stop-color="#F59E5B"/>
</linearGradient>
<linearGradient id="paint94_linear_879_6322" x1="406.282" y1="296.742" x2="406.282" y2="269.907" gradientUnits="userSpaceOnUse">
<stop stop-color="#F5C25B"/>
<stop offset="1" stop-color="#F59E5B"/>
</linearGradient>
<linearGradient id="paint95_linear_879_6322" x1="482.036" y1="233.675" x2="482.036" y2="206.839" gradientUnits="userSpaceOnUse">
<stop stop-color="#F5C25B"/>
<stop offset="1" stop-color="#F59E5B"/>
</linearGradient>
<linearGradient id="paint96_linear_879_6322" x1="456.784" y1="246.318" x2="456.784" y2="219.482" gradientUnits="userSpaceOnUse">
<stop stop-color="#F5C25B"/>
<stop offset="1" stop-color="#F59E5B"/>
</linearGradient>
<linearGradient id="paint97_linear_879_6322" x1="431.534" y1="258.937" x2="431.534" y2="232.125" gradientUnits="userSpaceOnUse">
<stop stop-color="#F5C25B"/>
<stop offset="1" stop-color="#F59E5B"/>
</linearGradient>
<linearGradient id="paint98_linear_879_6322" x1="406.282" y1="271.579" x2="406.282" y2="244.744" gradientUnits="userSpaceOnUse">
<stop stop-color="#F5C25B"/>
<stop offset="1" stop-color="#F59E5B"/>
</linearGradient>
<linearGradient id="paint99_linear_879_6322" x1="482.036" y1="208.536" x2="482.036" y2="181.701" gradientUnits="userSpaceOnUse">
<stop stop-color="#F5C25B"/>
<stop offset="1" stop-color="#F59E5B"/>
</linearGradient>
<linearGradient id="paint100_linear_879_6322" x1="456.784" y1="221.155" x2="456.784" y2="194.319" gradientUnits="userSpaceOnUse">
<stop stop-color="#F5C25B"/>
<stop offset="1" stop-color="#F59E5B"/>
</linearGradient>
<linearGradient id="paint101_linear_879_6322" x1="431.534" y1="233.798" x2="431.534" y2="206.962" gradientUnits="userSpaceOnUse">
<stop stop-color="#F5C25B"/>
<stop offset="1" stop-color="#F59E5B"/>
</linearGradient>
<linearGradient id="paint102_linear_879_6322" x1="406.282" y1="246.416" x2="406.282" y2="219.605" gradientUnits="userSpaceOnUse">
<stop stop-color="#F5C25B"/>
<stop offset="1" stop-color="#F59E5B"/>
</linearGradient>
<linearGradient id="paint103_linear_879_6322" x1="482.036" y1="183.373" x2="482.036" y2="156.538" gradientUnits="userSpaceOnUse">
<stop stop-color="#F5C25B"/>
<stop offset="1" stop-color="#F59E5B"/>
</linearGradient>
<linearGradient id="paint104_linear_879_6322" x1="456.784" y1="195.992" x2="456.784" y2="169.181" gradientUnits="userSpaceOnUse">
<stop stop-color="#F5C25B"/>
<stop offset="1" stop-color="#F59E5B"/>
</linearGradient>
<linearGradient id="paint105_linear_879_6322" x1="431.534" y1="208.635" x2="431.534" y2="181.799" gradientUnits="userSpaceOnUse">
<stop stop-color="#F5C25B"/>
<stop offset="1" stop-color="#F59E5B"/>
</linearGradient>
<linearGradient id="paint106_linear_879_6322" x1="406.282" y1="221.278" x2="406.282" y2="194.442" gradientUnits="userSpaceOnUse">
<stop stop-color="#F5C25B"/>
<stop offset="1" stop-color="#F59E5B"/>
</linearGradient>
<linearGradient id="paint107_linear_879_6322" x1="507.14" y1="271.359" x2="507.14" y2="244.547" gradientUnits="userSpaceOnUse">
<stop stop-color="#F5C25B"/>
<stop offset="1" stop-color="#F59E5B"/>
</linearGradient>
<linearGradient id="paint108_linear_879_6322" x1="481.888" y1="284.001" x2="481.888" y2="257.166" gradientUnits="userSpaceOnUse">
<stop stop-color="#F5C25B"/>
<stop offset="1" stop-color="#F59E5B"/>
</linearGradient>
<linearGradient id="paint109_linear_879_6322" x1="456.638" y1="296.645" x2="456.638" y2="269.809" gradientUnits="userSpaceOnUse">
<stop stop-color="#F5C25B"/>
<stop offset="1" stop-color="#F59E5B"/>
</linearGradient>
<linearGradient id="paint110_linear_879_6322" x1="431.386" y1="309.263" x2="431.386" y2="282.427" gradientUnits="userSpaceOnUse">
<stop stop-color="#F5C25B"/>
<stop offset="1" stop-color="#F59E5B"/>
</linearGradient>
<linearGradient id="paint111_linear_879_6322" x1="507.14" y1="246.22" x2="507.14" y2="219.384" gradientUnits="userSpaceOnUse">
<stop stop-color="#F5C25B"/>
<stop offset="1" stop-color="#F59E5B"/>
</linearGradient>
<linearGradient id="paint112_linear_879_6322" x1="481.888" y1="258.838" x2="481.888" y2="232.002" gradientUnits="userSpaceOnUse">
<stop stop-color="#F5C25B"/>
<stop offset="1" stop-color="#F59E5B"/>
</linearGradient>
<linearGradient id="paint113_linear_879_6322" x1="456.638" y1="271.482" x2="456.638" y2="244.646" gradientUnits="userSpaceOnUse">
<stop stop-color="#F5C25B"/>
<stop offset="1" stop-color="#F59E5B"/>
</linearGradient>
<linearGradient id="paint114_linear_879_6322" x1="431.386" y1="284.1" x2="431.386" y2="257.289" gradientUnits="userSpaceOnUse">
<stop stop-color="#F5C25B"/>
<stop offset="1" stop-color="#F59E5B"/>
</linearGradient>
<linearGradient id="paint115_linear_879_6322" x1="507.14" y1="221.057" x2="507.14" y2="194.221" gradientUnits="userSpaceOnUse">
<stop stop-color="#F5C25B"/>
<stop offset="1" stop-color="#F59E5B"/>
</linearGradient>
<linearGradient id="paint116_linear_879_6322" x1="481.888" y1="233.7" x2="481.888" y2="206.864" gradientUnits="userSpaceOnUse">
<stop stop-color="#F5C25B"/>
<stop offset="1" stop-color="#F59E5B"/>
</linearGradient>
<linearGradient id="paint117_linear_879_6322" x1="456.638" y1="246.318" x2="456.638" y2="219.482" gradientUnits="userSpaceOnUse">
<stop stop-color="#F5C25B"/>
<stop offset="1" stop-color="#F59E5B"/>
</linearGradient>
<linearGradient id="paint118_linear_879_6322" x1="431.386" y1="258.962" x2="431.386" y2="232.126" gradientUnits="userSpaceOnUse">
<stop stop-color="#F5C25B"/>
<stop offset="1" stop-color="#F59E5B"/>
</linearGradient>
<linearGradient id="paint119_linear_879_6322" x1="507.14" y1="195.893" x2="507.14" y2="169.058" gradientUnits="userSpaceOnUse">
<stop stop-color="#F5C25B"/>
<stop offset="1" stop-color="#F59E5B"/>
</linearGradient>
<linearGradient id="paint120_linear_879_6322" x1="481.888" y1="208.536" x2="481.888" y2="181.701" gradientUnits="userSpaceOnUse">
<stop stop-color="#F5C25B"/>
<stop offset="1" stop-color="#F59E5B"/>
</linearGradient>
<linearGradient id="paint121_linear_879_6322" x1="456.638" y1="221.155" x2="456.638" y2="194.344" gradientUnits="userSpaceOnUse">
<stop stop-color="#F5C25B"/>
<stop offset="1" stop-color="#F59E5B"/>
</linearGradient>
<linearGradient id="paint122_linear_879_6322" x1="431.386" y1="233.798" x2="431.386" y2="206.962" gradientUnits="userSpaceOnUse">
<stop stop-color="#F5C25B"/>
<stop offset="1" stop-color="#F59E5B"/>
</linearGradient>
<linearGradient id="paint123_linear_879_6322" x1="313.66" y1="514.774" x2="313.66" y2="421.28" gradientUnits="userSpaceOnUse">
<stop stop-color="#C5DCFD"/>
<stop offset="1" stop-color="#86AFF0"/>
</linearGradient>
<linearGradient id="paint124_linear_879_6322" x1="360.376" y1="608.22" x2="360.376" y2="468.015" gradientUnits="userSpaceOnUse">
<stop stop-color="#99BCF2"/>
<stop offset="1" stop-color="#6597E6"/>
</linearGradient>
<linearGradient id="paint125_linear_879_6322" x1="266.944" y1="608.22" x2="266.944" y2="468.015" gradientUnits="userSpaceOnUse">
<stop stop-color="#77A3E7"/>
<stop offset="1" stop-color="#3975D4"/>
</linearGradient>
<linearGradient id="paint126_linear_879_6322" x1="160.261" y1="487.569" x2="301.184" y2="389.75" gradientUnits="userSpaceOnUse">
<stop stop-color="#F5C25B"/>
<stop offset="1" stop-color="#F59E5B"/>
</linearGradient>
<linearGradient id="paint127_linear_879_6322" x1="148.41" y1="470.474" x2="289.333" y2="372.655" gradientUnits="userSpaceOnUse">
<stop stop-color="#F5C25B"/>
<stop offset="1" stop-color="#F59E5B"/>
</linearGradient>
<linearGradient id="paint128_linear_879_6322" x1="136.56" y1="453.379" x2="277.458" y2="355.56" gradientUnits="userSpaceOnUse">
<stop stop-color="#F5C25B"/>
<stop offset="1" stop-color="#F59E5B"/>
</linearGradient>
<linearGradient id="paint129_linear_879_6322" x1="124.659" y1="436.259" x2="265.582" y2="338.44" gradientUnits="userSpaceOnUse">
<stop stop-color="#F5C25B"/>
<stop offset="1" stop-color="#F59E5B"/>
</linearGradient>
<linearGradient id="paint130_linear_879_6322" x1="174.3" y1="507.764" x2="315.223" y2="409.945" gradientUnits="userSpaceOnUse">
<stop stop-color="#F5C25B"/>
<stop offset="1" stop-color="#F59E5B"/>
</linearGradient>
<linearGradient id="paint131_linear_879_6322" x1="162.424" y1="490.669" x2="303.347" y2="392.85" gradientUnits="userSpaceOnUse">
<stop stop-color="#F5C25B"/>
<stop offset="1" stop-color="#F59E5B"/>
</linearGradient>
<linearGradient id="paint132_linear_879_6322" x1="150.573" y1="473.573" x2="291.496" y2="375.754" gradientUnits="userSpaceOnUse">
<stop stop-color="#F5C25B"/>
<stop offset="1" stop-color="#F59E5B"/>
</linearGradient>
<linearGradient id="paint133_linear_879_6322" x1="138.673" y1="456.454" x2="279.596" y2="358.635" gradientUnits="userSpaceOnUse">
<stop stop-color="#F5C25B"/>
<stop offset="1" stop-color="#F59E5B"/>
</linearGradient>
<linearGradient id="paint134_linear_879_6322" x1="188.316" y1="527.958" x2="329.239" y2="430.139" gradientUnits="userSpaceOnUse">
<stop stop-color="#F5C25B"/>
<stop offset="1" stop-color="#F59E5B"/>
</linearGradient>
<linearGradient id="paint135_linear_879_6322" x1="176.465" y1="510.863" x2="317.363" y2="413.044" gradientUnits="userSpaceOnUse">
<stop stop-color="#F5C25B"/>
<stop offset="1" stop-color="#F59E5B"/>
</linearGradient>
<linearGradient id="paint136_linear_879_6322" x1="164.59" y1="493.768" x2="305.513" y2="395.949" gradientUnits="userSpaceOnUse">
<stop stop-color="#F5C25B"/>
<stop offset="1" stop-color="#F59E5B"/>
</linearGradient>
<linearGradient id="paint137_linear_879_6322" x1="152.714" y1="476.648" x2="293.612" y2="378.829" gradientUnits="userSpaceOnUse">
<stop stop-color="#F5C25B"/>
<stop offset="1" stop-color="#F59E5B"/>
</linearGradient>
<linearGradient id="paint138_linear_879_6322" x1="202.329" y1="548.153" x2="343.252" y2="450.333" gradientUnits="userSpaceOnUse">
<stop stop-color="#F5C25B"/>
<stop offset="1" stop-color="#F59E5B"/>
</linearGradient>
<linearGradient id="paint139_linear_879_6322" x1="190.479" y1="531.057" x2="331.402" y2="433.238" gradientUnits="userSpaceOnUse">
<stop stop-color="#F5C25B"/>
<stop offset="1" stop-color="#F59E5B"/>
</linearGradient>
<linearGradient id="paint140_linear_879_6322" x1="178.604" y1="513.987" x2="319.527" y2="416.168" gradientUnits="userSpaceOnUse">
<stop stop-color="#F5C25B"/>
<stop offset="1" stop-color="#F59E5B"/>
</linearGradient>
<linearGradient id="paint141_linear_879_6322" x1="166.728" y1="496.867" x2="307.651" y2="399.048" gradientUnits="userSpaceOnUse">
<stop stop-color="#F5C25B"/>
<stop offset="1" stop-color="#F59E5B"/>
</linearGradient>
<linearGradient id="paint142_linear_879_6322" x1="313.66" y1="279.402" x2="313.66" y2="185.907" gradientUnits="userSpaceOnUse">
<stop stop-color="#C5DCFD"/>
<stop offset="1" stop-color="#86AFF0"/>
</linearGradient>
<linearGradient id="paint143_linear_879_6322" x1="360.376" y1="372.847" x2="360.376" y2="232.642" gradientUnits="userSpaceOnUse">
<stop stop-color="#99BCF2"/>
<stop offset="1" stop-color="#6597E6"/>
</linearGradient>
<linearGradient id="paint144_linear_879_6322" x1="266.944" y1="372.847" x2="266.944" y2="232.642" gradientUnits="userSpaceOnUse">
<stop stop-color="#77A3E7"/>
<stop offset="1" stop-color="#3975D4"/>
</linearGradient>
<linearGradient id="paint145_linear_879_6322" x1="685.248" y1="446.738" x2="685.248" y2="353.268" gradientUnits="userSpaceOnUse">
<stop stop-color="#0681EA"/>
<stop offset="1" stop-color="#0C5FE7"/>
</linearGradient>
<linearGradient id="paint146_linear_879_6322" x1="731.964" y1="540.208" x2="731.964" y2="400.003" gradientUnits="userSpaceOnUse">
<stop stop-color="#0782F3"/>
<stop offset="1" stop-color="#02A5FF"/>
</linearGradient>
<linearGradient id="paint147_linear_879_6322" x1="638.532" y1="536.592" x2="638.532" y2="434.415" gradientUnits="userSpaceOnUse">
<stop stop-color="#0B62E7"/>
<stop offset="1" stop-color="#0040AB"/>
</linearGradient>
<linearGradient id="paint148_linear_879_6322" x1="611.265" y1="528.525" x2="701.219" y2="485.926" gradientUnits="userSpaceOnUse">
<stop stop-color="#0B62E7"/>
<stop offset="1" stop-color="#0040AB"/>
</linearGradient>
<linearGradient id="paint149_linear_879_6322" x1="685.248" y1="328.966" x2="685.248" y2="235.496" gradientUnits="userSpaceOnUse">
<stop stop-color="#C5DCFD"/>
<stop offset="1" stop-color="#86AFF0"/>
</linearGradient>
<linearGradient id="paint150_linear_879_6322" x1="731.964" y1="422.436" x2="731.964" y2="282.23" gradientUnits="userSpaceOnUse">
<stop stop-color="#99BCF2"/>
<stop offset="1" stop-color="#6597E6"/>
</linearGradient>
<linearGradient id="paint151_linear_879_6322" x1="638.532" y1="422.436" x2="638.532" y2="282.23" gradientUnits="userSpaceOnUse">
<stop stop-color="#77A3E7"/>
<stop offset="1" stop-color="#3975D4"/>
</linearGradient>
<linearGradient id="paint152_linear_879_6322" x1="685.248" y1="211.366" x2="685.248" y2="117.896" gradientUnits="userSpaceOnUse">
<stop stop-color="#0681EA"/>
<stop offset="1" stop-color="#0C5FE7"/>
</linearGradient>
<linearGradient id="paint153_linear_879_6322" x1="731.964" y1="304.835" x2="731.964" y2="164.63" gradientUnits="userSpaceOnUse">
<stop stop-color="#0782F3"/>
<stop offset="1" stop-color="#02A5FF"/>
</linearGradient>
<linearGradient id="paint154_linear_879_6322" x1="638.532" y1="301.22" x2="638.532" y2="199.042" gradientUnits="userSpaceOnUse">
<stop stop-color="#0B62E7"/>
<stop offset="1" stop-color="#0040AB"/>
</linearGradient>
<linearGradient id="paint155_linear_879_6322" x1="611.265" y1="293.152" x2="701.219" y2="250.578" gradientUnits="userSpaceOnUse">
<stop stop-color="#0B62E7"/>
<stop offset="1" stop-color="#0040AB"/>
</linearGradient>
<linearGradient id="paint156_linear_879_6322" x1="558.354" y1="510.223" x2="558.354" y2="416.729" gradientUnits="userSpaceOnUse">
<stop stop-color="#C5DCFD"/>
<stop offset="1" stop-color="#86AFF0"/>
</linearGradient>
<linearGradient id="paint157_linear_879_6322" x1="605.069" y1="603.693" x2="605.069" y2="463.488" gradientUnits="userSpaceOnUse">
<stop stop-color="#99BCF2"/>
<stop offset="1" stop-color="#6597E6"/>
</linearGradient>
<linearGradient id="paint158_linear_879_6322" x1="511.638" y1="603.693" x2="511.638" y2="463.488" gradientUnits="userSpaceOnUse">
<stop stop-color="#77A3E7"/>
<stop offset="1" stop-color="#3975D4"/>
</linearGradient>
<linearGradient id="paint159_linear_879_6322" x1="540.381" y1="416.212" x2="633.911" y2="416.212" gradientUnits="userSpaceOnUse">
<stop stop-color="#F5C25B"/>
<stop offset="1" stop-color="#F59E5B"/>
</linearGradient>
<linearGradient id="paint160_linear_879_6322" x1="540.332" y1="390.827" x2="633.862" y2="390.827" gradientUnits="userSpaceOnUse">
<stop stop-color="#F5C25B"/>
<stop offset="1" stop-color="#F59E5B"/>
</linearGradient>
<linearGradient id="paint161_linear_879_6322" x1="540.258" y1="365.443" x2="633.788" y2="365.443" gradientUnits="userSpaceOnUse">
<stop stop-color="#F5C25B"/>
<stop offset="1" stop-color="#F59E5B"/>
</linearGradient>
<linearGradient id="paint162_linear_879_6322" x1="540.258" y1="340.058" x2="633.788" y2="340.058" gradientUnits="userSpaceOnUse">
<stop stop-color="#F5C25B"/>
<stop offset="1" stop-color="#F59E5B"/>
</linearGradient>
<linearGradient id="paint163_linear_879_6322" x1="515.303" y1="428.732" x2="608.833" y2="428.732" gradientUnits="userSpaceOnUse">
<stop stop-color="#F5C25B"/>
<stop offset="1" stop-color="#F59E5B"/>
</linearGradient>
<linearGradient id="paint164_linear_879_6322" x1="515.229" y1="403.348" x2="608.759" y2="403.348" gradientUnits="userSpaceOnUse">
<stop stop-color="#F5C25B"/>
<stop offset="1" stop-color="#F59E5B"/>
</linearGradient>
<linearGradient id="paint165_linear_879_6322" x1="515.18" y1="377.963" x2="608.71" y2="377.963" gradientUnits="userSpaceOnUse">
<stop stop-color="#F5C25B"/>
<stop offset="1" stop-color="#F59E5B"/>
</linearGradient>
<linearGradient id="paint166_linear_879_6322" x1="515.18" y1="352.578" x2="608.71" y2="352.578" gradientUnits="userSpaceOnUse">
<stop stop-color="#F5C25B"/>
<stop offset="1" stop-color="#F59E5B"/>
</linearGradient>
<linearGradient id="paint167_linear_879_6322" x1="490.223" y1="441.227" x2="583.753" y2="441.227" gradientUnits="userSpaceOnUse">
<stop stop-color="#F5C25B"/>
<stop offset="1" stop-color="#F59E5B"/>
</linearGradient>
<linearGradient id="paint168_linear_879_6322" x1="490.148" y1="415.868" x2="583.679" y2="415.868" gradientUnits="userSpaceOnUse">
<stop stop-color="#F5C25B"/>
<stop offset="1" stop-color="#F59E5B"/>
</linearGradient>
<linearGradient id="paint169_linear_879_6322" x1="490.074" y1="390.483" x2="583.604" y2="390.483" gradientUnits="userSpaceOnUse">
<stop stop-color="#F5C25B"/>
<stop offset="1" stop-color="#F59E5B"/>
</linearGradient>
<linearGradient id="paint170_linear_879_6322" x1="490.074" y1="365.099" x2="583.604" y2="365.099" gradientUnits="userSpaceOnUse">
<stop stop-color="#F5C25B"/>
<stop offset="1" stop-color="#F59E5B"/>
</linearGradient>
<linearGradient id="paint171_linear_879_6322" x1="465.145" y1="453.747" x2="558.675" y2="453.747" gradientUnits="userSpaceOnUse">
<stop stop-color="#F5C25B"/>
<stop offset="1" stop-color="#F59E5B"/>
</linearGradient>
<linearGradient id="paint172_linear_879_6322" x1="465.07" y1="428.363" x2="558.6" y2="428.363" gradientUnits="userSpaceOnUse">
<stop stop-color="#F5C25B"/>
<stop offset="1" stop-color="#F59E5B"/>
</linearGradient>
<linearGradient id="paint173_linear_879_6322" x1="464.996" y1="403.003" x2="558.526" y2="403.003" gradientUnits="userSpaceOnUse">
<stop stop-color="#F5C25B"/>
<stop offset="1" stop-color="#F59E5B"/>
</linearGradient>
<linearGradient id="paint174_linear_879_6322" x1="464.996" y1="377.619" x2="558.526" y2="377.619" gradientUnits="userSpaceOnUse">
<stop stop-color="#F5C25B"/>
<stop offset="1" stop-color="#F59E5B"/>
</linearGradient>
<linearGradient id="paint175_linear_879_6322" x1="558.354" y1="274.851" x2="558.354" y2="181.381" gradientUnits="userSpaceOnUse">
<stop stop-color="#C5DCFD"/>
<stop offset="1" stop-color="#86AFF0"/>
</linearGradient>
<linearGradient id="paint176_linear_879_6322" x1="605.069" y1="368.321" x2="605.069" y2="228.116" gradientUnits="userSpaceOnUse">
<stop stop-color="#99BCF2"/>
<stop offset="1" stop-color="#6597E6"/>
</linearGradient>
<linearGradient id="paint177_linear_879_6322" x1="511.638" y1="368.321" x2="511.638" y2="228.116" gradientUnits="userSpaceOnUse">
<stop stop-color="#77A3E7"/>
<stop offset="1" stop-color="#3975D4"/>
</linearGradient>
<linearGradient id="paint178_linear_879_6322" x1="430.253" y1="575.284" x2="338.553" y2="619.161" gradientUnits="userSpaceOnUse">
<stop stop-color="#F59E5B"/>
<stop offset="1" stop-color="#F5C25B"/>
</linearGradient>
<linearGradient id="paint179_linear_879_6322" x1="388.75" y1="620.445" x2="434.015" y2="620.445" gradientUnits="userSpaceOnUse">
<stop stop-color="#F5C25B"/>
<stop offset="1" stop-color="#F59E5B"/>
</linearGradient>
<linearGradient id="paint180_linear_879_6322" x1="431.458" y1="455.937" x2="431.458" y2="362.442" gradientUnits="userSpaceOnUse">
<stop stop-color="#C5DCFD"/>
<stop offset="1" stop-color="#86AFF0"/>
</linearGradient>
<linearGradient id="paint181_linear_879_6322" x1="478.175" y1="549.407" x2="478.175" y2="409.202" gradientUnits="userSpaceOnUse">
<stop stop-color="#99BCF2"/>
<stop offset="1" stop-color="#6597E6"/>
</linearGradient>
<linearGradient id="paint182_linear_879_6322" x1="384.742" y1="548.792" x2="384.742" y2="455.224" gradientUnits="userSpaceOnUse">
<stop stop-color="#77A3E7"/>
<stop offset="1" stop-color="#3975D4"/>
</linearGradient>
<linearGradient id="paint183_linear_879_6322" x1="431.458" y1="338.337" x2="431.458" y2="244.842" gradientUnits="userSpaceOnUse">
<stop stop-color="#0681EA"/>
<stop offset="1" stop-color="#0C5FE7"/>
</linearGradient>
<linearGradient id="paint184_linear_879_6322" x1="478.175" y1="431.807" x2="478.175" y2="291.602" gradientUnits="userSpaceOnUse">
<stop stop-color="#0782F3"/>
<stop offset="1" stop-color="#02A5FF"/>
</linearGradient>
<linearGradient id="paint185_linear_879_6322" x1="384.742" y1="428.191" x2="384.742" y2="326.014" gradientUnits="userSpaceOnUse">
<stop stop-color="#0B62E7"/>
<stop offset="1" stop-color="#0040AB"/>
</linearGradient>
<linearGradient id="paint186_linear_879_6322" x1="357.475" y1="420.123" x2="447.453" y2="377.524" gradientUnits="userSpaceOnUse">
<stop stop-color="#0B62E7"/>
<stop offset="1" stop-color="#0040AB"/>
</linearGradient>
<linearGradient id="paint187_linear_879_6322" x1="440.531" y1="327.834" x2="440.531" y2="-5.06707" gradientUnits="userSpaceOnUse">
<stop stop-color="#F5FAFF"/>
<stop offset="1" stop-color="#164087"/>
</linearGradient>
</defs>
</svg>
