<svg width="44" height="42" viewBox="0 0 44 42" fill="none" xmlns="http://www.w3.org/2000/svg">
<path d="M32.8053 10.8066C32.4266 10.8066 32.0373 10.765 31.6585 10.6922C30.2276 10.3905 29.0071 9.55821 28.2075 8.35143C27.4078 7.14465 27.1448 5.69859 27.4394 4.28375C27.7445 2.8689 28.5862 1.66212 29.8067 0.871471C32.3319 -0.751441 35.7198 -0.044018 37.3611 2.46317C38.1608 3.66995 38.4238 5.11601 38.1292 6.53085C37.8241 7.9457 36.9824 9.15248 35.7619 9.94313C34.8781 10.5049 33.8575 10.8066 32.8053 10.8066ZM32.7948 2.39035C32.2267 2.39035 31.648 2.5464 31.1324 2.8793C29.7226 3.78439 29.3227 5.65698 30.2381 7.05102C30.68 7.72723 31.3639 8.19538 32.1635 8.36183C32.9632 8.52828 33.7733 8.38264 34.4572 7.9353C35.1411 7.49836 35.6146 6.82215 35.7829 6.0315C35.9513 5.24085 35.804 4.4398 35.3515 3.76358C34.7729 2.8689 33.7944 2.39035 32.7948 2.39035Z" fill="#A8BAFF"/>
<path d="M31.2609 41.9125C30.4297 41.9125 29.5985 41.8293 28.7673 41.6524C25.6634 40.997 22.991 39.1868 21.2655 36.5548C19.5294 33.9228 18.9402 30.781 19.6031 27.7017C20.2659 24.6223 22.0967 21.9903 24.7586 20.2841C27.4205 18.5676 30.598 17.985 33.7124 18.6404C36.8162 19.2958 39.4887 21.106 41.2142 23.738C42.9502 26.37 43.5394 29.5118 42.8766 32.5912C42.2137 35.6601 40.383 38.3026 37.7211 40.0087C35.7641 41.2571 33.5335 41.9125 31.2609 41.9125ZM31.2188 20.7731C29.4091 20.7731 27.631 21.2933 26.0738 22.292C23.9484 23.6548 22.4965 25.7563 21.9704 28.201C21.4443 30.6562 21.9178 33.153 23.2961 35.2544C24.6744 37.3559 26.7998 38.8019 29.2828 39.3221C31.7554 39.8422 34.2911 39.3741 36.4164 38.0113C38.5417 36.6485 39.9937 34.547 40.5198 32.1022C41.0459 29.6575 40.5724 27.1503 39.1941 25.0488C37.8157 22.9474 35.6904 21.5013 33.2074 20.9812C32.5445 20.8355 31.8816 20.7731 31.2188 20.7731Z" fill="#A8BAFF"/>
<path d="M10.2594 20.2841C6.90301 20.2841 3.6098 18.6612 1.6528 15.6754C-1.42999 10.994 -0.0727189 4.70004 4.66195 1.6623C9.39661 -1.38585 15.7621 -0.043833 18.8344 4.63762C21.9172 9.31907 20.5599 15.613 15.8252 18.6508C14.1102 19.7535 12.1743 20.2841 10.2594 20.2841ZM10.2278 2.41133C8.76532 2.41133 7.2818 2.81705 5.96662 3.65971C2.34723 5.99004 1.31612 10.7963 3.66241 14.375C6.01922 17.9537 10.8801 18.9733 14.4995 16.6533C16.2566 15.5298 17.4561 13.7925 17.898 11.7638C18.3294 9.7352 17.9401 7.66496 16.8037 5.93802C15.3097 3.64931 12.795 2.41133 10.2278 2.41133Z" fill="#A8BAFF"/>
<path d="M19.2227 10.2968C18.6862 10.2968 18.1916 9.94306 18.0549 9.40209C17.8865 8.76749 18.2758 8.11208 18.9176 7.94563L28.4396 5.51127C29.0814 5.34482 29.7442 5.72974 29.9126 6.36434C30.0809 6.99893 29.6916 7.65434 29.0498 7.82079L19.5279 10.2552C19.4227 10.2864 19.3174 10.2968 19.2227 10.2968Z" fill="#A8BAFF"/>
<path d="M32.1758 20.8145C32.1337 20.8145 32.0916 20.8145 32.0495 20.8041C31.3867 20.7312 30.9132 20.1487 30.9763 19.4933L32.0706 9.45414C32.1442 8.79873 32.744 8.32018 33.3963 8.39301C34.0591 8.46583 34.5326 9.04841 34.4695 9.70381L33.3752 19.7429C33.3121 20.3567 32.786 20.8145 32.1758 20.8145Z" fill="#A8BAFF"/>
<path d="M22.5375 25.1941C22.2534 25.1941 21.9693 25.1005 21.7484 24.9028L14.3728 18.5464C13.8678 18.1095 13.8152 17.3605 14.2571 16.8611C14.699 16.3618 15.4565 16.3097 15.9616 16.7467L23.3371 23.1031C23.8421 23.54 23.8948 24.289 23.4529 24.7884C23.2109 25.0589 22.8742 25.1941 22.5375 25.1941Z" fill="#A8BAFF"/>
</svg>
