<svg width="43" height="28" viewBox="0 0 43 28" fill="none" xmlns="http://www.w3.org/2000/svg">
<path d="M1.01278 28C0.826509 28 0.631376 27.9477 0.462849 27.843C-0.00725452 27.5464 -0.140299 26.9271 0.161276 26.4648L14.1313 5.1557C14.3176 4.87658 14.628 4.70213 14.9651 4.69341C15.2933 4.67597 15.6215 4.84169 15.8166 5.11209L26.7443 20.1846L38.621 0.489148C38.9049 0.00940931 39.5346 -0.138868 40.0136 0.140253C40.4926 0.419373 40.6522 1.03867 40.3684 1.50968L27.6934 22.5222C27.516 22.8101 27.2055 23.002 26.8596 23.0107C26.5048 23.0369 26.1855 22.8711 25.9903 22.592L15.0272 7.47589L1.86428 27.5464C1.66914 27.8343 1.34096 28 1.01278 28Z" fill="#FFA8BD"/>
<path d="M41.003 10.7684C40.4708 10.7684 39.9977 10.4001 39.8992 9.86705L38.4504 2.62735L30.7829 5.30226C30.1915 5.50578 29.551 5.20534 29.344 4.62384C29.137 4.04234 29.4425 3.41237 30.0339 3.20884L38.9333 0.10749C39.2388 0.000881266 39.5838 0.0299582 39.8696 0.185026C40.1554 0.349785 40.3525 0.621153 40.4215 0.94098L42.1167 9.44063C42.2349 10.0415 41.8407 10.623 41.2297 10.749C41.1508 10.7684 41.072 10.7684 41.003 10.7684Z" fill="#FFA8BD"/>
</svg>
