<svg width="707" height="763" viewBox="0 0 707 763" fill="none" xmlns="http://www.w3.org/2000/svg">
<path d="M444.314 242.345V260.805L539.232 205.123V186.638L444.314 242.345Z" fill="url(#paint0_linear_491_6643)"/>
<path d="M444.365 242.345V260.805L349.473 205.526V187.116L444.365 242.345Z" fill="url(#paint1_linear_491_6643)"/>
<path d="M349.473 187.116L444.365 242.345L539.232 186.638L444.239 131.358L349.473 187.116Z" fill="url(#paint2_linear_491_6643)"/>
<path style="mix-blend-mode:screen" d="M444.365 240.836L350.781 186.362L349.473 187.116L444.365 242.345L539.232 186.638L537.924 185.884L444.365 240.836Z" fill="url(#paint3_radial_491_6643)"/>
<path d="M444.314 216.34V234.825L539.232 179.118V160.658L444.314 216.34Z" fill="url(#paint4_linear_491_6643)"/>
<path d="M444.365 216.34V234.825L349.473 179.545V161.11L444.365 216.34Z" fill="url(#paint5_linear_491_6643)"/>
<path d="M349.473 161.111L444.365 216.34L539.232 160.658L444.239 105.353L349.473 161.111Z" fill="url(#paint6_linear_491_6643)"/>
<path style="mix-blend-mode:screen" d="M444.365 214.831L350.781 160.356L349.473 161.111L444.365 216.34L539.232 160.658L537.924 159.903L444.365 214.831Z" fill="url(#paint7_radial_491_6643)"/>
<path d="M444.314 190.361V208.846L539.232 153.139V134.653L444.314 190.361Z" fill="url(#paint8_linear_491_6643)"/>
<path d="M444.365 190.36V208.845L349.473 153.566V135.131L444.365 190.36Z" fill="url(#paint9_linear_491_6643)"/>
<path d="M349.473 135.131L444.365 190.36L539.232 134.653L444.239 79.3735L349.473 135.131Z" fill="url(#paint10_linear_491_6643)"/>
<path style="mix-blend-mode:screen" d="M444.365 188.852L350.781 134.377L349.473 135.131L444.365 190.361L539.232 134.653L537.924 133.899L444.365 188.852Z" fill="url(#paint11_radial_491_6643)"/>
<path d="M444.314 164.38V182.84L539.232 127.158V108.673L444.314 164.38Z" fill="url(#paint12_linear_491_6643)"/>
<path d="M444.365 164.38V182.84L349.473 127.561V109.151L444.365 164.38Z" fill="url(#paint13_linear_491_6643)"/>
<path d="M349.473 109.151L444.365 164.38L539.232 108.673L444.239 53.3936L349.473 109.151Z" fill="url(#paint14_linear_491_6643)"/>
<path d="M364.42 109.101L444.264 62.1206L524.26 108.698L444.34 155.628L364.42 109.101Z" fill="#45108A"/>
<path d="M444.264 65.8931L521.039 110.585L524.26 108.698L444.264 62.1206L364.42 109.101L367.641 110.987L444.264 65.8931Z" fill="url(#paint15_linear_491_6643)"/>
<path d="M444.266 65.8931L521.04 110.585L524.261 108.698L444.266 62.1206V65.8931Z" fill="#330A66"/>
<path style="mix-blend-mode:screen" d="M444.365 162.872L350.781 108.397L349.473 109.151L444.365 164.381L539.232 108.673L537.924 107.919L444.365 162.872Z" fill="url(#paint16_radial_491_6643)"/>
<path d="M493.284 113.552C483.419 107.969 476.827 100.751 474.361 92.9041L474.26 92.8538C460.697 91.4454 448.19 87.6226 438.502 81.9388L438.125 81.7124L432.815 85.3843C414.169 98.2862 411.074 111.213 413.565 127.712L413.942 127.938C442.528 129.372 464.949 127.586 487.295 116.822L493.661 113.753L493.284 113.552V113.552Z" fill="#43E8E1"/>
<path style="mix-blend-mode:color-dodge" d="M474.386 107.063L474.285 107.013C460.722 105.605 448.215 101.782 438.527 96.0979L438.15 95.8716L432.84 99.5435C420.51 108.069 414.999 116.645 413.389 126.228C413.464 126.731 413.514 127.208 413.59 127.711L413.967 127.938C440.314 129.271 461.401 127.812 482.035 119.186C478.361 115.438 475.719 111.339 474.386 107.063V107.063Z" fill="url(#paint17_radial_491_6643)"/>
<path style="mix-blend-mode:screen" d="M412.709 0V127.837L413.565 127.686L413.942 127.938C442.528 129.371 464.949 127.586 487.294 116.822L493.661 113.753V0H412.709Z" fill="url(#paint18_linear_491_6643)"/>
<path d="M504.709 473.775V570.225L599.626 514.518V418.067L504.709 473.775Z" fill="url(#paint19_linear_491_6643)"/>
<path d="M504.785 473.775V570.225L409.893 514.92V418.545L504.785 473.775Z" fill="#330A66"/>
<path d="M409.893 418.546L504.785 473.775L599.627 418.068L504.659 362.788L409.893 418.546Z" fill="#45108A"/>
<path style="mix-blend-mode:screen" d="M504.76 472.266L411.176 417.791L409.893 418.546L504.76 473.775L599.627 418.068L598.344 417.313L504.76 472.266Z" fill="url(#paint20_radial_491_6643)"/>
<path d="M391.975 537.681V634.131L486.892 578.424V481.974L391.975 537.681Z" fill="url(#paint21_linear_491_6643)"/>
<path d="M392.025 537.681V634.131L297.133 578.826V482.452L392.025 537.681Z" fill="#330A66"/>
<path d="M297.133 482.452L392.025 537.681L486.892 481.974L391.899 426.694L297.133 482.452Z" fill="#45108A"/>
<path style="mix-blend-mode:screen" d="M392.025 536.172L298.441 481.697L297.133 482.452L392.025 537.681L486.892 481.974L485.584 481.219L392.025 536.172Z" fill="url(#paint22_radial_491_6643)"/>
<path style="mix-blend-mode:screen" d="M443.939 164.858L348.946 109.578L290.34 144.864V241.263L385.157 296.518V296.543L385.182 296.518L385.207 296.543V296.518L443.939 261.308V164.858Z" fill="url(#paint23_linear_491_6643)"/>
<path d="M612.107 538.738V635.188L707 579.506V483.056L612.107 538.738Z" fill="url(#paint24_linear_491_6643)"/>
<path d="M612.158 538.737V635.188L517.266 579.908V483.533L612.158 538.737Z" fill="#330A66"/>
<path d="M517.266 483.533L612.158 538.738L707 483.056L612.032 427.776L517.266 483.533Z" fill="#45108A"/>
<path d="M502.041 602.644V699.094L596.934 643.412V546.962L502.041 602.644Z" fill="url(#paint25_linear_491_6643)"/>
<path d="M502.092 602.644V699.094L407.199 643.814V547.439L502.092 602.644Z" fill="#330A66"/>
<path d="M407.199 547.44L502.092 602.644L596.934 546.962L501.966 491.682L407.199 547.44Z" fill="#45108A"/>
<path style="mix-blend-mode:screen" d="M125.617 460.219L84.4746 484.64L179.342 539.844L179.317 539.869V636.294L220.61 611.949V515.499L125.617 460.219Z" fill="url(#paint26_linear_491_6643)"/>
<path d="M138.627 564.164V660.614L179.921 636.244V539.794L138.627 564.164Z" fill="url(#paint27_linear_491_6643)"/>
<path d="M138.678 564.164V660.614L43.7852 605.335V508.96L138.678 564.164Z" fill="url(#paint28_linear_491_6643)"/>
<path d="M51.334 601.009V522.063L131.128 568.515V647.486L51.334 601.009Z" fill="#330A66"/>
<path d="M54.0768 599.525V523.647L51.334 522.063V601.009L131.128 647.486V644.443L54.0768 599.525Z" fill="url(#paint29_linear_491_6643)"/>
<path d="M54.0768 599.525L51.334 601.009L131.128 647.486V644.443L54.0768 599.525Z" fill="#45108A"/>
<path d="M43.7852 508.96L138.678 564.164L179.921 539.794L84.9278 484.514L43.7852 508.96Z" fill="url(#paint30_linear_491_6643)"/>
<path style="mix-blend-mode:screen" d="M138.678 562.655L45.0685 508.18L43.7852 508.96L138.678 564.164L179.921 539.794L178.638 539.064L138.678 562.655Z" fill="url(#paint31_radial_491_6643)"/>
<path d="M95.6461 589.943V610.993L86.1846 605.536V584.485C82.41 580.26 79.793 574.375 79.793 569.269C79.793 562.227 84.7754 559.386 90.9153 562.932C97.0553 566.478 102.038 575.054 102.038 582.096C102.038 587.201 99.4207 590.069 95.6461 589.943V589.943Z" fill="#43E8E1"/>
<path style="mix-blend-mode:color-dodge" d="M95.6461 589.943V610.993L86.1846 605.536V584.485C82.41 580.26 79.793 574.375 79.793 569.269C79.793 562.227 84.7754 559.386 90.9153 562.932C97.0553 566.478 102.038 575.054 102.038 582.096C102.038 587.201 99.4207 590.069 95.6461 589.943V589.943Z" fill="url(#paint32_radial_491_6643)"/>
<path style="mix-blend-mode:screen" d="M90.9165 562.907C86.689 560.467 83.0151 561.045 81.1279 563.963L0 607.749V661.444L95.6473 610.993V589.943C99.4219 590.069 102.039 587.201 102.039 582.096C102.039 575.054 97.0565 566.478 90.9165 562.932V562.907Z" fill="url(#paint33_linear_491_6643)"/>
<path d="M284.602 603.624V700.075L379.494 644.367V547.942L284.602 603.624Z" fill="url(#paint34_linear_491_6643)"/>
<path d="M284.652 603.624V700.074L189.76 644.795V548.395L284.652 603.624Z" fill="#330A66"/>
<path style="mix-blend-mode:lighten" opacity="0.2" d="M218.144 614.187V564.919L189.76 548.395V630.862L218.144 614.187Z" fill="url(#paint35_radial_491_6643)"/>
<path d="M189.76 548.395L284.652 603.625L379.494 547.942L284.526 492.638L189.76 548.395Z" fill="#45108A"/>
<path style="mix-blend-mode:screen" d="M284.652 602.116L191.043 547.641L189.76 548.395L284.652 603.625L379.494 547.942L378.211 547.188L284.652 602.116Z" fill="url(#paint36_radial_491_6643)"/>
<path d="M177.203 430.694V527.144L272.121 471.436V374.986L177.203 430.694Z" fill="url(#paint37_linear_491_6643)"/>
<path d="M177.254 430.693V527.143L82.3867 471.864V375.464L177.254 430.693Z" fill="#330A66"/>
<path d="M82.3867 375.464L177.254 430.693L272.121 374.986L177.128 319.707L82.3867 375.464Z" fill="#45108A"/>
<path style="mix-blend-mode:screen" d="M177.254 429.184L83.6701 374.709L82.3867 375.464L177.254 430.693L272.121 374.986L270.838 374.231L177.254 429.184Z" fill="url(#paint38_radial_491_6643)"/>
<path style="mix-blend-mode:lighten" opacity="0.2" d="M136.766 476.19L120.711 466.935C114.32 463.238 108.532 462.86 104.33 465.224L96.0508 470.154C100.228 467.915 105.94 468.343 112.206 471.965L128.26 481.22C138.276 487.004 146.806 499.202 150.077 511.274L160.017 517.058V516.279C160.017 501.541 149.599 483.584 136.766 476.165V476.19Z" fill="url(#paint39_radial_491_6643)"/>
<path d="M391.975 666.549V762.999L486.892 707.317V610.867L391.975 666.549Z" fill="url(#paint40_linear_491_6643)"/>
<path d="M392.025 666.55V763L297.133 707.72V611.346L392.025 666.55Z" fill="#330A66"/>
<path d="M297.133 611.345L392.025 666.55L486.892 610.868L391.899 555.588L297.133 611.345Z" fill="#45108A"/>
<path style="mix-blend-mode:screen" d="M392.025 665.041L298.441 610.566L297.133 611.346L392.025 666.55L486.892 610.868L485.584 610.113L392.025 665.041Z" fill="url(#paint41_radial_491_6643)"/>
<path d="M284.602 493.619V590.069L379.494 534.362V437.912L284.602 493.619Z" fill="url(#paint42_linear_491_6643)"/>
<path d="M284.652 493.619V590.069L189.76 534.789V438.389L284.652 493.619Z" fill="#330A66"/>
<path d="M189.76 438.389L284.652 493.619L379.494 437.911L284.526 382.632L189.76 438.389Z" fill="#45108A"/>
<path style="mix-blend-mode:screen" d="M284.652 492.11L191.043 437.635L189.76 438.389L284.652 493.619L379.494 437.911L378.211 437.182L284.652 492.11Z" fill="url(#paint43_radial_491_6643)"/>
<path d="M391.975 634.509V652.994L486.892 597.287V578.827L391.975 634.509Z" fill="url(#paint44_linear_491_6643)"/>
<path d="M392.025 634.509V652.994L297.133 597.714V579.279L392.025 634.509Z" fill="#330A66"/>
<path d="M297.133 579.279L392.025 634.509L486.892 578.827L391.899 523.547L297.133 579.279Z" fill="#45108A"/>
<path d="M306.216 571.809L391.999 621.732L477.782 571.357L391.899 521.359L306.216 571.784V571.809ZM391.999 624.448C391.773 624.448 391.572 624.398 391.37 624.272L303.096 572.891C302.718 572.665 302.467 572.262 302.467 571.809C302.467 571.357 302.693 570.954 303.096 570.728L391.27 518.844C391.672 518.617 392.15 518.617 392.553 518.844L480.928 570.275C481.305 570.502 481.557 570.904 481.557 571.357C481.557 571.809 481.331 572.212 480.928 572.438L392.654 624.272C392.452 624.398 392.251 624.448 392.024 624.448H391.999Z" fill="#43E8E1"/>
<path d="M306.216 560.794L391.999 610.717L477.782 560.341L391.899 510.343L306.216 560.769V560.794ZM391.999 613.433C391.773 613.433 391.572 613.382 391.37 613.257L303.096 561.875C302.718 561.649 302.467 561.247 302.467 560.794C302.467 560.341 302.693 559.939 303.096 559.712L391.27 507.828C391.672 507.602 392.15 507.602 392.553 507.828L480.928 559.26C481.305 559.486 481.557 559.888 481.557 560.341C481.557 560.794 481.331 561.196 480.928 561.423L392.654 613.257C392.452 613.382 392.251 613.433 392.024 613.433H391.999Z" fill="#43E8E1"/>
<path d="M306.216 549.804L391.999 599.726L477.782 549.351L391.899 499.353L306.216 549.778V549.804ZM391.999 602.442C391.773 602.442 391.572 602.392 391.37 602.266L303.096 550.885C302.718 550.659 302.467 550.256 302.467 549.804C302.467 549.351 302.693 548.948 303.096 548.722L391.27 496.838C391.672 496.611 392.15 496.611 392.553 496.838L480.928 548.269C481.305 548.496 481.557 548.898 481.557 549.351C481.557 549.804 481.331 550.206 480.928 550.432L392.654 602.266C392.452 602.392 392.251 602.442 392.024 602.442H391.999Z" fill="#43E8E1"/>
<path d="M306.216 538.788L391.999 588.711L477.782 538.335L391.899 488.337L306.216 538.763V538.788ZM391.999 591.427C391.773 591.427 391.572 591.377 391.37 591.251L303.096 539.869C302.718 539.643 302.467 539.241 302.467 538.788C302.467 538.335 302.693 537.933 303.096 537.707L391.27 485.822C391.672 485.596 392.15 485.596 392.553 485.822L480.928 537.254C481.305 537.48 481.557 537.883 481.557 538.335C481.557 538.788 481.331 539.19 480.928 539.417L392.654 591.251C392.452 591.377 392.251 591.427 392.024 591.427H391.999Z" fill="#43E8E1"/>
<g opacity="0.5">
<path opacity="0.5" d="M306.216 527.797L391.999 577.72L477.782 527.344L391.899 477.346L306.216 527.772V527.797ZM391.999 580.436C391.773 580.436 391.572 580.386 391.37 580.26L303.096 528.879C302.718 528.652 302.467 528.25 302.467 527.797C302.467 527.345 302.693 526.942 303.096 526.716L391.27 474.831C391.672 474.605 392.15 474.605 392.553 474.831L480.928 526.263C481.305 526.489 481.557 526.892 481.557 527.344C481.557 527.797 481.331 528.2 480.928 528.426L392.654 580.26C392.452 580.386 392.251 580.436 392.024 580.436H391.999Z" fill="#43E8E1"/>
</g>
<path d="M391.975 556.544V572.514L486.892 516.807V500.862L391.975 556.544Z" fill="url(#paint45_linear_491_6643)"/>
<path d="M392.025 556.544V572.514L297.133 517.234V501.314L392.025 556.544Z" fill="#330A66"/>
<path d="M297.133 501.314L392.025 556.544L486.892 500.862L391.899 445.582L297.133 501.314Z" fill="#45108A"/>
<path style="mix-blend-mode:screen" d="M392.025 555.035L298.441 500.56L297.133 501.315L392.025 556.544L486.892 500.862L485.584 500.107L392.025 555.035Z" fill="url(#paint46_radial_491_6643)"/>
<path style="mix-blend-mode:lighten" opacity="0.2" d="M486.891 516.807V500.862L419.176 540.574L432.84 548.546L486.891 516.807Z" fill="url(#paint47_radial_491_6643)"/>
<path opacity="0.3" d="M391.975 556.544V652.994L486.892 597.287V500.862L391.975 556.544Z" fill="url(#paint48_linear_491_6643)"/>
<path opacity="0.1" d="M392.025 556.544V652.994L297.133 597.714V501.314L392.025 556.544Z" fill="#330A66"/>
<path d="M612.107 428.732V525.182L707 469.5V373.05L612.107 428.732Z" fill="url(#paint49_linear_491_6643)"/>
<path d="M612.158 428.732V525.182L517.266 469.902V373.527L612.158 428.732Z" fill="#330A66"/>
<path d="M517.266 373.528L612.158 428.732L707 373.05L612.032 317.77L517.266 373.528Z" fill="#45108A"/>
<path style="mix-blend-mode:screen" d="M612.158 427.222L518.549 372.748L517.266 373.527L612.158 428.731L707 373.049L705.717 372.295L612.158 427.222Z" fill="url(#paint50_radial_491_6643)"/>
<path style="mix-blend-mode:screen" d="M602.822 441.131L507.829 385.851L413.088 441.609V538.008L507.905 593.263V593.288L507.93 593.263L507.955 593.288V593.263L602.822 537.581V441.131Z" fill="url(#paint51_linear_491_6643)"/>
<path d="M596.809 625.932V644.418L691.726 588.711V570.25L596.809 625.932Z" fill="url(#paint52_linear_491_6643)"/>
<path d="M596.859 625.932V644.417L501.992 589.138V570.728L596.859 625.932Z" fill="url(#paint53_linear_491_6643)"/>
<path d="M501.992 570.728L596.859 625.932L691.727 570.25L596.759 514.971L501.992 570.728Z" fill="url(#paint54_linear_491_6643)"/>
<path style="mix-blend-mode:screen" d="M596.859 624.424L503.276 569.949L501.992 570.728L596.859 625.933L691.727 570.251L690.443 569.496L596.859 624.424Z" fill="url(#paint55_radial_491_6643)"/>
<path d="M596.809 599.953V618.438L691.726 562.731V544.246L596.809 599.953Z" fill="url(#paint56_linear_491_6643)"/>
<path d="M596.859 599.953V618.438L501.992 563.158V544.723L596.859 599.953Z" fill="url(#paint57_linear_491_6643)"/>
<path d="M501.992 544.723L596.859 599.953L691.727 544.245L596.759 488.966L501.992 544.723Z" fill="url(#paint58_linear_491_6643)"/>
<path style="mix-blend-mode:screen" d="M596.859 598.444L503.276 543.969L501.992 544.724L596.859 599.953L691.727 544.246L690.443 543.491L596.859 598.444Z" fill="url(#paint59_radial_491_6643)"/>
<path d="M596.809 573.973V592.433L691.726 536.751V518.266L596.809 573.973Z" fill="url(#paint60_linear_491_6643)"/>
<path d="M596.859 573.973V592.433L501.992 537.153V518.744L596.859 573.973Z" fill="url(#paint61_linear_491_6643)"/>
<path d="M501.992 518.744L596.859 573.973L691.727 518.266L596.759 462.986L501.992 518.744Z" fill="url(#paint62_linear_491_6643)"/>
<path style="mix-blend-mode:screen" d="M596.859 572.464L503.276 517.99L501.992 518.744L596.859 573.973L691.727 518.266L690.443 517.512L596.859 572.464Z" fill="url(#paint63_radial_491_6643)"/>
<path d="M596.809 547.967V566.452L691.726 510.745V492.285L596.809 547.967Z" fill="url(#paint64_linear_491_6643)"/>
<path d="M596.859 547.968V566.453L501.992 511.173V492.764L596.859 547.968Z" fill="url(#paint65_linear_491_6643)"/>
<path d="M501.992 492.763L596.859 547.968L691.727 492.286L596.759 437.006L501.992 492.763Z" fill="url(#paint66_linear_491_6643)"/>
<path d="M516.939 492.713L596.759 445.733L676.779 492.311L596.859 539.24L516.939 492.713Z" fill="#45108A"/>
<path d="M596.759 449.505L673.559 494.197L676.779 492.311L596.759 445.733L516.939 492.713L520.16 494.599L596.759 449.505Z" fill="url(#paint67_linear_491_6643)"/>
<path d="M596.758 449.505L673.558 494.197L676.779 492.311L596.758 445.733V449.505Z" fill="#330A66"/>
<path style="mix-blend-mode:screen" d="M596.859 546.458L503.276 491.983L501.992 492.763L596.859 547.967L691.727 492.285L690.443 491.531L596.859 546.458Z" fill="url(#paint68_radial_491_6643)"/>
<path d="M569.732 512.029L575.192 508.885C573.733 508.08 572.122 507.149 570.361 506.143L567.97 504.76L562.56 507.879C561.83 508.306 560.622 508.306 559.868 507.879L554.986 505.062C554.231 504.635 554.231 503.93 554.986 503.503L560.396 500.384L554.734 497.115C553.979 496.687 553.979 495.983 554.734 495.555L601.614 468.494C602.344 468.066 603.552 468.066 604.307 468.494L609.969 471.764L615.379 468.645C616.108 468.217 617.316 468.217 618.071 468.645L622.953 471.462C623.708 471.889 623.708 472.593 622.953 473.021L617.543 476.14L622.878 479.233C623.507 479.61 624.111 479.962 624.689 480.314L630.15 477.171C630.88 476.743 632.087 476.743 632.842 477.171L637.724 479.988C638.479 480.415 638.479 481.119 637.724 481.547L631.685 485.018C633.018 486.2 633.924 487.457 634.352 488.79C634.855 490.274 634.755 491.808 634.05 493.392C633.32 495.052 631.76 496.536 629.445 497.819C627.558 498.85 625.243 499.63 622.752 500.032C619.128 500.636 615.555 500.535 612.032 499.781C614.196 502.044 615.026 504.257 614.548 506.42C614.07 508.583 612.384 510.494 609.516 512.154C607.251 513.462 604.533 514.418 601.363 515.047C598.167 515.675 595.021 515.826 591.901 515.499C588.881 515.197 585.937 514.393 583.069 513.085L577.306 516.405C576.576 516.832 575.368 516.832 574.614 516.405L569.732 513.588C568.977 513.16 568.977 512.456 569.732 512.029V512.029ZM604.76 478.302L593.31 484.917L599.903 488.715C603.829 490.978 606.32 492.361 607.377 492.839C609.314 493.719 611.252 494.147 613.215 494.172C615.177 494.172 616.964 493.719 618.575 492.789C620.11 491.909 620.94 490.928 621.041 489.897C621.141 488.865 620.462 487.784 618.977 486.703C618.096 486.074 615.278 484.364 610.547 481.647L604.76 478.302V478.302ZM585.056 489.67L571.795 497.316L581.131 502.698C584.754 504.785 587.17 506.068 588.353 506.496C590.114 507.2 592.002 507.527 593.99 507.476C595.978 507.426 597.865 506.873 599.601 505.867C601.086 505.012 601.992 504.081 602.294 503.05C602.596 502.044 602.294 500.988 601.413 499.931C600.507 498.875 597.764 497.014 593.184 494.373L585.056 489.67V489.67Z" fill="#43E8E1"/>
<path style="mix-blend-mode:color-dodge" d="M634.352 488.79C633.924 487.482 633.018 486.225 631.685 485.017L632.893 484.338H632.842C632.087 483.86 630.88 483.86 630.15 484.288L624.689 487.432C624.11 487.08 623.532 486.727 622.877 486.35L617.543 483.257L622.953 480.138C623.23 479.987 623.381 479.761 623.431 479.56C623.23 479.434 623.054 479.333 622.852 479.208L617.518 476.114L618.096 475.762H618.046C617.291 475.284 616.083 475.284 615.353 475.712L609.943 478.83L604.281 475.561C603.527 475.133 602.344 475.133 601.589 475.561L559.54 499.831L560.371 500.308L554.961 503.427C554.709 503.578 554.558 503.754 554.482 503.955C554.558 504.031 554.608 504.106 554.709 504.156L560.371 507.426L559.792 507.778H559.842C560.597 508.256 561.78 508.256 562.535 507.828L567.945 504.71L570.336 506.093C572.097 507.124 573.708 508.03 575.167 508.834L569.706 511.978C569.43 512.154 569.279 512.355 569.228 512.557L570.336 513.21C572.097 514.242 573.708 515.147 575.167 515.952L574.538 516.304H574.588C575.343 516.782 576.551 516.782 577.281 516.354L583.043 513.034C585.912 514.342 588.856 515.122 591.876 515.449C594.996 515.776 598.141 515.625 601.337 514.996C604.533 514.367 607.251 513.412 609.49 512.104C611.302 511.073 612.56 509.916 613.441 508.658C613.919 508.206 614.02 507.954 614.196 507.225C614.297 506.948 614.448 506.671 614.523 506.37C615.001 504.207 614.171 501.994 612.007 499.73C615.53 500.51 619.103 500.585 622.726 499.982C625.218 499.579 627.533 498.799 629.42 497.768C631.332 496.712 632.666 495.53 633.522 494.222C633.044 493.493 632.44 492.789 631.66 492.084L634.604 490.374C634.604 489.821 634.503 489.268 634.327 488.714L634.352 488.79ZM602.268 503.05C601.966 504.056 601.06 505.012 599.576 505.867C597.814 506.873 595.952 507.426 593.964 507.476C591.976 507.526 590.089 507.225 588.328 506.495C587.145 506.043 584.754 504.785 581.106 502.698L571.77 497.316L585.031 489.67L593.159 494.373C597.739 497.014 600.482 498.875 601.388 499.931C602.294 500.988 602.57 502.044 602.268 503.05V503.05ZM618.549 492.789C616.939 493.719 615.177 494.172 613.189 494.172C611.227 494.172 609.264 493.719 607.351 492.839C606.295 492.361 603.803 490.978 599.878 488.714L593.285 484.917L604.734 478.302L610.522 481.647C615.253 484.389 618.071 486.074 618.952 486.702C620.437 487.784 621.116 488.865 621.015 489.896C620.915 490.953 620.084 491.908 618.549 492.789V492.789Z" fill="url(#paint69_radial_491_6643)"/>
<path d="M504.709 255.8V352.25L599.626 296.543V200.093L504.709 255.8Z" fill="url(#paint70_linear_491_6643)"/>
<path d="M504.785 255.8V352.25L409.893 296.971V200.571L504.785 255.8Z" fill="#330A66"/>
<path d="M409.893 200.571L504.785 255.8L599.627 200.093L504.659 144.813L409.893 200.571Z" fill="#45108A"/>
<path style="mix-blend-mode:screen" d="M504.76 254.291L411.176 199.816L409.893 200.571L504.76 255.8L599.627 200.093L598.344 199.364L504.76 254.291Z" fill="url(#paint71_radial_491_6643)"/>
<g style="mix-blend-mode:multiply">
<path d="M690.494 363.367C690.242 363.392 690.016 363.417 689.764 363.467L671.596 354.665C670.816 351.773 666.261 349.559 660.574 349.333L614.021 326.773L610.977 333.061L646.155 350.113L623.659 346.089C622.25 343.448 617.62 341.486 612.033 341.486C605.34 341.486 599.93 344.278 599.93 347.723C599.93 350.691 603.931 353.156 609.291 353.785L607.781 409.794C603.201 410.674 599.93 412.937 599.93 415.628C599.93 419.074 605.34 421.866 612.033 421.866C618.727 421.866 624.137 419.074 624.137 415.628C624.137 415.15 624.011 414.673 623.81 414.22L690.569 375.489C691.45 375.59 692.331 375.665 693.262 375.665C698.496 375.665 702.925 373.93 704.611 371.54L690.519 363.392L690.494 363.367ZM614.877 406.499L616.311 353.533C617.569 353.282 618.727 352.929 619.734 352.477L648.294 357.607C648.622 358.085 649.024 358.538 649.553 358.965L644.469 363.543C644.117 363.543 643.765 363.492 643.387 363.492C636.694 363.492 631.284 366.284 631.284 369.73C631.284 371.591 632.869 373.225 635.36 374.357L614.827 406.499H614.877ZM623.206 406.449L642.708 375.917C642.96 375.917 643.186 375.942 643.413 375.942C650.106 375.942 655.516 373.15 655.516 369.704C655.516 368.145 654.384 366.762 652.572 365.655L657.077 361.581C657.907 361.682 658.763 361.732 659.643 361.732C662.537 361.732 665.154 361.179 667.243 360.324L681.838 367.391C681.41 368.019 681.133 368.698 681.133 369.403C681.133 370.384 681.611 371.289 682.391 372.119L623.181 406.449H623.206Z" fill="#BCBCD6"/>
</g>
<g opacity="0.7">
<path opacity="0.7" d="M626.987 268.506L607.486 318.188L615.451 321.31L634.952 271.628L626.987 268.506Z" fill="#8770B8"/>
<g style="mix-blend-mode:screen" opacity="0.5">
<path d="M627.954 270.823L610.283 315.819L613.563 317.106L631.233 272.109L627.954 270.823Z" fill="#8770B8"/>
</g>
</g>
<g opacity="0.7">
<path opacity="0.7" d="M588.202 361.154C586.441 361.154 584.83 360.072 584.201 358.362L566.586 311.206C566.234 310.225 566.234 309.169 566.586 308.213L582.943 264.829C583.018 264.628 583.094 264.452 583.195 264.276L607.729 219.635L615.228 223.759L590.844 268.124L575.167 309.722L590.97 352.049L642.405 343.021L643.889 351.446L588.957 361.078C588.705 361.129 588.454 361.154 588.227 361.154H588.202Z" fill="#8770B8"/>
<g style="mix-blend-mode:screen" opacity="0.5">
<path d="M587.699 357.632C586.969 357.632 586.315 357.18 586.038 356.475L568.424 309.319C568.273 308.917 568.273 308.489 568.424 308.087L584.78 264.703C584.78 264.703 584.856 264.552 584.881 264.477L608.208 222.049L611.303 223.734L588.026 266.061L571.947 308.716L588.832 353.885L639.838 344.932L640.442 348.402L587.976 357.607C587.976 357.607 587.775 357.632 587.674 357.632H587.699Z" fill="#8770B8"/>
</g>
</g>
<g opacity="0.7">
<path opacity="0.7" d="M658.662 303.309C657.53 303.309 656.397 302.856 655.567 301.976L629.019 274.235L589.336 271.016L590.041 262.49L631.359 265.835C632.416 265.911 633.372 266.388 634.102 267.143L659.065 293.223L691.249 267.394L696.609 274.059L661.38 302.353C660.6 302.982 659.643 303.309 658.712 303.309H658.662Z" fill="#8770B8"/>
<g style="mix-blend-mode:screen" opacity="0.5">
<path d="M658.159 299.787C657.681 299.787 657.228 299.586 656.876 299.234L629.648 270.789L591.525 267.696L591.802 264.2L630.605 267.344C631.032 267.369 631.435 267.57 631.737 267.872L658.31 295.638L690.318 269.934L692.533 272.676L659.266 299.385C658.864 299.712 658.436 299.762 658.159 299.762V299.787Z" fill="#8770B8"/>
</g>
</g>
<g opacity="0.7">
<path opacity="0.7" d="M690.342 353.609L660.045 308.716L647.212 348.553L639.059 345.938L654.585 297.725C655.088 296.166 656.422 295.034 658.057 294.808C659.693 294.582 661.278 295.286 662.209 296.644L697.438 348.83L690.342 353.609V353.609Z" fill="#8770B8"/>
<g style="mix-blend-mode:screen" opacity="0.5">
<path d="M658.736 302.001L645.097 344.353L641.75 343.272L656.496 297.474C656.697 296.82 657.251 296.367 657.93 296.267C658.031 296.267 658.106 296.267 658.207 296.267C658.786 296.267 659.314 296.568 659.667 297.046L693.487 347.145L690.568 349.107L658.786 302.001H658.736Z" fill="#8770B8"/>
</g>
</g>
<g opacity="0.7">
<path opacity="0.7" d="M611.479 324.058C610.951 324.058 610.397 323.957 609.894 323.756C608.812 323.328 607.956 322.473 607.529 321.417L586.894 271.243L530.628 275.015C528.64 275.191 526.854 273.909 526.25 272.022C525.646 270.136 526.426 268.099 528.112 267.068L609.265 218.025L613.694 225.344L547.614 265.282L589.386 262.465C591.248 262.34 592.934 263.396 593.638 265.106L613.769 314.048L657.755 294.28L661.253 302.077L613.241 323.655C612.687 323.907 612.083 324.033 611.479 324.033V324.058Z" fill="#8770B8"/>
<g style="mix-blend-mode:screen" opacity="0.5">
<path d="M610.976 320.537C610.75 320.537 610.548 320.487 610.322 320.411C609.869 320.235 609.517 319.883 609.341 319.455L588.002 267.596L529.899 271.494C528.993 271.494 528.364 270.991 528.137 270.262C527.886 269.482 528.213 268.652 528.892 268.225L607.881 220.49L609.693 223.508L545.752 262.139L547.211 266.791L589.008 263.975C589.864 263.975 590.468 264.402 590.745 265.056L611.857 316.412L655.919 296.594L657.353 299.813L611.631 320.361C611.404 320.461 611.152 320.512 610.901 320.512L610.976 320.537Z" fill="#8770B8"/>
</g>
</g>
<g opacity="0.7">
<path opacity="0.7" d="M611.48 405.166C610.725 405.166 609.97 404.965 609.29 404.562L528.137 356.149C526.854 355.369 526.049 353.986 526.049 352.477V270.739H534.604V350.062L611.455 395.911L684.153 352.099L609.945 323.781L612.99 315.783L695.401 347.22C696.936 347.799 697.993 349.207 698.144 350.842C698.295 352.477 697.489 354.036 696.08 354.891L613.669 404.562C612.989 404.965 612.235 405.166 611.455 405.166H611.48Z" fill="#8770B8"/>
<g style="mix-blend-mode:screen" opacity="0.5">
<path d="M610.977 401.645C610.65 401.645 610.348 401.569 610.071 401.393L528.918 352.98C528.39 352.653 528.062 352.074 528.062 351.47V272.248H531.585V350.465L610.977 397.822L689.387 350.565L612.713 321.316L613.971 318.021L694.042 348.553C694.671 348.779 695.099 349.383 695.175 350.037C695.225 350.691 694.898 351.37 694.319 351.697L611.908 401.368C611.631 401.544 611.329 401.62 611.002 401.62L610.977 401.645Z" fill="#8770B8"/>
</g>
</g>
<g opacity="0.7">
<path opacity="0.7" d="M691.651 274.361L621.721 231.481L635.234 269.08L627.181 271.972L609.567 222.93C608.963 221.219 609.491 219.308 610.901 218.176C612.31 217.044 614.298 216.894 615.833 217.849L696.155 267.093L691.676 274.386L691.651 274.361Z" fill="#8770B8"/>
<g style="mix-blend-mode:screen" opacity="0.5">
<path d="M616.437 224.589L631.511 266.54L628.189 267.722L611.43 221.043C611.178 220.339 611.405 219.559 611.983 219.082C612.285 218.83 612.688 218.679 613.091 218.679C613.418 218.679 613.72 218.78 614.022 218.931L692.205 266.867L690.368 269.859L616.463 224.539L616.437 224.589Z" fill="#8770B8"/>
</g>
</g>
<g opacity="0.7">
<path opacity="0.7" d="M531.936 356.426L528.74 348.503L607.226 316.89V222.1H615.782V319.757C615.782 321.492 614.725 323.077 613.114 323.731L531.961 356.426H531.936Z" fill="#8770B8"/>
<g style="mix-blend-mode:screen" opacity="0.5">
<path d="M531.508 348.88L609.213 317.569V223.608H612.736V318.751C612.736 319.48 612.309 320.109 611.629 320.386L532.816 352.125L531.508 348.855V348.88Z" fill="#8770B8"/>
</g>
</g>
<g opacity="0.7">
<path opacity="0.7" d="M533.428 267.808L527.27 273.744L567.113 315.038L573.272 309.103L533.428 267.808Z" fill="#8770B8"/>
<g style="mix-blend-mode:screen" opacity="0.5">
<path d="M532.856 270.262L530.318 272.705L566.649 310.398L569.186 307.955L532.856 270.262Z" fill="#8770B8"/>
</g>
</g>
<g opacity="0.7">
<path opacity="0.7" d="M591.825 359.141L584.578 354.589L607.855 317.493C608.987 315.707 611.252 315.003 613.215 315.858L650.331 332.206L646.884 340.027L613.139 325.164L591.825 359.116V359.141Z" fill="#8770B8"/>
<g style="mix-blend-mode:screen" opacity="0.5">
<path d="M587.549 352.804L609.491 317.846C609.819 317.317 610.372 317.016 610.976 317.016C611.228 317.016 611.454 317.066 611.681 317.167L646.482 332.508L645.073 335.727L611.655 321.014L590.518 354.69L587.523 352.829L587.549 352.804Z" fill="#8770B8"/>
</g>
</g>
<g opacity="0.7">
<path opacity="0.7" d="M611.479 405.166H611.404C609.844 405.141 608.435 404.261 607.705 402.877L585.536 360.952L530.024 356.727C528.389 356.601 526.954 355.545 526.35 354.011C525.747 352.477 526.099 350.741 527.231 349.534L567.493 306.779L573.734 312.639L539.612 348.88L588.555 352.603C590.015 352.728 591.323 353.558 592.003 354.866L611.656 392.013L644.897 333.992C645.903 332.231 648.017 331.426 649.955 332.055L689.638 345.083V274.361H631.006V265.81H693.916C696.281 265.81 698.194 267.721 698.194 270.086V350.993C698.194 352.351 697.539 353.659 696.432 354.464C695.325 355.269 693.891 355.495 692.582 355.067L650.609 341.285L615.229 403.028C614.474 404.361 613.039 405.191 611.505 405.191L611.479 405.166Z" fill="#8770B8"/>
<g style="mix-blend-mode:screen" opacity="0.5">
<path d="M610.901 401.645C610.297 401.645 609.718 401.268 609.416 400.715L586.593 357.557L529.697 353.231C529.018 353.181 528.439 352.728 528.188 352.125C527.936 351.496 528.087 350.767 528.54 350.289L567.066 309.37L569.632 311.784L533.623 350.037L587.826 354.162C588.43 354.212 588.958 354.564 589.26 355.092L611.052 396.288L646.583 334.293C646.885 333.74 647.489 333.413 648.118 333.413C648.294 333.413 648.495 333.438 648.672 333.514L691.651 347.623V270.916H633.02V267.395H693.413C694.394 267.395 695.174 268.174 695.174 269.155V350.062C695.174 350.616 694.897 351.169 694.444 351.496C694.142 351.722 693.79 351.823 693.413 351.823C693.211 351.823 693.035 351.798 692.859 351.722L648.948 337.286L612.536 400.79C612.234 401.343 611.631 401.67 611.001 401.67H610.926L610.901 401.645Z" fill="#8770B8"/>
</g>
</g>
<path d="M543.109 352.477C543.109 359.544 537.372 365.253 530.326 365.253C523.28 365.253 517.543 359.519 517.543 352.477C517.543 345.435 523.28 339.701 530.326 339.701C537.372 339.701 543.109 345.435 543.109 352.477Z" fill="url(#paint72_radial_491_6643)"/>
<path d="M543.109 270.74C543.109 277.807 537.372 283.516 530.326 283.516C523.28 283.516 517.543 277.782 517.543 270.74C517.543 263.698 523.28 257.963 530.326 257.963C537.372 257.963 543.109 263.698 543.109 270.74Z" fill="url(#paint73_radial_491_6643)"/>
<path d="M624.262 319.782C624.262 326.849 618.524 332.558 611.478 332.558C604.433 332.558 598.695 326.824 598.695 319.782C598.695 312.74 604.433 307.006 611.478 307.006C618.524 307.006 624.262 312.74 624.262 319.782V319.782Z" fill="url(#paint74_radial_491_6643)"/>
<path d="M600.986 356.878C600.986 363.945 595.249 369.654 588.203 369.654C581.157 369.654 575.42 363.92 575.42 356.878C575.42 349.836 581.157 344.102 588.203 344.102C595.249 344.102 600.986 349.836 600.986 356.878Z" fill="url(#paint75_radial_491_6643)"/>
<path d="M706.674 270.74C706.674 277.807 700.936 283.516 693.891 283.516C686.845 283.516 681.107 277.782 681.107 270.74C681.107 263.698 686.845 257.963 693.891 257.963C700.936 257.963 706.674 263.698 706.674 270.74Z" fill="url(#paint76_radial_491_6643)"/>
<path d="M706.674 351.22C706.674 358.287 700.936 363.996 693.891 363.996C686.845 363.996 681.107 358.262 681.107 351.22C681.107 344.178 686.845 338.443 693.891 338.443C700.936 338.443 706.674 344.178 706.674 351.22Z" fill="url(#paint77_radial_491_6643)"/>
<path d="M624.262 400.89C624.262 407.958 618.524 413.667 611.478 413.667C604.433 413.667 598.695 407.932 598.695 400.89C598.695 393.848 604.433 388.114 611.478 388.114C618.524 388.114 624.262 393.848 624.262 400.89Z" fill="url(#paint78_radial_491_6643)"/>
<path d="M624.262 221.697C624.262 228.764 618.524 234.473 611.478 234.473C604.433 234.473 598.695 228.739 598.695 221.697C598.695 214.655 604.433 208.921 611.478 208.921C618.524 208.921 624.262 214.655 624.262 221.697Z" fill="url(#paint79_radial_491_6643)"/>
<path d="M643.764 270.111C643.764 277.178 638.026 282.887 630.98 282.887C623.935 282.887 618.197 277.153 618.197 270.111C618.197 263.069 623.935 257.335 630.98 257.335C638.026 257.335 643.764 263.069 643.764 270.111Z" fill="url(#paint80_radial_491_6643)"/>
<path d="M671.445 299.033C671.445 306.1 665.708 311.809 658.662 311.809C651.616 311.809 645.879 306.075 645.879 299.033C645.879 291.991 651.616 286.257 658.662 286.257C665.708 286.257 671.445 291.991 671.445 299.033Z" fill="url(#paint81_radial_491_6643)"/>
<path d="M656.045 346.189C656.045 353.256 650.308 358.965 643.262 358.965C636.216 358.965 630.479 353.231 630.479 346.189C630.479 339.147 636.216 333.413 643.262 333.413C650.308 333.413 656.045 339.147 656.045 346.189Z" fill="url(#paint82_radial_491_6643)"/>
<path d="M583.371 309.722C583.371 316.789 577.634 322.498 570.588 322.498C563.542 322.498 557.805 316.764 557.805 309.722C557.805 302.68 563.542 296.946 570.588 296.946C577.634 296.946 583.371 302.68 583.371 309.722V309.722Z" fill="url(#paint83_radial_491_6643)"/>
<path d="M599.728 266.338C599.728 273.405 593.991 279.114 586.945 279.114C579.899 279.114 574.162 273.38 574.162 266.338C574.162 259.296 579.899 253.562 586.945 253.562C593.991 253.562 599.728 259.296 599.728 266.338Z" fill="url(#paint84_radial_491_6643)"/>
<path d="M287.27 256.781V353.232L382.187 297.524V201.074L287.27 256.781Z" fill="url(#paint85_linear_491_6643)"/>
<path d="M287.32 256.781V353.231L192.453 297.952V201.552L287.32 256.781Z" fill="#330A66"/>
<path d="M192.453 201.552L287.32 256.781L382.188 201.074L287.195 145.794L192.453 201.552Z" fill="#45108A"/>
<path style="mix-blend-mode:screen" d="M287.32 255.272L193.736 200.798L192.453 201.552L287.32 256.781L382.188 201.074L380.904 200.32L287.32 255.272Z" fill="url(#paint86_radial_491_6643)"/>
<path d="M391.975 319.706V416.156L486.892 360.449V263.999L391.975 319.706Z" fill="url(#paint87_linear_491_6643)"/>
<path d="M392.025 319.706V416.157L297.133 360.877V264.477L392.025 319.706Z" fill="#330A66"/>
<path d="M297.133 264.477L392.025 319.707L486.892 263.999L391.899 208.72L297.133 264.477Z" fill="#45108A"/>
<path style="mix-blend-mode:screen" d="M392.025 318.198L298.441 263.723L297.133 264.477L392.025 319.707L486.892 263.999L485.584 263.27L392.025 318.198Z" fill="url(#paint88_radial_491_6643)"/>
<path d="M502.041 382.632V479.082L596.934 423.375V326.95L502.041 382.632Z" fill="url(#paint89_linear_491_6643)"/>
<path d="M502.092 382.632V479.082L407.199 423.802V327.402L502.092 382.632Z" fill="#330A66"/>
<path d="M407.199 327.402L502.092 382.632L596.934 326.95L501.966 271.645L407.199 327.402Z" fill="#45108A"/>
<path style="mix-blend-mode:screen" d="M502.092 381.123L408.483 326.648L407.199 327.402L502.092 382.632L596.959 326.95L595.65 326.195L502.092 381.123Z" fill="url(#paint90_radial_491_6643)"/>
<path style="mix-blend-mode:lighten" opacity="0.2" d="M502.972 382.079L502.041 382.632V390.806L569.555 430.115L502.041 469.726V479.082L585.484 430.115L502.972 382.079Z" fill="url(#paint91_radial_491_6643)"/>
<path style="mix-blend-mode:lighten" opacity="0.2" d="M502.041 455.491L545.247 430.543C545.977 430.115 545.977 429.411 545.247 428.983L539.585 425.714L544.996 422.595C545.725 422.168 545.725 421.463 544.996 421.036L540.114 418.219C539.359 417.792 538.151 417.792 537.421 418.219L532.011 421.338L529.621 419.954C527.859 418.923 526.249 418.018 524.789 417.213L530.25 414.069C530.979 413.642 530.979 412.938 530.25 412.51L525.368 409.693C524.613 409.266 523.405 409.266 522.675 409.693L516.913 413.013C514.044 411.705 511.1 410.926 508.08 410.599C506.092 410.397 504.079 410.397 502.066 410.599V419.451C503.324 418.948 504.658 418.672 506.042 418.621C508.03 418.571 509.917 418.873 511.679 419.602C512.861 420.055 515.252 421.313 518.901 423.4L528.236 428.782L514.975 436.428L506.847 431.725C504.935 430.618 503.375 429.662 502.091 428.832V438.49L506.721 441.156L502.091 443.822V455.441L502.041 455.491Z" fill="url(#paint92_radial_491_6643)"/>
<path d="M177.203 320.687V417.137L272.121 361.43V264.98L177.203 320.687Z" fill="url(#paint93_linear_491_6643)"/>
<path d="M177.254 320.687V417.137L82.3867 361.857V265.458L177.254 320.687Z" fill="#330A66"/>
<path d="M82.3867 265.458L177.254 320.687L272.121 264.98L177.128 209.7L82.3867 265.458Z" fill="#45108A"/>
<path style="mix-blend-mode:screen" d="M177.254 319.178L83.6701 264.703L82.3867 265.458L177.254 320.687L272.121 264.98L270.838 264.226L177.254 319.178Z" fill="url(#paint94_radial_491_6643)"/>
<path d="M284.602 383.612V480.063L379.494 424.355V327.905L284.602 383.612Z" fill="url(#paint95_linear_491_6643)"/>
<path d="M284.652 383.613V480.063L189.76 424.783V328.383L284.652 383.613Z" fill="#330A66"/>
<path d="M189.76 328.383L284.652 383.613L379.494 327.906L284.526 272.626L189.76 328.383Z" fill="#45108A"/>
<path d="M284.701 433.283V479.735L379.443 424.506V378.079L284.701 433.283Z" fill="url(#paint96_linear_491_6643)"/>
<path d="M290.49 469.65V436.628L373.631 388.164V421.186L290.49 469.65ZM294.969 439.193V461.879L369.177 418.621V395.935L294.969 439.193V439.193Z" fill="url(#paint97_linear_491_6643)"/>
<path d="M284.752 433.283V479.735L189.709 424.355V377.979L284.752 433.283Z" fill="url(#paint98_linear_491_6643)"/>
<path d="M197.736 419.727V391.937L276.725 437.911V465.752L197.736 419.727Z" fill="#25054D"/>
<path d="M278.964 469.65L195.496 421.01V388.039L278.964 436.603V469.625V469.65ZM199.975 418.445L274.485 461.854V439.168L199.975 395.81V418.445V418.445Z" fill="url(#paint99_linear_491_6643)"/>
<path d="M265.93 440.728L269 442.489V438.968L265.93 437.207V440.728Z" fill="#2AF6FF"/>
<path d="M260.193 437.408L263.238 439.169V435.673L260.193 433.887V437.408Z" fill="#2AF6FF"/>
<path d="M254.455 434.089L257.5 435.849V432.353L254.455 430.593V434.089Z" fill="#4B61B8"/>
<path d="M248.693 430.768L251.763 432.554V429.033L248.693 427.272V430.768Z" fill="#25054D"/>
<path d="M242.955 427.474L246.025 429.235V425.714L242.955 423.953V427.474Z" fill="#25054D"/>
<path d="M237.219 424.154L240.264 425.914V422.418L237.219 420.633V424.154Z" fill="#4B61B8"/>
<path d="M231.48 420.834L234.525 422.595V419.099L231.48 417.338V420.834Z" fill="#4B61B8"/>
<path d="M225.719 417.514L228.789 419.275V415.779L225.719 414.019V417.514Z" fill="#4B61B8"/>
<path d="M219.98 414.195L223.05 415.981V412.46L219.98 410.699V414.195Z" fill="#25054D"/>
<path d="M214.244 410.9L217.289 412.66V409.139L214.244 407.379V410.9Z" fill="#4B61B8"/>
<path d="M208.508 407.58L211.553 409.341V405.845L208.508 404.084V407.58Z" fill="#2AF6FF"/>
<path d="M202.744 404.26L205.814 406.021V402.525L202.744 400.765V404.26Z" fill="#2AF6FF"/>
<path d="M265.93 446.94L269 448.726V445.205L265.93 443.444V446.94Z" fill="#4B61B8"/>
<path d="M260.193 443.645L263.238 445.406V441.885L260.193 440.125V443.645Z" fill="#2AF6FF"/>
<path d="M254.455 440.326L257.5 442.086V438.591L254.455 436.83V440.326Z" fill="#2AF6FF"/>
<path d="M248.693 437.006L251.763 438.766V435.27L248.693 433.51V437.006Z" fill="#25054D"/>
<path d="M242.955 433.686L246.025 435.472V431.951L242.955 430.19V433.686Z" fill="#2AF6FF"/>
<path d="M237.219 430.391L240.264 432.152V428.631L237.219 426.87V430.391Z" fill="#2AF6FF"/>
<path d="M231.48 427.072L234.525 428.832V425.336L231.48 423.551V427.072Z" fill="#2AF6FF"/>
<path d="M225.719 423.752L228.789 425.512V422.016L225.719 420.256V423.752Z" fill="#4B61B8"/>
<path d="M219.98 420.432L223.05 422.193V418.697L219.98 416.937V420.432Z" fill="#4B61B8"/>
<path d="M214.244 417.137L217.289 418.898V415.377L214.244 413.616V417.137Z" fill="#4B61B8"/>
<path d="M208.508 413.818L211.553 415.578V412.057L208.508 410.297V413.818Z" fill="#4B61B8"/>
<path d="M202.744 410.498L205.814 412.258V408.762L202.744 407.002V410.498Z" fill="#4B61B8"/>
<path d="M265.93 453.127L269 454.912V451.391L265.93 449.631V453.127Z" fill="#2AF6FF"/>
<path d="M260.193 449.832L263.238 451.592V448.071L260.193 446.311V449.832Z" fill="#4B61B8"/>
<path d="M254.455 446.512L257.5 448.273V444.777L254.455 442.991V446.512Z" fill="#4B61B8"/>
<path d="M248.693 443.192L251.763 444.953V441.457L248.693 439.696V443.192Z" fill="#4B61B8"/>
<path d="M242.955 439.872L246.025 441.633V438.137L242.955 436.376V439.872Z" fill="#4B61B8"/>
<path d="M237.219 436.553L240.264 438.338V434.817L237.219 433.057V436.553Z" fill="#4B61B8"/>
<path d="M231.48 433.258L234.525 435.018V431.497L231.48 429.737V433.258Z" fill="#25054D"/>
<path d="M225.719 429.938L228.789 431.699V428.203L225.719 426.442V429.938Z" fill="#2AF6FF"/>
<path d="M219.98 426.618L223.05 428.379V424.883L219.98 423.123V426.618Z" fill="#4B61B8"/>
<path d="M214.244 423.299L217.289 425.084V421.563L214.244 419.803V423.299Z" fill="#4B61B8"/>
<path d="M208.508 420.004L211.553 421.764V418.243L208.508 416.483V420.004Z" fill="#2AF6FF"/>
<path d="M202.744 416.684L205.814 418.445V414.949L202.744 413.163V416.684Z" fill="#2AF6FF"/>
<path d="M302.744 440.728L299.674 442.489V438.968L302.744 437.207V440.728Z" fill="#2AF6FF"/>
<path d="M308.48 437.408L305.436 439.169V435.673L308.48 433.887V437.408Z" fill="#25054D"/>
<path d="M314.219 434.088L311.174 435.849V432.353L314.219 430.592V434.088Z" fill="#4B61B8"/>
<path d="M319.98 430.768L316.91 432.554V429.033L319.98 427.272V430.768Z" fill="#25054D"/>
<path d="M325.718 427.474L322.648 429.235V425.714L325.718 423.953V427.474Z" fill="#25054D"/>
<path d="M331.455 424.154L328.41 425.914V422.418L331.455 420.633V424.154Z" fill="#4B61B8"/>
<path d="M337.193 420.834L334.148 422.595V419.099L337.193 417.338V420.834Z" fill="#4B61B8"/>
<path d="M342.955 417.514L339.885 419.275V415.779L342.955 414.019V417.514Z" fill="#4B61B8"/>
<path d="M348.693 414.195L345.623 415.981V412.46L348.693 410.699V414.195Z" fill="#25054D"/>
<path d="M354.43 410.9L351.385 412.66V409.139L354.43 407.379V410.9Z" fill="#25054D"/>
<path d="M360.168 407.58L357.123 409.341V405.845L360.168 404.084V407.58Z" fill="#2AF6FF"/>
<path d="M365.929 404.26L362.859 406.021V402.525L365.929 400.765V404.26Z" fill="#2AF6FF"/>
<path d="M302.744 446.94L299.674 448.726V445.205L302.744 443.444V446.94Z" fill="#4B61B8"/>
<path d="M308.48 443.645L305.436 445.406V441.885L308.48 440.125V443.645Z" fill="#25054D"/>
<path d="M314.219 440.326L311.174 442.086V438.591L314.219 436.83V440.326Z" fill="#2AF6FF"/>
<path d="M319.98 437.006L316.91 438.766V435.27L319.98 433.51V437.006Z" fill="#25054D"/>
<path d="M325.718 433.686L322.648 435.472V431.951L325.718 430.19V433.686Z" fill="#2AF6FF"/>
<path d="M331.455 430.391L328.41 432.152V428.631L331.455 426.87V430.391Z" fill="#2AF6FF"/>
<path d="M337.193 427.072L334.148 428.832V425.336L337.193 423.551V427.072Z" fill="#2AF6FF"/>
<path d="M342.955 423.752L339.885 425.512V422.016L342.955 420.256V423.752Z" fill="#4B61B8"/>
<path d="M348.693 420.432L345.623 422.193V418.697L348.693 416.937V420.432Z" fill="#4B61B8"/>
<path d="M354.43 417.137L351.385 418.898V415.377L354.43 413.616V417.137Z" fill="#4B61B8"/>
<path d="M360.168 413.818L357.123 415.578V412.057L360.168 410.297V413.818Z" fill="#4B61B8"/>
<path d="M365.929 410.498L362.859 412.258V408.762L365.929 407.002V410.498Z" fill="#4B61B8"/>
<path d="M302.744 453.126L299.674 454.912V451.391L302.744 449.63V453.126Z" fill="#2AF6FF"/>
<path d="M308.48 449.832L305.436 451.592V448.071L308.48 446.311V449.832Z" fill="#4B61B8"/>
<path d="M314.219 446.512L311.174 448.273V444.777L314.219 442.991V446.512Z" fill="#4B61B8"/>
<path d="M319.98 443.192L316.91 444.953V441.457L319.98 439.696V443.192Z" fill="#4B61B8"/>
<path d="M325.718 439.872L322.648 441.633V438.137L325.718 436.376V439.872Z" fill="#4B61B8"/>
<path d="M331.455 436.553L328.41 438.338V434.817L331.455 433.057V436.553Z" fill="#4B61B8"/>
<path d="M337.193 433.258L334.148 435.018V431.497L337.193 429.737V433.258Z" fill="#25054D"/>
<path d="M342.955 429.938L339.885 431.699V428.203L342.955 426.442V429.938Z" fill="#2AF6FF"/>
<path d="M348.693 426.618L345.623 428.379V424.883L348.693 423.123V426.618Z" fill="#4B61B8"/>
<path d="M354.43 423.299L351.385 425.084V421.563L354.43 419.803V423.299Z" fill="#4B61B8"/>
<path d="M360.168 420.004L357.123 421.764V418.243L360.168 416.483V420.004Z" fill="#4B61B8"/>
<path d="M365.929 416.684L362.859 418.445V414.949L365.929 413.163V416.684Z" fill="#2AF6FF"/>
<path d="M189.709 377.979L284.752 433.283L379.443 378.079L284.274 322.674L189.709 377.979Z" fill="url(#paint100_linear_491_6643)"/>
<path d="M284.701 415.628V431.121L372.724 379.815V364.322L284.701 415.628Z" fill="url(#paint101_linear_491_6643)"/>
<path d="M284.752 415.628V431.121L196.428 379.664V364.222L284.752 415.628Z" fill="url(#paint102_linear_491_6643)"/>
<path d="M284.701 383.612V430.064L379.443 374.835V328.408L284.701 383.612Z" fill="url(#paint103_linear_491_6643)"/>
<path d="M284.752 383.612V430.064L189.709 374.684V328.308L284.752 383.612Z" fill="url(#paint104_linear_491_6643)"/>
<path d="M197.736 370.057V342.266L276.725 388.24V416.081L197.736 370.057Z" fill="#25054D"/>
<path d="M278.964 419.979L195.496 371.339V338.368L278.964 386.957V419.979ZM199.975 368.774L274.485 412.183V389.498L199.975 346.139V368.774V368.774Z" fill="url(#paint105_linear_491_6643)"/>
<path d="M265.93 391.057L269 392.818V389.297L265.93 387.536V391.057Z" fill="#2AF6FF"/>
<path d="M260.193 387.737L263.238 389.498V386.002L260.193 384.216V387.737Z" fill="#2AF6FF"/>
<path d="M254.455 384.418L257.5 386.178V382.682L254.455 380.922V384.418Z" fill="#4B61B8"/>
<path d="M248.693 381.098L251.763 382.884V379.363L248.693 377.602V381.098Z" fill="#25054D"/>
<path d="M242.955 377.803L246.025 379.564V376.043L242.955 374.282V377.803Z" fill="#25054D"/>
<path d="M237.219 374.483L240.264 376.243V372.748L237.219 370.962V374.483Z" fill="#4B61B8"/>
<path d="M231.48 371.164L234.525 372.924V369.428L231.48 367.668V371.164Z" fill="#4B61B8"/>
<path d="M225.719 367.844L228.789 369.604V366.108L225.719 364.348V367.844Z" fill="#4B61B8"/>
<path d="M219.98 364.524L223.05 366.31V362.789L219.98 361.028V364.524Z" fill="#25054D"/>
<path d="M214.244 361.229L217.289 362.99V359.469L214.244 357.708V361.229Z" fill="#4B61B8"/>
<path d="M208.508 357.909L211.553 359.67V356.174L208.508 354.414V357.909Z" fill="#2AF6FF"/>
<path d="M202.744 354.59L205.814 356.35V352.854L202.744 351.094V354.59Z" fill="#2AF6FF"/>
<path d="M265.93 397.269L269 399.055V395.534L265.93 393.773V397.269Z" fill="#4B61B8"/>
<path d="M260.193 393.975L263.238 395.735V392.214L260.193 390.454V393.975Z" fill="#2AF6FF"/>
<path d="M254.455 390.655L257.5 392.416V388.92L254.455 387.159V390.655Z" fill="#2AF6FF"/>
<path d="M248.693 387.335L251.763 389.095V385.599L248.693 383.839V387.335Z" fill="#25054D"/>
<path d="M242.955 384.015L246.025 385.801V382.28L242.955 380.52V384.015Z" fill="#2AF6FF"/>
<path d="M237.219 380.72L240.264 382.481V378.96L237.219 377.199V380.72Z" fill="#2AF6FF"/>
<path d="M231.48 377.401L234.525 379.161V375.666L231.48 373.88V377.401Z" fill="#2AF6FF"/>
<path d="M225.719 374.081L228.789 375.841V372.345L225.719 370.585V374.081Z" fill="#4B61B8"/>
<path d="M219.98 370.761L223.05 372.522V369.026L219.98 367.266V370.761Z" fill="#4B61B8"/>
<path d="M214.244 367.466L217.289 369.227V365.706L214.244 363.945V367.466Z" fill="#4B61B8"/>
<path d="M208.508 364.147L211.553 365.908V362.386L208.508 360.626V364.147Z" fill="#4B61B8"/>
<path d="M202.744 360.827L205.814 362.587V359.092L202.744 357.331V360.827Z" fill="#4B61B8"/>
<path d="M265.93 403.456L269 405.216V401.72L265.93 399.96V403.456Z" fill="#2AF6FF"/>
<path d="M260.193 400.162L263.238 401.922V398.401L260.193 396.641V400.162Z" fill="#4B61B8"/>
<path d="M254.455 396.841L257.5 398.602V395.106L254.455 393.32V396.841Z" fill="#4B61B8"/>
<path d="M248.693 393.522L251.763 395.282V391.786L248.693 390.026V393.522Z" fill="#4B61B8"/>
<path d="M242.955 390.202L246.025 391.962V388.467L242.955 386.706V390.202Z" fill="#4B61B8"/>
<path d="M237.219 386.882L240.264 388.668V385.147L237.219 383.386V386.882Z" fill="#4B61B8"/>
<path d="M231.48 383.587L234.525 385.348V381.827L231.48 380.066V383.587Z" fill="#25054D"/>
<path d="M225.719 380.268L228.789 382.028V378.532L225.719 376.772V380.268Z" fill="#2AF6FF"/>
<path d="M219.98 376.948L223.05 378.708V375.213L219.98 373.452V376.948Z" fill="#4B61B8"/>
<path d="M214.244 373.628L217.289 375.414V371.893L214.244 370.132V373.628Z" fill="#4B61B8"/>
<path d="M208.508 370.333L211.553 372.094V368.573L208.508 366.812V370.333Z" fill="#2AF6FF"/>
<path d="M202.744 367.014L205.814 368.774V365.278L202.744 363.493V367.014Z" fill="#2AF6FF"/>
<path style="mix-blend-mode:screen" d="M284.752 382.103L190.992 327.553L189.709 328.308L284.752 383.612L379.443 328.408L378.135 327.654L284.752 382.103Z" fill="url(#paint106_radial_491_6643)"/>
<path d="M214.445 329.112L284.073 369.654L354.658 329.062L284.954 288.495L214.445 329.112Z" fill="url(#paint107_linear_491_6643)"/>
<g style="mix-blend-mode:color-dodge">
<path style="mix-blend-mode:color-dodge" d="M249.674 349.484L284.299 369.654L319.428 349.459L284.752 329.289L249.674 349.484Z" fill="url(#paint108_radial_491_6643)"/>
</g>
<path style="mix-blend-mode:screen" d="M354.658 182.513L284.325 141.594L214.445 182.463V329.112L284.073 369.654L354.658 329.062V182.513Z" fill="url(#paint109_linear_491_6643)"/>
<path d="M391.975 446.538V542.988L486.892 487.28V390.855L391.975 446.538Z" fill="url(#paint110_linear_491_6643)"/>
<path d="M392.025 446.537V542.988L297.133 487.708V391.308L392.025 446.537Z" fill="#330A66"/>
<path d="M297.133 391.308L392.025 446.538L486.892 390.856L391.899 335.551L297.133 391.308Z" fill="#45108A"/>
<path style="mix-blend-mode:screen" d="M392.025 445.029L298.441 390.554L297.133 391.308L392.025 446.538L486.892 390.856L485.584 390.101L392.025 445.029Z" fill="url(#paint111_radial_491_6643)"/>
<path d="M123.83 537.379L139.457 546.433L149.598 540.448L133.971 531.369L123.83 537.379Z" fill="#E2953F"/>
<path d="M74.7617 509.187L90.3884 518.266L100.529 512.255L84.9027 503.176L74.7617 509.187Z" fill="#E2953F"/>
<path style="mix-blend-mode:multiply" d="M139.257 545.604L170.913 534.814L148.266 521.183L125.77 537.807L139.257 545.604Z" fill="url(#paint112_linear_491_6643)"/>
<path style="mix-blend-mode:multiply" d="M90.3881 516.882L122.044 506.093L99.3968 492.487L76.9004 509.086L90.3881 516.882Z" fill="url(#paint113_linear_491_6643)"/>
<path d="M124.485 482.477L108.431 473.222C95.5723 465.803 85.1797 471.738 85.1797 486.476V504.458L98.6674 512.255V498.875C98.6674 490.5 104.581 487.105 111.904 491.33L121.013 496.586C128.31 500.812 134.249 511.022 134.249 519.397V532.777L147.737 540.574V522.591C147.737 507.853 137.319 489.896 124.46 482.477H124.485Z" fill="url(#paint114_linear_491_6643)"/>
<path d="M124.485 482.477L108.431 473.222C102.039 469.525 96.2517 469.148 92.0494 471.512L83.4434 476.643L85.1545 487.029V504.458L88.3503 506.294L90.1621 517.26L98.6422 512.23V498.85C98.6422 490.475 104.556 487.08 111.878 491.305L120.988 496.561C128.285 500.787 134.224 510.997 134.224 519.372V532.752L137.797 534.814L139.206 545.553L147.686 540.523V522.541C147.686 507.803 137.269 489.846 124.435 482.427L124.485 482.477Z" fill="url(#paint115_linear_491_6643)"/>
<path style="mix-blend-mode:screen" d="M117.465 486.878L101.411 477.623C94.2139 473.473 87.772 473.499 83.4941 476.944L85.1549 487.029V504.458L88.3507 506.294L90.1625 517.26L91.622 516.379V503.251C91.622 497.039 94.8681 493.593 99.5234 493.92C101.436 489.318 106.242 488.06 111.879 491.305L120.988 496.561C128.286 500.786 134.224 510.997 134.224 519.372V532.752L137.797 534.814L139.207 545.553L140.666 544.673V526.942C140.666 512.204 130.248 494.247 117.39 486.828L117.465 486.878Z" fill="url(#paint116_radial_491_6643)"/>
<path d="M116.005 487.507L99.9505 478.252C87.0918 470.833 76.6992 476.768 76.6992 491.506V509.488L90.187 517.284V503.905C90.187 495.53 96.1005 492.135 103.423 496.36L112.532 501.616C119.83 505.841 125.768 516.052 125.768 524.427V537.807L139.256 545.603V527.621C139.256 512.883 128.838 494.926 115.98 487.507H116.005Z" fill="url(#paint117_linear_491_6643)"/>
<defs>
<linearGradient id="paint0_linear_491_6643" x1="496.605" y1="234.574" x2="516.768" y2="279.827" gradientUnits="userSpaceOnUse">
<stop offset="0.04" stop-color="#FFA98C"/>
<stop offset="0.32" stop-color="#FEB892"/>
<stop offset="0.86" stop-color="#FEE0A3"/>
<stop offset="1" stop-color="#FEECA8"/>
</linearGradient>
<linearGradient id="paint1_linear_491_6643" x1="295.975" y1="101.078" x2="489.709" y2="337.113" gradientUnits="userSpaceOnUse">
<stop offset="0.04" stop-color="#FFA98C"/>
<stop offset="0.32" stop-color="#FEB892"/>
<stop offset="0.86" stop-color="#FEE0A3"/>
<stop offset="1" stop-color="#FEECA8"/>
</linearGradient>
<linearGradient id="paint2_linear_491_6643" x1="491.698" y1="-24.1439" x2="431.368" y2="244.975" gradientUnits="userSpaceOnUse">
<stop offset="0.04" stop-color="#FFA98C"/>
<stop offset="0.32" stop-color="#FEB892"/>
<stop offset="0.86" stop-color="#FEE0A3"/>
<stop offset="1" stop-color="#FEECA8"/>
</linearGradient>
<radialGradient id="paint3_radial_491_6643" cx="0" cy="0" r="1" gradientUnits="userSpaceOnUse" gradientTransform="translate(444.34 214.102) scale(69.9803 69.9421)">
<stop offset="0.1" stop-color="#FFE4A7"/>
<stop offset="0.42" stop-color="#F4BE4C"/>
<stop offset="0.67" stop-color="#ECA30A"/>
<stop offset="1"/>
</radialGradient>
<linearGradient id="paint4_linear_491_6643" x1="496.605" y1="208.569" x2="516.768" y2="253.822" gradientUnits="userSpaceOnUse">
<stop offset="0.04" stop-color="#FFA98C"/>
<stop offset="0.32" stop-color="#FEB892"/>
<stop offset="0.86" stop-color="#FEE0A3"/>
<stop offset="1" stop-color="#FEECA8"/>
</linearGradient>
<linearGradient id="paint5_linear_491_6643" x1="295.975" y1="75.0974" x2="489.709" y2="311.133" gradientUnits="userSpaceOnUse">
<stop offset="0.04" stop-color="#FFA98C"/>
<stop offset="0.32" stop-color="#FEB892"/>
<stop offset="0.86" stop-color="#FEE0A3"/>
<stop offset="1" stop-color="#FEECA8"/>
</linearGradient>
<linearGradient id="paint6_linear_491_6643" x1="491.698" y1="-50.1241" x2="431.368" y2="218.995" gradientUnits="userSpaceOnUse">
<stop offset="0.04" stop-color="#FFA98C"/>
<stop offset="0.32" stop-color="#FEB892"/>
<stop offset="0.86" stop-color="#FEE0A3"/>
<stop offset="1" stop-color="#FEECA8"/>
</linearGradient>
<radialGradient id="paint7_radial_491_6643" cx="0" cy="0" r="1" gradientUnits="userSpaceOnUse" gradientTransform="translate(1.25712 188.122) scale(69.9803 69.9421)">
<stop offset="0.1" stop-color="#FFE4A7"/>
<stop offset="0.42" stop-color="#F4BE4C"/>
<stop offset="0.67" stop-color="#ECA30A"/>
<stop offset="1"/>
</radialGradient>
<linearGradient id="paint8_linear_491_6643" x1="496.605" y1="182.589" x2="516.768" y2="227.842" gradientUnits="userSpaceOnUse">
<stop offset="0.04" stop-color="#FFA98C"/>
<stop offset="0.32" stop-color="#FEB892"/>
<stop offset="0.86" stop-color="#FEE0A3"/>
<stop offset="1" stop-color="#FEECA8"/>
</linearGradient>
<linearGradient id="paint9_linear_491_6643" x1="295.975" y1="49.0928" x2="489.709" y2="285.154" gradientUnits="userSpaceOnUse">
<stop offset="0.04" stop-color="#FFA98C"/>
<stop offset="0.32" stop-color="#FEB892"/>
<stop offset="0.86" stop-color="#FEE0A3"/>
<stop offset="1" stop-color="#FEECA8"/>
</linearGradient>
<linearGradient id="paint10_linear_491_6643" x1="491.698" y1="-76.1288" x2="431.368" y2="192.99" gradientUnits="userSpaceOnUse">
<stop offset="0.04" stop-color="#FFA98C"/>
<stop offset="0.32" stop-color="#FEB892"/>
<stop offset="0.86" stop-color="#FEE0A3"/>
<stop offset="1" stop-color="#FEECA8"/>
</linearGradient>
<radialGradient id="paint11_radial_491_6643" cx="0" cy="0" r="1" gradientUnits="userSpaceOnUse" gradientTransform="translate(1.25712 162.142) scale(69.9803 69.9421)">
<stop offset="0.1" stop-color="#FFE4A7"/>
<stop offset="0.42" stop-color="#F4BE4C"/>
<stop offset="0.67" stop-color="#ECA30A"/>
<stop offset="1"/>
</radialGradient>
<linearGradient id="paint12_linear_491_6643" x1="-0.00132589" y1="156.609" x2="2.51231" y2="201.854" gradientUnits="userSpaceOnUse">
<stop offset="0.04" stop-color="#FFA98C"/>
<stop offset="0.32" stop-color="#FEB892"/>
<stop offset="0.86" stop-color="#FEE0A3"/>
<stop offset="1" stop-color="#FEECA8"/>
</linearGradient>
<linearGradient id="paint13_linear_491_6643" x1="295.975" y1="23.1128" x2="489.709" y2="259.149" gradientUnits="userSpaceOnUse">
<stop offset="0.04" stop-color="#FFA98C"/>
<stop offset="0.32" stop-color="#FEB892"/>
<stop offset="0.86" stop-color="#FEE0A3"/>
<stop offset="1" stop-color="#FEECA8"/>
</linearGradient>
<linearGradient id="paint14_linear_491_6643" x1="506.469" y1="-167.851" x2="446.139" y2="101.268" gradientUnits="userSpaceOnUse">
<stop offset="0.04" stop-color="#FFA98C"/>
<stop offset="0.32" stop-color="#FEB892"/>
<stop offset="0.86" stop-color="#FEE0A3"/>
<stop offset="1" stop-color="#FEECA8"/>
</linearGradient>
<linearGradient id="paint15_linear_491_6643" x1="427.782" y1="85.6107" x2="483.932" y2="164.636" gradientUnits="userSpaceOnUse">
<stop stop-color="#25054D"/>
<stop offset="1" stop-color="#45108A"/>
</linearGradient>
<radialGradient id="paint16_radial_491_6643" cx="0" cy="0" r="1" gradientUnits="userSpaceOnUse" gradientTransform="translate(1.2571 136.137) scale(1.25819 1.2575)">
<stop offset="0.1" stop-color="#FFE4A7"/>
<stop offset="0.42" stop-color="#F4BE4C"/>
<stop offset="0.67" stop-color="#ECA30A"/>
<stop offset="1"/>
</radialGradient>
<radialGradient id="paint17_radial_491_6643" cx="0" cy="0" r="1" gradientUnits="userSpaceOnUse" gradientTransform="translate(449.65 133.823) scale(43.8855 43.8616)">
<stop stop-color="white"/>
<stop offset="1"/>
</radialGradient>
<linearGradient id="paint18_linear_491_6643" x1="453.197" y1="115.187" x2="453.197" y2="3.4707" gradientUnits="userSpaceOnUse">
<stop stop-color="#1BB0D4"/>
<stop offset="0.05" stop-color="#189CBC"/>
<stop offset="0.18" stop-color="#11738B"/>
<stop offset="0.31" stop-color="#0C5060"/>
<stop offset="0.45" stop-color="#07333D"/>
<stop offset="0.58" stop-color="#041C22"/>
<stop offset="0.72" stop-color="#010C0F"/>
<stop offset="0.85" stop-color="#000303"/>
<stop offset="1"/>
</linearGradient>
<linearGradient id="paint19_linear_491_6643" x1="568.826" y1="531.494" x2="638.24" y2="687.326" gradientUnits="userSpaceOnUse">
<stop stop-color="#25054D"/>
<stop offset="1" stop-color="#45108A"/>
</linearGradient>
<radialGradient id="paint20_radial_491_6643" cx="0" cy="0" r="1" gradientUnits="userSpaceOnUse" gradientTransform="translate(504.76 445.532) scale(97.2829 97.2299)">
<stop offset="0.1" stop-color="#45108A"/>
<stop offset="0.67" stop-color="#25054D"/>
<stop offset="1"/>
</radialGradient>
<linearGradient id="paint21_linear_491_6643" x1="456.067" y1="595.4" x2="525.48" y2="751.232" gradientUnits="userSpaceOnUse">
<stop stop-color="#25054D"/>
<stop offset="1" stop-color="#45108A"/>
</linearGradient>
<radialGradient id="paint22_radial_491_6643" cx="0" cy="0" r="1" gradientUnits="userSpaceOnUse" gradientTransform="translate(392 509.438) scale(97.283 97.2298)">
<stop offset="0.1" stop-color="#45108A"/>
<stop offset="0.67" stop-color="#25054D"/>
<stop offset="1"/>
</radialGradient>
<linearGradient id="paint23_linear_491_6643" x1="421.72" y1="133.194" x2="347.135" y2="228.803" gradientUnits="userSpaceOnUse">
<stop stop-color="#972A74"/>
<stop offset="0.04" stop-color="#8A266A"/>
<stop offset="0.19" stop-color="#601A49"/>
<stop offset="0.35" stop-color="#3D112F"/>
<stop offset="0.51" stop-color="#22091A"/>
<stop offset="0.67" stop-color="#0F040B"/>
<stop offset="0.83" stop-color="#030102"/>
<stop offset="1"/>
</linearGradient>
<linearGradient id="paint24_linear_491_6643" x1="676.199" y1="596.457" x2="745.613" y2="752.314" gradientUnits="userSpaceOnUse">
<stop stop-color="#25054D"/>
<stop offset="1" stop-color="#45108A"/>
</linearGradient>
<linearGradient id="paint25_linear_491_6643" x1="566.133" y1="660.363" x2="635.547" y2="816.221" gradientUnits="userSpaceOnUse">
<stop stop-color="#25054D"/>
<stop offset="1" stop-color="#45108A"/>
</linearGradient>
<linearGradient id="paint26_linear_491_6643" x1="123.327" y1="564.416" x2="203.403" y2="519.938" gradientUnits="userSpaceOnUse">
<stop stop-color="#972A74"/>
<stop offset="0.04" stop-color="#8A266A"/>
<stop offset="0.19" stop-color="#601A49"/>
<stop offset="0.35" stop-color="#3D112F"/>
<stop offset="0.51" stop-color="#22091A"/>
<stop offset="0.67" stop-color="#0F040B"/>
<stop offset="0.83" stop-color="#030102"/>
<stop offset="1"/>
</linearGradient>
<linearGradient id="paint27_linear_491_6643" x1="174.787" y1="635.012" x2="239.5" y2="780.304" gradientUnits="userSpaceOnUse">
<stop offset="0.04" stop-color="#FFA98C"/>
<stop offset="0.32" stop-color="#FEB892"/>
<stop offset="0.86" stop-color="#FEE0A3"/>
<stop offset="1" stop-color="#FEECA8"/>
</linearGradient>
<linearGradient id="paint28_linear_491_6643" x1="-109.789" y1="340.053" x2="237.294" y2="762.985" gradientUnits="userSpaceOnUse">
<stop offset="0.04" stop-color="#FFA98C"/>
<stop offset="0.32" stop-color="#FEB892"/>
<stop offset="0.86" stop-color="#FEE0A3"/>
<stop offset="1" stop-color="#FEECA8"/>
</linearGradient>
<linearGradient id="paint29_linear_491_6643" x1="56.8197" y1="584.787" x2="89.9603" y2="584.787" gradientUnits="userSpaceOnUse">
<stop stop-color="#25054D"/>
<stop offset="1" stop-color="#45108A"/>
</linearGradient>
<linearGradient id="paint30_linear_491_6643" x1="143.987" y1="381.198" x2="107.236" y2="545.185" gradientUnits="userSpaceOnUse">
<stop offset="0.04" stop-color="#FFA98C"/>
<stop offset="0.32" stop-color="#FEB892"/>
<stop offset="0.86" stop-color="#FEE0A3"/>
<stop offset="1" stop-color="#FEECA8"/>
</linearGradient>
<radialGradient id="paint31_radial_491_6643" cx="0" cy="0" r="1" gradientUnits="userSpaceOnUse" gradientTransform="translate(111.853 536.172) scale(90.2874 90.2382)">
<stop offset="0.1" stop-color="#FFE4A7"/>
<stop offset="0.42" stop-color="#F4BE4C"/>
<stop offset="0.67" stop-color="#ECA30A"/>
<stop offset="1"/>
</radialGradient>
<radialGradient id="paint32_radial_491_6643" cx="0" cy="0" r="1" gradientUnits="userSpaceOnUse" gradientTransform="translate(113.236 577.569) scale(43.9359 43.9119)">
<stop stop-color="white"/>
<stop offset="1"/>
</radialGradient>
<linearGradient id="paint33_linear_491_6643" x1="100.303" y1="583.856" x2="-0.784873" y2="631.911" gradientUnits="userSpaceOnUse">
<stop stop-color="#1BB0D4"/>
<stop offset="0.05" stop-color="#189CBC"/>
<stop offset="0.18" stop-color="#11738B"/>
<stop offset="0.31" stop-color="#0C5060"/>
<stop offset="0.45" stop-color="#07333D"/>
<stop offset="0.58" stop-color="#041C22"/>
<stop offset="0.72" stop-color="#010C0F"/>
<stop offset="0.85" stop-color="#000303"/>
<stop offset="1"/>
</linearGradient>
<linearGradient id="paint34_linear_491_6643" x1="348.694" y1="661.344" x2="418.107" y2="817.176" gradientUnits="userSpaceOnUse">
<stop stop-color="#25054D"/>
<stop offset="1" stop-color="#45108A"/>
</linearGradient>
<radialGradient id="paint35_radial_491_6643" cx="0" cy="0" r="1" gradientUnits="userSpaceOnUse" gradientTransform="translate(166.71 607.321) scale(119.981 119.915)">
<stop stop-color="#FDD65B"/>
<stop offset="0.21" stop-color="#B0953F"/>
<stop offset="0.47" stop-color="#52451D"/>
<stop offset="0.66" stop-color="#171308"/>
<stop offset="0.75"/>
</radialGradient>
<radialGradient id="paint36_radial_491_6643" cx="0" cy="0" r="1" gradientUnits="userSpaceOnUse" gradientTransform="translate(284.627 575.406) scale(96.6287 96.5759)">
<stop offset="0.1" stop-color="#45108A"/>
<stop offset="0.67" stop-color="#25054D"/>
<stop offset="1"/>
</radialGradient>
<linearGradient id="paint37_linear_491_6643" x1="241.32" y1="488.413" x2="310.734" y2="644.245" gradientUnits="userSpaceOnUse">
<stop stop-color="#25054D"/>
<stop offset="1" stop-color="#45108A"/>
</linearGradient>
<radialGradient id="paint38_radial_491_6643" cx="0" cy="0" r="1" gradientUnits="userSpaceOnUse" gradientTransform="translate(177.254 402.475) scale(97.283 97.2298)">
<stop offset="0.1" stop-color="#45108A"/>
<stop offset="0.67" stop-color="#25054D"/>
<stop offset="1"/>
</radialGradient>
<radialGradient id="paint39_radial_491_6643" cx="0" cy="0" r="1" gradientUnits="userSpaceOnUse" gradientTransform="translate(119.529 520.881) scale(115.401 115.338)">
<stop stop-color="#FDD65B"/>
<stop offset="0.21" stop-color="#B0953F"/>
<stop offset="0.47" stop-color="#52451D"/>
<stop offset="0.66" stop-color="#171308"/>
<stop offset="0.75"/>
</radialGradient>
<linearGradient id="paint40_linear_491_6643" x1="456.067" y1="724.268" x2="525.48" y2="880.126" gradientUnits="userSpaceOnUse">
<stop stop-color="#25054D"/>
<stop offset="1" stop-color="#45108A"/>
</linearGradient>
<radialGradient id="paint41_radial_491_6643" cx="0" cy="0" r="1" gradientUnits="userSpaceOnUse" gradientTransform="translate(392 638.332) scale(97.283 97.2299)">
<stop offset="0.1" stop-color="#45108A"/>
<stop offset="0.67" stop-color="#25054D"/>
<stop offset="1"/>
</radialGradient>
<linearGradient id="paint42_linear_491_6643" x1="348.694" y1="551.338" x2="418.107" y2="707.17" gradientUnits="userSpaceOnUse">
<stop stop-color="#25054D"/>
<stop offset="1" stop-color="#45108A"/>
</linearGradient>
<radialGradient id="paint43_radial_491_6643" cx="0" cy="0" r="1" gradientUnits="userSpaceOnUse" gradientTransform="translate(284.627 465.4) scale(97.283 97.2298)">
<stop offset="0.1" stop-color="#45108A"/>
<stop offset="0.67" stop-color="#25054D"/>
<stop offset="1"/>
</radialGradient>
<linearGradient id="paint44_linear_491_6643" x1="444.265" y1="626.737" x2="464.428" y2="672.016" gradientUnits="userSpaceOnUse">
<stop stop-color="#25054D"/>
<stop offset="1" stop-color="#45108A"/>
</linearGradient>
<linearGradient id="paint45_linear_491_6643" x1="443.887" y1="546.685" x2="462.441" y2="588.366" gradientUnits="userSpaceOnUse">
<stop stop-color="#25054D"/>
<stop offset="1" stop-color="#45108A"/>
</linearGradient>
<radialGradient id="paint46_radial_491_6643" cx="0" cy="0" r="1" gradientUnits="userSpaceOnUse" gradientTransform="translate(392 528.326) scale(96.1758 96.1232)">
<stop offset="0.1" stop-color="#45108A"/>
<stop offset="0.67" stop-color="#25054D"/>
<stop offset="1"/>
</radialGradient>
<radialGradient id="paint47_radial_491_6643" cx="0" cy="0" r="1" gradientUnits="userSpaceOnUse" gradientTransform="translate(493.837 542.56) scale(97.3081 97.255)">
<stop stop-color="#FDD65B"/>
<stop offset="0.21" stop-color="#B0953F"/>
<stop offset="0.47" stop-color="#52451D"/>
<stop offset="0.66" stop-color="#171308"/>
<stop offset="0.75"/>
</radialGradient>
<linearGradient id="paint48_linear_491_6643" x1="456.067" y1="614.263" x2="525.48" y2="770.095" gradientUnits="userSpaceOnUse">
<stop stop-color="#25054D"/>
<stop offset="1" stop-color="#45108A"/>
</linearGradient>
<linearGradient id="paint49_linear_491_6643" x1="676.199" y1="486.451" x2="745.613" y2="642.283" gradientUnits="userSpaceOnUse">
<stop stop-color="#25054D"/>
<stop offset="1" stop-color="#45108A"/>
</linearGradient>
<radialGradient id="paint50_radial_491_6643" cx="0" cy="0" r="1" gradientUnits="userSpaceOnUse" gradientTransform="translate(612.133 400.513) scale(1.25819 1.2575)">
<stop offset="0.1" stop-color="#45108A"/>
<stop offset="0.67" stop-color="#25054D"/>
<stop offset="1"/>
</radialGradient>
<linearGradient id="paint51_linear_491_6643" x1="644.066" y1="563.687" x2="448.165" y2="456.961" gradientUnits="userSpaceOnUse">
<stop stop-color="#972A74"/>
<stop offset="0.04" stop-color="#8A266A"/>
<stop offset="0.19" stop-color="#601A49"/>
<stop offset="0.35" stop-color="#3D112F"/>
<stop offset="0.51" stop-color="#22091A"/>
<stop offset="0.67" stop-color="#0F040B"/>
<stop offset="0.83" stop-color="#030102"/>
<stop offset="1"/>
</linearGradient>
<linearGradient id="paint52_linear_491_6643" x1="649.099" y1="618.186" x2="669.262" y2="663.439" gradientUnits="userSpaceOnUse">
<stop offset="0.04" stop-color="#FFA98C"/>
<stop offset="0.32" stop-color="#FEB892"/>
<stop offset="0.86" stop-color="#FEE0A3"/>
<stop offset="1" stop-color="#FEECA8"/>
</linearGradient>
<linearGradient id="paint53_linear_491_6643" x1="448.494" y1="484.69" x2="642.204" y2="720.726" gradientUnits="userSpaceOnUse">
<stop offset="0.04" stop-color="#FFA98C"/>
<stop offset="0.32" stop-color="#FEB892"/>
<stop offset="0.86" stop-color="#FEE0A3"/>
<stop offset="1" stop-color="#FEECA8"/>
</linearGradient>
<linearGradient id="paint54_linear_491_6643" x1="644.218" y1="359.468" x2="583.887" y2="628.587" gradientUnits="userSpaceOnUse">
<stop offset="0.04" stop-color="#FFA98C"/>
<stop offset="0.32" stop-color="#FEB892"/>
<stop offset="0.86" stop-color="#FEE0A3"/>
<stop offset="1" stop-color="#FEECA8"/>
</linearGradient>
<radialGradient id="paint55_radial_491_6643" cx="0" cy="0" r="1" gradientUnits="userSpaceOnUse" gradientTransform="translate(596.859 597.714) scale(69.9803 69.9421)">
<stop offset="0.1" stop-color="#FFE4A7"/>
<stop offset="0.42" stop-color="#F4BE4C"/>
<stop offset="0.67" stop-color="#ECA30A"/>
<stop offset="1"/>
</radialGradient>
<linearGradient id="paint56_linear_491_6643" x1="649.099" y1="592.181" x2="669.262" y2="637.434" gradientUnits="userSpaceOnUse">
<stop offset="0.04" stop-color="#FFA98C"/>
<stop offset="0.32" stop-color="#FEB892"/>
<stop offset="0.86" stop-color="#FEE0A3"/>
<stop offset="1" stop-color="#FEECA8"/>
</linearGradient>
<linearGradient id="paint57_linear_491_6643" x1="448.494" y1="458.685" x2="642.204" y2="694.746" gradientUnits="userSpaceOnUse">
<stop offset="0.04" stop-color="#FFA98C"/>
<stop offset="0.32" stop-color="#FEB892"/>
<stop offset="0.86" stop-color="#FEE0A3"/>
<stop offset="1" stop-color="#FEECA8"/>
</linearGradient>
<linearGradient id="paint58_linear_491_6643" x1="644.218" y1="333.489" x2="583.887" y2="602.608" gradientUnits="userSpaceOnUse">
<stop offset="0.04" stop-color="#FFA98C"/>
<stop offset="0.32" stop-color="#FEB892"/>
<stop offset="0.86" stop-color="#FEE0A3"/>
<stop offset="1" stop-color="#FEECA8"/>
</linearGradient>
<radialGradient id="paint59_radial_491_6643" cx="0" cy="0" r="1" gradientUnits="userSpaceOnUse" gradientTransform="translate(596.859 571.735) scale(69.9803 69.9421)">
<stop offset="0.1" stop-color="#FFE4A7"/>
<stop offset="0.42" stop-color="#F4BE4C"/>
<stop offset="0.67" stop-color="#ECA30A"/>
<stop offset="1"/>
</radialGradient>
<linearGradient id="paint60_linear_491_6643" x1="649.099" y1="566.201" x2="669.262" y2="611.454" gradientUnits="userSpaceOnUse">
<stop offset="0.04" stop-color="#FFA98C"/>
<stop offset="0.32" stop-color="#FEB892"/>
<stop offset="0.86" stop-color="#FEE0A3"/>
<stop offset="1" stop-color="#FEECA8"/>
</linearGradient>
<linearGradient id="paint61_linear_491_6643" x1="448.494" y1="432.706" x2="642.204" y2="668.741" gradientUnits="userSpaceOnUse">
<stop offset="0.04" stop-color="#FFA98C"/>
<stop offset="0.32" stop-color="#FEB892"/>
<stop offset="0.86" stop-color="#FEE0A3"/>
<stop offset="1" stop-color="#FEECA8"/>
</linearGradient>
<linearGradient id="paint62_linear_491_6643" x1="644.218" y1="307.484" x2="583.887" y2="576.603" gradientUnits="userSpaceOnUse">
<stop offset="0.04" stop-color="#FFA98C"/>
<stop offset="0.32" stop-color="#FEB892"/>
<stop offset="0.86" stop-color="#FEE0A3"/>
<stop offset="1" stop-color="#FEECA8"/>
</linearGradient>
<radialGradient id="paint63_radial_491_6643" cx="0" cy="0" r="1" gradientUnits="userSpaceOnUse" gradientTransform="translate(596.859 545.73) scale(69.9803 69.9421)">
<stop offset="0.1" stop-color="#FFE4A7"/>
<stop offset="0.42" stop-color="#F4BE4C"/>
<stop offset="0.67" stop-color="#ECA30A"/>
<stop offset="1"/>
</radialGradient>
<linearGradient id="paint64_linear_491_6643" x1="649.099" y1="540.221" x2="669.262" y2="585.474" gradientUnits="userSpaceOnUse">
<stop offset="0.04" stop-color="#FFA98C"/>
<stop offset="0.32" stop-color="#FEB892"/>
<stop offset="0.86" stop-color="#FEE0A3"/>
<stop offset="1" stop-color="#FEECA8"/>
</linearGradient>
<linearGradient id="paint65_linear_491_6643" x1="448.494" y1="406.726" x2="642.204" y2="642.761" gradientUnits="userSpaceOnUse">
<stop offset="0.04" stop-color="#FFA98C"/>
<stop offset="0.32" stop-color="#FEB892"/>
<stop offset="0.86" stop-color="#FEE0A3"/>
<stop offset="1" stop-color="#FEECA8"/>
</linearGradient>
<linearGradient id="paint66_linear_491_6643" x1="658.963" y1="215.762" x2="598.633" y2="484.88" gradientUnits="userSpaceOnUse">
<stop offset="0.04" stop-color="#FFA98C"/>
<stop offset="0.32" stop-color="#FEB892"/>
<stop offset="0.86" stop-color="#FEE0A3"/>
<stop offset="1" stop-color="#FEECA8"/>
</linearGradient>
<linearGradient id="paint67_linear_491_6643" x1="580.277" y1="469.198" x2="636.452" y2="548.248" gradientUnits="userSpaceOnUse">
<stop stop-color="#25054D"/>
<stop offset="1" stop-color="#45108A"/>
</linearGradient>
<radialGradient id="paint68_radial_491_6643" cx="0" cy="0" r="1" gradientUnits="userSpaceOnUse" gradientTransform="translate(596.859 519.749) scale(69.9803 69.9421)">
<stop offset="0.1" stop-color="#FFE4A7"/>
<stop offset="0.42" stop-color="#F4BE4C"/>
<stop offset="0.67" stop-color="#ECA30A"/>
<stop offset="1"/>
</radialGradient>
<radialGradient id="paint69_radial_491_6643" cx="0" cy="0" r="1" gradientUnits="userSpaceOnUse" gradientTransform="translate(608.761 521.711) scale(52.3406 52.3119)">
<stop stop-color="white"/>
<stop offset="1"/>
</radialGradient>
<linearGradient id="paint70_linear_491_6643" x1="568.826" y1="313.519" x2="638.24" y2="469.351" gradientUnits="userSpaceOnUse">
<stop stop-color="#25054D"/>
<stop offset="1" stop-color="#45108A"/>
</linearGradient>
<radialGradient id="paint71_radial_491_6643" cx="0" cy="0" r="1" gradientUnits="userSpaceOnUse" gradientTransform="translate(1.259 227.582) scale(97.2829 97.2298)">
<stop offset="0.1" stop-color="#45108A"/>
<stop offset="0.67" stop-color="#25054D"/>
<stop offset="1"/>
</radialGradient>
<radialGradient id="paint72_radial_491_6643" cx="0" cy="0" r="1" gradientUnits="userSpaceOnUse" gradientTransform="translate(526.073 348.201) scale(17.7656 17.7559)">
<stop offset="0.15" stop-color="#5213A6"/>
<stop offset="0.25" stop-color="#45108A"/>
<stop offset="0.8" stop-color="#25054D"/>
<stop offset="0.97" stop-color="#2D085C"/>
</radialGradient>
<radialGradient id="paint73_radial_491_6643" cx="0" cy="0" r="1" gradientUnits="userSpaceOnUse" gradientTransform="translate(1.25757 266.464) scale(1.25819 1.2575)">
<stop offset="0.15" stop-color="#5213A6"/>
<stop offset="0.25" stop-color="#45108A"/>
<stop offset="0.8" stop-color="#25054D"/>
<stop offset="0.97" stop-color="#2D085C"/>
</radialGradient>
<radialGradient id="paint74_radial_491_6643" cx="0" cy="0" r="1" gradientUnits="userSpaceOnUse" gradientTransform="translate(607.226 315.507) scale(1.25819 1.2575)">
<stop offset="0.15" stop-color="#5213A6"/>
<stop offset="0.25" stop-color="#45108A"/>
<stop offset="0.8" stop-color="#25054D"/>
<stop offset="0.97" stop-color="#2D085C"/>
</radialGradient>
<radialGradient id="paint75_radial_491_6643" cx="0" cy="0" r="1" gradientUnits="userSpaceOnUse" gradientTransform="translate(583.95 352.603) scale(1.25819 1.2575)">
<stop offset="0.15" stop-color="#5213A6"/>
<stop offset="0.25" stop-color="#45108A"/>
<stop offset="0.8" stop-color="#25054D"/>
<stop offset="0.97" stop-color="#2D085C"/>
</radialGradient>
<radialGradient id="paint76_radial_491_6643" cx="0" cy="0" r="1" gradientUnits="userSpaceOnUse" gradientTransform="translate(689.638 266.464) scale(1.25818 1.2575)">
<stop offset="0.15" stop-color="#5213A6"/>
<stop offset="0.25" stop-color="#45108A"/>
<stop offset="0.8" stop-color="#25054D"/>
<stop offset="0.97" stop-color="#2D085C"/>
</radialGradient>
<radialGradient id="paint77_radial_491_6643" cx="0" cy="0" r="1" gradientUnits="userSpaceOnUse" gradientTransform="translate(689.638 346.944) scale(1.25818 1.2575)">
<stop offset="0.15" stop-color="#5213A6"/>
<stop offset="0.25" stop-color="#45108A"/>
<stop offset="0.8" stop-color="#25054D"/>
<stop offset="0.97" stop-color="#2D085C"/>
</radialGradient>
<radialGradient id="paint78_radial_491_6643" cx="0" cy="0" r="1" gradientUnits="userSpaceOnUse" gradientTransform="translate(607.226 396.615) scale(17.7656 17.7558)">
<stop offset="0.15" stop-color="#5213A6"/>
<stop offset="0.25" stop-color="#45108A"/>
<stop offset="0.8" stop-color="#25054D"/>
<stop offset="0.97" stop-color="#2D085C"/>
</radialGradient>
<radialGradient id="paint79_radial_491_6643" cx="0" cy="0" r="1" gradientUnits="userSpaceOnUse" gradientTransform="translate(607.226 217.422) scale(1.25819 1.2575)">
<stop offset="0.15" stop-color="#5213A6"/>
<stop offset="0.25" stop-color="#45108A"/>
<stop offset="0.8" stop-color="#25054D"/>
<stop offset="0.97" stop-color="#2D085C"/>
</radialGradient>
<radialGradient id="paint80_radial_491_6643" cx="0" cy="0" r="1" gradientUnits="userSpaceOnUse" gradientTransform="translate(626.728 265.836) scale(1.25819 1.2575)">
<stop offset="0.15" stop-color="#5213A6"/>
<stop offset="0.25" stop-color="#45108A"/>
<stop offset="0.8" stop-color="#25054D"/>
<stop offset="0.97" stop-color="#2D085C"/>
</radialGradient>
<radialGradient id="paint81_radial_491_6643" cx="0" cy="0" r="1" gradientUnits="userSpaceOnUse" gradientTransform="translate(654.409 294.758) scale(1.25818 1.2575)">
<stop offset="0.15" stop-color="#5213A6"/>
<stop offset="0.25" stop-color="#45108A"/>
<stop offset="0.8" stop-color="#25054D"/>
<stop offset="0.97" stop-color="#2D085C"/>
</radialGradient>
<radialGradient id="paint82_radial_491_6643" cx="0" cy="0" r="1" gradientUnits="userSpaceOnUse" gradientTransform="translate(638.984 341.914) scale(1.25819 1.2575)">
<stop offset="0.15" stop-color="#5213A6"/>
<stop offset="0.25" stop-color="#45108A"/>
<stop offset="0.8" stop-color="#25054D"/>
<stop offset="0.97" stop-color="#2D085C"/>
</radialGradient>
<radialGradient id="paint83_radial_491_6643" cx="0" cy="0" r="1" gradientUnits="userSpaceOnUse" gradientTransform="translate(566.335 305.447) scale(1.25819 1.2575)">
<stop offset="0.15" stop-color="#5213A6"/>
<stop offset="0.25" stop-color="#45108A"/>
<stop offset="0.8" stop-color="#25054D"/>
<stop offset="0.97" stop-color="#2D085C"/>
</radialGradient>
<radialGradient id="paint84_radial_491_6643" cx="0" cy="0" r="1" gradientUnits="userSpaceOnUse" gradientTransform="translate(582.693 262.063) scale(1.25819 1.2575)">
<stop offset="0.15" stop-color="#5213A6"/>
<stop offset="0.25" stop-color="#45108A"/>
<stop offset="0.8" stop-color="#25054D"/>
<stop offset="0.97" stop-color="#2D085C"/>
</radialGradient>
<linearGradient id="paint85_linear_491_6643" x1="351.387" y1="314.501" x2="420.8" y2="470.333" gradientUnits="userSpaceOnUse">
<stop stop-color="#25054D"/>
<stop offset="1" stop-color="#45108A"/>
</linearGradient>
<radialGradient id="paint86_radial_491_6643" cx="0" cy="0" r="1" gradientUnits="userSpaceOnUse" gradientTransform="translate(287.32 228.563) scale(97.283 97.2298)">
<stop offset="0.1" stop-color="#45108A"/>
<stop offset="0.67" stop-color="#25054D"/>
<stop offset="1"/>
</radialGradient>
<linearGradient id="paint87_linear_491_6643" x1="456.067" y1="377.425" x2="525.48" y2="533.258" gradientUnits="userSpaceOnUse">
<stop stop-color="#25054D"/>
<stop offset="1" stop-color="#45108A"/>
</linearGradient>
<radialGradient id="paint88_radial_491_6643" cx="0" cy="0" r="1" gradientUnits="userSpaceOnUse" gradientTransform="translate(392 291.488) scale(97.283 97.2298)">
<stop offset="0.1" stop-color="#45108A"/>
<stop offset="0.67" stop-color="#25054D"/>
<stop offset="1"/>
</radialGradient>
<linearGradient id="paint89_linear_491_6643" x1="566.133" y1="440.351" x2="635.547" y2="596.183" gradientUnits="userSpaceOnUse">
<stop stop-color="#25054D"/>
<stop offset="1" stop-color="#45108A"/>
</linearGradient>
<radialGradient id="paint90_radial_491_6643" cx="0" cy="0" r="1" gradientUnits="userSpaceOnUse" gradientTransform="translate(502.066 354.414) scale(104.404 104.347)">
<stop offset="0.1" stop-color="#45108A"/>
<stop offset="0.67" stop-color="#25054D"/>
<stop offset="1"/>
</radialGradient>
<radialGradient id="paint91_radial_491_6643" cx="0" cy="0" r="1" gradientUnits="userSpaceOnUse" gradientTransform="translate(527.18 522.441) scale(233.016 232.889)">
<stop stop-color="#FDD65B"/>
<stop offset="0.21" stop-color="#B0953F"/>
<stop offset="0.47" stop-color="#52451D"/>
<stop offset="0.66" stop-color="#171308"/>
<stop offset="0.75"/>
</radialGradient>
<radialGradient id="paint92_radial_491_6643" cx="0" cy="0" r="1" gradientUnits="userSpaceOnUse" gradientTransform="translate(493.636 480.113) scale(160.394 160.306)">
<stop stop-color="#43E8E1"/>
<stop offset="0.16" stop-color="#32B0AB"/>
<stop offset="0.45" stop-color="#17524F"/>
<stop offset="0.66" stop-color="#061716"/>
<stop offset="0.75"/>
</radialGradient>
<linearGradient id="paint93_linear_491_6643" x1="241.32" y1="378.406" x2="310.734" y2="534.239" gradientUnits="userSpaceOnUse">
<stop stop-color="#25054D"/>
<stop offset="1" stop-color="#45108A"/>
</linearGradient>
<radialGradient id="paint94_radial_491_6643" cx="0" cy="0" r="1" gradientUnits="userSpaceOnUse" gradientTransform="translate(177.254 292.469) scale(97.283 97.2298)">
<stop offset="0.1" stop-color="#45108A"/>
<stop offset="0.67" stop-color="#25054D"/>
<stop offset="1"/>
</radialGradient>
<linearGradient id="paint95_linear_491_6643" x1="348.694" y1="441.332" x2="418.107" y2="597.164" gradientUnits="userSpaceOnUse">
<stop stop-color="#25054D"/>
<stop offset="1" stop-color="#45108A"/>
</linearGradient>
<linearGradient id="paint96_linear_491_6643" x1="315.3" y1="433.912" x2="535.79" y2="367.852" gradientUnits="userSpaceOnUse">
<stop stop-color="#25054D"/>
<stop offset="1" stop-color="#45108A"/>
</linearGradient>
<linearGradient id="paint97_linear_491_6643" x1="290.49" y1="428.907" x2="373.656" y2="428.907" gradientUnits="userSpaceOnUse">
<stop stop-color="#25054D"/>
<stop offset="1" stop-color="#45108A"/>
</linearGradient>
<linearGradient id="paint98_linear_491_6643" x1="95.3198" y1="460.647" x2="385.442" y2="395.566" gradientUnits="userSpaceOnUse">
<stop stop-color="#25054D"/>
<stop offset="1" stop-color="#45108A"/>
</linearGradient>
<linearGradient id="paint99_linear_491_6643" x1="195.496" y1="428.857" x2="278.964" y2="428.857" gradientUnits="userSpaceOnUse">
<stop stop-color="#25054D"/>
<stop offset="1" stop-color="#45108A"/>
</linearGradient>
<linearGradient id="paint100_linear_491_6643" x1="383.344" y1="189.882" x2="277.194" y2="392.312" gradientUnits="userSpaceOnUse">
<stop stop-color="#25054D"/>
<stop offset="1" stop-color="#45108A"/>
</linearGradient>
<linearGradient id="paint101_linear_491_6643" x1="269.049" y1="415.578" x2="459.295" y2="358.581" gradientUnits="userSpaceOnUse">
<stop offset="0.03" stop-color="#7C1DC9"/>
<stop offset="0.21" stop-color="#6E41D1"/>
<stop offset="0.62" stop-color="#4C9BE8"/>
<stop offset="1" stop-color="#2AF6FF"/>
</linearGradient>
<linearGradient id="paint102_linear_491_6643" x1="118.194" y1="425.085" x2="368.409" y2="368.967" gradientUnits="userSpaceOnUse">
<stop offset="0.04" stop-color="#138BBD"/>
<stop offset="0.23" stop-color="#169AC6"/>
<stop offset="0.59" stop-color="#1EC2DF"/>
<stop offset="1" stop-color="#2AF6FF"/>
</linearGradient>
<linearGradient id="paint103_linear_491_6643" x1="315.3" y1="384.241" x2="535.79" y2="318.181" gradientUnits="userSpaceOnUse">
<stop stop-color="#25054D"/>
<stop offset="1" stop-color="#45108A"/>
</linearGradient>
<linearGradient id="paint104_linear_491_6643" x1="95.3198" y1="410.976" x2="385.442" y2="345.895" gradientUnits="userSpaceOnUse">
<stop stop-color="#25054D"/>
<stop offset="1" stop-color="#45108A"/>
</linearGradient>
<linearGradient id="paint105_linear_491_6643" x1="195.496" y1="379.186" x2="278.964" y2="379.186" gradientUnits="userSpaceOnUse">
<stop stop-color="#25054D"/>
<stop offset="1" stop-color="#45108A"/>
</linearGradient>
<radialGradient id="paint106_radial_491_6643" cx="0" cy="0" r="1" gradientUnits="userSpaceOnUse" gradientTransform="translate(284.576 355.57) scale(97.132 97.0789)">
<stop offset="0.1" stop-color="#45108A"/>
<stop offset="0.67" stop-color="#25054D"/>
<stop offset="1"/>
</radialGradient>
<linearGradient id="paint107_linear_491_6643" x1="284.551" y1="277.027" x2="284.551" y2="358.412" gradientUnits="userSpaceOnUse">
<stop offset="0.03" stop-color="#7C1DC9"/>
<stop offset="0.21" stop-color="#6E41D1"/>
<stop offset="0.62" stop-color="#4C9BE8"/>
<stop offset="1" stop-color="#2AF6FF"/>
</linearGradient>
<radialGradient id="paint108_radial_491_6643" cx="0" cy="0" r="1" gradientUnits="userSpaceOnUse" gradientTransform="translate(284.098 368.749) scale(40.0103 39.9885)">
<stop stop-color="white"/>
<stop offset="1"/>
</radialGradient>
<linearGradient id="paint109_linear_491_6643" x1="284.551" y1="369.654" x2="284.551" y2="145.995" gradientUnits="userSpaceOnUse">
<stop stop-color="#1BB0D4"/>
<stop offset="0.05" stop-color="#189CBC"/>
<stop offset="0.18" stop-color="#11738B"/>
<stop offset="0.31" stop-color="#0C5060"/>
<stop offset="0.45" stop-color="#07333D"/>
<stop offset="0.58" stop-color="#041C22"/>
<stop offset="0.72" stop-color="#010C0F"/>
<stop offset="0.85" stop-color="#000303"/>
<stop offset="1"/>
</linearGradient>
<linearGradient id="paint110_linear_491_6643" x1="456.067" y1="504.257" x2="525.48" y2="660.089" gradientUnits="userSpaceOnUse">
<stop stop-color="#25054D"/>
<stop offset="1" stop-color="#45108A"/>
</linearGradient>
<radialGradient id="paint111_radial_491_6643" cx="0" cy="0" r="1" gradientUnits="userSpaceOnUse" gradientTransform="translate(392 418.319) scale(97.283 97.2298)">
<stop offset="0.1" stop-color="#45108A"/>
<stop offset="0.67" stop-color="#25054D"/>
<stop offset="1"/>
</radialGradient>
<linearGradient id="paint112_linear_491_6643" x1="162.71" y1="526.817" x2="103.156" y2="549.473" gradientUnits="userSpaceOnUse">
<stop stop-color="white"/>
<stop offset="1" stop-color="#A3653D"/>
</linearGradient>
<linearGradient id="paint113_linear_491_6643" x1="113.841" y1="498.095" x2="54.3116" y2="520.752" gradientUnits="userSpaceOnUse">
<stop stop-color="white"/>
<stop offset="1" stop-color="#A3653D"/>
</linearGradient>
<linearGradient id="paint114_linear_491_6643" x1="171.466" y1="595.476" x2="179.839" y2="608.91" gradientUnits="userSpaceOnUse">
<stop offset="0.04" stop-color="#FFA98C"/>
<stop offset="0.32" stop-color="#FEB892"/>
<stop offset="0.86" stop-color="#FEE0A3"/>
<stop offset="1" stop-color="#FEECA8"/>
</linearGradient>
<linearGradient id="paint115_linear_491_6643" x1="272.599" y1="759.63" x2="291.935" y2="790.574" gradientUnits="userSpaceOnUse">
<stop offset="0.04" stop-color="#FFA98C"/>
<stop offset="0.32" stop-color="#FEB892"/>
<stop offset="0.86" stop-color="#FEE0A3"/>
<stop offset="1" stop-color="#FEECA8"/>
</linearGradient>
<radialGradient id="paint116_radial_491_6643" cx="0" cy="0" r="1" gradientUnits="userSpaceOnUse" gradientTransform="translate(125.543 495.756) scale(73.0503 73.0104)">
<stop offset="0.1" stop-color="#FFE4A7"/>
<stop offset="0.42" stop-color="#F4BE4C"/>
<stop offset="0.67" stop-color="#ECA30A"/>
<stop offset="1"/>
</radialGradient>
<linearGradient id="paint117_linear_491_6643" x1="60.5693" y1="599.626" x2="137.255" y2="463.352" gradientUnits="userSpaceOnUse">
<stop offset="0.04" stop-color="#FFA98C"/>
<stop offset="0.31" stop-color="#FFB892"/>
<stop offset="0.32" stop-color="#FFB993"/>
<stop offset="0.82" stop-color="#FEDDA1"/>
<stop offset="1" stop-color="#FEECA8"/>
</linearGradient>
</defs>
</svg>
