<svg width="39" height="44" viewBox="0 0 39 44" fill="none" xmlns="http://www.w3.org/2000/svg">
<path d="M37.0849 43.5047H1.13848C0.593964 43.5047 0.144531 43.044 0.144531 42.4657V20.2937C0.144531 15.6768 3.74003 11.9182 8.15662 11.9182H30.0581C34.4747 11.9182 38.0702 15.6768 38.0702 20.2937V42.4657C38.0702 43.044 37.6294 43.5047 37.0849 43.5047ZM2.12377 41.4357H36.0909V20.2937C36.0909 16.8152 33.3856 13.9872 30.0581 13.9872H8.15662C4.82905 13.9872 2.12377 16.8152 2.12377 20.2937V41.4357Z" fill="#56BAFB"/>
<path d="M27.5365 13.9871H10.6912C10.1467 13.9871 9.69727 13.5263 9.69727 12.948V9.99358C9.69727 4.56353 13.9237 0.154449 19.1095 0.154449C24.304 0.154449 28.5218 4.57257 28.5218 9.99358V12.948C28.5304 13.5263 28.081 13.9871 27.5365 13.9871ZM11.6765 11.918H26.5425V10.0026C26.5425 5.72003 23.2063 2.23251 19.1095 2.23251C15.0127 2.23251 11.6765 5.72003 11.6765 10.0026V11.918V11.918Z" fill="#56BAFB"/>
<path d="M22.7369 35.7164H15.4854C15.1829 35.7164 14.8977 35.5718 14.7162 35.3279C14.526 35.0839 14.4569 34.7677 14.5174 34.4605L16.3929 25.4796C15.9262 24.8562 15.6756 24.0882 15.6756 23.2932C15.6756 21.3145 17.214 19.6972 19.1155 19.6972C21.0083 19.6972 22.5554 21.3054 22.5554 23.2932C22.5554 24.0882 22.2961 24.8562 21.838 25.4796L23.7136 34.4605C23.7741 34.7677 23.7049 35.0839 23.5148 35.3279C23.316 35.5809 23.0394 35.7164 22.7369 35.7164ZM16.7127 33.6473H21.501L19.781 25.3983C19.7032 25.0369 19.8242 24.6575 20.0835 24.4135C20.3946 24.1154 20.5675 23.7178 20.5675 23.2932C20.5675 22.4529 19.9106 21.7753 19.1155 21.7753C18.3117 21.7753 17.6548 22.4619 17.6548 23.2932C17.6548 23.7178 17.8277 24.1154 18.1388 24.4135C18.3981 24.6665 18.5191 25.0369 18.4413 25.3983L16.7127 33.6473Z" fill="#56BAFB"/>
</svg>
