<svg width="136" height="136" viewBox="0 0 136 136" fill="none" xmlns="http://www.w3.org/2000/svg">
<path d="M68 136C105.555 136 136 105.555 136 68C136 30.4446 105.555 0 68 0C30.4446 0 0 30.4446 0 68C0 105.555 30.4446 136 68 136Z" fill="url(#paint0_linear_491_6882)"/>
<path d="M83.638 113.47H83.3065C77.7175 113.47 73.1625 108.923 73.1625 103.326V51.6908C73.1625 48.6595 70.6917 46.1886 67.6603 46.1886H67.3367C64.3053 46.1886 61.8345 48.6595 61.8345 51.6908V103.326C61.8345 108.915 57.2875 113.47 51.6905 113.47H51.359C45.7699 113.47 41.215 108.923 41.215 103.326V81.6096C41.215 78.5782 38.7442 76.1074 35.7128 76.1074H35.3813C32.3499 76.1074 29.8791 78.5782 29.8791 81.6096V87.4354C29.8791 91.0588 26.9345 94.0033 23.3111 94.0033H17.0748C15.7959 94.0033 14.7539 92.9613 14.7539 91.6825C14.7539 90.4036 15.7959 89.3616 17.0748 89.3616H23.3111C24.369 89.3616 25.2373 88.5011 25.2373 87.4354V81.6096C25.2373 76.0205 29.7843 71.4656 35.3813 71.4656H35.7128C41.3019 71.4656 45.8568 76.0126 45.8568 81.6096V103.326C45.8568 106.358 48.3276 108.829 51.359 108.829H51.6905C54.7219 108.829 57.1927 106.358 57.1927 103.326V51.6908C57.1927 46.1018 61.7397 41.5469 67.3367 41.5469H67.6682C73.2573 41.5469 77.8122 46.0939 77.8122 51.6908V103.326C77.8122 106.358 80.283 108.829 83.3144 108.829H83.6459C86.6773 108.829 89.1481 106.358 89.1481 103.326V68.7106C89.1481 63.1215 93.6952 58.5666 99.2921 58.5666H99.6236C105.213 58.5666 109.768 63.1136 109.768 68.7106V87.4354C109.768 88.4932 110.628 89.3616 111.694 89.3616H118.933C120.212 89.3616 121.254 90.4036 121.254 91.6825C121.254 92.9613 120.212 94.0033 118.933 94.0033H111.694C108.07 94.0033 105.126 91.0588 105.126 87.4354V68.7106C105.126 65.6792 102.655 63.2084 99.6236 63.2084H99.2921C96.2608 63.2084 93.7899 65.6792 93.7899 68.7106V103.326C93.782 108.915 89.235 113.47 83.638 113.47Z" fill="white"/>
<path d="M74.9835 32.2011C75.9853 27.976 73.3723 23.7388 69.1472 22.737C64.9221 21.7352 60.6848 24.3482 59.683 28.5734C58.6812 32.7985 61.2943 37.0357 65.5194 38.0375C69.7445 39.0393 73.9818 36.4263 74.9835 32.2011Z" fill="white"/>
<path d="M99.6165 55.2749C103.959 55.2749 107.479 51.7547 107.479 47.4124C107.479 43.07 103.959 39.5498 99.6165 39.5498C95.2741 39.5498 91.7539 43.07 91.7539 47.4124C91.7539 51.7547 95.2741 55.2749 99.6165 55.2749Z" fill="white"/>
<path d="M35.3821 68.1738C39.7244 68.1738 43.2446 64.6537 43.2446 60.3113C43.2446 55.9689 39.7244 52.4487 35.3821 52.4487C31.0397 52.4487 27.5195 55.9689 27.5195 60.3113C27.5195 64.6537 31.0397 68.1738 35.3821 68.1738Z" fill="white"/>
<defs>
<linearGradient id="paint0_linear_491_6882" x1="0" y1="67.9981" x2="135.996" y2="67.9981" gradientUnits="userSpaceOnUse">
<stop stop-color="#448AFF"/>
<stop offset="1" stop-color="#E040FB"/>
</linearGradient>
</defs>
</svg>
