<svg width="54" height="44" viewBox="0 0 54 44" fill="none" xmlns="http://www.w3.org/2000/svg">
<path d="M28.1817 43.3048C25.672 43.3048 23.6255 41.3819 23.6255 39.0239C23.6255 36.6658 25.672 34.743 28.1817 34.743C30.6914 34.743 32.7379 36.6658 32.7379 39.0239C32.7379 41.392 30.6914 43.3048 28.1817 43.3048ZM28.1817 37.0707C27.0292 37.0707 26.0921 37.9511 26.0921 39.034C26.0921 40.1169 27.0292 40.9974 28.1817 40.9974C29.3342 40.9974 30.2713 40.1169 30.2713 39.034C30.2713 37.9511 29.3342 37.0707 28.1817 37.0707Z" fill="#C9AEFF"/>
<path d="M28.2572 37.0708C27.5787 37.0708 27.0186 36.5546 27.0186 35.9069V1.16385C27.0186 0.526266 27.5679 0 28.2572 0C28.9358 0 29.4959 0.516146 29.4959 1.16385V35.9069C29.4851 36.5546 28.9358 37.0708 28.2572 37.0708Z" fill="#C9AEFF"/>
<path d="M28.2578 19.7044H16.2587C15.5801 19.7044 15.02 19.1883 15.02 18.5406V4.37206C15.02 3.73448 15.5693 3.20821 16.2587 3.20821C16.9373 3.20821 17.4974 3.72436 17.4974 4.37206V17.3868H28.2686C28.9472 17.3868 29.5073 17.903 29.5073 18.5507C29.4858 19.1781 28.9364 19.7044 28.2578 19.7044Z" fill="#C9AEFF"/>
<path d="M39.6856 30.1385H29.4528C28.7742 30.1385 28.2141 29.6223 28.2141 28.9746C28.2141 28.3269 28.7634 27.8108 29.4528 27.8108H38.4469V11.4462C38.4469 10.8086 38.9962 10.2824 39.6856 10.2824C40.3642 10.2824 40.9243 10.7985 40.9243 11.4462V28.9746C40.9243 29.6223 40.3642 30.1385 39.6856 30.1385Z" fill="#C9AEFF"/>
</svg>
