<svg width="23" height="52" viewBox="0 0 23 52" fill="none" xmlns="http://www.w3.org/2000/svg">
<path d="M8.71973 46.0061C5.83987 46.0061 2.97366 45.2794 0.639742 43.7536C-0.0563382 43.2934 -0.206473 42.4336 0.298526 41.816C0.803525 41.1984 1.78621 41.0652 2.48229 41.5132C6.8908 44.3833 14.0017 43.5356 17.4003 39.7331C20.7988 35.9305 20.1163 29.5969 15.9535 26.4362C14.4658 25.3099 12.6642 24.547 10.7534 23.7235C9.77066 23.2997 8.78797 22.8879 7.84621 22.4156C3.92906 20.4659 1.56784 17.838 1.22662 14.9922C0.817164 11.6861 3.32852 8.2953 7.05459 7.12062C10.3712 6.07915 14.4112 6.78154 17.3456 8.93713C18.0144 9.42153 18.11 10.3056 17.5504 10.8869C17.0044 11.4802 16.0081 11.565 15.353 11.0685C13.2511 9.53052 10.4122 8.99768 8.10554 9.72428C5.74433 10.4751 4.07918 12.6428 4.33851 14.6773C4.65243 17.281 7.62783 19.1217 9.37485 19.9815C10.262 20.4175 11.1901 20.8171 12.1046 21.2046C14.1109 22.0644 16.1855 22.9485 17.9735 24.3048C23.4193 28.4465 24.2928 36.4512 19.8297 41.4285C17.2092 44.4197 12.9508 46.0061 8.71973 46.0061Z" fill="#FFE4B0"/>
<path d="M9.7317 51.3708C8.87183 51.3708 8.16211 50.7532 8.16211 49.9782V1.39265C8.16211 0.629715 8.85818 0 9.7317 0C10.5916 0 11.3013 0.617605 11.3013 1.39265V49.9782C11.3013 50.7532 10.6052 51.3708 9.7317 51.3708Z" fill="#FFE4B0"/>
</svg>
