<svg width="32" height="41" viewBox="0 0 32 41" fill="none" xmlns="http://www.w3.org/2000/svg">
<path d="M16.0141 40.7259C15.8165 40.7259 15.6188 40.6759 15.442 40.586C-1.4494 31.6892 0.87007 9.7173 0.901273 9.49738C0.953279 9.03755 1.28611 8.65769 1.74376 8.52773C12.6649 5.36889 14.9428 1.52031 14.9636 1.48032C15.1716 1.10046 15.6293 0.880541 16.0349 0.870544C16.4821 0.880541 16.8878 1.11046 17.0854 1.50031C17.0958 1.52031 19.3737 5.37889 30.2948 8.53773C30.7525 8.66768 31.0853 9.04754 31.1373 9.50737C31.1581 9.72729 33.488 31.7092 16.5966 40.596C16.4094 40.6759 16.2117 40.7259 16.0141 40.7259ZM3.21032 10.477C2.9919 14.1857 2.78388 30.8295 16.0141 38.2568C29.2651 30.8096 29.0467 14.1857 28.8179 10.477C21.1107 8.13788 17.5639 5.46886 16.0141 3.87944C14.4643 5.47885 10.9176 8.14787 3.21032 10.477Z" fill="#92E4CA"/>
</svg>
