<svg width="608" height="482" viewBox="0 0 608 482" fill="none" xmlns="http://www.w3.org/2000/svg">
<g clip-path="url(#clip0_882_6928)">
<g opacity="0.9">
<path opacity="0.9" d="M303.022 311.758C135.131 311.613 -0.50977 349.606 0.00144027 396.653L192.43 396.818C192.344 388.839 203.165 380.86 224.849 374.783C268.259 362.629 338.849 362.691 382.557 374.928C426.223 387.165 426.479 406.926 383.111 419.081L519.647 457.322C578.82 440.744 608.257 420.693 608.001 397.19C607.49 350.164 470.954 311.902 303.064 311.758H303.022Z" fill="url(#paint0_linear_882_6928)"/>
<path opacity="0.9" d="M192.343 286.126L0 285.96V396.798H192.343V286.126Z" fill="url(#paint1_linear_882_6928)"/>
<path opacity="0.9" d="M224.848 374.783C268.259 362.629 338.848 362.691 382.557 374.928C404.155 380.985 415.104 388.881 415.402 396.777V286.663C415.572 278.56 404.667 270.437 382.557 264.235C338.891 251.998 268.259 251.936 224.848 264.091C203.42 270.085 192.685 277.94 192.472 285.837H192.344V396.86H192.429C192.301 388.86 203.122 380.86 224.848 374.763V374.783Z" fill="url(#paint2_linear_882_6928)"/>
<g opacity="0.9">
<path opacity="0.9" d="M419.279 379.062H191.961V394.627C191.961 394.772 191.961 394.917 191.961 395.061C191.961 412.797 242.826 427.184 305.62 427.184C368.414 427.184 419.279 412.797 419.279 395.061C419.279 394.917 419.279 394.772 419.279 394.627V379.062V379.062Z" fill="url(#paint3_linear_882_6928)"/>
<g style="mix-blend-mode:multiply" opacity="0.9">
<path style="mix-blend-mode:multiply" opacity="0.9" d="M305.62 423.752C242.869 423.752 191.961 409.366 191.961 391.63V394.627C191.961 394.772 191.961 394.917 191.961 395.061C191.961 412.797 242.826 427.184 305.62 427.184C368.414 427.184 419.279 412.797 419.279 395.061C419.279 394.917 419.279 394.772 419.279 394.627V391.63C419.279 409.366 368.414 423.752 305.62 423.752V423.752Z" fill="url(#paint4_linear_882_6928)"/>
</g>
<g style="mix-blend-mode:multiply" opacity="0.9">
<g style="mix-blend-mode:multiply" opacity="0.9">
<path d="M340.424 425.633C341.489 425.53 342.554 425.406 343.619 425.303V384.519H340.424V425.633V425.633Z" fill="#FDD65B"/>
</g>
<g style="mix-blend-mode:multiply" opacity="0.9">
<path d="M354.697 424C355.762 423.855 356.827 423.711 357.892 423.566V384.54H354.697V424Z" fill="#FDD65B"/>
</g>
<g style="mix-blend-mode:multiply" opacity="0.9">
<path d="M368.967 421.726C370.074 421.52 371.097 421.272 372.162 421.065V384.54H368.967V421.747V421.726Z" fill="#FDD65B"/>
</g>
<g style="mix-blend-mode:multiply" opacity="0.9">
<path d="M326.154 426.626C327.219 426.564 328.284 426.522 329.349 426.46V384.519H326.154V426.626Z" fill="#FDD65B"/>
</g>
<g style="mix-blend-mode:multiply" opacity="0.9">
<path d="M397.555 413.913C398.62 413.499 399.727 413.065 400.75 412.631V384.54H397.555V413.913Z" fill="#FDD65B"/>
</g>
<g style="mix-blend-mode:multiply" opacity="0.9">
<path d="M411.824 406.43C413.017 405.541 414.082 404.632 415.019 403.701V384.54H411.824V406.43Z" fill="#FDD65B"/>
</g>
<g style="mix-blend-mode:multiply" opacity="0.9">
<path d="M383.281 418.481C384.346 418.192 385.454 417.923 386.476 417.634V384.54H383.281V418.481Z" fill="#FDD65B"/>
</g>
<g style="mix-blend-mode:multiply" opacity="0.9">
<path d="M311.883 427.101C312.948 427.101 314.013 427.08 315.078 427.059V384.54H311.883V427.101Z" fill="#FDD65B"/>
</g>
<g style="mix-blend-mode:multiply" opacity="0.9">
<path d="M297.611 427.08C298.676 427.08 299.741 427.122 300.806 427.122V384.54H297.611V427.08Z" fill="#FDD65B"/>
</g>
<g style="mix-blend-mode:multiply" opacity="0.9">
<path d="M269.027 425.447C270.092 425.551 271.115 425.675 272.222 425.757V384.519H269.027V425.447V425.447Z" fill="#FDD65B"/>
</g>
<g style="mix-blend-mode:multiply" opacity="0.9">
<path d="M283.34 426.563C284.405 426.625 285.47 426.646 286.535 426.708V384.54H283.34V426.563Z" fill="#FDD65B"/>
</g>
<g style="mix-blend-mode:multiply" opacity="0.9">
<path d="M254.754 423.752C255.819 423.897 256.884 424.042 257.949 424.186V384.519H254.754V423.752Z" fill="#FDD65B"/>
</g>
<g style="mix-blend-mode:multiply" opacity="0.9">
<path d="M197.67 405.066C198.65 405.893 199.672 406.719 200.865 407.526V384.54H197.67V405.086V405.066Z" fill="#FDD65B"/>
</g>
<g style="mix-blend-mode:multiply" opacity="0.9">
<path d="M211.939 413.231C212.962 413.644 214.069 414.037 215.135 414.43V384.519H211.939V413.231V413.231Z" fill="#FDD65B"/>
</g>
<g style="mix-blend-mode:multiply" opacity="0.9">
<path d="M240.484 421.375C241.549 421.582 242.614 421.789 243.679 421.995V384.561H240.484V421.396V421.375Z" fill="#FDD65B"/>
</g>
<g style="mix-blend-mode:multiply" opacity="0.9">
<path d="M226.213 418.026C227.235 418.316 228.343 418.564 229.408 418.853V384.54H226.213V418.026Z" fill="#FDD65B"/>
</g>
</g>
<path opacity="0.9" d="M305.62 411.412C368.392 411.412 419.279 397.03 419.279 379.29C419.279 361.549 368.392 347.167 305.62 347.167C242.848 347.167 191.961 361.549 191.961 379.29C191.961 397.03 242.848 411.412 305.62 411.412Z" fill="url(#paint5_linear_882_6928)"/>
<path style="mix-blend-mode:screen" opacity="0.9" d="M305.62 410.544C244.19 410.544 194.261 396.756 192.174 379.558C192.131 379.93 191.961 380.302 191.961 380.674C191.961 398.41 242.826 412.776 305.62 412.776C368.414 412.776 419.279 398.389 419.279 380.674C419.279 380.302 419.109 379.93 419.066 379.558C416.979 396.777 367.051 410.544 305.62 410.544V410.544Z" fill="url(#paint6_radial_882_6928)"/>
<path opacity="0.9" d="M305.62 403.288C352.535 403.288 390.566 392.544 390.566 379.289C390.566 366.035 352.535 355.291 305.62 355.291C258.706 355.291 220.674 366.035 220.674 379.289C220.674 392.544 258.706 403.288 305.62 403.288Z" fill="url(#paint7_linear_882_6928)"/>
<path style="mix-blend-mode:screen" opacity="0.9" d="M308.433 356.489C353.802 356.489 390.78 366.556 393.166 379.207C393.251 378.773 393.379 378.359 393.379 377.925C393.379 364.675 355.336 353.926 308.433 353.926C261.529 353.926 223.486 364.675 223.486 377.925C223.486 378.359 223.657 378.793 223.699 379.207C226.085 366.556 263.063 356.489 308.433 356.489V356.489Z" fill="url(#paint8_radial_882_6928)"/>
<path style="mix-blend-mode:multiply" opacity="0.9" d="M305.62 357.874C350.99 357.874 387.968 367.941 390.353 380.591C390.438 380.157 390.566 379.744 390.566 379.31C390.566 366.06 352.524 355.311 305.62 355.311C258.716 355.311 220.674 366.06 220.674 379.31C220.674 379.744 220.802 380.178 220.887 380.591C223.272 367.941 260.25 357.874 305.62 357.874Z" fill="url(#paint9_linear_882_6928)"/>
<path style="mix-blend-mode:color-dodge" opacity="0.9" d="M252.751 395.764C278.269 399.981 295.48 408.373 291.177 414.513C286.875 420.652 262.677 422.202 237.159 417.985C211.642 413.768 194.431 405.376 198.733 399.237C203.036 393.098 227.233 391.547 252.751 395.764V395.764Z" fill="url(#paint10_radial_882_6928)"/>
<path style="mix-blend-mode:color-dodge" opacity="0.9" d="M365.304 348.366C390.822 352.583 408.033 360.975 403.73 367.114C399.427 373.253 375.23 374.804 349.712 370.587C324.194 366.37 306.984 357.978 311.286 351.838C315.589 345.699 339.786 344.149 365.304 348.366Z" fill="url(#paint11_radial_882_6928)"/>
<g style="mix-blend-mode:multiply" opacity="0.9">
<path style="mix-blend-mode:multiply" opacity="0.9" d="M312.179 371.745C310.091 371.931 307.876 372.179 305.618 372.468C303.658 372.695 301.571 373.005 299.356 373.357C297.14 373.708 295.01 374.101 292.966 374.535L299.782 376.458C300.463 376.333 301.187 376.189 301.997 376.065C302.806 375.941 303.658 375.796 304.51 375.651C308.387 374.99 312.051 374.432 315.459 373.977C318.867 373.522 322.105 373.233 325.129 373.067C328.154 372.923 331.008 372.943 333.735 373.192C336.461 373.419 339.102 373.894 341.616 374.597C344.598 375.424 346.472 376.333 347.282 377.284C348.091 378.235 348.091 379.207 347.282 380.178C346.472 381.15 345.066 382.121 343.022 383.072C340.977 384.023 338.548 384.933 335.779 385.801L344.939 388.364L337.313 390.493L327.983 387.888C323.297 389.025 318.27 390.059 312.86 390.968C307.492 391.878 302.253 392.601 297.183 393.098L292.241 387.227C294.797 386.979 297.481 386.69 300.208 386.359C302.508 386.09 305.107 385.718 307.918 385.284C310.73 384.85 313.414 384.333 315.97 383.775L309.282 381.915C306.896 382.349 304.468 382.762 301.912 383.176C298.12 383.796 294.67 384.271 291.56 384.602C288.45 384.953 285.638 385.139 283.04 385.201C280.441 385.263 278.055 385.181 275.883 384.933C273.71 384.685 271.622 384.292 269.663 383.754C266.936 382.989 265.105 382.163 264.125 381.253C263.187 380.344 262.932 379.393 263.358 378.421C263.827 377.45 264.892 376.458 266.638 375.465C268.385 374.473 270.6 373.522 273.327 372.613L265.658 370.463L273.284 368.334L281.037 370.504C283.338 369.967 285.681 369.491 288.066 369.057C290.452 368.623 292.795 368.21 295.138 367.858C297.481 367.507 299.739 367.176 301.912 366.887C304.084 366.598 306.087 366.349 307.918 366.122L312.136 371.786L312.179 371.745ZM286.533 377.656C287.3 377.863 288.237 377.946 289.344 377.904C290.452 377.863 291.858 377.718 293.519 377.47L287.768 375.858C285.468 376.644 285.084 377.243 286.533 377.656ZM323.042 380.612C322.318 380.406 321.338 380.344 320.06 380.406C318.782 380.468 317.291 380.633 315.587 380.86L321.21 382.431C322.616 381.977 323.468 381.605 323.681 381.315C323.894 381.026 323.681 380.778 323.042 380.592V380.612Z" fill="url(#paint12_linear_882_6928)"/>
</g>
<path opacity="0.9" d="M312.179 370.38C310.091 370.566 307.876 370.814 305.618 371.104C303.658 371.331 301.571 371.641 299.356 371.993C297.14 372.344 295.01 372.737 292.966 373.171L299.782 375.093C300.463 374.969 301.187 374.825 301.997 374.7C302.806 374.576 303.658 374.432 304.51 374.287C308.387 373.626 312.051 373.067 315.459 372.613C318.867 372.158 322.105 371.869 325.129 371.703C328.154 371.559 331.008 371.579 333.735 371.827C336.461 372.055 339.102 372.53 341.616 373.233C344.598 374.06 346.472 374.969 347.282 375.92C348.091 376.871 348.091 377.842 347.282 378.814C346.472 379.786 345.066 380.757 343.022 381.708C340.977 382.659 338.548 383.568 335.779 384.436L344.939 387L337.313 389.129L327.983 386.524C323.297 387.661 318.27 388.695 312.86 389.604C307.492 390.514 302.253 391.237 297.183 391.733L292.241 385.863C294.797 385.615 297.481 385.325 300.208 384.995C302.508 384.726 305.107 384.354 307.918 383.92C310.73 383.486 313.414 382.969 315.97 382.411L309.282 380.55C306.896 380.984 304.468 381.398 301.912 381.811C298.12 382.431 294.67 382.907 291.56 383.238C288.45 383.589 285.638 383.775 283.04 383.837C280.441 383.899 278.055 383.816 275.883 383.568C273.71 383.32 271.622 382.928 269.663 382.39C266.936 381.625 265.105 380.798 264.125 379.889C263.187 378.979 262.932 378.029 263.358 377.057C263.827 376.085 264.892 375.093 266.638 374.101C268.385 373.109 270.6 372.158 273.327 371.248L265.658 369.099L273.284 366.97L281.037 369.14C283.338 368.603 285.681 368.127 288.066 367.693C290.452 367.259 292.795 366.846 295.138 366.494C297.481 366.143 299.739 365.812 301.912 365.523C304.084 365.233 306.087 364.985 307.918 364.758L312.136 370.422L312.179 370.38ZM286.533 376.292C287.3 376.499 288.237 376.582 289.344 376.54C290.452 376.499 291.858 376.354 293.519 376.106L287.768 374.494C285.468 375.279 285.084 375.879 286.533 376.292ZM323.042 379.248C322.318 379.041 321.338 378.979 320.06 379.041C318.782 379.103 317.291 379.269 315.587 379.496L321.21 381.067C322.616 380.612 323.468 380.24 323.681 379.951C323.894 379.661 323.681 379.413 323.042 379.227V379.248Z" fill="url(#paint13_linear_882_6928)"/>
<path style="mix-blend-mode:color-dodge" opacity="0.9" d="M312.179 370.38C310.091 370.566 307.876 370.814 305.618 371.104C303.658 371.331 301.571 371.641 299.356 371.993C297.14 372.344 295.01 372.737 292.966 373.171L299.782 375.093C300.463 374.969 301.187 374.825 301.997 374.7C302.806 374.576 303.658 374.432 304.51 374.287C308.387 373.626 312.051 373.067 315.459 372.613C318.867 372.158 322.105 371.869 325.129 371.703C328.154 371.559 331.008 371.579 333.735 371.827C336.461 372.055 339.102 372.53 341.616 373.233C344.598 374.06 346.472 374.969 347.282 375.92C348.091 376.871 348.091 377.842 347.282 378.814C346.472 379.786 345.066 380.757 343.022 381.708C340.977 382.659 338.548 383.568 335.779 384.436L344.939 387L337.313 389.129L327.983 386.524C323.297 387.661 318.27 388.695 312.86 389.604C307.492 390.514 302.253 391.237 297.183 391.733L292.241 385.863C294.797 385.615 297.481 385.325 300.208 384.995C302.508 384.726 305.107 384.354 307.918 383.92C310.73 383.486 313.414 382.969 315.97 382.411L309.282 380.55C306.896 380.984 304.468 381.398 301.912 381.811C298.12 382.431 294.67 382.907 291.56 383.238C288.45 383.589 285.638 383.775 283.04 383.837C280.441 383.899 278.055 383.816 275.883 383.568C273.71 383.32 271.622 382.928 269.663 382.39C266.936 381.625 265.105 380.798 264.125 379.889C263.187 378.979 262.932 378.029 263.358 377.057C263.827 376.085 264.892 375.093 266.638 374.101C268.385 373.109 270.6 372.158 273.327 371.248L265.658 369.099L273.284 366.97L281.037 369.14C283.338 368.603 285.681 368.127 288.066 367.693C290.452 367.259 292.795 366.846 295.138 366.494C297.481 366.143 299.739 365.812 301.912 365.523C304.084 365.233 306.087 364.985 307.918 364.758L312.136 370.422L312.179 370.38ZM286.533 376.292C287.3 376.499 288.237 376.582 289.344 376.54C290.452 376.499 291.858 376.354 293.519 376.106L287.768 374.494C285.468 375.279 285.084 375.879 286.533 376.292ZM323.042 379.248C322.318 379.041 321.338 378.979 320.06 379.041C318.782 379.103 317.291 379.269 315.587 379.496L321.21 381.067C322.616 380.612 323.468 380.24 323.681 379.951C323.894 379.661 323.681 379.413 323.042 379.227V379.248Z" fill="url(#paint14_radial_882_6928)"/>
</g>
<path style="mix-blend-mode:multiply" opacity="0.9" d="M303.789 378.442C350.633 378.442 388.608 370.77 388.608 361.306C388.608 351.842 350.633 344.17 303.789 344.17C256.945 344.17 218.971 351.842 218.971 361.306C218.971 370.77 256.945 378.442 303.789 378.442Z" fill="url(#paint15_radial_882_6928)"/>
<g opacity="0.9">
<path opacity="0.9" d="M419.279 315.851H191.961V331.416C191.961 331.56 191.961 331.705 191.961 331.85C191.961 349.585 242.826 363.972 305.62 363.972C368.414 363.972 419.279 349.585 419.279 331.85C419.279 331.705 419.279 331.56 419.279 331.416V315.851V315.851Z" fill="url(#paint16_linear_882_6928)"/>
<g style="mix-blend-mode:multiply" opacity="0.9">
<path style="mix-blend-mode:multiply" opacity="0.9" d="M305.62 360.541C242.869 360.541 191.961 346.154 191.961 328.418V331.416C191.961 331.56 191.961 331.705 191.961 331.85C191.961 349.585 242.826 363.972 305.62 363.972C368.414 363.972 419.279 349.585 419.279 331.85C419.279 331.705 419.279 331.56 419.279 331.416V328.418C419.279 346.154 368.414 360.541 305.62 360.541V360.541Z" fill="url(#paint17_linear_882_6928)"/>
</g>
<g style="mix-blend-mode:multiply" opacity="0.9">
<g style="mix-blend-mode:multiply" opacity="0.9">
<path d="M340.424 362.422C341.489 362.319 342.554 362.195 343.619 362.091V321.308H340.424V362.422V362.422Z" fill="#FDD65B"/>
</g>
<g style="mix-blend-mode:multiply" opacity="0.9">
<path d="M354.697 360.789C355.762 360.644 356.827 360.499 357.892 360.355V321.328H354.697V360.789Z" fill="#FDD65B"/>
</g>
<g style="mix-blend-mode:multiply" opacity="0.9">
<path d="M368.967 358.515C370.074 358.308 371.097 358.06 372.162 357.854V321.328H368.967V358.536V358.515Z" fill="#FDD65B"/>
</g>
<g style="mix-blend-mode:multiply" opacity="0.9">
<path d="M326.154 363.414C327.219 363.352 328.284 363.311 329.349 363.249V321.308H326.154V363.414Z" fill="#FDD65B"/>
</g>
<g style="mix-blend-mode:multiply" opacity="0.9">
<path d="M397.555 350.681C398.62 350.267 399.727 349.833 400.75 349.399V321.308H397.555V350.681Z" fill="#FDD65B"/>
</g>
<g style="mix-blend-mode:multiply" opacity="0.9">
<path d="M411.824 343.219C413.017 342.33 414.082 341.42 415.019 340.49V321.328H411.824V343.219Z" fill="#FDD65B"/>
</g>
<g style="mix-blend-mode:multiply" opacity="0.9">
<path d="M383.281 355.27C384.346 354.98 385.454 354.712 386.476 354.422V321.328H383.281V355.27Z" fill="#FDD65B"/>
</g>
<g style="mix-blend-mode:multiply" opacity="0.9">
<path d="M311.883 363.869C312.948 363.869 314.013 363.848 315.078 363.828V321.308H311.883V363.869Z" fill="#FDD65B"/>
</g>
<g style="mix-blend-mode:multiply" opacity="0.9">
<path d="M297.611 363.848C298.676 363.869 299.741 363.89 300.806 363.89V321.308H297.611V363.848V363.848Z" fill="#FDD65B"/>
</g>
<g style="mix-blend-mode:multiply" opacity="0.9">
<path d="M269.027 362.236C270.092 362.339 271.115 362.463 272.222 362.546V321.308H269.027V362.236V362.236Z" fill="#FDD65B"/>
</g>
<g style="mix-blend-mode:multiply" opacity="0.9">
<path d="M283.34 363.331C284.405 363.393 285.47 363.414 286.535 363.476V321.308H283.34V363.331V363.331Z" fill="#FDD65B"/>
</g>
<g style="mix-blend-mode:multiply" opacity="0.9">
<path d="M254.754 360.541C255.819 360.686 256.884 360.83 257.949 360.975V321.308H254.754V360.541Z" fill="#FDD65B"/>
</g>
<g style="mix-blend-mode:multiply" opacity="0.9">
<path d="M197.67 341.854C198.65 342.681 199.672 343.508 200.865 344.314V321.328H197.67V341.854Z" fill="#FDD65B"/>
</g>
<g style="mix-blend-mode:multiply" opacity="0.9">
<path d="M211.939 350.019C212.962 350.433 214.069 350.826 215.135 351.218V321.308H211.939V350.019V350.019Z" fill="#FDD65B"/>
</g>
<g style="mix-blend-mode:multiply" opacity="0.9">
<path d="M240.484 358.143C241.549 358.35 242.614 358.556 243.679 358.763V321.328H240.484V358.164V358.143Z" fill="#FDD65B"/>
</g>
<g style="mix-blend-mode:multiply" opacity="0.9">
<path d="M226.213 354.815C227.235 355.104 228.343 355.352 229.408 355.642V321.328H226.213V354.815Z" fill="#FDD65B"/>
</g>
</g>
<path opacity="0.9" d="M305.62 348.201C368.392 348.201 419.279 333.819 419.279 316.078C419.279 298.337 368.392 283.956 305.62 283.956C242.848 283.956 191.961 298.337 191.961 316.078C191.961 333.819 242.848 348.201 305.62 348.201Z" fill="url(#paint18_linear_882_6928)"/>
<path style="mix-blend-mode:screen" opacity="0.9" d="M305.62 347.332C244.19 347.332 194.261 333.545 192.174 316.326C192.131 316.698 191.961 317.07 191.961 317.442C191.961 335.178 242.826 349.565 305.62 349.565C368.414 349.565 419.279 335.178 419.279 317.442C419.279 317.07 419.109 316.698 419.066 316.326C416.979 333.545 367.051 347.332 305.62 347.332V347.332Z" fill="url(#paint19_radial_882_6928)"/>
<path opacity="0.9" d="M305.62 340.077C352.535 340.077 390.566 329.332 390.566 316.078C390.566 302.824 352.535 292.079 305.62 292.079C258.706 292.079 220.674 302.824 220.674 316.078C220.674 329.332 258.706 340.077 305.62 340.077Z" fill="url(#paint20_linear_882_6928)"/>
<path style="mix-blend-mode:screen" opacity="0.9" d="M308.433 293.278C353.802 293.278 390.78 303.345 393.166 315.995C393.251 315.561 393.379 315.148 393.379 314.714C393.379 301.464 355.336 290.715 308.433 290.715C261.529 290.715 223.486 301.464 223.486 314.714C223.486 315.148 223.657 315.582 223.699 315.995C226.085 303.345 263.063 293.278 308.433 293.278Z" fill="url(#paint21_radial_882_6928)"/>
<path style="mix-blend-mode:multiply" opacity="0.9" d="M305.62 294.642C350.99 294.642 387.968 304.709 390.353 317.36C390.438 316.926 390.566 316.512 390.566 316.078C390.566 302.828 352.524 292.079 305.62 292.079C258.716 292.079 220.674 302.828 220.674 316.078C220.674 316.512 220.802 316.946 220.887 317.36C223.272 304.709 260.25 294.642 305.62 294.642V294.642Z" fill="url(#paint22_linear_882_6928)"/>
<path style="mix-blend-mode:color-dodge" opacity="0.9" d="M252.751 332.553C278.269 336.77 295.48 345.162 291.177 351.301C286.875 357.44 262.677 358.991 237.159 354.774C211.642 350.557 194.431 342.165 198.733 336.025C203.036 329.886 227.233 328.336 252.751 332.553V332.553Z" fill="url(#paint23_radial_882_6928)"/>
<path style="mix-blend-mode:color-dodge" opacity="0.9" d="M365.304 285.154C390.822 289.371 408.033 297.764 403.73 303.903C399.427 310.042 375.23 311.592 349.712 307.375C324.194 303.159 306.984 294.766 311.286 288.627C315.589 282.488 339.786 280.937 365.304 285.154Z" fill="url(#paint24_radial_882_6928)"/>
<g style="mix-blend-mode:multiply" opacity="0.9">
<path style="mix-blend-mode:multiply" opacity="0.9" d="M312.179 308.533C310.091 308.719 307.876 308.967 305.618 309.257C303.658 309.484 301.571 309.794 299.356 310.145C297.14 310.497 295.01 310.89 292.966 311.324L299.782 313.246C300.463 313.122 301.187 312.977 301.997 312.853C302.806 312.729 303.658 312.585 304.51 312.44C308.387 311.778 312.051 311.22 315.459 310.766C318.867 310.311 322.105 310.021 325.129 309.856C328.154 309.711 331.008 309.732 333.735 309.98C336.461 310.207 339.102 310.683 341.616 311.386C344.598 312.213 346.472 313.122 347.282 314.073C348.091 315.024 348.091 315.995 347.282 316.967C346.472 317.938 345.066 318.91 343.022 319.861C340.977 320.812 338.548 321.721 335.779 322.589L344.939 325.153L337.313 327.282L327.983 324.677C323.297 325.814 318.27 326.848 312.86 327.757C307.492 328.667 302.253 329.39 297.183 329.886L292.241 324.016C294.797 323.768 297.481 323.478 300.208 323.147C302.508 322.879 305.107 322.507 307.918 322.073C310.73 321.638 313.414 321.122 315.97 320.564L309.282 318.703C306.896 319.137 304.468 319.551 301.912 319.964C298.12 320.584 294.67 321.06 291.56 321.39C288.45 321.742 285.638 321.928 283.04 321.99C280.441 322.052 278.055 321.969 275.883 321.721C273.71 321.473 271.622 321.08 269.663 320.543C266.936 319.778 265.105 318.951 264.125 318.042C263.187 317.132 262.932 316.181 263.358 315.21C263.827 314.238 264.892 313.246 266.638 312.254C268.385 311.262 270.6 310.311 273.327 309.401L265.658 307.252L273.284 305.122L281.037 307.293C283.338 306.755 285.681 306.28 288.066 305.846C290.452 305.412 292.795 304.998 295.138 304.647C297.481 304.296 299.739 303.965 301.912 303.675C304.084 303.386 306.087 303.138 307.918 302.911L312.136 308.574L312.179 308.533ZM286.533 314.445C287.3 314.652 288.237 314.734 289.344 314.693C290.452 314.652 291.858 314.507 293.519 314.259L287.768 312.647C285.468 313.432 285.084 314.032 286.533 314.445ZM323.042 317.401C322.318 317.194 321.338 317.132 320.06 317.194C318.782 317.256 317.291 317.422 315.587 317.649L321.21 319.22C322.616 318.765 323.468 318.393 323.681 318.104C323.894 317.814 323.681 317.566 323.042 317.38V317.401Z" fill="url(#paint25_linear_882_6928)"/>
</g>
<path opacity="0.9" d="M312.179 307.169C310.091 307.355 307.876 307.603 305.618 307.892C303.658 308.12 301.571 308.43 299.356 308.781C297.14 309.133 295.01 309.525 292.966 309.959L299.782 311.882C300.463 311.758 301.187 311.613 301.997 311.489C302.806 311.365 303.658 311.22 304.51 311.076C308.387 310.414 312.051 309.856 315.459 309.401C318.867 308.947 322.105 308.657 325.129 308.492C328.154 308.347 331.008 308.368 333.735 308.616C336.461 308.843 339.102 309.319 341.616 310.021C344.598 310.848 346.472 311.758 347.282 312.709C348.091 313.659 348.091 314.631 347.282 315.603C346.472 316.574 345.066 317.546 343.022 318.496C340.977 319.447 338.548 320.357 335.779 321.225L344.939 323.788L337.313 325.917L327.983 323.313C323.297 324.45 318.27 325.483 312.86 326.393C307.492 327.302 302.253 328.026 297.183 328.522L292.241 322.651C294.797 322.403 297.481 322.114 300.208 321.783C302.508 321.514 305.107 321.142 307.918 320.708C310.73 320.274 313.414 319.757 315.97 319.199L309.282 317.339C306.896 317.773 304.468 318.186 301.912 318.6C298.12 319.22 294.67 319.695 291.56 320.026C288.45 320.378 285.638 320.564 283.04 320.626C280.441 320.688 278.055 320.605 275.883 320.357C273.71 320.109 271.622 319.716 269.663 319.179C266.936 318.414 265.105 317.587 264.125 316.677C263.187 315.768 262.932 314.817 263.358 313.846C263.827 312.874 264.892 311.882 266.638 310.89C268.385 309.897 270.6 308.947 273.327 308.037L265.658 305.887L273.284 303.758L281.037 305.929C283.338 305.391 285.681 304.916 288.066 304.482C290.452 304.048 292.795 303.634 295.138 303.283C297.481 302.931 299.739 302.601 301.912 302.311C304.084 302.022 306.087 301.774 307.918 301.546L312.136 307.21L312.179 307.169ZM286.533 313.081C287.3 313.287 288.237 313.37 289.344 313.329C290.452 313.287 291.858 313.143 293.519 312.895L287.768 311.282C285.468 312.068 285.084 312.667 286.533 313.081ZM323.042 316.037C322.318 315.83 321.338 315.768 320.06 315.83C318.782 315.892 317.291 316.057 315.587 316.285L321.21 317.856C322.616 317.401 323.468 317.029 323.681 316.739C323.894 316.45 323.681 316.202 323.042 316.016V316.037Z" fill="url(#paint26_linear_882_6928)"/>
<path style="mix-blend-mode:color-dodge" opacity="0.9" d="M312.179 307.169C310.091 307.355 307.876 307.603 305.618 307.892C303.658 308.12 301.571 308.43 299.356 308.781C297.14 309.133 295.01 309.525 292.966 309.959L299.782 311.882C300.463 311.758 301.187 311.613 301.997 311.489C302.806 311.365 303.658 311.22 304.51 311.076C308.387 310.414 312.051 309.856 315.459 309.401C318.867 308.947 322.105 308.657 325.129 308.492C328.154 308.347 331.008 308.368 333.735 308.616C336.461 308.843 339.102 309.319 341.616 310.021C344.598 310.848 346.472 311.758 347.282 312.709C348.091 313.659 348.091 314.631 347.282 315.603C346.472 316.574 345.066 317.546 343.022 318.496C340.977 319.447 338.548 320.357 335.779 321.225L344.939 323.788L337.313 325.917L327.983 323.313C323.297 324.45 318.27 325.483 312.86 326.393C307.492 327.302 302.253 328.026 297.183 328.522L292.241 322.651C294.797 322.403 297.481 322.114 300.208 321.783C302.508 321.514 305.107 321.142 307.918 320.708C310.73 320.274 313.414 319.757 315.97 319.199L309.282 317.339C306.896 317.773 304.468 318.186 301.912 318.6C298.12 319.22 294.67 319.695 291.56 320.026C288.45 320.378 285.638 320.564 283.04 320.626C280.441 320.688 278.055 320.605 275.883 320.357C273.71 320.109 271.622 319.716 269.663 319.179C266.936 318.414 265.105 317.587 264.125 316.677C263.187 315.768 262.932 314.817 263.358 313.846C263.827 312.874 264.892 311.882 266.638 310.89C268.385 309.897 270.6 308.947 273.327 308.037L265.658 305.887L273.284 303.758L281.037 305.929C283.338 305.391 285.681 304.916 288.066 304.482C290.452 304.048 292.795 303.634 295.138 303.283C297.481 302.931 299.739 302.601 301.912 302.311C304.084 302.022 306.087 301.774 307.918 301.546L312.136 307.21L312.179 307.169ZM286.533 313.081C287.3 313.287 288.237 313.37 289.344 313.329C290.452 313.287 291.858 313.143 293.519 312.895L287.768 311.282C285.468 312.068 285.084 312.667 286.533 313.081ZM323.042 316.037C322.318 315.83 321.338 315.768 320.06 315.83C318.782 315.892 317.291 316.057 315.587 316.285L321.21 317.856C322.616 317.401 323.468 317.029 323.681 316.739C323.894 316.45 323.681 316.202 323.042 316.016V316.037Z" fill="url(#paint27_radial_882_6928)"/>
</g>
<path opacity="0.85" d="M519.605 346.63V457.467C578.778 440.889 608.215 420.838 607.96 397.335V286.498C608.215 310.021 578.778 330.052 519.605 346.63V346.63Z" fill="url(#paint28_linear_882_6928)"/>
<path opacity="0.85" d="M382.43 308.203L383.026 308.409V419.04L519.605 457.467V346.63L382.43 308.203Z" fill="url(#paint29_linear_882_6928)"/>
<path style="mix-blend-mode:color-dodge" opacity="0.9" d="M519.604 345.513L387.286 308.451C385.88 308.885 384.559 309.339 383.068 309.753L519.604 347.994C578.777 331.416 608.214 311.365 607.959 287.862C607.959 287.532 607.873 287.201 607.873 286.87C606.893 309.753 577.541 329.307 519.604 345.534V345.513Z" fill="url(#paint30_radial_882_6928)"/>
<path opacity="0.9" d="M303.022 201.065C135.131 200.921 -0.50977 238.934 0.00144027 285.961L192.43 286.126C192.344 278.147 203.165 270.168 224.849 264.091C268.259 251.936 338.849 251.998 382.557 264.236C426.223 276.473 426.479 296.234 383.111 308.389L519.647 346.63C578.82 330.052 608.257 310.001 608.001 286.498C607.49 239.472 470.954 201.21 303.064 201.065H303.022Z" fill="url(#paint31_linear_882_6928)"/>
<path style="mix-blend-mode:color-dodge" opacity="0.9" d="M415.231 286.54C416.424 278.106 405.561 269.548 382.556 263.099C338.89 250.862 268.258 250.8 224.848 262.954C203.164 269.031 192.386 277.01 192.428 284.989L0.213004 284.824C0.127803 285.651 0 286.478 0 287.304L192.428 287.47C192.343 279.491 203.164 271.512 224.848 265.435C268.258 253.28 338.848 253.342 382.556 265.579C403.345 271.408 414.166 278.933 415.231 286.54V286.54Z" fill="url(#paint32_radial_882_6928)"/>
<path style="mix-blend-mode:multiply" opacity="0.9" d="M303.789 314.363C350.633 314.363 388.608 306.691 388.608 297.226C388.608 287.762 350.633 280.09 303.789 280.09C256.945 280.09 218.971 287.762 218.971 297.226C218.971 306.691 256.945 314.363 303.789 314.363Z" fill="url(#paint33_radial_882_6928)"/>
</g>
<g opacity="0.95">
<path opacity="0.95" d="M384.176 380.096C383.793 380.22 383.452 380.344 383.026 380.448C361.257 386.545 332.587 389.563 303.959 389.522V428.156C332.587 428.197 361.257 425.179 383.026 419.081C383.452 418.957 383.793 418.833 384.176 418.73V380.096Z" fill="url(#paint34_linear_882_6928)"/>
<path opacity="0.95" d="M304.939 441.84L304.342 388.923C304.342 388.923 304.47 388.923 304.555 388.923L303.959 388.592L304.896 482.231C388.82 482.314 460.389 474.045 519.562 457.467V417.076C460.389 433.654 388.82 441.902 304.896 441.84H304.939Z" fill="url(#paint35_linear_882_6928)"/>
<path opacity="0.95" d="M384.771 379.29C384.174 379.455 383.663 379.641 383.067 379.827C361.383 385.905 332.883 388.923 304.383 388.902L304.979 443.184C388.903 443.266 460.472 433.654 519.645 417.076L384.771 379.29V379.29Z" fill="url(#paint36_linear_882_6928)"/>
<path style="mix-blend-mode:color-dodge" opacity="0.95" d="M304.939 441.137L304.002 389.047V389.274L304.939 443.267C388.863 443.349 460.432 435.081 519.605 418.503L515.728 417.428C457.323 433.303 387.074 441.22 304.897 441.158L304.939 441.137Z" fill="url(#paint37_radial_882_6928)"/>
</g>
<g opacity="0.9">
<path opacity="0.9" d="M304.299 357.42C275.756 357.399 247.171 354.319 225.317 348.201C203.207 342 192.259 333.876 192.472 325.773H192.344V396.819H192.429C192.557 404.798 203.505 412.797 225.317 418.895C247.171 425.014 275.756 428.094 304.299 428.114V357.42V357.42Z" fill="url(#paint38_linear_882_6928)"/>
<path opacity="0.9" d="M0 325.401V396.777C0.511211 443.804 137.047 482.065 304.937 482.21V410.834C137.047 410.689 0.511211 372.448 0 325.401Z" fill="url(#paint39_linear_882_6928)"/>
<path opacity="0.9" d="M225.316 348.201C202.993 341.958 192.087 333.731 192.471 325.566L0 325.401C0.511211 372.427 137.047 410.689 304.937 410.834L304.341 357.42C275.798 357.399 247.17 354.319 225.316 348.201Z" fill="url(#paint40_linear_882_6928)"/>
<path style="mix-blend-mode:color-dodge" opacity="0.9" d="M303.999 357.089H302.594L303.531 409.78C153.448 409.655 28.542 379.063 3.32227 339.002C24.8783 380.282 151.872 412.115 304.979 412.26L304.042 357.11L303.999 357.089Z" fill="url(#paint41_radial_882_6928)"/>
</g>
<path style="mix-blend-mode:color-dodge" opacity="0.8" d="M179.297 553.997C208.165 553.98 231.467 514.032 231.343 464.771C231.219 415.51 207.716 375.59 178.847 375.607C149.979 375.624 126.677 415.572 126.801 464.833C126.925 514.094 150.428 554.014 179.297 553.997Z" fill="url(#paint42_radial_882_6928)"/>
<path style="mix-blend-mode:color-dodge" opacity="0.5" d="M337.912 372.351C366.78 372.334 390.083 332.386 389.959 283.125C389.835 233.864 366.331 193.944 337.463 193.961C308.594 193.978 285.292 233.926 285.416 283.187C285.54 332.448 309.043 372.368 337.912 372.351Z" fill="url(#paint43_radial_882_6928)"/>
<path style="mix-blend-mode:screen" opacity="0.7" d="M419.279 0H191.961V265.125C191.961 265.269 191.961 265.414 191.961 265.559C191.961 283.294 242.826 297.681 305.62 297.681C368.414 297.681 419.279 283.294 419.279 265.559C419.279 265.414 419.279 265.269 419.279 265.125V0V0Z" fill="url(#paint44_linear_882_6928)"/>
<path d="M419.279 249.684H191.961V265.249C191.961 265.393 191.961 265.538 191.961 265.683C191.961 283.418 242.826 297.805 305.62 297.805C368.414 297.805 419.279 283.418 419.279 265.683C419.279 265.538 419.279 265.393 419.279 265.249V249.684V249.684Z" fill="url(#paint45_linear_882_6928)"/>
<g style="mix-blend-mode:multiply">
<path style="mix-blend-mode:multiply" d="M305.62 294.374C242.869 294.374 191.961 279.987 191.961 262.251V265.249C191.961 265.393 191.961 265.538 191.961 265.683C191.961 283.418 242.826 297.805 305.62 297.805C368.414 297.805 419.279 283.418 419.279 265.683C419.279 265.538 419.279 265.393 419.279 265.249V262.251C419.279 279.987 368.414 294.374 305.62 294.374V294.374Z" fill="url(#paint46_linear_882_6928)"/>
</g>
<g style="mix-blend-mode:multiply">
<g style="mix-blend-mode:multiply">
<path d="M340.424 296.255C341.489 296.152 342.554 296.028 343.619 295.924V255.141H340.424V296.255Z" fill="#FDD65B"/>
</g>
<g style="mix-blend-mode:multiply">
<path d="M354.697 294.622C355.762 294.477 356.827 294.332 357.892 294.188V255.161H354.697V294.622Z" fill="#FDD65B"/>
</g>
<g style="mix-blend-mode:multiply">
<path d="M368.967 292.348C370.074 292.141 371.097 291.893 372.162 291.687V255.161H368.967V292.369V292.348Z" fill="#FDD65B"/>
</g>
<g style="mix-blend-mode:multiply">
<path d="M326.154 297.247C327.219 297.185 328.284 297.144 329.349 297.082V255.141H326.154V297.247Z" fill="#FDD65B"/>
</g>
<g style="mix-blend-mode:multiply">
<path d="M397.555 284.514C398.62 284.101 399.727 283.666 400.75 283.232V255.141H397.555V284.514Z" fill="#FDD65B"/>
</g>
<g style="mix-blend-mode:multiply">
<path d="M411.824 277.052C413.017 276.163 414.082 275.253 415.019 274.323V255.161H411.824V277.052Z" fill="#FDD65B"/>
</g>
<g style="mix-blend-mode:multiply">
<path d="M383.281 289.103C384.346 288.813 385.454 288.545 386.476 288.255V255.161H383.281V289.103Z" fill="#FDD65B"/>
</g>
<g style="mix-blend-mode:multiply">
<path d="M311.883 297.722C312.948 297.722 314.013 297.702 315.078 297.681V255.161H311.883V297.722Z" fill="#FDD65B"/>
</g>
<g style="mix-blend-mode:multiply">
<path d="M297.611 297.681C298.676 297.702 299.741 297.723 300.806 297.723V255.141H297.611V297.681Z" fill="#FDD65B"/>
</g>
<g style="mix-blend-mode:multiply">
<path d="M269.027 296.069C270.092 296.172 271.115 296.296 272.222 296.379V255.141H269.027V296.069Z" fill="#FDD65B"/>
</g>
<g style="mix-blend-mode:multiply">
<path d="M283.34 297.185C284.405 297.247 285.47 297.268 286.535 297.33V255.161H283.34V297.185V297.185Z" fill="#FDD65B"/>
</g>
<g style="mix-blend-mode:multiply">
<path d="M254.754 294.374C255.819 294.519 256.884 294.663 257.949 294.808V255.141H254.754V294.374Z" fill="#FDD65B"/>
</g>
<g style="mix-blend-mode:multiply">
<path d="M197.67 275.687C198.65 276.514 199.672 277.341 200.865 278.147V255.161H197.67V275.708V275.687Z" fill="#FDD65B"/>
</g>
<g style="mix-blend-mode:multiply">
<path d="M211.939 283.852C212.962 284.266 214.069 284.659 215.135 285.051V255.141H211.939V283.852Z" fill="#FDD65B"/>
</g>
<g style="mix-blend-mode:multiply">
<path d="M240.484 291.976C241.549 292.183 242.614 292.389 243.679 292.596V255.161H240.484V291.997V291.976Z" fill="#FDD65B"/>
</g>
<g style="mix-blend-mode:multiply">
<path d="M226.213 288.648C227.235 288.937 228.343 289.185 229.408 289.475V255.161H226.213V288.648Z" fill="#FDD65B"/>
</g>
</g>
<path d="M305.62 282.034C368.392 282.034 419.279 267.652 419.279 249.911C419.279 232.17 368.392 217.789 305.62 217.789C242.848 217.789 191.961 232.17 191.961 249.911C191.961 267.652 242.848 282.034 305.62 282.034Z" fill="url(#paint47_linear_882_6928)"/>
<path style="mix-blend-mode:screen" d="M305.62 281.165C244.19 281.165 194.261 267.378 192.174 250.18C192.131 250.552 191.961 250.924 191.961 251.296C191.961 269.032 242.826 283.418 305.62 283.418C368.414 283.418 419.279 269.032 419.279 251.296C419.279 250.924 419.109 250.552 419.066 250.18C416.979 267.399 367.051 281.165 305.62 281.165V281.165Z" fill="url(#paint48_radial_882_6928)"/>
<path d="M305.62 273.91C352.535 273.91 390.566 263.165 390.566 249.911C390.566 236.657 352.535 225.912 305.62 225.912C258.706 225.912 220.674 236.657 220.674 249.911C220.674 263.165 258.706 273.91 305.62 273.91Z" fill="url(#paint49_linear_882_6928)"/>
<path style="mix-blend-mode:screen" d="M308.433 227.111C353.802 227.111 390.78 237.178 393.166 249.828C393.251 249.394 393.379 248.981 393.379 248.547C393.379 235.297 355.336 224.548 308.433 224.548C261.529 224.548 223.486 235.297 223.486 248.547C223.486 248.981 223.657 249.415 223.699 249.828C226.085 237.178 263.063 227.111 308.433 227.111Z" fill="url(#paint50_radial_882_6928)"/>
<path style="mix-blend-mode:multiply" d="M305.62 228.475C350.99 228.475 387.968 238.542 390.353 251.193C390.438 250.759 390.566 250.345 390.566 249.911C390.566 236.661 352.524 225.912 305.62 225.912C258.716 225.912 220.674 236.661 220.674 249.911C220.674 250.345 220.802 250.779 220.887 251.193C223.272 238.542 260.25 228.475 305.62 228.475Z" fill="url(#paint51_linear_882_6928)"/>
<path style="mix-blend-mode:color-dodge" d="M252.751 266.386C278.269 270.603 295.48 278.995 291.177 285.134C286.875 291.273 262.677 292.824 237.159 288.607C211.642 284.39 194.431 275.998 198.733 269.858C203.036 263.719 227.233 262.169 252.751 266.386V266.386Z" fill="url(#paint52_radial_882_6928)"/>
<path style="mix-blend-mode:color-dodge" d="M365.304 218.987C390.822 223.204 408.033 231.597 403.73 237.736C399.427 243.875 375.23 245.425 349.712 241.208C324.194 236.992 306.984 228.599 311.286 222.46C315.589 216.321 339.786 214.77 365.304 218.987Z" fill="url(#paint53_radial_882_6928)"/>
<g style="mix-blend-mode:multiply">
<path style="mix-blend-mode:multiply" d="M312.179 242.366C310.091 242.552 307.876 242.8 305.618 243.09C303.658 243.317 301.571 243.627 299.356 243.978C297.14 244.33 295.01 244.723 292.966 245.157L299.782 247.079C300.463 246.955 301.187 246.81 301.997 246.686C302.806 246.562 303.658 246.418 304.51 246.273C308.387 245.611 312.051 245.053 315.459 244.599C318.867 244.144 322.105 243.854 325.129 243.689C328.154 243.544 331.008 243.565 333.735 243.813C336.461 244.04 339.102 244.516 341.616 245.219C344.598 246.046 346.472 246.955 347.282 247.906C348.091 248.857 348.091 249.828 347.282 250.8C346.472 251.771 345.066 252.743 343.022 253.694C340.977 254.645 338.548 255.554 335.779 256.422L344.939 258.986L337.313 261.115L327.983 258.51C323.297 259.647 318.27 260.681 312.86 261.59C307.492 262.5 302.253 263.223 297.183 263.719L292.241 257.849C294.797 257.601 297.481 257.311 300.208 256.98C302.508 256.712 305.107 256.34 307.918 255.906C310.73 255.471 313.414 254.955 315.97 254.397L309.282 252.536C306.896 252.97 304.468 253.384 301.912 253.797C298.12 254.417 294.67 254.893 291.56 255.223C288.45 255.575 285.638 255.761 283.04 255.823C280.441 255.885 278.055 255.802 275.883 255.554C273.71 255.306 271.622 254.913 269.663 254.376C266.936 253.611 265.105 252.784 264.125 251.875C263.187 250.965 262.932 250.014 263.358 249.043C263.827 248.071 264.892 247.079 266.638 246.087C268.385 245.095 270.6 244.144 273.327 243.234L265.658 241.085L273.284 238.955L281.037 241.126C283.338 240.588 285.681 240.113 288.066 239.679C290.452 239.245 292.795 238.831 295.138 238.48C297.481 238.129 299.739 237.798 301.912 237.508C304.084 237.219 306.087 236.971 307.918 236.744L312.136 242.407L312.179 242.366ZM286.533 248.278C287.3 248.485 288.237 248.567 289.344 248.526C290.452 248.485 291.858 248.34 293.519 248.092L287.768 246.48C285.468 247.265 285.084 247.865 286.533 248.278V248.278ZM323.042 251.234C322.318 251.027 321.338 250.965 320.06 251.027C318.782 251.089 317.291 251.255 315.587 251.482L321.21 253.053C322.616 252.598 323.468 252.226 323.681 251.937C323.894 251.647 323.681 251.399 323.042 251.213V251.234Z" fill="url(#paint54_linear_882_6928)"/>
</g>
<path d="M312.179 241.002C310.091 241.188 307.876 241.436 305.618 241.725C303.658 241.953 301.571 242.263 299.356 242.614C297.14 242.966 295.01 243.358 292.966 243.792L299.782 245.715C300.463 245.591 301.187 245.446 301.997 245.322C302.806 245.198 303.658 245.053 304.51 244.909C308.387 244.247 312.051 243.689 315.459 243.234C318.867 242.78 322.105 242.49 325.129 242.325C328.154 242.18 331.008 242.201 333.735 242.449C336.461 242.676 339.102 243.152 341.616 243.854C344.598 244.681 346.472 245.591 347.282 246.542C348.091 247.493 348.091 248.464 347.282 249.436C346.472 250.407 345.066 251.379 343.022 252.329C340.977 253.28 338.548 254.19 335.779 255.058L344.939 257.621L337.313 259.75L327.983 257.146C323.297 258.283 318.27 259.316 312.86 260.226C307.492 261.135 302.253 261.859 297.183 262.355L292.241 256.484C294.797 256.236 297.481 255.947 300.208 255.616C302.508 255.347 305.107 254.975 307.918 254.541C310.73 254.107 313.414 253.59 315.97 253.032L309.282 251.172C306.896 251.606 304.468 252.019 301.912 252.433C298.12 253.053 294.67 253.528 291.56 253.859C288.45 254.211 285.638 254.397 283.04 254.459C280.441 254.521 278.055 254.438 275.883 254.19C273.71 253.942 271.622 253.549 269.663 253.012C266.936 252.247 265.105 251.42 264.125 250.51C263.187 249.601 262.932 248.65 263.358 247.679C263.827 246.707 264.892 245.715 266.638 244.723C268.385 243.73 270.6 242.78 273.327 241.87L265.658 239.72L273.284 237.591L281.037 239.762C283.338 239.224 285.681 238.749 288.066 238.315C290.452 237.881 292.795 237.467 295.138 237.116C297.481 236.764 299.739 236.434 301.912 236.144C304.084 235.855 306.087 235.607 307.918 235.379L312.136 241.043L312.179 241.002ZM286.533 246.914C287.3 247.12 288.237 247.203 289.344 247.162C290.452 247.12 291.858 246.976 293.519 246.728L287.768 245.115C285.468 245.901 285.084 246.5 286.533 246.914V246.914ZM323.042 249.87C322.318 249.663 321.338 249.601 320.06 249.663C318.782 249.725 317.291 249.89 315.587 250.118L321.21 251.689C322.616 251.234 323.468 250.862 323.681 250.572C323.894 250.283 323.681 250.035 323.042 249.87V249.87Z" fill="url(#paint55_linear_882_6928)"/>
<path style="mix-blend-mode:color-dodge" d="M312.179 241.002C310.091 241.188 307.876 241.436 305.618 241.725C303.658 241.953 301.571 242.263 299.356 242.614C297.14 242.966 295.01 243.358 292.966 243.792L299.782 245.715C300.463 245.591 301.187 245.446 301.997 245.322C302.806 245.198 303.658 245.053 304.51 244.909C308.387 244.247 312.051 243.689 315.459 243.234C318.867 242.78 322.105 242.49 325.129 242.325C328.154 242.18 331.008 242.201 333.735 242.449C336.461 242.676 339.102 243.152 341.616 243.854C344.598 244.681 346.472 245.591 347.282 246.542C348.091 247.493 348.091 248.464 347.282 249.436C346.472 250.407 345.066 251.379 343.022 252.329C340.977 253.28 338.548 254.19 335.779 255.058L344.939 257.621L337.313 259.75L327.983 257.146C323.297 258.283 318.27 259.316 312.86 260.226C307.492 261.135 302.253 261.859 297.183 262.355L292.241 256.484C294.797 256.236 297.481 255.947 300.208 255.616C302.508 255.347 305.107 254.975 307.918 254.541C310.73 254.107 313.414 253.59 315.97 253.032L309.282 251.172C306.896 251.606 304.468 252.019 301.912 252.433C298.12 253.053 294.67 253.528 291.56 253.859C288.45 254.211 285.638 254.397 283.04 254.459C280.441 254.521 278.055 254.438 275.883 254.19C273.71 253.942 271.622 253.549 269.663 253.012C266.936 252.247 265.105 251.42 264.125 250.51C263.187 249.601 262.932 248.65 263.358 247.679C263.827 246.707 264.892 245.715 266.638 244.723C268.385 243.73 270.6 242.78 273.327 241.87L265.658 239.72L273.284 237.591L281.037 239.762C283.338 239.224 285.681 238.749 288.066 238.315C290.452 237.881 292.795 237.467 295.138 237.116C297.481 236.764 299.739 236.434 301.912 236.144C304.084 235.855 306.087 235.607 307.918 235.379L312.136 241.043L312.179 241.002ZM286.533 246.914C287.3 247.12 288.237 247.203 289.344 247.162C290.452 247.12 291.858 246.976 293.519 246.728L287.768 245.115C285.468 245.901 285.084 246.5 286.533 246.914V246.914ZM323.042 249.87C322.318 249.663 321.338 249.601 320.06 249.663C318.782 249.725 317.291 249.89 315.587 250.118L321.21 251.689C322.616 251.234 323.468 250.862 323.681 250.572C323.894 250.283 323.681 250.035 323.042 249.87V249.87Z" fill="url(#paint56_radial_882_6928)"/>
<path d="M419.279 161.026H191.961V176.592C191.961 176.736 191.961 176.881 191.961 177.026C191.961 194.761 242.826 209.148 305.62 209.148C368.414 209.148 419.279 194.761 419.279 177.026C419.279 176.881 419.279 176.736 419.279 176.592V161.026V161.026Z" fill="url(#paint57_linear_882_6928)"/>
<g style="mix-blend-mode:multiply">
<path style="mix-blend-mode:multiply" d="M305.62 205.717C242.869 205.717 191.961 191.33 191.961 173.594V176.592C191.961 176.736 191.961 176.881 191.961 177.026C191.961 194.761 242.826 209.148 305.62 209.148C368.414 209.148 419.279 194.761 419.279 177.026C419.279 176.881 419.279 176.736 419.279 176.592V173.594C419.279 191.33 368.414 205.717 305.62 205.717V205.717Z" fill="url(#paint58_linear_882_6928)"/>
</g>
<g style="mix-blend-mode:multiply">
<g style="mix-blend-mode:multiply">
<path d="M340.424 207.598C341.489 207.494 342.554 207.37 343.619 207.267V166.483H340.424V207.598Z" fill="#FDD65B"/>
</g>
<g style="mix-blend-mode:multiply">
<path d="M354.697 205.965C355.762 205.82 356.827 205.675 357.892 205.53V166.504H354.697V205.965V205.965Z" fill="#FDD65B"/>
</g>
<g style="mix-blend-mode:multiply">
<path d="M368.967 203.691C370.074 203.484 371.097 203.236 372.162 203.029V166.504H368.967V203.711V203.691Z" fill="#FDD65B"/>
</g>
<g style="mix-blend-mode:multiply">
<path d="M326.154 208.59C327.219 208.528 328.284 208.487 329.349 208.425V166.483H326.154V208.59Z" fill="#FDD65B"/>
</g>
<g style="mix-blend-mode:multiply">
<path d="M397.555 195.857C398.62 195.443 399.727 195.009 400.75 194.575V166.483H397.555V195.857Z" fill="#FDD65B"/>
</g>
<g style="mix-blend-mode:multiply">
<path d="M411.824 188.394C413.017 187.506 414.082 186.596 415.019 185.666V166.504H411.824V188.394V188.394Z" fill="#FDD65B"/>
</g>
<g style="mix-blend-mode:multiply">
<path d="M383.281 200.445C384.346 200.156 385.454 199.887 386.476 199.598V166.504H383.281V200.445Z" fill="#FDD65B"/>
</g>
<g style="mix-blend-mode:multiply">
<path d="M311.883 209.065C312.948 209.065 314.013 209.045 315.078 209.024V166.504H311.883V209.065V209.065Z" fill="#FDD65B"/>
</g>
<g style="mix-blend-mode:multiply">
<path d="M297.611 209.024C298.676 209.045 299.741 209.065 300.806 209.065V166.483H297.611V209.024V209.024Z" fill="#FDD65B"/>
</g>
<g style="mix-blend-mode:multiply">
<path d="M269.027 207.412C270.092 207.515 271.115 207.639 272.222 207.722V166.483H269.027V207.412Z" fill="#FDD65B"/>
</g>
<g style="mix-blend-mode:multiply">
<path d="M283.34 208.528C284.405 208.59 285.47 208.61 286.535 208.672V166.504H283.34V208.528V208.528Z" fill="#FDD65B"/>
</g>
<g style="mix-blend-mode:multiply">
<path d="M254.754 205.717C255.819 205.861 256.884 206.006 257.949 206.151V166.483H254.754V205.717Z" fill="#FDD65B"/>
</g>
<g style="mix-blend-mode:multiply">
<path d="M197.67 187.03C198.65 187.857 199.672 188.684 200.865 189.49V166.504H197.67V187.051V187.03Z" fill="#FDD65B"/>
</g>
<g style="mix-blend-mode:multiply">
<path d="M211.939 195.195C212.962 195.609 214.069 196.001 215.135 196.394V166.483H211.939V195.195Z" fill="#FDD65B"/>
</g>
<g style="mix-blend-mode:multiply">
<path d="M240.484 203.319C241.549 203.525 242.614 203.732 243.679 203.939V166.504H240.484V203.339V203.319Z" fill="#FDD65B"/>
</g>
<g style="mix-blend-mode:multiply">
<path d="M226.213 199.991C227.235 200.28 228.343 200.528 229.408 200.818V166.504H226.213V199.991V199.991Z" fill="#FDD65B"/>
</g>
</g>
<path d="M305.62 193.376C368.392 193.376 419.279 178.995 419.279 161.254C419.279 143.513 368.392 129.131 305.62 129.131C242.848 129.131 191.961 143.513 191.961 161.254C191.961 178.995 242.848 193.376 305.62 193.376Z" fill="url(#paint59_linear_882_6928)"/>
<path style="mix-blend-mode:screen" d="M305.62 192.508C244.19 192.508 194.261 178.721 192.174 161.522C192.131 161.895 191.961 162.267 191.961 162.639C191.961 180.374 242.826 194.761 305.62 194.761C368.414 194.761 419.279 180.374 419.279 162.639C419.279 162.267 419.109 161.895 419.066 161.522C416.979 178.741 367.051 192.508 305.62 192.508V192.508Z" fill="url(#paint60_radial_882_6928)"/>
<path d="M305.62 185.253C352.535 185.253 390.566 174.508 390.566 161.254C390.566 148 352.535 137.255 305.62 137.255C258.706 137.255 220.674 148 220.674 161.254C220.674 174.508 258.706 185.253 305.62 185.253Z" fill="url(#paint61_linear_882_6928)"/>
<path style="mix-blend-mode:screen" d="M308.433 138.454C353.802 138.454 390.78 148.521 393.166 161.171C393.251 160.737 393.379 160.324 393.379 159.889C393.379 146.639 355.336 135.891 308.433 135.891C261.529 135.891 223.486 146.639 223.486 159.889C223.486 160.324 223.657 160.758 223.699 161.171C226.085 148.521 263.063 138.454 308.433 138.454Z" fill="url(#paint62_radial_882_6928)"/>
<path style="mix-blend-mode:multiply" d="M305.62 139.818C350.99 139.818 387.968 149.885 390.353 162.535C390.438 162.101 390.566 161.688 390.566 161.254C390.566 148.004 352.524 137.255 305.62 137.255C258.716 137.255 220.674 148.004 220.674 161.254C220.674 161.688 220.802 162.122 220.887 162.535C223.272 149.885 260.25 139.818 305.62 139.818Z" fill="url(#paint63_linear_882_6928)"/>
<path style="mix-blend-mode:color-dodge" d="M252.751 177.729C278.269 181.945 295.48 190.338 291.177 196.477C286.875 202.616 262.677 204.167 237.159 199.95C211.642 195.733 194.431 187.34 198.733 181.201C203.036 175.062 227.233 173.512 252.751 177.729V177.729Z" fill="url(#paint64_radial_882_6928)"/>
<path style="mix-blend-mode:color-dodge" d="M365.304 130.33C390.822 134.547 408.033 142.939 403.73 149.079C399.427 155.218 375.23 156.768 349.712 152.551C324.194 148.334 306.984 139.942 311.286 133.803C315.589 127.664 339.786 126.113 365.304 130.33V130.33Z" fill="url(#paint65_radial_882_6928)"/>
<g style="mix-blend-mode:multiply">
<path style="mix-blend-mode:multiply" d="M312.179 153.709C310.091 153.895 307.876 154.143 305.618 154.432C303.658 154.66 301.571 154.97 299.356 155.321C297.14 155.673 295.01 156.065 292.966 156.499L299.782 158.422C300.463 158.298 301.187 158.153 301.997 158.029C302.806 157.905 303.658 157.76 304.51 157.616C308.387 156.954 312.051 156.396 315.459 155.941C318.867 155.487 322.105 155.197 325.129 155.032C328.154 154.887 331.008 154.908 333.735 155.156C336.461 155.383 339.102 155.859 341.616 156.561C344.598 157.388 346.472 158.298 347.282 159.249C348.091 160.2 348.091 161.171 347.282 162.143C346.472 163.114 345.066 164.086 343.022 165.037C340.977 165.987 338.548 166.897 335.779 167.765L344.939 170.328L337.313 172.457L327.983 169.853C323.297 170.99 318.27 172.023 312.86 172.933C307.492 173.842 302.253 174.566 297.183 175.062L292.241 169.191C294.797 168.943 297.481 168.654 300.208 168.323C302.508 168.055 305.107 167.682 307.918 167.248C310.73 166.814 313.414 166.297 315.97 165.739L309.282 163.879C306.896 164.313 304.468 164.726 301.912 165.14C298.12 165.76 294.67 166.235 291.56 166.566C288.45 166.918 285.638 167.104 283.04 167.166C280.441 167.228 278.055 167.145 275.883 166.897C273.71 166.649 271.622 166.256 269.663 165.719C266.936 164.954 265.105 164.127 264.125 163.218C263.187 162.308 262.932 161.357 263.358 160.386C263.827 159.414 264.892 158.422 266.638 157.43C268.385 156.437 270.6 155.487 273.327 154.577L265.658 152.427L273.284 150.298L281.037 152.469C283.338 151.931 285.681 151.456 288.066 151.022C290.452 150.588 292.795 150.174 295.138 149.823C297.481 149.471 299.739 149.141 301.912 148.851C304.084 148.562 306.087 148.314 307.918 148.086L312.136 153.75L312.179 153.709ZM286.533 159.621C287.3 159.827 288.237 159.91 289.344 159.869C290.452 159.827 291.858 159.683 293.519 159.435L287.768 157.822C285.468 158.608 285.084 159.207 286.533 159.621V159.621ZM323.042 162.577C322.318 162.37 321.338 162.308 320.06 162.37C318.782 162.432 317.291 162.597 315.587 162.825L321.21 164.396C322.616 163.941 323.468 163.569 323.681 163.28C323.894 162.99 323.681 162.742 323.042 162.556V162.577Z" fill="url(#paint66_linear_882_6928)"/>
</g>
<path d="M312.179 152.345C310.091 152.531 307.876 152.779 305.618 153.068C303.658 153.296 301.571 153.606 299.356 153.957C297.14 154.308 295.01 154.701 292.966 155.135L299.782 157.058C300.463 156.934 301.187 156.789 301.997 156.665C302.806 156.541 303.658 156.396 304.51 156.251C308.387 155.59 312.051 155.032 315.459 154.577C318.867 154.122 322.105 153.833 325.129 153.668C328.154 153.523 331.008 153.544 333.735 153.792C336.461 154.019 339.102 154.494 341.616 155.197C344.598 156.024 346.472 156.934 347.282 157.884C348.091 158.835 348.091 159.807 347.282 160.778C346.472 161.75 345.066 162.721 343.022 163.672C340.977 164.623 338.548 165.533 335.779 166.401L344.939 168.964L337.313 171.093L327.983 168.489C323.297 169.625 318.27 170.659 312.86 171.569C307.492 172.478 302.253 173.202 297.183 173.698L292.241 167.827C294.797 167.579 297.481 167.29 300.208 166.959C302.508 166.69 305.107 166.318 307.918 165.884C310.73 165.45 313.414 164.933 315.97 164.375L309.282 162.515C306.896 162.949 304.468 163.362 301.912 163.776C298.12 164.396 294.67 164.871 291.56 165.202C288.45 165.553 285.638 165.739 283.04 165.801C280.441 165.863 278.055 165.781 275.883 165.533C273.71 165.285 271.622 164.892 269.663 164.354C266.936 163.59 265.105 162.763 264.125 161.853C263.187 160.944 262.932 159.993 263.358 159.021C263.827 158.05 264.892 157.058 266.638 156.065C268.385 155.073 270.6 154.122 273.327 153.213L265.658 151.063L273.284 148.934L281.037 151.104C283.338 150.567 285.681 150.092 288.066 149.657C290.452 149.223 292.795 148.81 295.138 148.459C297.481 148.107 299.739 147.776 301.912 147.487C304.084 147.198 306.087 146.95 307.918 146.722L312.136 152.386L312.179 152.345ZM286.533 158.257C287.3 158.463 288.237 158.546 289.344 158.505C290.452 158.463 291.858 158.319 293.519 158.07L287.768 156.458C285.468 157.244 285.084 157.843 286.533 158.257V158.257ZM323.042 161.212C322.318 161.006 321.338 160.944 320.06 161.006C318.782 161.068 317.291 161.233 315.587 161.46L321.21 163.031C322.616 162.577 323.468 162.205 323.681 161.915C323.894 161.626 323.681 161.378 323.042 161.212V161.212Z" fill="url(#paint67_linear_882_6928)"/>
<path style="mix-blend-mode:color-dodge" d="M312.179 152.345C310.091 152.531 307.876 152.779 305.618 153.068C303.658 153.296 301.571 153.606 299.356 153.957C297.14 154.308 295.01 154.701 292.966 155.135L299.782 157.058C300.463 156.934 301.187 156.789 301.997 156.665C302.806 156.541 303.658 156.396 304.51 156.251C308.387 155.59 312.051 155.032 315.459 154.577C318.867 154.122 322.105 153.833 325.129 153.668C328.154 153.523 331.008 153.544 333.735 153.792C336.461 154.019 339.102 154.494 341.616 155.197C344.598 156.024 346.472 156.934 347.282 157.884C348.091 158.835 348.091 159.807 347.282 160.778C346.472 161.75 345.066 162.721 343.022 163.672C340.977 164.623 338.548 165.533 335.779 166.401L344.939 168.964L337.313 171.093L327.983 168.489C323.297 169.625 318.27 170.659 312.86 171.569C307.492 172.478 302.253 173.202 297.183 173.698L292.241 167.827C294.797 167.579 297.481 167.29 300.208 166.959C302.508 166.69 305.107 166.318 307.918 165.884C310.73 165.45 313.414 164.933 315.97 164.375L309.282 162.515C306.896 162.949 304.468 163.362 301.912 163.776C298.12 164.396 294.67 164.871 291.56 165.202C288.45 165.553 285.638 165.739 283.04 165.801C280.441 165.863 278.055 165.781 275.883 165.533C273.71 165.285 271.622 164.892 269.663 164.354C266.936 163.59 265.105 162.763 264.125 161.853C263.187 160.944 262.932 159.993 263.358 159.021C263.827 158.05 264.892 157.058 266.638 156.065C268.385 155.073 270.6 154.122 273.327 153.213L265.658 151.063L273.284 148.934L281.037 151.104C283.338 150.567 285.681 150.092 288.066 149.657C290.452 149.223 292.795 148.81 295.138 148.459C297.481 148.107 299.739 147.776 301.912 147.487C304.084 147.198 306.087 146.95 307.918 146.722L312.136 152.386L312.179 152.345ZM286.533 158.257C287.3 158.463 288.237 158.546 289.344 158.505C290.452 158.463 291.858 158.319 293.519 158.07L287.768 156.458C285.468 157.244 285.084 157.843 286.533 158.257V158.257ZM323.042 161.212C322.318 161.006 321.338 160.944 320.06 161.006C318.782 161.068 317.291 161.233 315.587 161.46L321.21 163.031C322.616 162.577 323.468 162.205 323.681 161.915C323.894 161.626 323.681 161.378 323.042 161.212V161.212Z" fill="url(#paint68_radial_882_6928)"/>
<path style="mix-blend-mode:multiply" opacity="0.3" d="M303.789 257.786C350.633 257.786 388.608 250.114 388.608 240.65C388.608 231.186 350.633 223.514 303.789 223.514C256.945 223.514 218.971 231.186 218.971 240.65C218.971 250.114 256.945 257.786 303.789 257.786Z" fill="url(#paint69_radial_882_6928)"/>
</g>
<defs>
<linearGradient id="paint0_linear_882_6928" x1="553.004" y1="247.244" x2="471.836" y2="454.859" gradientUnits="userSpaceOnUse">
<stop offset="0.1" stop-color="#45108A"/>
<stop offset="1" stop-color="#7C1DC9"/>
</linearGradient>
<linearGradient id="paint1_linear_882_6928" x1="-10.0112" y1="239.038" x2="44.1847" y2="461.055" gradientUnits="userSpaceOnUse">
<stop offset="0.1" stop-color="#45108A"/>
<stop offset="1" stop-color="#7C1DC9"/>
</linearGradient>
<linearGradient id="paint2_linear_882_6928" x1="192.344" y1="325.938" x2="415.402" y2="325.938" gradientUnits="userSpaceOnUse">
<stop offset="0.1" stop-color="#45108A"/>
<stop offset="0.62" stop-color="#7C1DC9"/>
<stop offset="0.9" stop-color="#5C15A5"/>
<stop offset="1" stop-color="#501397"/>
</linearGradient>
<linearGradient id="paint3_linear_882_6928" x1="193.069" y1="403.123" x2="416.766" y2="403.123" gradientUnits="userSpaceOnUse">
<stop stop-color="#FFBB96"/>
<stop offset="0.23" stop-color="#FFFBC9"/>
<stop offset="0.54" stop-color="#F9B673"/>
<stop offset="0.64" stop-color="#F9B876"/>
<stop offset="0.72" stop-color="#FABE81"/>
<stop offset="0.81" stop-color="#FCC892"/>
<stop offset="0.86" stop-color="#FED2A3"/>
<stop offset="0.97" stop-color="#FFC28C"/>
</linearGradient>
<linearGradient id="paint4_linear_882_6928" x1="193.069" y1="409.407" x2="416.766" y2="409.407" gradientUnits="userSpaceOnUse">
<stop stop-color="#FFBB96"/>
<stop offset="0.23" stop-color="#FFFBC9"/>
<stop offset="0.54" stop-color="#F9B673"/>
<stop offset="0.64" stop-color="#F9B876"/>
<stop offset="0.72" stop-color="#FABE81"/>
<stop offset="0.81" stop-color="#FCC892"/>
<stop offset="0.86" stop-color="#FED2A3"/>
<stop offset="0.97" stop-color="#FFC28C"/>
</linearGradient>
<linearGradient id="paint5_linear_882_6928" x1="515.6" y1="276.762" x2="431.204" y2="451.794" gradientUnits="userSpaceOnUse">
<stop offset="0.04" stop-color="#FFBA78"/>
<stop offset="0.4" stop-color="#FEC986"/>
<stop offset="1" stop-color="#FEECA8"/>
</linearGradient>
<radialGradient id="paint6_radial_882_6928" cx="0" cy="0" r="1" gradientUnits="userSpaceOnUse" gradientTransform="translate(256.757 402.916) scale(142.841 69.3095)">
<stop stop-color="white"/>
<stop offset="1"/>
</radialGradient>
<linearGradient id="paint7_linear_882_6928" x1="396.956" y1="334.702" x2="333.855" y2="465.549" gradientUnits="userSpaceOnUse">
<stop offset="0.04" stop-color="#FFBA78"/>
<stop offset="0.4" stop-color="#FEC986"/>
<stop offset="1" stop-color="#FEECA8"/>
</linearGradient>
<radialGradient id="paint8_radial_882_6928" cx="0" cy="0" r="1" gradientUnits="userSpaceOnUse" gradientTransform="translate(345.623 352.996) scale(62.8363 30.4895)">
<stop stop-color="white"/>
<stop offset="1"/>
</radialGradient>
<linearGradient id="paint9_linear_882_6928" x1="427.544" y1="317.132" x2="368.005" y2="440.604" gradientUnits="userSpaceOnUse">
<stop stop-color="#FFBB96"/>
<stop offset="0.23" stop-color="#FFFBC9"/>
<stop offset="0.54" stop-color="#F9B673"/>
<stop offset="0.64" stop-color="#F9B876"/>
<stop offset="0.72" stop-color="#FABE81"/>
<stop offset="0.81" stop-color="#FCC892"/>
<stop offset="0.86" stop-color="#FED2A3"/>
<stop offset="0.97" stop-color="#FFC28C"/>
</linearGradient>
<radialGradient id="paint10_radial_882_6928" cx="0" cy="0" r="1" gradientUnits="userSpaceOnUse" gradientTransform="translate(348.198 425.287) rotate(-54.9622) scale(13.5732 41.8475)">
<stop stop-color="#F49587"/>
<stop offset="0.12" stop-color="#BC7368"/>
<stop offset="0.24" stop-color="#8B544C"/>
<stop offset="0.36" stop-color="#603A35"/>
<stop offset="0.48" stop-color="#3D2522"/>
<stop offset="0.61" stop-color="#221513"/>
<stop offset="0.74" stop-color="#0F0908"/>
<stop offset="0.86" stop-color="#030202"/>
<stop offset="1"/>
</radialGradient>
<radialGradient id="paint11_radial_882_6928" cx="0" cy="0" r="1" gradientUnits="userSpaceOnUse" gradientTransform="translate(460.145 377.763) rotate(-54.9622) scale(13.5732 41.8475)">
<stop stop-color="#F49587"/>
<stop offset="0.12" stop-color="#BC7368"/>
<stop offset="0.24" stop-color="#8B544C"/>
<stop offset="0.36" stop-color="#603A35"/>
<stop offset="0.48" stop-color="#3D2522"/>
<stop offset="0.61" stop-color="#221513"/>
<stop offset="0.74" stop-color="#0F0908"/>
<stop offset="0.86" stop-color="#030202"/>
<stop offset="1"/>
</radialGradient>
<linearGradient id="paint12_linear_882_6928" x1="263.187" y1="379.599" x2="347.878" y2="379.599" gradientUnits="userSpaceOnUse">
<stop stop-color="#FFBB96"/>
<stop offset="0.23" stop-color="#FFFBC9"/>
<stop offset="0.54" stop-color="#F9B673"/>
<stop offset="0.64" stop-color="#F9B876"/>
<stop offset="0.72" stop-color="#FABE81"/>
<stop offset="0.81" stop-color="#FCC892"/>
<stop offset="0.86" stop-color="#FED2A3"/>
<stop offset="0.97" stop-color="#FFC28C"/>
</linearGradient>
<linearGradient id="paint13_linear_882_6928" x1="388.519" y1="355.993" x2="347.173" y2="402.545" gradientUnits="userSpaceOnUse">
<stop offset="0.04" stop-color="#FFBA78"/>
<stop offset="0.4" stop-color="#FEC986"/>
<stop offset="1" stop-color="#FEECA8"/>
</linearGradient>
<radialGradient id="paint14_radial_882_6928" cx="0" cy="0" r="1" gradientUnits="userSpaceOnUse" gradientTransform="translate(247.553 380.922) scale(75.787 36.7734)">
<stop stop-color="#F49587"/>
<stop offset="0.12" stop-color="#BC7368"/>
<stop offset="0.24" stop-color="#8B544C"/>
<stop offset="0.36" stop-color="#603A35"/>
<stop offset="0.48" stop-color="#3D2522"/>
<stop offset="0.61" stop-color="#221513"/>
<stop offset="0.74" stop-color="#0F0908"/>
<stop offset="0.86" stop-color="#030202"/>
<stop offset="1"/>
</radialGradient>
<radialGradient id="paint15_radial_882_6928" cx="0" cy="0" r="1" gradientUnits="userSpaceOnUse" gradientTransform="translate(338.301 373.889) rotate(-180) scale(84.7537 17.077)">
<stop offset="0.19" stop-color="#785C5D"/>
<stop offset="1" stop-color="white"/>
</radialGradient>
<linearGradient id="paint16_linear_882_6928" x1="0.00135343" y1="339.911" x2="4.26144" y2="339.911" gradientUnits="userSpaceOnUse">
<stop stop-color="#FFBB96"/>
<stop offset="0.23" stop-color="#FFFBC9"/>
<stop offset="0.54" stop-color="#F9B673"/>
<stop offset="0.64" stop-color="#F9B876"/>
<stop offset="0.72" stop-color="#FABE81"/>
<stop offset="0.81" stop-color="#FCC892"/>
<stop offset="0.86" stop-color="#FED2A3"/>
<stop offset="0.97" stop-color="#FFC28C"/>
</linearGradient>
<linearGradient id="paint17_linear_882_6928" x1="193.069" y1="346.195" x2="416.766" y2="346.195" gradientUnits="userSpaceOnUse">
<stop stop-color="#FFBB96"/>
<stop offset="0.23" stop-color="#FFFBC9"/>
<stop offset="0.54" stop-color="#F9B673"/>
<stop offset="0.64" stop-color="#F9B876"/>
<stop offset="0.72" stop-color="#FABE81"/>
<stop offset="0.81" stop-color="#FCC892"/>
<stop offset="0.86" stop-color="#FED2A3"/>
<stop offset="0.97" stop-color="#FFC28C"/>
</linearGradient>
<linearGradient id="paint18_linear_882_6928" x1="0.00135429" y1="213.53" x2="133.655" y2="423.647" gradientUnits="userSpaceOnUse">
<stop offset="0.04" stop-color="#FFBA78"/>
<stop offset="0.4" stop-color="#FEC986"/>
<stop offset="1" stop-color="#FEECA8"/>
</linearGradient>
<radialGradient id="paint19_radial_882_6928" cx="0" cy="0" r="1" gradientUnits="userSpaceOnUse" gradientTransform="translate(2.13138 339.684) scale(142.841 69.3094)">
<stop stop-color="white"/>
<stop offset="1"/>
</radialGradient>
<linearGradient id="paint20_linear_882_6928" x1="396.956" y1="271.47" x2="333.865" y2="402.329" gradientUnits="userSpaceOnUse">
<stop offset="0.04" stop-color="#FFBA78"/>
<stop offset="0.4" stop-color="#FEC986"/>
<stop offset="1" stop-color="#FEECA8"/>
</linearGradient>
<radialGradient id="paint21_radial_882_6928" cx="0" cy="0" r="1" gradientUnits="userSpaceOnUse" gradientTransform="translate(345.623 289.764) scale(62.8363 30.4895)">
<stop stop-color="white"/>
<stop offset="1"/>
</radialGradient>
<linearGradient id="paint22_linear_882_6928" x1="427.544" y1="253.9" x2="368.015" y2="377.384" gradientUnits="userSpaceOnUse">
<stop stop-color="#FFBB96"/>
<stop offset="0.23" stop-color="#FFFBC9"/>
<stop offset="0.54" stop-color="#F9B673"/>
<stop offset="0.64" stop-color="#F9B876"/>
<stop offset="0.72" stop-color="#FABE81"/>
<stop offset="0.81" stop-color="#FCC892"/>
<stop offset="0.86" stop-color="#FED2A3"/>
<stop offset="0.97" stop-color="#FFC28C"/>
</linearGradient>
<radialGradient id="paint23_radial_882_6928" cx="0" cy="0" r="1" gradientUnits="userSpaceOnUse" gradientTransform="translate(348.569 362.131) rotate(-54.9622) scale(13.5732 41.8475)">
<stop stop-color="#F49587"/>
<stop offset="0.12" stop-color="#BC7368"/>
<stop offset="0.24" stop-color="#8B544C"/>
<stop offset="0.36" stop-color="#603A35"/>
<stop offset="0.48" stop-color="#3D2522"/>
<stop offset="0.61" stop-color="#221513"/>
<stop offset="0.74" stop-color="#0F0908"/>
<stop offset="0.86" stop-color="#030202"/>
<stop offset="1"/>
</radialGradient>
<radialGradient id="paint24_radial_882_6928" cx="0" cy="0" r="1" gradientUnits="userSpaceOnUse" gradientTransform="translate(460.515 314.607) rotate(-54.9622) scale(13.5732 41.8475)">
<stop stop-color="#F49587"/>
<stop offset="0.12" stop-color="#BC7368"/>
<stop offset="0.24" stop-color="#8B544C"/>
<stop offset="0.36" stop-color="#603A35"/>
<stop offset="0.48" stop-color="#3D2522"/>
<stop offset="0.61" stop-color="#221513"/>
<stop offset="0.74" stop-color="#0F0908"/>
<stop offset="0.86" stop-color="#030202"/>
<stop offset="1"/>
</radialGradient>
<linearGradient id="paint25_linear_882_6928" x1="263.187" y1="316.388" x2="347.878" y2="316.388" gradientUnits="userSpaceOnUse">
<stop stop-color="#FFBB96"/>
<stop offset="0.23" stop-color="#FFFBC9"/>
<stop offset="0.54" stop-color="#F9B673"/>
<stop offset="0.64" stop-color="#F9B876"/>
<stop offset="0.72" stop-color="#FABE81"/>
<stop offset="0.81" stop-color="#FCC892"/>
<stop offset="0.86" stop-color="#FED2A3"/>
<stop offset="0.97" stop-color="#FFC28C"/>
</linearGradient>
<linearGradient id="paint26_linear_882_6928" x1="388.519" y1="292.782" x2="347.143" y2="339.317" gradientUnits="userSpaceOnUse">
<stop offset="0.04" stop-color="#FFBA78"/>
<stop offset="0.4" stop-color="#FEC986"/>
<stop offset="1" stop-color="#FEECA8"/>
</linearGradient>
<radialGradient id="paint27_radial_882_6928" cx="0" cy="0" r="1" gradientUnits="userSpaceOnUse" gradientTransform="translate(247.553 317.711) scale(75.787 36.7734)">
<stop stop-color="#F49587"/>
<stop offset="0.12" stop-color="#BC7368"/>
<stop offset="0.24" stop-color="#8B544C"/>
<stop offset="0.36" stop-color="#603A35"/>
<stop offset="0.48" stop-color="#3D2522"/>
<stop offset="0.61" stop-color="#221513"/>
<stop offset="0.74" stop-color="#0F0908"/>
<stop offset="0.86" stop-color="#030202"/>
<stop offset="1"/>
</radialGradient>
<linearGradient id="paint28_linear_882_6928" x1="36.8096" y1="371.972" x2="603.018" y2="371.972" gradientUnits="userSpaceOnUse">
<stop offset="0.1" stop-color="#45108A"/>
<stop offset="1" stop-color="#7C1DC9"/>
</linearGradient>
<linearGradient id="paint29_linear_882_6928" x1="364.537" y1="344.563" x2="460.108" y2="523.529" gradientUnits="userSpaceOnUse">
<stop offset="0.1" stop-color="#45108A"/>
<stop offset="1" stop-color="#7C1DC9"/>
</linearGradient>
<radialGradient id="paint30_radial_882_6928" cx="0" cy="0" r="1" gradientUnits="userSpaceOnUse" gradientTransform="translate(495.535 317.422) scale(91.1233 44.215)">
<stop stop-color="white"/>
<stop offset="1"/>
</radialGradient>
<linearGradient id="paint31_linear_882_6928" x1="553.004" y1="136.572" x2="471.83" y2="344.173" gradientUnits="userSpaceOnUse">
<stop offset="0.1" stop-color="#45108A"/>
<stop offset="1" stop-color="#7C1DC9"/>
</linearGradient>
<radialGradient id="paint32_radial_882_6928" cx="0" cy="0" r="1" gradientUnits="userSpaceOnUse" gradientTransform="translate(329.049 244.95) scale(148.848 72.224)">
<stop stop-color="white"/>
<stop offset="1"/>
</radialGradient>
<radialGradient id="paint33_radial_882_6928" cx="0" cy="0" r="1" gradientUnits="userSpaceOnUse" gradientTransform="translate(41052 309.987) rotate(180) scale(2.51345 0.506436)">
<stop offset="0.19" stop-color="#785C5D"/>
<stop offset="1" stop-color="white"/>
</radialGradient>
<linearGradient id="paint34_linear_882_6928" x1="303.959" y1="404.136" x2="384.176" y2="404.136" gradientUnits="userSpaceOnUse">
<stop offset="0.04" stop-color="#9F19AB"/>
<stop offset="0.16" stop-color="#AE24B0"/>
<stop offset="0.41" stop-color="#D643BF"/>
<stop offset="0.63" stop-color="#FF63CE"/>
<stop offset="0.87" stop-color="#DC48C1"/>
</linearGradient>
<linearGradient id="paint35_linear_882_6928" x1="0.981424" y1="435.391" x2="597.905" y2="435.391" gradientUnits="userSpaceOnUse">
<stop offset="0.04" stop-color="#9F19AB"/>
<stop offset="0.16" stop-color="#AE24B0"/>
<stop offset="0.41" stop-color="#D643BF"/>
<stop offset="0.63" stop-color="#FF63CE"/>
<stop offset="0.87" stop-color="#DC48C1"/>
</linearGradient>
<linearGradient id="paint36_linear_882_6928" x1="550.446" y1="309.609" x2="483.906" y2="500.206" gradientUnits="userSpaceOnUse">
<stop offset="0.04" stop-color="#9F19AB"/>
<stop offset="0.24" stop-color="#AE24B0"/>
<stop offset="0.65" stop-color="#D643BF"/>
<stop offset="1" stop-color="#FF63CE"/>
</linearGradient>
<radialGradient id="paint37_radial_882_6928" cx="0" cy="0" r="1" gradientUnits="userSpaceOnUse" gradientTransform="translate(407.096 429.148) scale(89.6749 43.5122)">
<stop stop-color="white"/>
<stop offset="1"/>
</radialGradient>
<linearGradient id="paint38_linear_882_6928" x1="192.344" y1="376.954" x2="304.299" y2="376.954" gradientUnits="userSpaceOnUse">
<stop stop-color="#671AB9"/>
<stop offset="0.34" stop-color="#AD34F1"/>
<stop offset="1" stop-color="#5513AB"/>
</linearGradient>
<linearGradient id="paint39_linear_882_6928" x1="-0.93722" y1="403.805" x2="607.915" y2="403.805" gradientUnits="userSpaceOnUse">
<stop stop-color="#671AB9"/>
<stop offset="0.34" stop-color="#AD34F1"/>
<stop offset="1" stop-color="#5513AB"/>
</linearGradient>
<linearGradient id="paint40_linear_882_6928" x1="327.473" y1="260.66" x2="254.448" y2="451.118" gradientUnits="userSpaceOnUse">
<stop stop-color="#5513AB"/>
<stop offset="1" stop-color="#BE3BFF"/>
</linearGradient>
<radialGradient id="paint41_radial_882_6928" cx="0" cy="0" r="1" gradientUnits="userSpaceOnUse" gradientTransform="translate(161.372 384.396) scale(120.518 58.4779)">
<stop stop-color="white"/>
<stop offset="1"/>
</radialGradient>
<radialGradient id="paint42_radial_882_6928" cx="0" cy="0" r="1" gradientUnits="userSpaceOnUse" gradientTransform="translate(182.327 473.681) rotate(-90.1443) scale(88.9885 52.2256)">
<stop stop-color="#972A74"/>
<stop offset="0.04" stop-color="#8A266A"/>
<stop offset="0.19" stop-color="#601A49"/>
<stop offset="0.35" stop-color="#3D112F"/>
<stop offset="0.51" stop-color="#22091A"/>
<stop offset="0.67" stop-color="#0F040B"/>
<stop offset="0.83" stop-color="#030102"/>
<stop offset="1"/>
</radialGradient>
<radialGradient id="paint43_radial_882_6928" cx="0" cy="0" r="1" gradientUnits="userSpaceOnUse" gradientTransform="translate(340.82 292.459) rotate(-90.1443) scale(88.9885 52.2256)">
<stop stop-color="#972A74"/>
<stop offset="0.04" stop-color="#8A266A"/>
<stop offset="0.19" stop-color="#601A49"/>
<stop offset="0.35" stop-color="#3D112F"/>
<stop offset="0.51" stop-color="#22091A"/>
<stop offset="0.67" stop-color="#0F040B"/>
<stop offset="0.83" stop-color="#030102"/>
<stop offset="1"/>
</radialGradient>
<linearGradient id="paint44_linear_882_6928" x1="305.62" y1="289.744" x2="305.62" y2="1.695" gradientUnits="userSpaceOnUse">
<stop stop-color="#FDD65B"/>
<stop offset="0.01" stop-color="#F6D058"/>
<stop offset="0.13" stop-color="#BDA044"/>
<stop offset="0.25" stop-color="#8B7532"/>
<stop offset="0.37" stop-color="#605122"/>
<stop offset="0.49" stop-color="#3D3416"/>
<stop offset="0.62" stop-color="#221D0C"/>
<stop offset="0.74" stop-color="#0F0C05"/>
<stop offset="0.87" stop-color="#030301"/>
<stop offset="1"/>
</linearGradient>
<linearGradient id="paint45_linear_882_6928" x1="0.00135343" y1="273.744" x2="4.26144" y2="273.744" gradientUnits="userSpaceOnUse">
<stop stop-color="#FFBB96"/>
<stop offset="0.23" stop-color="#FFFBC9"/>
<stop offset="0.54" stop-color="#F9B673"/>
<stop offset="0.64" stop-color="#F9B876"/>
<stop offset="0.72" stop-color="#FABE81"/>
<stop offset="0.81" stop-color="#FCC892"/>
<stop offset="0.86" stop-color="#FED2A3"/>
<stop offset="0.97" stop-color="#FFC28C"/>
</linearGradient>
<linearGradient id="paint46_linear_882_6928" x1="193.069" y1="280.028" x2="416.766" y2="280.028" gradientUnits="userSpaceOnUse">
<stop stop-color="#FFBB96"/>
<stop offset="0.23" stop-color="#FFFBC9"/>
<stop offset="0.54" stop-color="#F9B673"/>
<stop offset="0.64" stop-color="#F9B876"/>
<stop offset="0.72" stop-color="#FABE81"/>
<stop offset="0.81" stop-color="#FCC892"/>
<stop offset="0.86" stop-color="#FED2A3"/>
<stop offset="0.97" stop-color="#FFC28C"/>
</linearGradient>
<linearGradient id="paint47_linear_882_6928" x1="0.00135429" y1="147.363" x2="133.655" y2="357.48" gradientUnits="userSpaceOnUse">
<stop offset="0.04" stop-color="#FFBA78"/>
<stop offset="0.4" stop-color="#FEC986"/>
<stop offset="1" stop-color="#FEECA8"/>
</linearGradient>
<radialGradient id="paint48_radial_882_6928" cx="0" cy="0" r="1" gradientUnits="userSpaceOnUse" gradientTransform="translate(2.13138 273.538) scale(142.841 69.3094)">
<stop stop-color="white"/>
<stop offset="1"/>
</radialGradient>
<linearGradient id="paint49_linear_882_6928" x1="396.956" y1="205.324" x2="333.855" y2="336.17" gradientUnits="userSpaceOnUse">
<stop offset="0.04" stop-color="#FFBA78"/>
<stop offset="0.4" stop-color="#FEC986"/>
<stop offset="1" stop-color="#FEECA8"/>
</linearGradient>
<radialGradient id="paint50_radial_882_6928" cx="0" cy="0" r="1" gradientUnits="userSpaceOnUse" gradientTransform="translate(345.623 223.618) scale(62.8363 30.4896)">
<stop stop-color="white"/>
<stop offset="1"/>
</radialGradient>
<linearGradient id="paint51_linear_882_6928" x1="427.544" y1="187.733" x2="368.015" y2="311.217" gradientUnits="userSpaceOnUse">
<stop stop-color="#FFBB96"/>
<stop offset="0.23" stop-color="#FFFBC9"/>
<stop offset="0.54" stop-color="#F9B673"/>
<stop offset="0.64" stop-color="#F9B876"/>
<stop offset="0.72" stop-color="#FABE81"/>
<stop offset="0.81" stop-color="#FCC892"/>
<stop offset="0.86" stop-color="#FED2A3"/>
<stop offset="0.97" stop-color="#FFC28C"/>
</linearGradient>
<radialGradient id="paint52_radial_882_6928" cx="0" cy="0" r="1" gradientUnits="userSpaceOnUse" gradientTransform="translate(348.962 296.034) rotate(-54.9622) scale(13.5732 41.8475)">
<stop stop-color="#F49587"/>
<stop offset="0.12" stop-color="#BC7368"/>
<stop offset="0.24" stop-color="#8B544C"/>
<stop offset="0.36" stop-color="#603A35"/>
<stop offset="0.48" stop-color="#3D2522"/>
<stop offset="0.61" stop-color="#221513"/>
<stop offset="0.74" stop-color="#0F0908"/>
<stop offset="0.86" stop-color="#030202"/>
<stop offset="1"/>
</radialGradient>
<radialGradient id="paint53_radial_882_6928" cx="0" cy="0" r="1" gradientUnits="userSpaceOnUse" gradientTransform="translate(460.897 248.508) rotate(-54.9622) scale(13.5732 41.8475)">
<stop stop-color="#F49587"/>
<stop offset="0.12" stop-color="#BC7368"/>
<stop offset="0.24" stop-color="#8B544C"/>
<stop offset="0.36" stop-color="#603A35"/>
<stop offset="0.48" stop-color="#3D2522"/>
<stop offset="0.61" stop-color="#221513"/>
<stop offset="0.74" stop-color="#0F0908"/>
<stop offset="0.86" stop-color="#030202"/>
<stop offset="1"/>
</radialGradient>
<linearGradient id="paint54_linear_882_6928" x1="263.187" y1="250.221" x2="347.878" y2="250.221" gradientUnits="userSpaceOnUse">
<stop stop-color="#FFBB96"/>
<stop offset="0.23" stop-color="#FFFBC9"/>
<stop offset="0.54" stop-color="#F9B673"/>
<stop offset="0.64" stop-color="#F9B876"/>
<stop offset="0.72" stop-color="#FABE81"/>
<stop offset="0.81" stop-color="#FCC892"/>
<stop offset="0.86" stop-color="#FED2A3"/>
<stop offset="0.97" stop-color="#FFC28C"/>
</linearGradient>
<linearGradient id="paint55_linear_882_6928" x1="388.519" y1="226.615" x2="347.143" y2="273.15" gradientUnits="userSpaceOnUse">
<stop offset="0.04" stop-color="#FFBA78"/>
<stop offset="0.4" stop-color="#FEC986"/>
<stop offset="1" stop-color="#FEECA8"/>
</linearGradient>
<radialGradient id="paint56_radial_882_6928" cx="0" cy="0" r="1" gradientUnits="userSpaceOnUse" gradientTransform="translate(247.553 251.544) scale(75.787 36.7734)">
<stop stop-color="#F49587"/>
<stop offset="0.12" stop-color="#BC7368"/>
<stop offset="0.24" stop-color="#8B544C"/>
<stop offset="0.36" stop-color="#603A35"/>
<stop offset="0.48" stop-color="#3D2522"/>
<stop offset="0.61" stop-color="#221513"/>
<stop offset="0.74" stop-color="#0F0908"/>
<stop offset="0.86" stop-color="#030202"/>
<stop offset="1"/>
</radialGradient>
<linearGradient id="paint57_linear_882_6928" x1="0.00135343" y1="185.087" x2="4.26144" y2="185.087" gradientUnits="userSpaceOnUse">
<stop stop-color="#FFBB96"/>
<stop offset="0.23" stop-color="#FFFBC9"/>
<stop offset="0.54" stop-color="#F9B673"/>
<stop offset="0.64" stop-color="#F9B876"/>
<stop offset="0.72" stop-color="#FABE81"/>
<stop offset="0.81" stop-color="#FCC892"/>
<stop offset="0.86" stop-color="#FED2A3"/>
<stop offset="0.97" stop-color="#FFC28C"/>
</linearGradient>
<linearGradient id="paint58_linear_882_6928" x1="193.069" y1="191.371" x2="416.766" y2="191.371" gradientUnits="userSpaceOnUse">
<stop stop-color="#FFBB96"/>
<stop offset="0.23" stop-color="#FFFBC9"/>
<stop offset="0.54" stop-color="#F9B673"/>
<stop offset="0.64" stop-color="#F9B876"/>
<stop offset="0.72" stop-color="#FABE81"/>
<stop offset="0.81" stop-color="#FCC892"/>
<stop offset="0.86" stop-color="#FED2A3"/>
<stop offset="0.97" stop-color="#FFC28C"/>
</linearGradient>
<linearGradient id="paint59_linear_882_6928" x1="515.6" y1="58.7057" x2="431.214" y2="233.751" gradientUnits="userSpaceOnUse">
<stop offset="0.04" stop-color="#FFBA78"/>
<stop offset="0.4" stop-color="#FEC986"/>
<stop offset="1" stop-color="#FEECA8"/>
</linearGradient>
<radialGradient id="paint60_radial_882_6928" cx="0" cy="0" r="1" gradientUnits="userSpaceOnUse" gradientTransform="translate(2.13138 184.86) scale(142.841 69.3095)">
<stop stop-color="white"/>
<stop offset="1"/>
</radialGradient>
<linearGradient id="paint61_linear_882_6928" x1="396.956" y1="116.667" x2="333.855" y2="247.513" gradientUnits="userSpaceOnUse">
<stop offset="0.04" stop-color="#FFBA78"/>
<stop offset="0.4" stop-color="#FEC986"/>
<stop offset="1" stop-color="#FEECA8"/>
</linearGradient>
<radialGradient id="paint62_radial_882_6928" cx="0" cy="0" r="1" gradientUnits="userSpaceOnUse" gradientTransform="translate(345.623 134.96) scale(62.8363 30.4895)">
<stop stop-color="white"/>
<stop offset="1"/>
</radialGradient>
<linearGradient id="paint63_linear_882_6928" x1="427.544" y1="99.0758" x2="368.015" y2="222.56" gradientUnits="userSpaceOnUse">
<stop stop-color="#FFBB96"/>
<stop offset="0.23" stop-color="#FFFBC9"/>
<stop offset="0.54" stop-color="#F9B673"/>
<stop offset="0.64" stop-color="#F9B876"/>
<stop offset="0.72" stop-color="#FABE81"/>
<stop offset="0.81" stop-color="#FCC892"/>
<stop offset="0.86" stop-color="#FED2A3"/>
<stop offset="0.97" stop-color="#FFC28C"/>
</linearGradient>
<radialGradient id="paint64_radial_882_6928" cx="0" cy="0" r="1" gradientUnits="userSpaceOnUse" gradientTransform="translate(349.483 207.461) rotate(-54.9622) scale(13.5732 41.8475)">
<stop stop-color="#F49587"/>
<stop offset="0.12" stop-color="#BC7368"/>
<stop offset="0.24" stop-color="#8B544C"/>
<stop offset="0.36" stop-color="#603A35"/>
<stop offset="0.48" stop-color="#3D2522"/>
<stop offset="0.61" stop-color="#221513"/>
<stop offset="0.74" stop-color="#0F0908"/>
<stop offset="0.86" stop-color="#030202"/>
<stop offset="1"/>
</radialGradient>
<radialGradient id="paint65_radial_882_6928" cx="0" cy="0" r="1" gradientUnits="userSpaceOnUse" gradientTransform="translate(461.418 159.935) rotate(-54.9622) scale(13.5732 41.8475)">
<stop stop-color="#F49587"/>
<stop offset="0.12" stop-color="#BC7368"/>
<stop offset="0.24" stop-color="#8B544C"/>
<stop offset="0.36" stop-color="#603A35"/>
<stop offset="0.48" stop-color="#3D2522"/>
<stop offset="0.61" stop-color="#221513"/>
<stop offset="0.74" stop-color="#0F0908"/>
<stop offset="0.86" stop-color="#030202"/>
<stop offset="1"/>
</radialGradient>
<linearGradient id="paint66_linear_882_6928" x1="263.187" y1="161.564" x2="347.878" y2="161.564" gradientUnits="userSpaceOnUse">
<stop stop-color="#FFBB96"/>
<stop offset="0.23" stop-color="#FFFBC9"/>
<stop offset="0.54" stop-color="#F9B673"/>
<stop offset="0.64" stop-color="#F9B876"/>
<stop offset="0.72" stop-color="#FABE81"/>
<stop offset="0.81" stop-color="#FCC892"/>
<stop offset="0.86" stop-color="#FED2A3"/>
<stop offset="0.97" stop-color="#FFC28C"/>
</linearGradient>
<linearGradient id="paint67_linear_882_6928" x1="388.519" y1="137.958" x2="347.143" y2="184.493" gradientUnits="userSpaceOnUse">
<stop offset="0.04" stop-color="#FFBA78"/>
<stop offset="0.4" stop-color="#FEC986"/>
<stop offset="1" stop-color="#FEECA8"/>
</linearGradient>
<radialGradient id="paint68_radial_882_6928" cx="0" cy="0" r="1" gradientUnits="userSpaceOnUse" gradientTransform="translate(247.553 162.887) scale(75.787 36.7735)">
<stop stop-color="#F49587"/>
<stop offset="0.12" stop-color="#BC7368"/>
<stop offset="0.24" stop-color="#8B544C"/>
<stop offset="0.36" stop-color="#603A35"/>
<stop offset="0.48" stop-color="#3D2522"/>
<stop offset="0.61" stop-color="#221513"/>
<stop offset="0.74" stop-color="#0F0908"/>
<stop offset="0.86" stop-color="#030202"/>
<stop offset="1"/>
</radialGradient>
<radialGradient id="paint69_radial_882_6928" cx="0" cy="0" r="1" gradientUnits="userSpaceOnUse" gradientTransform="translate(41052 253.56) rotate(180) scale(84.7537 17.077)">
<stop offset="0.19" stop-color="#785C5D"/>
<stop offset="1" stop-color="white"/>
</radialGradient>
<clipPath id="clip0_882_6928">
<rect width="608" height="482" fill="white"/>
</clipPath>
</defs>
</svg>
