<svg width="529" height="393" viewBox="0 0 529 393" fill="none" xmlns="http://www.w3.org/2000/svg">
<path d="M307.268 329.731C243.518 329.731 191.654 277.874 191.654 214.133C191.654 150.392 243.518 98.5358 307.268 98.5358C371.017 98.5358 422.881 150.392 422.881 214.133C422.881 277.874 371.017 329.731 307.268 329.731ZM307.268 99.4202C244.006 99.4202 192.539 150.88 192.539 214.133C192.539 277.386 244.006 328.846 307.268 328.846C370.529 328.846 421.996 277.386 421.996 214.133C421.996 150.87 370.529 99.4202 307.268 99.4202Z" fill="url(#paint0_linear_15_2637)"/>
<path d="M307.267 318.894C249.486 318.894 202.482 271.896 202.482 214.123C202.482 156.35 249.486 109.362 307.267 109.362C365.049 109.362 412.052 156.36 412.052 214.133C412.052 271.906 365.049 318.894 307.267 318.894ZM307.267 110.247C249.984 110.247 203.377 156.848 203.377 214.123C203.377 271.398 249.984 317.999 307.267 317.999C364.55 317.999 411.158 271.398 411.158 214.123C411.158 156.848 364.55 110.247 307.267 110.247Z" fill="url(#paint1_linear_15_2637)"/>
<path d="M524.358 215.248H451.705V216.608H524.358V215.248Z" fill="url(#paint2_linear_15_2637)"/>
<path d="M457.553 215.928C457.553 219.15 454.943 221.774 451.706 221.774C448.484 221.774 445.859 219.164 445.859 215.928C445.859 212.705 448.47 210.081 451.706 210.081C454.943 210.081 457.553 212.692 457.553 215.928Z" fill="url(#paint3_linear_15_2637)"/>
<path d="M528.262 215.928C528.262 218.076 526.508 219.83 524.36 219.83C522.211 219.83 520.457 218.076 520.457 215.928C520.457 213.78 522.211 212.026 524.36 212.026C526.508 212.026 528.262 213.766 528.262 215.928Z" fill="url(#paint4_linear_15_2637)"/>
<path d="M138.211 71.9023L137.316 72.926L196.736 124.865L197.631 123.841L138.211 71.9023Z" fill="url(#paint5_linear_15_2637)"/>
<path d="M191.33 124.36C191.33 121.137 193.941 118.513 197.177 118.513C200.4 118.513 203.024 121.124 203.024 124.36C203.024 127.582 200.413 130.206 197.177 130.206C193.941 130.206 191.33 127.582 191.33 124.36Z" fill="url(#paint6_linear_15_2637)"/>
<path d="M133.854 72.4234C133.854 70.2752 135.608 68.5214 137.756 68.5214C139.904 68.5214 141.659 70.2752 141.659 72.4234C141.659 74.5715 139.904 76.3254 137.756 76.3254C135.594 76.3254 133.854 74.5715 133.854 72.4234Z" fill="url(#paint7_linear_15_2637)"/>
<path d="M201.661 307.781L142.988 345.429L143.723 346.573L202.395 308.925L201.661 307.781Z" fill="url(#paint8_linear_15_2637)"/>
<path d="M196.189 308.353C196.189 311.575 198.8 314.185 202.037 314.185C205.259 314.185 207.884 311.575 207.884 308.353C207.884 305.13 205.273 302.506 202.037 302.506C198.8 302.52 196.189 305.13 196.189 308.353Z" fill="url(#paint9_linear_15_2637)"/>
<path d="M139.459 346C139.459 348.148 141.213 349.902 143.362 349.902C145.51 349.902 147.264 348.148 147.264 346C147.264 343.851 145.51 342.098 143.362 342.098C141.199 342.111 139.459 343.851 139.459 346Z" fill="url(#paint10_linear_15_2637)"/>
<path d="M420.33 307.797L419.596 308.941L478.268 346.59L479.003 345.445L420.33 307.797Z" fill="url(#paint11_linear_15_2637)"/>
<path d="M425.801 308.353C425.801 311.575 423.191 314.185 419.954 314.185C416.732 314.185 414.107 311.575 414.107 308.353C414.107 305.131 416.718 302.507 419.954 302.507C423.191 302.52 425.801 305.131 425.801 308.353Z" fill="url(#paint12_linear_15_2637)"/>
<path d="M482.532 346C482.532 348.148 480.777 349.902 478.629 349.902C476.481 349.902 474.727 348.148 474.727 346C474.727 343.852 476.481 342.098 478.629 342.098C480.791 342.111 482.532 343.852 482.532 346Z" fill="url(#paint13_linear_15_2637)"/>
<path d="M170.284 215.248H97.6309V216.608H170.284V215.248Z" fill="url(#paint14_linear_15_2637)"/>
<path d="M164.436 215.928C164.436 219.15 167.046 221.774 170.283 221.774C173.505 221.774 176.13 219.164 176.13 215.928C176.13 212.705 173.519 210.081 170.283 210.081C167.046 210.081 164.436 212.692 164.436 215.928Z" fill="url(#paint15_linear_15_2637)"/>
<path d="M93.7285 215.928C93.7285 218.076 95.4826 219.83 97.6311 219.83C99.7795 219.83 101.534 218.076 101.534 215.928C101.534 213.78 99.7795 212.026 97.6311 212.026C95.4826 212.026 93.7285 213.766 93.7285 215.928Z" fill="url(#paint16_linear_15_2637)"/>
<path d="M483.801 71.903L424.381 123.842L425.276 124.865L484.696 72.9266L483.801 71.903Z" fill="url(#paint17_linear_15_2637)"/>
<path d="M430.653 124.36C430.653 121.137 428.042 118.513 424.806 118.513C421.583 118.513 418.959 121.124 418.959 124.36C418.959 127.582 421.57 130.206 424.806 130.206C428.042 130.206 430.653 127.582 430.653 124.36Z" fill="url(#paint18_linear_15_2637)"/>
<path d="M488.131 72.4234C488.131 70.2752 486.377 68.5214 484.229 68.5214C482.08 68.5214 480.326 70.2752 480.326 72.4234C480.326 74.5715 482.08 76.3254 484.229 76.3254C486.391 76.3254 488.131 74.5715 488.131 72.4234Z" fill="url(#paint19_linear_15_2637)"/>
<path d="M311.909 205.436L323.783 218.504L308.979 224.714L283.334 213.439L311.909 205.436Z" fill="url(#paint20_linear_15_2637)" stroke="url(#paint21_linear_15_2637)" stroke-width="2"/>
<path d="M303.305 287.688L307.857 260.838L318.982 248.323L346.59 249.798L303.305 287.688Z" fill="url(#paint22_linear_15_2637)" stroke="url(#paint23_linear_15_2637)" stroke-width="2"/>
<path d="M287.016 178.998L287.407 178.607L287.284 178.067L282.474 157L282.474 157L278.506 139.609L365.981 187.381L353.798 191.671L299.442 187.097L298.985 187.059L298.658 187.38L268.488 216.972V197.502L274.059 191.932L274.06 191.932L287.016 178.998Z" fill="url(#paint24_linear_15_2637)" stroke="url(#paint25_linear_15_2637)" stroke-width="2"/>
<path d="M275.282 268.547L308.287 231.816L315.671 245.206L305.226 257.184L275.282 268.547Z" fill="url(#paint26_linear_15_2637)" stroke="url(#paint27_linear_15_2637)" stroke-width="2"/>
<path d="M283.606 208.77L298.493 192.899L306.511 202.087L283.606 208.77Z" fill="url(#paint28_linear_15_2637)" stroke="url(#paint29_linear_15_2637)" stroke-width="2"/>
<path d="M306.499 192.618L353.525 196.489L376.599 218.302L329.661 217.369L306.499 192.618Z" fill="url(#paint30_linear_15_2637)" stroke="url(#paint31_linear_15_2637)" stroke-width="2"/>
<path d="M275.392 216.225L304.459 228.101L265.894 271.406L249.395 243.471L266.778 224.416L275.392 216.225Z" fill="url(#paint32_linear_15_2637)" stroke="url(#paint33_linear_15_2637)" stroke-width="2"/>
<path d="M258.26 267.994L238.932 255.733L246.528 246.889L258.26 267.994Z" fill="url(#paint34_linear_15_2637)" stroke="url(#paint35_linear_15_2637)" stroke-width="2"/>
<path d="M311.9 228.516L328.183 222.506L376.508 223.368L352.152 244.13L319.937 242.452L311.9 228.516Z" fill="url(#paint36_linear_15_2637)" stroke="url(#paint37_linear_15_2637)" stroke-width="2"/>
<path d="M262.634 154.344L277.266 159.569L281.417 177.041L272.824 185.288L262.634 154.344Z" fill="url(#paint38_linear_15_2637)" stroke="url(#paint39_linear_15_2637)" stroke-width="2"/>
<defs>
<linearGradient id="paint0_linear_15_2637" x1="307.268" y1="98.5358" x2="307.268" y2="329.731" gradientUnits="userSpaceOnUse">
<stop stop-color="#A8BAFF"/>
<stop offset="1" stop-color="#7B35D3"/>
</linearGradient>
<linearGradient id="paint1_linear_15_2637" x1="307.267" y1="109.362" x2="307.267" y2="318.894" gradientUnits="userSpaceOnUse">
<stop stop-color="#A8BAFF"/>
<stop offset="1" stop-color="#7B35D3"/>
</linearGradient>
<linearGradient id="paint2_linear_15_2637" x1="488.031" y1="215.248" x2="488.031" y2="216.608" gradientUnits="userSpaceOnUse">
<stop stop-color="#A8BAFF"/>
<stop offset="1" stop-color="#7B35D3"/>
</linearGradient>
<linearGradient id="paint3_linear_15_2637" x1="451.706" y1="210.081" x2="451.706" y2="221.774" gradientUnits="userSpaceOnUse">
<stop stop-color="#A8BAFF"/>
<stop offset="1" stop-color="#7B35D3"/>
</linearGradient>
<linearGradient id="paint4_linear_15_2637" x1="524.36" y1="212.026" x2="524.36" y2="219.83" gradientUnits="userSpaceOnUse">
<stop stop-color="#A8BAFF"/>
<stop offset="1" stop-color="#7B35D3"/>
</linearGradient>
<linearGradient id="paint5_linear_15_2637" x1="137.764" y1="72.4141" x2="197.177" y2="124.361" gradientUnits="userSpaceOnUse">
<stop stop-color="#A8BAFF"/>
<stop offset="1" stop-color="#7B35D3"/>
</linearGradient>
<linearGradient id="paint6_linear_15_2637" x1="197.177" y1="118.513" x2="197.177" y2="130.206" gradientUnits="userSpaceOnUse">
<stop stop-color="#A8BAFF"/>
<stop offset="1" stop-color="#7B35D3"/>
</linearGradient>
<linearGradient id="paint7_linear_15_2637" x1="137.756" y1="68.5214" x2="137.756" y2="76.3254" gradientUnits="userSpaceOnUse">
<stop stop-color="#A8BAFF"/>
<stop offset="1" stop-color="#7B35D3"/>
</linearGradient>
<linearGradient id="paint8_linear_15_2637" x1="172.325" y1="326.605" x2="173.059" y2="327.749" gradientUnits="userSpaceOnUse">
<stop stop-color="#A8BAFF"/>
<stop offset="1" stop-color="#7B35D3"/>
</linearGradient>
<linearGradient id="paint9_linear_15_2637" x1="202.037" y1="302.506" x2="202.037" y2="314.185" gradientUnits="userSpaceOnUse">
<stop stop-color="#A8BAFF"/>
<stop offset="1" stop-color="#7B35D3"/>
</linearGradient>
<linearGradient id="paint10_linear_15_2637" x1="143.362" y1="342.098" x2="143.362" y2="349.902" gradientUnits="userSpaceOnUse">
<stop stop-color="#A8BAFF"/>
<stop offset="1" stop-color="#7B35D3"/>
</linearGradient>
<linearGradient id="paint11_linear_15_2637" x1="419.963" y1="308.369" x2="478.631" y2="346.025" gradientUnits="userSpaceOnUse">
<stop stop-color="#A8BAFF"/>
<stop offset="1" stop-color="#7B35D3"/>
</linearGradient>
<linearGradient id="paint12_linear_15_2637" x1="419.954" y1="302.507" x2="419.954" y2="314.185" gradientUnits="userSpaceOnUse">
<stop stop-color="#A8BAFF"/>
<stop offset="1" stop-color="#7B35D3"/>
</linearGradient>
<linearGradient id="paint13_linear_15_2637" x1="478.629" y1="342.098" x2="478.629" y2="349.902" gradientUnits="userSpaceOnUse">
<stop stop-color="#A8BAFF"/>
<stop offset="1" stop-color="#7B35D3"/>
</linearGradient>
<linearGradient id="paint14_linear_15_2637" x1="133.957" y1="215.248" x2="133.957" y2="216.608" gradientUnits="userSpaceOnUse">
<stop stop-color="#A8BAFF"/>
<stop offset="1" stop-color="#7B35D3"/>
</linearGradient>
<linearGradient id="paint15_linear_15_2637" x1="170.283" y1="210.081" x2="170.283" y2="221.774" gradientUnits="userSpaceOnUse">
<stop stop-color="#A8BAFF"/>
<stop offset="1" stop-color="#7B35D3"/>
</linearGradient>
<linearGradient id="paint16_linear_15_2637" x1="97.6311" y1="212.026" x2="97.6311" y2="219.83" gradientUnits="userSpaceOnUse">
<stop stop-color="#A8BAFF"/>
<stop offset="1" stop-color="#7B35D3"/>
</linearGradient>
<linearGradient id="paint17_linear_15_2637" x1="454.091" y1="97.8724" x2="454.986" y2="98.8961" gradientUnits="userSpaceOnUse">
<stop stop-color="#A8BAFF"/>
<stop offset="1" stop-color="#7B35D3"/>
</linearGradient>
<linearGradient id="paint18_linear_15_2637" x1="424.806" y1="118.513" x2="424.806" y2="130.206" gradientUnits="userSpaceOnUse">
<stop stop-color="#A8BAFF"/>
<stop offset="1" stop-color="#7B35D3"/>
</linearGradient>
<linearGradient id="paint19_linear_15_2637" x1="484.229" y1="68.5214" x2="484.229" y2="76.3254" gradientUnits="userSpaceOnUse">
<stop stop-color="#A8BAFF"/>
<stop offset="1" stop-color="#7B35D3"/>
</linearGradient>
<linearGradient id="paint20_linear_15_2637" x1="280.374" y1="215.055" x2="325.474" y2="215.055" gradientUnits="userSpaceOnUse">
<stop stop-color="white"/>
<stop offset="1"/>
</linearGradient>
<linearGradient id="paint21_linear_15_2637" x1="302.924" y1="204.306" x2="302.924" y2="225.802" gradientUnits="userSpaceOnUse">
<stop stop-color="#CED6DB"/>
<stop offset="1" stop-color="#CED6DB" stop-opacity="0"/>
</linearGradient>
<linearGradient id="paint22_linear_15_2637" x1="301.855" y1="268.797" x2="349.095" y2="268.797" gradientUnits="userSpaceOnUse">
<stop stop-color="white"/>
<stop offset="1"/>
</linearGradient>
<linearGradient id="paint23_linear_15_2637" x1="325.474" y1="247.299" x2="325.474" y2="290.291" gradientUnits="userSpaceOnUse">
<stop stop-color="#CED6DB"/>
<stop offset="1" stop-color="#CED6DB" stop-opacity="0"/>
</linearGradient>
<linearGradient id="paint24_linear_15_2637" x1="267.489" y1="178.508" x2="368.425" y2="178.508" gradientUnits="userSpaceOnUse">
<stop/>
<stop offset="1" stop-color="white"/>
</linearGradient>
<linearGradient id="paint25_linear_15_2637" x1="317.959" y1="137.668" x2="317.959" y2="219.354" gradientUnits="userSpaceOnUse">
<stop stop-color="#CED6DB"/>
<stop offset="1" stop-color="#CED6DB" stop-opacity="0"/>
</linearGradient>
<linearGradient id="paint26_linear_15_2637" x1="271.778" y1="250.523" x2="316.883" y2="250.523" gradientUnits="userSpaceOnUse">
<stop stop-color="white"/>
<stop offset="1"/>
</linearGradient>
<linearGradient id="paint27_linear_15_2637" x1="294.334" y1="230.102" x2="294.334" y2="270.945" gradientUnits="userSpaceOnUse">
<stop stop-color="#CED6DB"/>
<stop offset="1" stop-color="#CED6DB" stop-opacity="0"/>
</linearGradient>
<linearGradient id="paint28_linear_15_2637" x1="280.371" y1="201.083" x2="308.291" y2="201.083" gradientUnits="userSpaceOnUse">
<stop stop-color="white"/>
<stop offset="1"/>
</linearGradient>
<linearGradient id="paint29_linear_15_2637" x1="294.333" y1="191.408" x2="294.333" y2="210.755" gradientUnits="userSpaceOnUse">
<stop stop-color="#CED6DB"/>
<stop offset="1" stop-color="#CED6DB" stop-opacity="0"/>
</linearGradient>
<linearGradient id="paint30_linear_15_2637" x1="304.002" y1="205.38" x2="379.164" y2="205.38" gradientUnits="userSpaceOnUse">
<stop/>
<stop offset="1" stop-color="white"/>
</linearGradient>
<linearGradient id="paint31_linear_15_2637" x1="341.583" y1="191.408" x2="341.583" y2="219.354" gradientUnits="userSpaceOnUse">
<stop stop-color="#CED6DB"/>
<stop offset="1" stop-color="#CED6DB" stop-opacity="0"/>
</linearGradient>
<linearGradient id="paint32_linear_15_2637" x1="248.159" y1="244.075" x2="306.142" y2="244.075" gradientUnits="userSpaceOnUse">
<stop stop-color="white"/>
<stop offset="1"/>
</linearGradient>
<linearGradient id="paint33_linear_15_2637" x1="277.152" y1="215.054" x2="277.152" y2="273.094" gradientUnits="userSpaceOnUse">
<stop stop-color="#CED6DB"/>
<stop offset="1" stop-color="#CED6DB" stop-opacity="0"/>
</linearGradient>
<linearGradient id="paint34_linear_15_2637" x1="237.42" y1="258.044" x2="261.049" y2="258.044" gradientUnits="userSpaceOnUse">
<stop stop-color="white"/>
<stop offset="1"/>
</linearGradient>
<linearGradient id="paint35_linear_15_2637" x1="249.232" y1="245.149" x2="249.232" y2="270.945" gradientUnits="userSpaceOnUse">
<stop stop-color="#CED6DB"/>
<stop offset="1" stop-color="#CED6DB" stop-opacity="0"/>
</linearGradient>
<linearGradient id="paint36_linear_15_2637" x1="310.441" y1="233.325" x2="379.162" y2="233.325" gradientUnits="userSpaceOnUse">
<stop stop-color="white"/>
<stop offset="1"/>
</linearGradient>
<linearGradient id="paint37_linear_15_2637" x1="344.804" y1="221.503" x2="344.804" y2="245.149" gradientUnits="userSpaceOnUse">
<stop stop-color="#CED6DB"/>
<stop offset="1" stop-color="#CED6DB" stop-opacity="0"/>
</linearGradient>
<linearGradient id="paint38_linear_15_2637" x1="261.041" y1="169.909" x2="282.517" y2="169.909" gradientUnits="userSpaceOnUse">
<stop stop-color="white"/>
<stop offset="1"/>
</linearGradient>
<linearGradient id="paint39_linear_15_2637" x1="271.783" y1="152.715" x2="271.783" y2="187.109" gradientUnits="userSpaceOnUse">
<stop stop-color="#CED6DB"/>
<stop offset="1" stop-color="#CED6DB" stop-opacity="0"/>
</linearGradient>
</defs>
</svg>
