<svg width="213" height="214" viewBox="0 0 213 214" fill="none" xmlns="http://www.w3.org/2000/svg">
<g clip-path="url(#clip0_491_6904)">
<path d="M208.058 115.415L206.352 84.4576C208.042 84.0553 209.298 82.5429 209.298 80.7247C209.298 78.6007 207.575 76.8791 205.45 76.8791C205.386 76.8791 205.322 76.8952 205.257 76.8952L198.335 62.5105C198.931 62.0439 199.317 61.3359 199.317 60.5314C199.317 59.1477 198.19 58.0214 196.806 58.0214C196.468 58.0214 196.146 58.0857 195.856 58.2144L185.812 42.7678C186.681 42.0598 187.244 40.9979 187.244 39.7911C187.244 37.6672 185.522 35.9456 183.397 35.9456C182.383 35.9456 181.449 36.3478 180.773 36.9914L166.173 24.5215C166.398 24.1514 166.527 23.717 166.527 23.2504C166.527 21.8666 165.4 20.7403 164.016 20.7403C163.195 20.7403 162.454 21.1426 162.004 21.754L139.87 10.5874C140.031 10.2656 140.111 9.89549 140.111 9.52541C140.111 8.14165 138.984 7.01534 137.6 7.01534C136.361 7.01534 135.346 7.91639 135.121 9.09098L109.285 5.50286C109.285 2.4618 106.822 0 103.78 0C100.914 0 98.5801 2.18827 98.3226 4.98797L77.7019 8.93008C77.4282 7.83594 76.4463 7.01534 75.2712 7.01534C73.8868 7.01534 72.76 8.14165 72.76 9.52541C72.76 9.91158 72.8566 10.2817 73.0175 10.6195L50.8676 21.754C50.4008 21.1426 49.6925 20.7564 48.8715 20.7564C47.4872 20.7564 46.3603 21.8827 46.3603 23.2665C46.3603 23.7331 46.5052 24.1836 46.7306 24.5537L32.0981 36.9914C31.4059 36.3478 30.5045 35.9617 29.4903 35.9617C27.3655 35.9617 25.6431 37.6833 25.6431 39.8072C25.6431 41.0301 26.2226 42.092 27.1079 42.8L17.0471 58.2305C16.7573 58.1018 16.4354 58.0374 16.0812 58.0374C14.6969 58.0374 13.5701 59.1638 13.5701 60.5475C13.5701 61.352 13.9564 62.0761 14.552 62.5266L7.63014 76.9113C7.56575 76.9113 7.50136 76.8952 7.43697 76.8952C5.31212 76.8952 3.58971 78.6168 3.58971 80.7407C3.58971 82.575 4.87749 84.0875 6.58381 84.4737L4.8614 114.884C2.12485 115.222 0 117.523 0 120.339C0 123.38 2.46289 125.842 5.50529 125.842C5.77894 125.842 6.0365 125.793 6.31016 125.761L15.3408 154.209C14.9061 154.836 14.6647 155.576 14.6647 156.381C14.6647 158.505 16.3871 160.226 18.5119 160.226C18.5441 160.226 18.5763 160.21 18.6246 160.21L29.6513 175.062C29.6352 175.206 29.603 175.351 29.603 175.496C29.603 176.88 30.7298 178.006 32.1142 178.006C32.1786 178.006 32.2269 177.99 32.2752 177.99L57.5158 196.558C57.4514 196.848 57.4031 197.154 57.4031 197.475C57.4031 199.599 59.1255 201.321 61.2504 201.321C62.4094 201.321 63.4396 200.79 64.1479 199.985L87.2154 207.451C87.151 207.789 87.1027 208.143 87.1027 208.497C87.1027 211.538 89.5656 214 92.608 214C95.3767 214 97.6465 211.957 98.0328 209.286L116.416 209.221C116.802 210.927 118.332 212.198 120.151 212.198C122.275 212.198 123.998 210.476 123.998 208.352C123.998 208.224 123.966 208.111 123.966 207.982L148.739 200.002C149.448 200.79 150.462 201.305 151.605 201.305C153.73 201.305 155.452 199.583 155.452 197.459C155.452 197.137 155.404 196.816 155.323 196.51L180.065 178.392C180.274 178.441 180.499 178.473 180.741 178.473C182.399 178.473 183.735 177.137 183.735 175.48C183.735 175.142 183.671 174.836 183.574 174.531L194.295 160.194C194.311 160.194 194.343 160.194 194.359 160.194C196.484 160.194 198.207 158.473 198.207 156.349C198.207 155.528 197.933 154.756 197.498 154.128L206.4 126.228C206.754 126.292 207.124 126.34 207.511 126.34C210.553 126.34 213.016 123.879 213.016 120.838C213 118.022 210.827 115.705 208.058 115.415ZM196.532 63.0254C196.581 63.0254 196.629 63.0415 196.677 63.0415L203.004 77.7801C202.649 78.0698 202.36 78.4077 202.134 78.7938C199.044 77.9893 194.601 76.8147 190.11 75.6401C192.782 70.4108 195.277 65.5194 196.532 63.0254ZM190.528 156.526L178.23 157.974L175.413 143.396L190.786 154.997C190.609 155.432 190.512 155.898 190.512 156.397C190.512 156.429 190.528 156.477 190.528 156.526ZM154.035 161.144C154.035 161.755 154.196 162.318 154.438 162.833L137.149 173.855C136.683 173.243 135.958 172.841 135.137 172.841C133.753 172.841 132.626 173.968 132.626 175.351C132.626 175.432 132.642 175.496 132.642 175.577L108.158 179.824C107.884 177.974 106.307 176.542 104.375 176.542C102.443 176.542 100.85 177.974 100.592 179.84L80.1969 175.673C80.213 175.577 80.2291 175.464 80.2291 175.367C80.2291 173.984 79.1023 172.857 77.718 172.857C76.897 172.857 76.1726 173.26 75.7058 173.871L58.4172 162.849C58.6748 162.334 58.8197 161.771 58.8197 161.16C58.8197 159.036 57.0973 157.314 54.9724 157.314C54.2963 157.314 53.6685 157.507 53.1051 157.813L41.6599 142.382C42.0302 141.9 42.2555 141.304 42.2555 140.645C42.2555 139.052 40.9677 137.748 39.358 137.748C39.3419 137.748 39.3419 137.748 39.3419 137.748L33.2249 117.603C34.1425 117.121 34.7703 116.171 34.7703 115.061C34.7703 113.758 33.901 112.664 32.6937 112.31L33.5469 96.8149C35.2693 96.4448 36.5732 94.9001 36.5732 93.0659C36.5732 91.7143 35.8649 90.5236 34.8185 89.8478L39.5995 74.1759C40.7263 73.9346 41.5794 72.9209 41.5794 71.7141C41.5794 71.3762 41.515 71.0705 41.3863 70.7648L57.7734 51.3761C58.1758 51.5209 58.6104 51.6174 59.0611 51.6174C61.186 51.6174 62.9084 49.8958 62.9084 47.7719C62.9084 47.5627 62.8762 47.3696 62.844 47.1765L93.8958 33.9986C94.4431 34.6744 95.2802 35.125 96.2138 35.125C97.4855 35.125 98.564 34.3365 98.9986 33.2263H113.856C114.291 34.3365 115.37 35.125 116.641 35.125C117.591 35.125 118.412 34.6744 118.959 33.9986L151.009 47.5949C151.009 47.611 151.009 47.6271 151.009 47.6432C151.009 49.0269 152.136 50.1532 153.52 50.1532C153.681 50.1532 153.842 50.1371 154.003 50.105L169.988 69.0271C169.344 69.7189 168.942 70.6361 168.942 71.6498C168.942 73.7737 170.664 75.4953 172.789 75.4953C173.079 75.4953 173.368 75.4471 173.642 75.3988L178.455 91.1833C177.827 91.6338 177.409 92.374 177.409 93.2107C177.409 94.3692 178.181 95.3185 179.244 95.6242L180.161 112.326C178.97 112.68 178.085 113.774 178.085 115.077C178.085 116.188 178.713 117.137 179.63 117.62L173.513 137.765C173.497 137.765 173.497 137.765 173.497 137.765C171.903 137.765 170.6 139.052 170.6 140.661C170.6 141.32 170.825 141.916 171.195 142.398L159.75 157.829C159.203 157.523 158.559 157.33 157.883 157.33C155.758 157.298 154.035 159.02 154.035 161.144ZM156.595 164.748L154.695 175.126H138.115L155.468 164.12C155.806 164.394 156.176 164.603 156.595 164.748ZM133.769 177.459L128.28 188.771L107.997 181.675C108.013 181.626 108.029 181.578 108.045 181.514L133.35 177.121C133.479 177.25 133.624 177.363 133.769 177.459ZM100.705 181.53L84.1891 187.982L79.0862 177.459C79.2311 177.363 79.3599 177.266 79.4887 177.137L100.705 181.53ZM74.6595 175.126H58.1597L56.2602 164.748C56.6948 164.603 57.0812 164.378 57.4192 164.088L74.6595 175.126ZM22.0856 154.981L37.4585 143.38L34.6415 157.958L22.3431 156.51C22.3431 156.461 22.3592 156.413 22.3592 156.381C22.3592 155.882 22.2465 155.415 22.0856 154.981ZM11.2198 80.3546C14.713 79.4374 19.1558 78.2629 23.5021 77.1204C25.9489 81.9153 28.4601 86.8068 30.1986 90.1535C29.3937 90.8615 28.8786 91.8752 28.8786 93.0337C28.8786 93.8382 29.1362 94.5944 29.5547 95.2059L23.3411 101.481L10.4794 82.9773C10.9784 82.382 11.2681 81.5935 11.2681 80.7407C11.2681 80.612 11.2359 80.4833 11.2198 80.3546ZM31.6474 89.3812C29.9411 86.1149 27.5264 81.4004 25.1279 76.7021C30.0537 75.4149 34.6576 74.2081 37.3297 73.5162C37.5229 73.7093 37.7483 73.8541 38.0058 73.9668L33.2893 89.2686C33.1122 89.2364 32.9191 89.2203 32.7259 89.2203C32.3557 89.2042 32.0015 89.2847 31.6474 89.3812ZM31.9371 96.8149L31.0679 112.294C31.0035 112.31 30.9391 112.326 30.8908 112.342L24.307 102.865L30.762 96.3322C31.1323 96.5574 31.5186 96.7183 31.9371 96.8149ZM29.5869 113.323C29.2167 113.806 28.9913 114.402 28.9913 115.061C28.9913 115.093 29.0074 115.126 29.0074 115.174L10.8335 118.971C10.6725 118.36 10.4311 117.764 10.093 117.266L23.148 104.055L29.5869 113.323ZM10.9945 120.612L29.5225 116.718C29.7157 116.976 29.9411 117.201 30.1986 117.394L25.3855 131.94L10.3345 122.929C10.7208 122.237 10.9462 121.449 10.9945 120.612ZM31.6796 118.134L37.7805 138.231C37.4907 138.424 37.2492 138.666 37.04 138.939L26.8182 132.809L31.6796 118.134ZM39.0843 143.493C39.1809 143.509 39.2614 143.525 39.358 143.525C39.7282 143.525 40.0663 143.444 40.3882 143.332L51.8817 158.891C51.6564 159.213 51.4793 159.551 51.3505 159.937L36.2512 158.167L39.0843 143.493ZM35.6234 56.0101L56.1636 50.2498C56.228 50.3302 56.2924 50.4107 56.3729 50.4911L40.3077 69.5098C40.1307 69.4132 39.9375 69.3328 39.7282 69.2684L35.6234 56.0101ZM61.3953 44.7147L68.4137 28.0614L92.7207 32.7114L62.2645 45.6319C62.0391 45.2779 61.7333 44.9722 61.3953 44.7147ZM120.151 32.7114L144.458 28.0614L151.894 45.7284C151.782 45.825 151.669 45.9376 151.589 46.0502L120.151 32.7114ZM156.144 50.0889L177.248 55.994L173.578 67.8525C173.32 67.8042 173.062 67.772 172.789 67.772C172.258 67.772 171.743 67.8847 171.292 68.0777L156.144 50.0889ZM180.516 90.7489C180.355 90.7167 180.178 90.6845 180 90.6845L175.139 74.6586C175.493 74.3851 175.815 74.0472 176.057 73.661C178.793 74.369 183.123 75.4953 187.759 76.7182C184.991 82.1084 182.206 87.5308 180.516 90.7489ZM181.143 95.3829L188.548 102.881L181.964 112.358C181.9 112.342 181.852 112.326 181.787 112.31L180.87 95.5277C180.966 95.4794 181.063 95.4311 181.143 95.3829ZM172.499 143.348C172.805 143.46 173.143 143.541 173.497 143.541C173.594 143.541 173.69 143.525 173.771 143.509L176.604 158.167L161.505 159.937C161.376 159.551 161.183 159.181 160.941 158.859L172.499 143.348ZM175.042 138.199L181.176 118.118L186.037 132.793L175.815 138.923C175.606 138.633 175.348 138.392 175.042 138.199ZM182.673 117.41C182.93 117.217 183.156 116.992 183.349 116.735L202.006 120.645C202.006 120.725 201.989 120.805 201.989 120.886C201.989 121.642 202.15 122.35 202.408 123.01L187.486 131.94L182.673 117.41ZM202.311 119.035L183.864 115.158C183.864 115.126 183.88 115.093 183.88 115.045C183.88 114.385 183.655 113.806 183.284 113.307L189.723 104.039L203.084 117.571C202.762 118.022 202.505 118.505 202.311 119.035ZM189.514 101.513L182.254 94.1761C182.383 93.8704 182.447 93.5486 182.447 93.1946C182.447 92.5992 182.238 92.0683 181.884 91.6338C183.606 88.3514 186.504 82.7038 189.353 77.1365C193.699 78.2789 198.142 79.4535 201.635 80.3707C201.619 80.4994 201.603 80.6281 201.603 80.7568C201.603 81.6096 201.893 82.3819 202.36 83.0256L189.514 101.513ZM188.5 75.2218C183.896 74.015 179.453 72.8565 176.588 72.1164C176.604 71.9555 176.636 71.7946 176.636 71.6337C176.636 70.3786 176.024 69.2684 175.075 68.5604L178.825 56.4445L194.327 60.7889C194.391 61.4003 194.649 61.9474 195.068 62.3496C193.764 64.8919 191.204 69.912 188.5 75.2218ZM183.397 43.6367C183.719 43.6367 184.041 43.5884 184.347 43.508L194.536 59.1638L179.292 54.8998L182.785 43.5884C182.995 43.6045 183.204 43.6367 183.397 43.6367ZM181.272 42.9931L177.731 54.4493L156.209 48.4155L179.888 41.3519C180.194 42.0277 180.677 42.5908 181.272 42.9931ZM163.662 25.7444C163.774 25.7605 163.887 25.7765 164.016 25.7765C164.338 25.7765 164.644 25.7122 164.917 25.5995L179.856 38.3269C179.679 38.7614 179.566 39.2441 179.566 39.7589L155.903 46.8065C155.726 46.3077 155.404 45.8732 154.985 45.5675L163.662 25.7444ZM162.197 25.0042L153.408 45.1009L146.099 27.7395L161.955 24.7146C162.02 24.8111 162.116 24.9077 162.197 25.0042ZM161.231 23.186L145.456 26.211L139.596 12.2768L161.231 23.186ZM136.65 11.8585C136.94 11.9711 137.262 12.0516 137.6 12.0516C137.632 12.0516 137.681 12.0355 137.713 12.0355L143.814 26.5167L119.474 31.1668C119.394 30.8932 119.281 30.6519 119.12 30.4105C123.628 25.6478 132.948 15.7845 136.65 11.8585ZM109.027 7.11188L135.395 10.7322C135.411 10.7483 135.411 10.7644 135.427 10.7805C131.692 14.7386 122.308 24.6824 117.849 29.3808C117.478 29.2198 117.06 29.1233 116.625 29.1233C116.416 29.1233 116.207 29.1394 115.997 29.1877C113.406 24.2319 109.526 15.4949 107.079 9.8794C108.013 9.18752 108.689 8.22211 109.027 7.11188ZM103.78 11.0218C104.44 11.0218 105.067 10.8931 105.663 10.6678C108.11 16.2994 111.957 24.9398 114.581 29.9439C114.13 30.3623 113.824 30.9254 113.696 31.569H99.1596C98.9986 30.7162 98.4835 29.9922 97.7591 29.5577C99.2562 24.3123 101.59 16.1546 103.071 10.9574C103.313 10.9735 103.538 11.0218 103.78 11.0218ZM77.5248 10.6195L98.3869 6.62917C98.7411 8.36692 99.9323 9.78286 101.494 10.5069C100.013 15.7041 97.6787 23.8779 96.1816 29.1072C95.7631 29.1072 95.3606 29.2038 95.0065 29.3647C90.5475 24.6502 81.1628 14.7065 77.4282 10.7644C77.4765 10.7161 77.4926 10.6678 77.5248 10.6195ZM75.1585 12.0355C75.1907 12.0355 75.239 12.0516 75.2712 12.0516C75.6092 12.0516 75.9311 11.9872 76.2209 11.8585C79.9233 15.7845 89.2436 25.6639 93.767 30.4266C93.606 30.6519 93.4933 30.9093 93.4129 31.1829L69.0576 26.5167L75.1585 12.0355ZM73.2751 12.2768L67.4157 26.211L51.6403 23.186L73.2751 12.2768ZM50.9159 24.7146L66.7718 27.7395L59.9304 44.0068C59.6567 43.9424 59.367 43.9102 59.0772 43.9102C59.0289 43.9102 58.9967 43.9263 58.9485 43.9263L50.6744 25.0203C50.7549 24.9077 50.8515 24.8111 50.9159 24.7146ZM47.954 25.5995C48.2276 25.7122 48.5335 25.7765 48.8554 25.7765C48.9681 25.7765 49.0808 25.7605 49.2096 25.7444L57.3387 44.3286C56.5017 44.7469 55.8256 45.471 55.4875 46.3559L33.3054 39.7429C33.3054 39.2441 33.1927 38.7614 33.0156 38.3108L47.954 25.5995ZM32.9674 41.3519L55.2461 47.9971C55.2622 48.2707 55.3105 48.5281 55.3748 48.7695L35.1405 54.4332L31.5991 42.977C32.1947 42.5908 32.6776 42.0277 32.9674 41.3519ZM28.5245 43.508C28.8303 43.5884 29.1362 43.6367 29.4742 43.6367C29.6835 43.6367 29.8767 43.6045 30.0698 43.5723L33.563 54.8838L18.3349 59.1477L28.5245 43.508ZM18.5602 60.7889L34.062 56.4445L38.0702 69.3971C37.1849 69.7833 36.5571 70.6683 36.5571 71.698C36.5571 71.8107 36.5732 71.9233 36.5893 72.0359C33.74 72.7761 29.1362 73.9829 24.3875 75.2218C21.6831 69.912 19.1236 64.8919 17.8359 62.3335C18.2222 61.9313 18.4958 61.3842 18.5602 60.7889ZM16.1778 63.0415C16.2261 63.0415 16.2905 63.0254 16.3388 63.0254C17.5944 65.5194 20.0895 70.4108 22.7616 75.6401C18.2705 76.8147 13.8115 77.9893 10.7369 78.7938C10.5116 78.4077 10.2057 78.0698 9.86767 77.7801L16.1778 63.0415ZM8.14525 84.5059C8.54769 84.4254 8.91793 84.2806 9.25597 84.0875L22.1821 102.688L8.96622 116.059C8.25794 115.48 7.40478 115.077 6.47113 114.9L8.14525 84.5059ZM18.5763 152.551C18.5602 152.551 18.528 152.551 18.5119 152.551C17.8519 152.551 17.2242 152.728 16.6768 153.034L7.8716 125.295C8.43501 125.021 8.95012 124.683 9.38475 124.249L24.8704 133.533L18.5763 152.551ZM26.3031 134.386L36.4927 140.484C36.4927 140.532 36.4766 140.58 36.4766 140.629C36.4766 141.063 36.5893 141.481 36.7502 141.851L21.168 153.613C20.8782 153.324 20.5402 153.098 20.17 152.921L26.3031 134.386ZM31.7279 173.018C31.2771 173.083 30.8747 173.276 30.5527 173.549L20.2826 159.776C20.9909 159.406 21.5704 158.827 21.9246 158.119L34.3195 159.567L31.7279 173.018ZM33.3376 173.308L35.9615 159.76L51.1895 161.546C51.3827 163.364 52.8315 164.796 54.6505 164.957L56.5017 175.126H34.5932C34.4805 174.338 33.9976 173.678 33.3376 173.308ZM58.2563 195.078L33.9332 177.234C34.062 177.089 34.1747 176.928 34.2873 176.767H56.7914L59.9143 193.887C59.2543 194.112 58.6909 194.547 58.2563 195.078ZM61.5401 193.662L58.4494 176.767H75.6092C75.6736 176.848 75.738 176.928 75.8024 177.009L62.6508 193.903C62.3128 193.758 61.9426 193.694 61.5401 193.662ZM64.0191 194.82L77.2511 177.829C77.3155 177.845 77.396 177.845 77.4765 177.845L82.692 188.577L64.6308 195.641C64.4537 195.335 64.2606 195.062 64.0191 194.82ZM87.7788 205.923L64.9206 198.553C65.0172 198.215 65.0976 197.845 65.0976 197.475C65.0976 197.395 65.0815 197.314 65.0654 197.218L83.3842 190.058L90.0002 203.67C89.0505 204.185 88.2778 204.957 87.7788 205.923ZM92.6241 202.978C92.2539 202.978 91.8997 203.01 91.5456 203.091L84.9296 189.462L101.558 182.962C101.751 183.187 101.977 183.38 102.218 183.557L94.0407 203.187C93.5738 203.059 93.107 202.978 92.6241 202.978ZM116.416 207.58L98.0489 207.644C97.8074 206.035 96.8577 204.652 95.5377 203.815L103.731 184.153C103.957 184.185 104.182 184.217 104.407 184.217C104.778 184.217 105.132 184.153 105.47 184.056L117.639 205.488C117.028 206.051 116.577 206.759 116.416 207.58ZM120.183 204.507C119.78 204.507 119.41 204.587 119.04 204.7L106.886 183.3C106.967 183.235 107.047 183.171 107.128 183.091L127.571 190.251L120.617 204.555C120.472 204.539 120.328 204.507 120.183 204.507ZM123.499 206.438C123.177 205.891 122.726 205.424 122.179 205.086L129.117 190.798L147.79 197.347C147.79 197.395 147.774 197.427 147.774 197.475C147.774 197.862 147.838 198.215 147.951 198.553L123.499 206.438ZM148.192 195.754L129.825 189.318L135.395 177.861C135.475 177.861 135.54 177.845 135.62 177.845L148.852 194.837C148.595 195.094 148.369 195.416 148.192 195.754ZM151.331 193.662C150.945 193.694 150.558 193.775 150.22 193.903L137.069 177.009C137.133 176.928 137.214 176.848 137.262 176.767H154.422L151.331 193.662ZM154.615 195.078C154.18 194.531 153.617 194.112 152.957 193.871L156.08 176.751H178.053C178.181 177.025 178.359 177.282 178.552 177.507L154.615 195.078ZM177.795 175.126H156.37L158.221 164.957C160.056 164.796 161.489 163.364 161.682 161.546L176.91 159.76L179.437 172.825C178.552 173.26 177.924 174.112 177.795 175.126ZM182.608 173.163C182.174 172.809 181.642 172.584 181.047 172.535L178.536 159.567L190.931 158.119C191.301 158.827 191.864 159.406 192.572 159.776L182.608 173.163ZM191.687 153.629L176.105 141.868C176.282 141.497 176.379 141.079 176.379 140.645C176.379 140.596 176.362 140.548 176.362 140.5L186.552 134.402L192.685 152.938C192.331 153.115 191.993 153.34 191.687 153.629ZM196.194 153.018C195.647 152.728 195.035 152.535 194.359 152.535C194.343 152.535 194.311 152.535 194.295 152.535L188.001 133.517L203.277 124.361C203.728 124.892 204.259 125.343 204.871 125.665L196.194 153.018ZM204.259 116.429L190.689 102.688L203.615 84.0875C203.953 84.2806 204.324 84.4254 204.726 84.5059L206.432 115.463C205.627 115.64 204.887 115.978 204.259 116.429Z" fill="url(#paint0_linear_491_6904)"/>
<path d="M64.197 96.4772H69.1228C69.3481 96.4772 69.5252 96.6381 69.5252 96.8794V100.403C69.5252 100.628 69.3642 100.805 69.1228 100.805H60.2049L59.2068 101.803V104.892L60.2049 105.89H66.8853L70.0725 109.076C70.3784 109.446 70.5072 109.736 70.5072 110.202V115.383C70.5072 115.946 70.4106 116.107 70.1047 116.51L67.4165 119.229C67.2233 119.422 66.8853 119.728 66.4506 119.728H64.197V123.718H60.8809V119.728H55.9552C55.7298 119.728 55.5527 119.567 55.5527 119.325V115.802C55.5527 115.576 55.7137 115.399 55.9552 115.399H64.857L65.855 114.402V111.184L64.857 110.186H58.1766L54.9571 106.968C54.6513 106.566 54.5547 106.405 54.5547 105.842V100.789C54.5547 100.323 54.6835 100.033 54.9893 99.6631L57.6454 96.976C57.8707 96.7829 58.1444 96.4772 58.6112 96.4772H60.8648V92.8247H64.1809V96.4772H64.197Z" fill="white"/>
<path d="M72.8893 96.4771H76.7366C76.9619 96.4771 77.139 96.638 77.139 96.8793V114.418L78.137 115.415H80.1331L83.4492 111.393V96.8793C83.4492 96.654 83.6101 96.4771 83.8516 96.4771H87.715C87.9403 96.4771 88.1174 96.638 88.1174 96.8793V111.393L91.4012 115.415H93.4295L94.4275 114.418V96.8793C94.4275 96.654 94.5885 96.4771 94.83 96.4771H98.6772C98.9026 96.4771 99.0797 96.638 99.0797 96.8793V115.383C99.0797 115.946 99.0153 116.188 98.6772 116.509L95.9568 119.196C95.7636 119.357 95.5866 119.727 95.0231 119.727H90.1457C89.5501 119.727 89.3408 119.567 88.8901 119.003L85.7994 115.287L82.7087 119.003C82.2741 119.534 82.0487 119.727 81.4531 119.727H76.5595C75.9961 119.727 75.8351 119.357 75.6259 119.196L72.9054 116.509C72.5674 116.171 72.503 115.946 72.503 115.383V96.8793C72.4869 96.654 72.6639 96.4771 72.8893 96.4771Z" fill="white"/>
<path d="M119.009 114.128C119.009 114.562 118.848 114.852 118.542 115.158L114.357 119.341C114.051 119.647 113.729 119.744 113.295 119.744H101.463C101.238 119.744 101.061 119.583 101.061 119.341V96.8793C101.061 96.654 101.222 96.4771 101.463 96.4771H113.295C113.729 96.4771 114.051 96.5736 114.357 96.8793L118.542 101.063C118.848 101.368 119.009 101.658 119.009 102.093V114.128ZM114.357 113.098V103.138L112.039 100.805H105.729V115.415H112.039L114.357 113.098Z" fill="white"/>
<path d="M125.06 119.744C124.497 119.744 124.336 119.373 124.127 119.213L121.406 116.526C121.068 116.188 121.004 115.962 121.004 115.399V100.821C121.004 100.355 121.133 100.065 121.439 99.6951L124.127 97.0081C124.288 96.815 124.561 96.5093 125.06 96.5093H135.218C135.717 96.5093 135.991 96.815 136.152 97.0081L138.84 99.6951C139.146 100.065 139.274 100.355 139.274 100.821V115.399C139.274 115.962 139.21 116.204 138.872 116.526L136.152 119.213C135.958 119.373 135.781 119.744 135.218 119.744H125.06ZM126.654 100.805L125.656 101.803V114.434L126.654 115.431H133.64L134.638 114.434V101.803L133.64 100.805H126.654V100.805Z" fill="white"/>
<path d="M150.27 110.83L145.924 115.753V119.341C145.924 119.566 145.763 119.743 145.521 119.743H141.674C141.449 119.743 141.271 119.583 141.271 119.341V114.466C141.271 114.128 141.368 113.903 141.577 113.694L147.067 107.708L141.577 101.658C141.384 101.465 141.271 101.224 141.271 100.886V96.8632C141.271 96.6379 141.432 96.4609 141.674 96.4609H145.521C145.747 96.4609 145.924 96.6218 145.924 96.8632V99.2928L150.576 104.474L154.89 99.6307V96.8793C154.89 96.654 155.051 96.477 155.292 96.477H159.14C159.365 96.477 159.542 96.6379 159.542 96.8793V100.902C159.542 101.208 159.268 101.465 159.075 101.674L153.393 107.692L159.236 113.71C159.429 113.903 159.542 114.144 159.542 114.482V119.357C159.542 119.583 159.381 119.76 159.14 119.76H155.292C155.067 119.76 154.89 119.599 154.89 119.357V116.075L150.27 110.83Z" fill="white"/>
</g>
<defs>
<linearGradient id="paint0_linear_491_6904" x1="106.503" y1="1.76864" x2="106.503" y2="205.864" gradientUnits="userSpaceOnUse">
<stop stop-color="#43E8E1"/>
<stop offset="1" stop-color="#7B35D3"/>
</linearGradient>
<clipPath id="clip0_491_6904">
<rect width="213" height="214" fill="white"/>
</clipPath>
</defs>
</svg>
